<?xml version="1.0" encoding="UTF-8"?>
<svg viewBox="-24.1 -24.1 68.2 48.2" height="48.2mm" width="68.2mm" xmlns:svgjs="http://svgjs.com/svgjs" xmlns:xlink="http://www.w3.org/1999/xlink" version="1.1" xmlns="http://www.w3.org/2000/svg" id="SvgjsSvg1073">
  <defs id="SvgjsDefs1074">
  </defs>
  <defs id="SvgjsDefs1074">
  </defs>
  <g id="SvgjsG1075">
    <g transform="matrix(1,0,0,1,30,0)" id="SvgjsG1076">
      <g fill="none" stroke-width="0.04" stroke="blue" id="SvgjsG1077">
      </g>
      <g fill="none" stroke-width="0.1" stroke="black" id="SvgjsG1078">
        <circle cy="0" cx="0" r="1" id="SvgjsCircle1079">
        </circle>
        <path d="M-9.835457830501 4.509893516939901  L-9.705383699822821 4.336239150371375 L-9.579361903416238 4.181923529546852 L-9.457658824414303 4.044961827011258 L-9.340776990790555 3.924066306131655 L-9.232034900170238 3.8206411654379004 L-9.130564057712704 3.731922763000988 L-9.039804197836995 3.659039250905718 L-8.958951749820642 3.599447860170448 L-8.889523572433728 3.552589985861741 L-8.785193746507778 3.4909220531717167 L-8.678584819834947 3.4397957854254084 L-8.581598896040472 3.3849091432824228 L-8.504342074513225 3.32865205459569 L-8.47308976393092 3.3005070446779943 L-8.446725072028274 3.272593732067728 L-8.42523374823222 3.245117778917868 L-8.408573010274218 3.218275576871561 L-8.396709346395545 3.1922349858764663 L-8.389596884157708 3.167201908140891 L-8.387186420896938 3.1433601345728768 L-8.389428753949469 3.1208934560804615 L-8.394124760394536 3.105049125123685 L-8.44461497715543 2.9650598997831676 L-8.511955820841623 2.7657020996557793 L-8.574655508728297 2.5648362965958413 L-8.61609166745406 2.4219052294688757 L-8.621605582503141 2.406326653127261 L-8.632997079242433 2.3868327181207336 L-8.648961027876489 2.368961152884043 L-8.66942920461121 2.352889567985341 L-8.694333385652506 2.338795573992781 L-8.723589656301233 2.326872712434897 L-8.75712646253802 2.3172764825795724 L-8.794862979833665 2.3101909153901765 L-8.836689851963481 2.3057907713202526 L-8.932259020577387 2.3056882508513343 L-9.042983839941774 2.3182909202798374 L-9.159283539558201 2.3395920556751295 L-9.279935643127036 2.3510251831744435 L-9.363646585993962 2.353925225299989 L-9.464084531113796 2.3532386540324723 L-9.580350653705214 2.3476219612727403 L-9.714589658246268 2.3354903307217145 L-9.863355629978027 2.315734631424921 L-10.028975623954594 2.286629518554453 L-10.207939552014206 2.2473604486205545 L-10.400597773087803 2.19659024227119 L-10.607901431000169 2.1325565642872317 L-10.804817684753354 2.0629049941837856 A11 11 0 0 1 -10.913464967449535 1.3769330484954558 L-10.74771 1.2498400000000007 L-10.57034 1.1248800000000008 L-10.4028 1.0170600000000007 L-10.24473 0.9244100000000006 L-10.09621 0.8455500000000007 L-9.96083 0.7807900000000005 L-9.83691 0.7277700000000006 L-9.72807 0.6865000000000006 L-9.63276 0.6548100000000006 L-9.55225 0.6317000000000006 L-9.43397 0.6052900000000005 L-9.31678 0.5896100000000005 L-9.20758 0.5673800000000006 L-9.11672 0.5377500000000005 L-9.0783 0.5206400000000005 L-9.0446 0.5022400000000006 L-9.01567 0.48275000000000057 L-8.99153 0.46237000000000056 L-8.9722 0.44127000000000055 L-8.9577 0.41966000000000053 L-8.94804 0.3977300000000005 L-8.94323 0.37567000000000056 L-8.9428 0.3591500000000006 L-8.94756 0.21041000000000057 L-8.95 5.480294426184405e-16 L-8.94756 -0.21040999999999946 L-8.9428 -0.35914999999999947 L-8.94323 -0.37566999999999945 L-8.94804 -0.3977299999999994 L-8.9577 -0.4196599999999994 L-8.9722 -0.44126999999999944 L-8.99153 -0.46236999999999945 L-9.01567 -0.48274999999999946 L-9.0446 -0.5022399999999995 L-9.0783 -0.5206399999999994 L-9.11672 -0.5377499999999994 L-9.20758 -0.5673799999999994 L-9.31678 -0.5896099999999994 L-9.43397 -0.6052899999999994 L-9.55225 -0.6316999999999995 L-9.63276 -0.6548099999999994 L-9.72807 -0.6864999999999994 L-9.83691 -0.7277699999999995 L-9.96083 -0.7807899999999994 L-10.09621 -0.8455499999999994 L-10.24473 -0.9244099999999993 L-10.4028 -1.0170599999999994 L-10.57034 -1.1248799999999994 L-10.74771 -1.2498399999999994 L-10.913464967449535 -1.3769330484954545 A11 11 0 0 1 -10.804817684753356 -2.0629049941837847 L-10.60790143100017 -2.1325565642872304 L-10.400597773087805 -2.1965902422711885 L-10.207939552014208 -2.2473604486205527 L-10.028975623954596 -2.2866295185544514 L-9.86335562997803 -2.3157346314249194 L-9.71458965824627 -2.3354903307217136 L-9.580350653705214 -2.3476219612727394 L-9.464084531113796 -2.353238654032471 L-9.363646585993964 -2.353925225299988 L-9.279935643127036 -2.351025183174442 L-9.159283539558203 -2.3395920556751286 L-9.042983839941774 -2.318290920279836 L-8.932259020577389 -2.3056882508513334 L-8.836689851963481 -2.3057907713202512 L-8.794862979833667 -2.3101909153901756 L-8.75712646253802 -2.3172764825795706 L-8.723589656301234 -2.3268727124348962 L-8.694333385652506 -2.3387955739927797 L-8.66942920461121 -2.3528895679853403 L-8.648961027876489 -2.368961152884042 L-8.632997079242434 -2.3868327181207323 L-8.621605582503143 -2.4063266531272602 L-8.616091667454063 -2.4219052294688743 L-8.574655508728299 -2.5648362965958404 L-8.511955820841624 -2.7657020996557784 L-8.444614977155432 -2.9650598997831668 L-8.394124760394538 -3.1050491251236836 L-8.38942875394947 -3.1208934560804606 L-8.38718642089694 -3.1433601345728754 L-8.389596884157708 -3.16720190814089 L-8.396709346395545 -3.1922349858764654 L-8.408573010274218 -3.2182755768715605 L-8.425233748232221 -3.245117778917867 L-8.446725072028274 -3.272593732067727 L-8.473089763930922 -3.3005070446779934 L-8.504342074513225 -3.328652054595689 L-8.581598896040473 -3.384909143282422 L-8.678584819834947 -3.439795785425407 L-8.78519374650778 -3.4909220531717158 L-8.889523572433728 -3.5525899858617396 L-8.958951749820644 -3.5994478601704474 L-9.039804197836995 -3.6590392509057175 L-9.130564057712704 -3.7319227630009872 L-9.23203490017024 -3.8206411654378996 L-9.340776990790557 -3.924066306131654 L-9.457658824414304 -4.0449618270112575 L-9.57936190341624 -4.181923529546851 L-9.705383699822823 -4.336239150371373 L-9.835457830501001 -4.5098935169399 L-9.953826260550159 -4.681987290731291 A11 11 0 0 1 -9.638519565482051 -5.300811522928064 L-9.42971756033879 -5.306203633666751 L-9.21277257092004 -5.303042927084728 L-9.013854857780284 -5.2917935982491535 L-8.831515237854541 -5.273837807948123 L-8.66500728885419 -5.250339022454052 L-8.517417595217248 -5.223156595554419 L-8.385999835197758 -5.193212328132095 L-8.27368852816788 -5.162625912630436 L-8.177954203788852 -5.132241848786183 L-8.099236528391248 -5.103615640864121 L-7.988022589783535 -5.055458540044411 L-7.883997415456788 -4.999261372800054 L-7.782586293512582 -4.953059671034671 L-7.691662932378248 -4.923624676554707 L-7.650523493787639 -4.914884247935386 L-7.612444372435022 -4.909961797629629 L-7.577583576220573 -4.908724911501174 L-7.546074842534641 -4.911023541856196 L-7.518034275210003 -4.916731911510694 L-7.493601489489527 -4.925691882600896 L-7.47289625474109 -4.937755619750393 L-7.456038340332574 -4.952775287582777 L-7.445980250657121 -4.965887500671366 L-7.362403993124364 -5.089018546215607 L-7.240702099655779 -5.260678008017633 L-7.1150522032546455 -5.429469077788472 L-7.023774103935438 -5.54700440773089 L-7.0144117688751475 -5.560622116136449 L-7.00533659795252 -5.581296278095889 L-7.000261571535408 -5.604716026319677 L-6.999290278651805 -5.630721769726359 L-7.0025263083297 -5.659153917234484 L-7.010076915132191 -5.6898308195701865 L-7.022025842212279 -5.7226031881393755 L-7.038474466280532 -5.757297463838131 L-7.059499893537694 -5.793722454004963 L-7.115591100621176 -5.8710997955715865 L-7.1908692902484574 -5.953270392906879 L-7.276461519063313 -6.034838333094834 L-7.356628640644938 -6.12572771155743 L-7.408178881681584 -6.191746684959501 L-7.4666593767703135 -6.27340624590724 L-7.530454889075972 -6.370768924124606 L-7.5995439009423675 -6.486501353630449 L-7.671003648702388 -6.6184676616415254 L-7.744806107711171 -6.769564607488412 L-7.8182291203871195 -6.937431246847122 L-7.890396821722525 -7.12313700034971 L-7.960442520888342 -7.3284872341659195 L-8.019837686882562 -7.528735995626717 A11 11 0 0 1 -7.52873599562672 -8.019837686882559 L-7.328487234165921 -7.96044252088834 L-7.123137000349713 -7.890396821722524 L-6.937431246847124 -7.8182291203871195 L-6.769564607488414 -7.744806107711169 L-6.618467661641527 -7.671003648702386 L-6.486501353630452 -7.5995439009423675 L-6.370768924124609 -7.530454889075969 L-6.273406245907243 -7.466659376770311 L-6.191746684959503 -7.408178881681583 L-6.125727711557433 -7.356628640644937 L-6.034838333094836 -7.276461519063311 L-5.953270392906881 -7.190869290248457 L-5.871099795571588 -7.115591100621174 L-5.793722454004966 -7.059499893537693 L-5.757297463838133 -7.038474466280531 L-5.722603188139377 -7.022025842212278 L-5.689830819570188 -7.01007691513219 L-5.659153917234486 -7.002526308329699 L-5.630721769726362 -6.999290278651803 L-5.604716026319679 -7.0002615715354075 L-5.58129627809589 -7.005336597952518 L-5.560622116136451 -7.014411768875147 L-5.547004407730892 -7.0237741039354376 L-5.4294690777884735 -7.115052203254645 L-5.260678008017635 -7.2407020996557785 L-5.089018546215609 -7.362403993124363 L-4.965887500671368 -7.44598025065712 L-4.952775287582779 -7.456038340332573 L-4.937755619750395 -7.47289625474109 L-4.925691882600898 -7.493601489489526 L-4.916731911510697 -7.518034275210003 L-4.911023541856197 -7.54607484253464 L-4.908724911501176 -7.577583576220572 L-4.909961797629631 -7.6124443724350215 L-4.914884247935388 -7.650523493787638 L-4.923624676554709 -7.6916629323782475 L-4.953059671034673 -7.782586293512582 L-4.9992613728000554 -7.883997415456787 L-5.0554585400444125 -7.988022589783533 L-5.103615640864124 -8.099236528391247 L-5.132241848786185 -8.177954203788852 L-5.162625912630439 -8.273688528167877 L-5.193212328132097 -8.385999835197756 L-5.223156595554421 -8.517417595217248 L-5.250339022454054 -8.665007288854188 L-5.273837807948125 -8.83151523785454 L-5.291793598249157 -9.013854857780284 L-5.30304292708473 -9.21277257092004 L-5.306203633666753 -9.42971756033879 L-5.300811522928067 -9.638519565482051 A11 11 0 0 1 -4.681987290731293 -9.953826260550157 L-4.5098935169399015 -9.835457830501 L-4.336239150371375 -9.705383699822821 L-4.181923529546853 -9.579361903416238 L-4.044961827011259 -9.457658824414303 L-3.924066306131656 -9.340776990790555 L-3.8206411654379013 -9.232034900170238 L-3.7319227630009886 -9.130564057712704 L-3.659039250905719 -9.039804197836995 L-3.5994478601704483 -8.958951749820642 L-3.5525899858617414 -8.889523572433728 L-3.490922053171717 -8.785193746507778 L-3.439795785425409 -8.678584819834947 L-3.384909143282423 -8.581598896040472 L-3.3286520545956906 -8.504342074513225 L-3.300507044677995 -8.47308976393092 L-3.2725937320677287 -8.446725072028274 L-3.2451177789178685 -8.42523374823222 L-3.2182755768715614 -8.408573010274218 L-3.1922349858764667 -8.396709346395545 L-3.1672019081408918 -8.389596884157708 L-3.1433601345728768 -8.387186420896938 L-3.120893456080462 -8.389428753949469 L-3.105049125123685 -8.394124760394536 L-2.965059899783168 -8.44461497715543 L-2.76570209965578 -8.511955820841623 L-2.564836296595842 -8.574655508728297 L-2.4219052294688765 -8.61609166745406 L-2.4063266531272616 -8.621605582503141 L-2.3868327181207345 -8.632997079242433 L-2.3689611528840437 -8.648961027876489 L-2.3528895679853417 -8.66942920461121 L-2.3387955739927815 -8.694333385652506 L-2.3268727124348976 -8.723589656301233 L-2.3172764825795724 -8.75712646253802 L-2.3101909153901774 -8.794862979833665 L-2.305790771320253 -8.836689851963481 L-2.3056882508513348 -8.932259020577387 L-2.318290920279838 -9.042983839941774 L-2.33959205567513 -9.159283539558201 L-2.351025183174444 -9.279935643127036 L-2.3539252252999896 -9.363646585993962 L-2.3532386540324732 -9.464084531113796 L-2.3476219612727407 -9.580350653705214 L-2.3354903307217154 -9.714589658246268 L-2.315734631424921 -9.863355629978027 L-2.286629518554453 -10.028975623954594 L-2.2473604486205545 -10.207939552014206 L-2.1965902422711903 -10.400597773087803 L-2.132556564287232 -10.607901431000169 L-2.0629049941837865 -10.804817684753354 A11 11 0 0 1 -1.3769330484954565 -10.913464967449535 L-1.2498400000000014 -10.74771 L-1.1248800000000014 -10.57034 L-1.0170600000000014 -10.4028 L-0.9244100000000012 -10.24473 L-0.8455500000000012 -10.09621 L-0.7807900000000012 -9.96083 L-0.7277700000000012 -9.83691 L-0.6865000000000012 -9.72807 L-0.6548100000000012 -9.63276 L-0.6317000000000013 -9.55225 L-0.6052900000000011 -9.43397 L-0.5896100000000011 -9.31678 L-0.5673800000000011 -9.20758 L-0.5377500000000011 -9.11672 L-0.5206400000000011 -9.0783 L-0.5022400000000011 -9.0446 L-0.4827500000000011 -9.01567 L-0.4623700000000011 -8.99153 L-0.4412700000000011 -8.9722 L-0.4196600000000011 -8.9577 L-0.3977300000000011 -8.94804 L-0.3756700000000011 -8.94323 L-0.35915000000000114 -8.9428 L-0.2104100000000011 -8.94756 L-1.096058885236881e-15 -8.95 L0.21040999999999893 -8.94756 L0.3591499999999989 -8.9428 L0.3756699999999989 -8.94323 L0.39772999999999886 -8.94804 L0.41965999999999887 -8.9577 L0.4412699999999989 -8.9722 L0.4623699999999989 -8.99153 L0.4827499999999989 -9.01567 L0.5022399999999989 -9.0446 L0.5206399999999989 -9.0783 L0.5377499999999988 -9.11672 L0.5673799999999989 -9.20758 L0.5896099999999989 -9.31678 L0.6052899999999989 -9.43397 L0.6316999999999988 -9.55225 L0.6548099999999988 -9.63276 L0.6864999999999988 -9.72807 L0.7277699999999988 -9.83691 L0.7807899999999988 -9.96083 L0.8455499999999988 -10.09621 L0.9244099999999987 -10.24473 L1.0170599999999987 -10.4028 L1.1248799999999988 -10.57034 L1.2498399999999987 -10.74771 L1.3769330484954538 -10.913464967449535 A11 11 0 0 1 2.062904994183784 -10.804817684753356 L2.1325565642872295 -10.60790143100017 L2.1965902422711876 -10.400597773087805 L2.2473604486205523 -10.207939552014208 L2.286629518554451 -10.028975623954596 L2.315734631424919 -9.86335562997803 L2.335490330721713 -9.71458965824627 L2.3476219612727385 -9.580350653705214 L2.353238654032471 -9.464084531113796 L2.353925225299988 -9.363646585993964 L2.3510251831744418 -9.279935643127036 L2.339592055675128 -9.159283539558203 L2.3182909202798356 -9.042983839941774 L2.305688250851333 -8.932259020577389 L2.305790771320251 -8.836689851963481 L2.310190915390175 -8.794862979833667 L2.31727648257957 -8.75712646253802 L2.3268727124348954 -8.723589656301234 L2.3387955739927797 -8.694333385652506 L2.35288956798534 -8.66942920461121 L2.3689611528840415 -8.648961027876489 L2.386832718120732 -8.632997079242434 L2.4063266531272594 -8.621605582503143 L2.421905229468874 -8.616091667454063 L2.56483629659584 -8.574655508728299 L2.765702099655778 -8.511955820841624 L2.9650598997831663 -8.444614977155432 L3.105049125123683 -8.394124760394538 L3.1208934560804598 -8.38942875394947 L3.143360134572875 -8.38718642089694 L3.1672019081408895 -8.389596884157708 L3.192234985876465 -8.396709346395545 L3.2182755768715596 -8.408573010274218 L3.2451177789178662 -8.425233748232221 L3.2725937320677265 -8.446725072028274 L3.300507044677993 -8.473089763930922 L3.3286520545956884 -8.504342074513225 L3.3849091432824214 -8.581598896040473 L3.4397957854254066 -8.678584819834947 L3.4909220531717153 -8.78519374650778 L3.552589985861739 -8.889523572433728 L3.5994478601704465 -8.958951749820644 L3.6590392509057166 -9.039804197836995 L3.7319227630009864 -9.130564057712704 L3.820641165437899 -9.23203490017024 L3.9240663061316536 -9.340776990790557 L4.044961827011257 -9.457658824414304 L4.18192352954685 -9.57936190341624 L4.336239150371373 -9.705383699822823 L4.5098935169399 -9.835457830501001 L4.681987290731291 -9.953826260550159 A11 11 0 0 1 5.300811522928064 -9.638519565482051 L5.306203633666751 -9.42971756033879 L5.303042927084728 -9.21277257092004 L5.2917935982491535 -9.013854857780284 L5.273837807948123 -8.831515237854541 L5.250339022454052 -8.66500728885419 L5.223156595554419 -8.517417595217248 L5.193212328132095 -8.385999835197758 L5.162625912630436 -8.27368852816788 L5.132241848786183 -8.177954203788852 L5.103615640864121 -8.099236528391248 L5.055458540044411 -7.988022589783535 L4.999261372800054 -7.883997415456788 L4.953059671034671 -7.782586293512582 L4.923624676554707 -7.691662932378248 L4.914884247935386 -7.650523493787639 L4.909961797629629 -7.612444372435022 L4.908724911501174 -7.577583576220573 L4.911023541856196 -7.546074842534641 L4.916731911510694 -7.518034275210003 L4.925691882600896 -7.493601489489527 L4.937755619750393 -7.47289625474109 L4.952775287582777 -7.456038340332574 L4.965887500671366 -7.445980250657121 L5.089018546215607 -7.362403993124364 L5.260678008017633 -7.240702099655779 L5.429469077788472 -7.1150522032546455 L5.54700440773089 -7.023774103935438 L5.560622116136449 -7.0144117688751475 L5.581296278095889 -7.00533659795252 L5.604716026319677 -7.000261571535408 L5.630721769726359 -6.999290278651805 L5.659153917234484 -7.0025263083297 L5.6898308195701865 -7.010076915132191 L5.7226031881393755 -7.022025842212279 L5.757297463838131 -7.038474466280532 L5.793722454004963 -7.059499893537694 L5.8710997955715865 -7.115591100621176 L5.953270392906879 -7.1908692902484574 L6.034838333094834 -7.276461519063313 L6.12572771155743 -7.356628640644938 L6.191746684959501 -7.408178881681584 L6.27340624590724 -7.4666593767703135 L6.370768924124606 -7.530454889075972 L6.486501353630449 -7.5995439009423675 L6.6184676616415254 -7.671003648702388 L6.769564607488412 -7.744806107711171 L6.937431246847122 -7.8182291203871195 L7.12313700034971 -7.890396821722525 L7.3284872341659195 -7.960442520888342 L7.528735995626717 -8.019837686882562 A11 11 0 0 1 8.019837686882559 -7.52873599562672 L7.96044252088834 -7.328487234165921 L7.890396821722524 -7.123137000349713 L7.8182291203871195 -6.937431246847124 L7.744806107711169 -6.769564607488414 L7.671003648702386 -6.618467661641527 L7.5995439009423675 -6.486501353630452 L7.530454889075969 -6.370768924124609 L7.466659376770311 -6.273406245907243 L7.408178881681583 -6.191746684959503 L7.356628640644937 -6.125727711557433 L7.276461519063311 -6.034838333094836 L7.190869290248457 -5.953270392906881 L7.115591100621174 -5.871099795571588 L7.059499893537693 -5.793722454004966 L7.038474466280531 -5.757297463838133 L7.022025842212278 -5.722603188139377 L7.01007691513219 -5.689830819570188 L7.002526308329699 -5.659153917234486 L6.999290278651803 -5.630721769726362 L7.0002615715354075 -5.604716026319679 L7.005336597952518 -5.58129627809589 L7.014411768875147 -5.560622116136451 L7.0237741039354376 -5.547004407730892 L7.115052203254645 -5.4294690777884735 L7.2407020996557785 -5.260678008017635 L7.362403993124363 -5.089018546215609 L7.44598025065712 -4.965887500671368 L7.456038340332573 -4.952775287582779 L7.47289625474109 -4.937755619750395 L7.493601489489526 -4.925691882600898 L7.518034275210003 -4.916731911510697 L7.54607484253464 -4.911023541856197 L7.577583576220572 -4.908724911501176 L7.6124443724350215 -4.909961797629631 L7.650523493787638 -4.914884247935388 L7.6916629323782475 -4.923624676554709 L7.782586293512582 -4.953059671034673 L7.883997415456787 -4.9992613728000554 L7.988022589783533 -5.0554585400444125 L8.099236528391247 -5.103615640864124 L8.177954203788852 -5.132241848786185 L8.273688528167877 -5.162625912630439 L8.385999835197756 -5.193212328132097 L8.517417595217248 -5.223156595554421 L8.665007288854188 -5.250339022454054 L8.83151523785454 -5.273837807948125 L9.013854857780284 -5.291793598249157 L9.21277257092004 -5.30304292708473 L9.42971756033879 -5.306203633666753 L9.638519565482051 -5.300811522928067 A11 11 0 0 1 9.953826260550157 -4.681987290731294 L9.835457830501 -4.509893516939902 L9.705383699822821 -4.336239150371375 L9.579361903416238 -4.181923529546853 L9.457658824414303 -4.044961827011259 L9.340776990790555 -3.924066306131656 L9.232034900170238 -3.8206411654379018 L9.130564057712704 -3.731922763000989 L9.039804197836995 -3.6590392509057192 L8.958951749820642 -3.599447860170449 L8.889523572433728 -3.552589985861742 L8.785193746507778 -3.4909220531717176 L8.678584819834947 -3.4397957854254093 L8.581598896040472 -3.384909143282424 L8.504342074513225 -3.328652054595691 L8.47308976393092 -3.3005070446779956 L8.446725072028274 -3.2725937320677287 L8.42523374823222 -3.245117778917869 L8.408573010274218 -3.218275576871562 L8.396709346395545 -3.192234985876467 L8.389596884157708 -3.167201908140892 L8.387186420896938 -3.1433601345728777 L8.389428753949469 -3.1208934560804624 L8.394124760394536 -3.105049125123686 L8.44461497715543 -2.9650598997831685 L8.511955820841623 -2.7657020996557806 L8.574655508728297 -2.5648362965958422 L8.61609166745406 -2.4219052294688765 L8.621605582503141 -2.406326653127262 L8.632997079242433 -2.3868327181207345 L8.648961027876489 -2.368961152884044 L8.66942920461121 -2.352889567985342 L8.694333385652506 -2.338795573992782 L8.723589656301233 -2.326872712434898 L8.75712646253802 -2.3172764825795733 L8.794862979833665 -2.310190915390178 L8.836689851963481 -2.3057907713202535 L8.932259020577387 -2.3056882508513357 L9.042983839941774 -2.3182909202798383 L9.159283539558201 -2.3395920556751304 L9.279935643127036 -2.3510251831744444 L9.363646585993962 -2.3539252252999905 L9.464084531113796 -2.3532386540324737 L9.580350653705214 -2.347621961272741 L9.714589658246268 -2.335490330721716 L9.863355629978027 -2.315734631424922 L10.028975623954594 -2.286629518554454 L10.207939552014206 -2.2473604486205554 L10.400597773087803 -2.1965902422711907 L10.607901431000169 -2.132556564287233 L10.804817684753354 -2.0629049941837865 A11 11 0 0 1 10.913464967449535 -1.3769330484954572 L10.74771 -1.249840000000002 L10.57034 -1.124880000000002 L10.4028 -1.017060000000002 L10.24473 -0.9244100000000018 L10.09621 -0.8455500000000019 L9.96083 -0.7807900000000018 L9.83691 -0.7277700000000018 L9.72807 -0.6865000000000018 L9.63276 -0.6548100000000018 L9.55225 -0.6317000000000018 L9.43397 -0.6052900000000018 L9.31678 -0.5896100000000016 L9.20758 -0.5673800000000017 L9.11672 -0.5377500000000016 L9.0783 -0.5206400000000017 L9.0446 -0.5022400000000017 L9.01567 -0.4827500000000017 L8.99153 -0.46237000000000167 L8.9722 -0.44127000000000166 L8.9577 -0.41966000000000164 L8.94804 -0.39773000000000164 L8.94323 -0.37567000000000167 L8.9428 -0.3591500000000017 L8.94756 -0.21041000000000165 L8.95 -1.6440883278553215e-15 L8.94756 0.21040999999999838 L8.9428 0.35914999999999836 L8.94323 0.37566999999999834 L8.94804 0.3977299999999983 L8.9577 0.4196599999999983 L8.9722 0.44126999999999833 L8.99153 0.46236999999999834 L9.01567 0.48274999999999835 L9.0446 0.5022399999999984 L9.0783 0.5206399999999983 L9.11672 0.5377499999999983 L9.20758 0.5673799999999983 L9.31678 0.5896099999999983 L9.43397 0.6052899999999982 L9.55225 0.6316999999999983 L9.63276 0.6548099999999982 L9.72807 0.6864999999999982 L9.83691 0.7277699999999983 L9.96083 0.7807899999999982 L10.09621 0.8455499999999981 L10.24473 0.9244099999999981 L10.4028 1.017059999999998 L10.57034 1.124879999999998 L10.74771 1.249839999999998 L10.913464967449535 1.3769330484954532 A11 11 0 0 1 10.804817684753356 2.062904994183783 L10.60790143100017 2.1325565642872295 L10.400597773087805 2.1965902422711867 L10.207939552014208 2.2473604486205514 L10.028975623954596 2.28662951855445 L9.86335562997803 2.3157346314249185 L9.71458965824627 2.3354903307217127 L9.580350653705214 2.347621961272738 L9.464084531113796 2.35323865403247 L9.363646585993964 2.353925225299987 L9.279935643127036 2.3510251831744413 L9.159283539558203 2.3395920556751273 L9.042983839941773 2.318290920279835 L8.932259020577389 2.3056882508513326 L8.836689851963481 2.3057907713202503 L8.794862979833667 2.3101909153901747 L8.75712646253802 2.3172764825795698 L8.723589656301234 2.326872712434895 L8.694333385652506 2.338795573992779 L8.66942920461121 2.3528895679853394 L8.648961027876489 2.368961152884041 L8.632997079242434 2.3868327181207314 L8.621605582503143 2.406326653127259 L8.616091667454063 2.4219052294688734 L8.574655508728299 2.5648362965958396 L8.511955820841624 2.7657020996557775 L8.444614977155432 2.965059899783166 L8.394124760394538 3.1050491251236827 L8.38942875394947 3.1208934560804593 L8.38718642089694 3.1433601345728746 L8.389596884157708 3.167201908140889 L8.396709346395545 3.1922349858764645 L8.408573010274218 3.2182755768715587 L8.425233748232221 3.245117778917866 L8.446725072028274 3.272593732067726 L8.473089763930922 3.3005070446779925 L8.504342074513225 3.328652054595688 L8.581598896040473 3.384909143282421 L8.67858481983495 3.439795785425406 L8.78519374650778 3.4909220531717144 L8.889523572433728 3.5525899858617387 L8.958951749820644 3.5994478601704456 L9.039804197836995 3.6590392509057157 L9.130564057712704 3.731922763000986 L9.23203490017024 3.8206411654378987 L9.340776990790557 3.924066306131653 L9.457658824414304 4.044961827011256 L9.57936190341624 4.181923529546849 L9.705383699822823 4.336239150371372 L9.835457830501001 4.509893516939899 L9.953826260550159 4.68198729073129 A11 11 0 0 1 9.638519565482053 5.300811522928063 L9.42971756033879 5.306203633666749 L9.212772570920041 5.303042927084727 L9.013854857780286 5.291793598249153 L8.831515237854541 5.273837807948121 L8.665007288854188 5.250339022454051 L8.51741759521725 5.223156595554418 L8.385999835197758 5.193212328132094 L8.27368852816788 5.1626259126304355 L8.177954203788854 5.132241848786181 L8.099236528391248 5.1036156408641205 L7.988022589783536 5.055458540044409 L7.883997415456789 4.999261372800053 L7.7825862935125825 4.95305967103467 L7.691662932378249 4.923624676554706 L7.65052349378764 4.914884247935385 L7.612444372435023 4.909961797629627 L7.577583576220575 4.9087249115011735 L7.546074842534642 4.911023541856195 L7.518034275210004 4.916731911510693 L7.493601489489528 4.925691882600895 L7.472896254741091 4.9377556197503925 L7.456038340332576 4.952775287582776 L7.445980250657122 4.965887500671365 L7.3624039931243646 5.0890185462156055 L7.24070209965578 5.260678008017632 L7.115052203254646 5.429469077788472 L7.023774103935439 5.547004407730889 L7.014411768875149 5.560622116136448 L7.005336597952521 5.581296278095888 L7.000261571535409 5.604716026319676 L6.999290278651806 5.6307217697263585 L7.002526308329701 5.659153917234483 L7.010076915132193 5.689830819570186 L7.02202584221228 5.7226031881393755 L7.038474466280533 5.75729746383813 L7.059499893537695 5.793722454004962 L7.1155911006211765 5.871099795571586 L7.190869290248458 5.953270392906878 L7.2764615190633135 6.034838333094832 L7.356628640644939 6.125727711557429 L7.408178881681585 6.191746684959501 L7.466659376770314 6.273406245907239 L7.530454889075973 6.370768924124605 L7.599543900942369 6.486501353630448 L7.671003648702388 6.618467661641525 L7.744806107711172 6.769564607488412 L7.818229120387121 6.9374312468471215 L7.890396821722526 7.123137000349709 L7.960442520888343 7.328487234165918 L8.019837686882564 7.528735995626716 A11 11 0 0 1 7.528735995626721 8.019837686882559 L7.328487234165923 7.96044252088834 L7.123137000349713 7.890396821722524 L6.937431246847126 7.818229120387119 L6.769564607488416 7.744806107711169 L6.618467661641529 7.671003648702386 L6.4865013536304525 7.599543900942367 L6.37076892412461 7.530454889075969 L6.273406245907243 7.466659376770311 L6.191746684959504 7.408178881681582 L6.125727711557434 7.356628640644936 L6.034838333094837 7.276461519063311 L5.953270392906883 7.190869290248457 L5.87109979557159 7.115591100621174 L5.793722454004967 7.0594998935376925 L5.757297463838134 7.038474466280531 L5.722603188139378 7.022025842212278 L5.689830819570189 7.01007691513219 L5.6591539172344865 7.002526308329699 L5.630721769726363 6.999290278651803 L5.60471602631968 7.0002615715354075 L5.581296278095891 7.005336597952518 L5.560622116136453 7.014411768875147 L5.547004407730893 7.0237741039354376 L5.429469077788474 7.115052203254645 L5.260678008017636 7.2407020996557785 L5.08901854621561 7.362403993124363 L4.965887500671369 7.44598025065712 L4.952775287582781 7.456038340332573 L4.937755619750396 7.47289625474109 L4.925691882600899 7.493601489489526 L4.9167319115106976 7.518034275210003 L4.911023541856198 7.54607484253464 L4.908724911501177 7.577583576220572 L4.909961797629632 7.6124443724350215 L4.9148842479353885 7.650523493787638 L4.92362467655471 7.691662932378248 L4.953059671034675 7.782586293512582 L4.999261372800057 7.883997415456787 L5.055458540044413 7.988022589783533 L5.103615640864125 8.099236528391247 L5.132241848786187 8.177954203788852 L5.162625912630441 8.273688528167877 L5.193212328132098 8.385999835197756 L5.223156595554422 8.517417595217248 L5.250339022454056 8.665007288854188 L5.2738378079481265 8.83151523785454 L5.291793598249157 9.013854857780284 L5.303042927084732 9.21277257092004 L5.306203633666755 9.42971756033879 L5.3008115229280675 9.638519565482051 A11 11 0 0 1 4.6819872907312945 9.953826260550155 L4.509893516939903 9.835457830501 L4.336239150371377 9.705383699822821 L4.181923529546855 9.579361903416238 L4.044961827011261 9.457658824414303 L3.9240663061316576 9.340776990790554 L3.8206411654379027 9.232034900170238 L3.7319227630009904 9.130564057712704 L3.65903925090572 9.039804197836993 L3.59944786017045 8.958951749820642 L3.5525899858617427 8.889523572433728 L3.490922053171719 8.785193746507778 L3.43979578542541 8.678584819834947 L3.384909143282425 8.581598896040472 L3.328652054595692 8.504342074513225 L3.3005070446779965 8.47308976393092 L3.2725937320677296 8.446725072028274 L3.24511777891787 8.42523374823222 L3.2182755768715627 8.408573010274218 L3.1922349858764685 8.396709346395545 L3.167201908140893 8.389596884157708 L3.1433601345728786 8.387186420896938 L3.1208934560804633 8.389428753949469 L3.1050491251236867 8.394124760394536 L2.96505989978317 8.44461497715543 L2.7657020996557815 8.511955820841623 L2.5648362965958436 8.574655508728297 L2.4219052294688774 8.61609166745406 L2.406326653127263 8.621605582503141 L2.3868327181207354 8.632997079242433 L2.368961152884045 8.648961027876489 L2.3528895679853434 8.66942920461121 L2.338795573992783 8.694333385652506 L2.326872712434899 8.723589656301233 L2.317276482579574 8.75712646253802 L2.3101909153901787 8.794862979833665 L2.3057907713202543 8.836689851963481 L2.3056882508513366 8.932259020577387 L2.318290920279839 9.042983839941774 L2.3395920556751317 9.159283539558201 L2.3510251831744453 9.279935643127036 L2.3539252252999914 9.363646585993962 L2.3532386540324746 9.464084531113798 L2.3476219612727425 9.580350653705214 L2.3354903307217167 9.714589658246268 L2.315734631424923 9.86335562997803 L2.286629518554455 10.028975623954594 L2.2473604486205563 10.207939552014206 L2.196590242271192 10.400597773087803 L2.132556564287234 10.607901431000169 L2.0629049941837883 10.804817684753356 A11 11 0 0 1 1.3769330484954578 10.913464967449535 L1.2498400000000027 10.74771 L1.1248800000000028 10.57034 L1.0170600000000025 10.4028 L0.9244100000000025 10.24473 L0.8455500000000025 10.09621 L0.7807900000000024 9.96083 L0.7277700000000025 9.83691 L0.6865000000000023 9.72807 L0.6548100000000023 9.63276 L0.6317000000000024 9.55225 L0.6052900000000023 9.43397 L0.5896100000000023 9.31678 L0.5673800000000022 9.20758 L0.5377500000000022 9.11672 L0.5206400000000022 9.0783 L0.5022400000000022 9.0446 L0.48275000000000223 9.01567 L0.4623700000000022 8.99153 L0.4412700000000022 8.9722 L0.4196600000000022 8.9577 L0.39773000000000214 8.94804 L0.37567000000000217 8.94323 L0.3591500000000022 8.9428 L0.2104100000000022 8.94756 L2.192117770473762e-15 8.95 L-0.21040999999999782 8.94756 L-0.35914999999999786 8.9428 L-0.37566999999999784 8.94323 L-0.3977299999999978 8.94804 L-0.41965999999999776 8.9577 L-0.4412699999999978 8.9722 L-0.4623699999999978 8.99153 L-0.4827499999999978 9.01567 L-0.5022399999999978 9.0446 L-0.5206399999999978 9.0783 L-0.5377499999999977 9.11672 L-0.5673799999999978 9.20758 L-0.5896099999999976 9.31678 L-0.6052899999999977 9.43397 L-0.6316999999999977 9.55225 L-0.6548099999999977 9.63276 L-0.6864999999999977 9.72807 L-0.7277699999999976 9.83691 L-0.7807899999999975 9.96083 L-0.8455499999999976 10.09621 L-0.9244099999999974 10.24473 L-1.0170599999999976 10.4028 L-1.1248799999999974 10.57034 L-1.2498399999999974 10.74771 L-1.3769330484954525 10.913464967449535 A11 11 0 0 1 -2.062904994183783 10.804817684753356 L-2.1325565642872286 10.60790143100017 L-2.1965902422711867 10.400597773087805 L-2.247360448620551 10.207939552014208 L-2.2866295185544496 10.028975623954596 L-2.3157346314249176 9.86335562997803 L-2.335490330721712 9.71458965824627 L-2.3476219612727376 9.580350653705214 L-2.3532386540324692 9.464084531113796 L-2.353925225299986 9.363646585993964 L-2.351025183174441 9.279935643127036 L-2.339592055675127 9.159283539558203 L-2.3182909202798347 9.042983839941773 L-2.305688250851332 8.932259020577389 L-2.30579077132025 8.836689851963481 L-2.3101909153901743 8.794862979833667 L-2.3172764825795693 8.75712646253802 L-2.3268727124348945 8.723589656301234 L-2.338795573992778 8.694333385652506 L-2.3528895679853385 8.66942920461121 L-2.3689611528840406 8.648961027876489 L-2.386832718120731 8.632997079242434 L-2.4063266531272585 8.621605582503143 L-2.421905229468873 8.616091667454063 L-2.564836296595839 8.574655508728299 L-2.765702099655777 8.511955820841624 L-2.9650598997831654 8.444614977155432 L-3.1050491251236823 8.394124760394538 L-3.120893456080459 8.38942875394947 L-3.143360134572874 8.38718642089694 L-3.1672019081408886 8.389596884157708 L-3.1922349858764636 8.396709346395545 L-3.2182755768715587 8.408573010274218 L-3.2451177789178653 8.425233748232221 L-3.2725937320677256 8.446725072028274 L-3.300507044677992 8.473089763930922 L-3.3286520545956875 8.504342074513225 L-3.3849091432824205 8.581598896040473 L-3.4397957854254058 8.67858481983495 L-3.490922053171714 8.78519374650778 L-3.5525899858617382 8.889523572433728 L-3.5994478601704456 8.958951749820644 L-3.6590392509057157 9.039804197836995 L-3.7319227630009855 9.130564057712704 L-3.820641165437898 9.23203490017024 L-3.9240663061316523 9.340776990790557 L-4.044961827011256 9.457658824414304 L-4.181923529546849 9.57936190341624 L-4.336239150371371 9.705383699822823 L-4.509893516939898 9.835457830501001 L-4.681987290731289 9.953826260550159 A11 11 0 0 1 -5.300811522928063 9.638519565482053 L-5.306203633666749 9.42971756033879 L-5.303042927084727 9.212772570920041 L-5.291793598249153 9.013854857780286 L-5.273837807948121 8.831515237854541 L-5.250339022454051 8.665007288854188 L-5.223156595554418 8.51741759521725 L-5.193212328132094 8.385999835197758 L-5.1626259126304355 8.27368852816788 L-5.132241848786181 8.177954203788854 L-5.1036156408641205 8.099236528391248 L-5.055458540044409 7.988022589783536 L-4.999261372800053 7.883997415456789 L-4.95305967103467 7.7825862935125825 L-4.923624676554706 7.691662932378249 L-4.914884247935385 7.65052349378764 L-4.909961797629627 7.612444372435023 L-4.9087249115011735 7.577583576220575 L-4.911023541856195 7.546074842534642 L-4.916731911510693 7.518034275210004 L-4.925691882600895 7.493601489489528 L-4.9377556197503925 7.472896254741091 L-4.952775287582776 7.456038340332576 L-4.965887500671365 7.445980250657122 L-5.0890185462156055 7.3624039931243646 L-5.260678008017632 7.24070209965578 L-5.429469077788472 7.115052203254646 L-5.547004407730889 7.023774103935439 L-5.560622116136448 7.014411768875149 L-5.581296278095888 7.005336597952521 L-5.604716026319676 7.000261571535409 L-5.6307217697263585 6.999290278651806 L-5.659153917234483 7.002526308329701 L-5.689830819570186 7.010076915132193 L-5.7226031881393755 7.02202584221228 L-5.75729746383813 7.038474466280533 L-5.793722454004962 7.059499893537695 L-5.871099795571586 7.1155911006211765 L-5.953270392906878 7.190869290248458 L-6.034838333094832 7.2764615190633135 L-6.125727711557429 7.356628640644939 L-6.191746684959501 7.408178881681585 L-6.273406245907239 7.466659376770314 L-6.370768924124605 7.530454889075973 L-6.486501353630448 7.599543900942369 L-6.618467661641525 7.671003648702388 L-6.769564607488412 7.744806107711172 L-6.9374312468471215 7.818229120387121 L-7.123137000349709 7.890396821722526 L-7.328487234165918 7.960442520888343 L-7.528735995626716 8.019837686882564 A11 11 0 0 1 -8.019837686882559 7.528735995626721 L-7.960442520888338 7.328487234165923 L-7.890396821722522 7.123137000349713 L-7.818229120387117 6.937431246847125 L-7.744806107711168 6.769564607488416 L-7.671003648702384 6.618467661641529 L-7.599543900942365 6.4865013536304525 L-7.530454889075968 6.37076892412461 L-7.46665937677031 6.273406245907243 L-7.408178881681582 6.191746684959504 L-7.356628640644934 6.125727711557434 L-7.27646151906331 6.034838333094837 L-7.190869290248456 5.953270392906883 L-7.115591100621173 5.87109979557159 L-7.0594998935376925 5.793722454004966 L-7.0384744662805305 5.757297463838134 L-7.022025842212277 5.722603188139378 L-7.0100769151321884 5.689830819570189 L-7.002526308329698 5.6591539172344865 L-6.999290278651802 5.630721769726363 L-7.000261571535406 5.60471602631968 L-7.0053365979525175 5.581296278095891 L-7.014411768875146 5.560622116136453 L-7.023774103935437 5.547004407730893 L-7.115052203254643 5.429469077788474 L-7.240702099655777 5.260678008017636 L-7.362403993124361 5.08901854621561 L-7.4459802506571195 4.965887500671369 L-7.456038340332572 4.952775287582781 L-7.472896254741089 4.937755619750396 L-7.493601489489524 4.925691882600899 L-7.5180342752100024 4.9167319115106976 L-7.546074842534639 4.911023541856198 L-7.577583576220572 4.908724911501177 L-7.612444372435021 4.909961797629632 L-7.650523493787637 4.9148842479353885 L-7.691662932378247 4.923624676554711 L-7.782586293512581 4.953059671034675 L-7.883997415456786 4.999261372800057 L-7.988022589783532 5.055458540044413 L-8.099236528391245 5.103615640864125 L-8.17795420378885 5.132241848786187 L-8.273688528167876 5.162625912630441 L-8.385999835197754 5.193212328132098 L-8.517417595217246 5.223156595554422 L-8.665007288854186 5.250339022454056 L-8.831515237854537 5.2738378079481265 L-9.013854857780283 5.291793598249158 L-9.212772570920038 5.303042927084732 L-9.429717560338789 5.306203633666755 L-9.638519565482051 5.3008115229280675 A11 11 0 0 1 -9.953826260550157 4.681987290731293 Z" id="SvgjsPath1080">
        </path>
      </g>
    </g>
  </g>
</svg>
