<?xml version="1.0" encoding="UTF-8"?>
<svg viewBox="-4.854336143134642 -23.183539816339746 48.03787595947439 46.36707963267949" height="46.36707963267949mm" width="48.03787595947439mm" xmlns:svgjs="http://svgjs.com/svgjs" xmlns:xlink="http://www.w3.org/1999/xlink" version="1.1" xmlns="http://www.w3.org/2000/svg" id="SvgjsSvg1231">
  <defs id="SvgjsDefs1232">
  </defs>
  <defs id="SvgjsDefs1232">
  </defs>
  <g id="SvgjsG1233">
    <g transform="matrix(1,0,0,1,20,0)" id="SvgjsG1234">
      <g fill="none" stroke-width="0.04" stroke="blue" id="SvgjsG1235">
      </g>
      <g fill="none" stroke-width="0.1" stroke="black" id="SvgjsG1236">
        <circle cy="0" cx="0" r="0.75" id="SvgjsCircle1237">
        </circle>
        <path d="M-20.365936684173228 4.421287799753289  L-20.218311421656082 4.309021941778819 L-20.07673311754197 4.205945169399336 L-19.938373791837876 4.109584644334821 L-19.804973064673483 4.020782875816332 L-19.554737303332416 3.8652221679044168 L-19.328228499664966 3.737181997406485 L-19.123428423569653 3.632464966645702 L-18.944570790994305 3.5502938052230775 L-18.79963471185776 3.490535078123809 L-18.744330012864303 3.4651813709147476 L-18.69833553276824 3.439216579355926 L-18.661629769661836 3.413032159278779 L-18.63420422721005 3.3870013770925773 L-18.616030655311047 3.3614943705172937 L-18.607077675173663 3.33690103103971 L-18.607287406045845 3.3135868033458484 L-18.610338339681103 3.2966252496448085 L-18.667309637248103 2.956611389260364 L-18.71819677463704 2.6156338925712728 L-18.72053657266707 2.598559706055404 L-18.727541599322542 2.576321747481018 L-18.743656149269466 2.555698714726157 L-18.768822341755772 2.5370560524768377 L-18.80294953668988 2.5207742661519434 L-18.8459502226695 2.5072141074035423 L-18.89771713452555 2.4967331991944035 L-18.958149755283028 2.489710482598756 L-19.114458620027996 2.477664267336758 L-19.309954622305025 2.454784896853683 L-19.53709041131878 2.4184797863442933 L-19.792079673691454 2.3667014175534735 L-20.078138927526737 2.2960814954691027 L-20.232451813977704 2.252849086616833 L-20.393816392110615 2.2039601643134272 L-20.560317835194937 2.149678430269293 L-20.735409861083845 2.0885259694020686 L-20.901990960878177 2.0264855305070295 A21 21 0 0 1 -20.96166494716097 1.2682556433741758 L-20.80684 1.1809200000000013 L-20.64347 1.0931300000000013 L-20.48751 1.0134700000000014 L-20.33578 0.9399400000000012 L-20.19013 0.8731000000000012 L-19.91864 0.7586000000000013 L-19.67489 0.6675700000000012 L-19.45623 0.5961800000000013 L-19.26672 0.5430000000000013 L-19.11422 0.5066500000000013 L-19.05563 0.49026000000000114 L-19.00614 0.4718100000000012 L-18.96579 0.45169000000000115 L-18.93463 0.43027000000000115 L-18.91269 0.40792000000000117 L-18.9 0.38503000000000115 L-18.89656 0.3619700000000012 L-18.89692 0.34474000000000116 L-18.9 1.1572912251942486e-15 L-18.89692 -0.3447399999999988 L-18.89656 -0.36196999999999885 L-18.9 -0.3850299999999988 L-18.91269 -0.40791999999999884 L-18.93463 -0.4302699999999988 L-18.96579 -0.4516899999999988 L-19.00614 -0.47180999999999884 L-19.05563 -0.4902599999999988 L-19.11422 -0.5066499999999988 L-19.26672 -0.5429999999999988 L-19.45623 -0.5961799999999988 L-19.67489 -0.6675699999999988 L-19.91864 -0.7585999999999988 L-20.19013 -0.8730999999999988 L-20.33578 -0.9399399999999988 L-20.48751 -1.0134699999999988 L-20.64347 -1.0931299999999986 L-20.80684 -1.1809199999999986 L-20.96166494716097 -1.2682556433741732 A21 21 0 0 1 -20.901990960878173 -2.026485530507027 L-20.735409861083845 -2.088525969402066 L-20.560317835194937 -2.149678430269291 L-20.393816392110615 -2.2039601643134246 L-20.232451813977704 -2.252849086616831 L-20.078138927526737 -2.2960814954691005 L-19.792079673691454 -2.3667014175534713 L-19.53709041131878 -2.4184797863442906 L-19.309954622305025 -2.454784896853681 L-19.114458620027996 -2.477664267336756 L-18.958149755283028 -2.489710482598754 L-18.89771713452555 -2.4967331991944017 L-18.8459502226695 -2.5072141074035406 L-18.80294953668988 -2.5207742661519412 L-18.768822341755772 -2.5370560524768355 L-18.743656149269466 -2.5556987147261543 L-18.727541599322542 -2.5763217474810163 L-18.72053657266707 -2.598559706055402 L-18.71819677463704 -2.615633892571271 L-18.667309637248103 -2.9566113892603623 L-18.610338339681103 -3.2966252496448067 L-18.607287406045845 -3.313586803345846 L-18.607077675173663 -3.3369010310397083 L-18.616030655311047 -3.361494370517292 L-18.63420422721005 -3.387001377092575 L-18.661629769661836 -3.4130321592787767 L-18.69833553276824 -3.439216579355924 L-18.744330012864303 -3.465181370914746 L-18.79963471185776 -3.490535078123807 L-18.944570790994305 -3.5502938052230757 L-19.123428423569653 -3.632464966645699 L-19.328228499664966 -3.7371819974064833 L-19.554737303332416 -3.8652221679044145 L-19.804973064673483 -4.02078287581633 L-19.938373791837876 -4.109584644334818 L-20.07673311754197 -4.2059451693993335 L-20.218311421656082 -4.309021941778816 L-20.365936684173228 -4.421287799753286 L-20.50519317466719 -4.5317681542163415 A21 21 0 0 1 -20.3276405874077 -5.2713279051072615 L-20.15340511450792 -5.306545498017157 L-19.970902409504603 -5.339554643211673 L-19.7979593414513 -5.367121514857028 L-19.630933516637445 -5.3901655519437 L-19.471757439135036 -5.4087258442621575 L-19.178172659670135 -5.433726791575097 L-18.918222816825242 -5.444978573874552 L-18.688204075743716 -5.445304842582837 L-18.49153583157976 -5.437320217515417 L-18.33526694509922 -5.4247660302405665 L-18.27447975527168 -5.422248540842216 L-18.221710604734014 -5.4245022825162446 L-18.17711805237468 -5.431168703901074 L-18.140863987307412 -5.441911364935393 L-18.113091277515622 -5.456387645218004 L-18.09394897132259 -5.474235903217381 L-18.08355140501625 -5.495104248022498 L-18.078569422549037 -5.511602197916239 L-17.974968157978402 -5.840421193686504 L-17.865508385267397 -6.167336644771422 L-17.85984164210845 -6.183612102429212 L-17.855987344634215 -6.206606484155627 L-17.860982852824762 -6.232297593472242 L-17.874942502967997 -6.260333539468025 L-17.89795827999624 -6.29033413959179 L-17.930115988501925 -6.321938232422677 L-17.97148241194716 -6.35477847619994 L-18.022140024699084 -6.388471598202446 L-18.155943375688565 -6.470167594211954 L-18.3197445723308 -6.579306590352527 L-18.50564186695547 -6.714772171040863 L-18.709332075804465 -6.876669738098105 L-18.932151963557505 -7.069460733016754 L-19.05001864925187 -7.1780376757966335 L-19.171600434872946 -7.2948560099963276 L-19.29531091538243 -7.418811462527116 L-19.423556416513392 -7.552788820463703 L-19.543815493378595 -7.683693493025483 A21 21 0 0 1 -19.252756239103984 -8.386372692149441 L-19.075156648695927 -8.393900265056264 L-18.88973708686714 -8.39795329987231 L-18.714610826145467 -8.398126521249775 L-18.54603648478452 -8.394758252447863 L-18.38591665953389 -8.38818941223755 L-18.092035386061813 -8.36695577848283 L-17.833525790599605 -8.337403918068182 L-17.606287922244174 -8.301743311156939 L-17.413290061069084 -8.263091298507636 L-17.260909011464825 -8.226245834451602 L-17.2012640349219 -8.214250128003311 L-17.14879199731962 -8.208221208542474 L-17.10370559521386 -8.207829743144652 L-17.06621735541573 -8.212768758920882 L-17.03652198460586 -8.222722203172209 L-17.01482326927487 -8.237356203069183 L-17.00128918590767 -8.256341086197866 L-16.993787691945865 -8.271856565189537 L-16.840023307160152 -8.580420445077431 L-16.68077032218544 -8.886187743486932 L-16.672627303526223 -8.901376349318793 L-16.665223345045433 -8.92348468708568 L-16.66613837529835 -8.949640965866047 L-16.67554037076986 -8.979515513245941 L-16.693579657559148 -9.01274721696594 L-16.720397481955388 -9.0489927848971 L-16.75611727011728 -9.087899845100488 L-16.800880438078742 -9.129102745411673 L-16.920256378351937 -9.230724383776202 L-17.06496780997473 -9.364143850338182 L-17.22738491477735 -9.527022368773038 L-17.403240999856973 -9.71879087698142 L-17.593158448888694 -9.944065004775277 L-17.692588824134138 -10.069743597139093 L-17.79439932260339 -10.204143285388145 L-17.897195816906557 -10.345925223444372 L-18.00290372679108 -10.498315114145317 L-18.101204212438102 -10.646420797319651 A21 21 0 0 1 -17.703805135958902 -11.294917150735658 L-17.527214519377658 -11.274569349811857 L-17.34344374570787 -11.249566475081012 L-17.170446482067533 -11.222341780905387 L-17.004474483909956 -11.192644144171439 L-16.847353592416017 -11.161107918079063 L-16.560412157225674 -11.094162545790109 L-16.3097081733306 -11.024534707541772 L-16.090846528179412 -10.953765307503927 L-15.9062712978585 -10.885397648102838 L-15.761530212295488 -10.825168164873766 L-15.704496106309989 -10.803989615479757 L-15.653613217353573 -10.78982648689002 L-15.60914314235442 -10.78238677388684 L-15.571343812705592 -10.78140052944492 L-15.540456979460272 -10.786586050833904 L-15.516736149376676 -10.797645454983554 L-15.500398802998165 -10.814279405605955 L-15.49056250921914 -10.82843037110986 L-15.290421193686505 -11.10914126832774 L-15.085296333468525 -11.386231408391499 L-15.074877547453552 -11.399959168513753 L-15.064106237996334 -11.420637081671925 L-15.06091825922998 -11.446614475524761 L-15.065531091697828 -11.477592013784335 L-15.078149701138447 -11.513236546265281 L-15.09896729758535 -11.553231103122107 L-15.128160910732174 -11.59724695880428 L-15.165927416147527 -11.6449450852739 L-15.267936513868873 -11.763990103994033 L-15.389994904755959 -11.918404810916838 L-15.524932571584825 -12.10468565741154 L-15.668624372447535 -12.32160312965578 L-15.820962984862899 -12.573813393656595 L-15.899508743830383 -12.713499011557015 L-15.979041042785829 -12.862170687483742 L-16.058392360030926 -13.018287969203184 L-16.138959799103205 -13.185338047806384 L-16.212881209334817 -13.346997888138938 A21 21 0 0 1 -15.71892759480586 -13.925343263389887 L-15.547694199102324 -13.877621119024687 L-15.37009725993951 -13.824177988502607 L-15.203488760156334 -13.770225741098074 L-15.044205886626253 -13.714929990809285 L-14.893952766691925 -13.659202905383973 L-14.621016620221729 -13.548194211805496 L-14.384291412016097 -13.440204864182688 L-14.17919509013294 -13.336069248517346 L-14.007587345406774 -13.239669381038183 L-13.874050229779696 -13.157538928403364 L-13.821031363326329 -13.127699022237294 L-13.772990528612514 -13.10575042774926 L-13.730231781554163 -13.091445657565856 L-13.693052106999374 -13.084558437517101 L-13.661734347660625 -13.084848351297389 L-13.636575488386004 -13.092060840465491 L-13.617837158684564 -13.10593427551237 L-13.605908267285946 -13.118372283793445 L-13.364318164425748 -13.364318164425747 L-13.118372283793446 -13.605908267285944 L-13.105934275512373 -13.61783715868456 L-13.092060840465493 -13.636575488386002 L-13.08484835129739 -13.661734347660623 L-13.084558437517103 -13.693052106999373 L-13.09144565756586 -13.73023178155416 L-13.105750427749264 -13.77299052861251 L-13.127699022237296 -13.821031363326327 L-13.157538928403367 -13.874050229779693 L-13.239669381038185 -14.007587345406773 L-13.336069248517347 -14.179195090132938 L-13.44020486418269 -14.384291412016095 L-13.5481942118055 -14.621016620221726 L-13.659202905383975 -14.893952766691923 L-13.714929990809287 -15.044205886626251 L-13.770225741098075 -15.203488760156333 L-13.824177988502608 -15.370097259939508 L-13.877621119024688 -15.547694199102322 L-13.92534326338989 -15.718927594805859 A21 21 0 0 1 -13.346997888138944 -16.212881209334814 L-13.185338047806388 -16.138959799103205 L-13.01828796920319 -16.058392360030922 L-12.862170687483747 -15.979041042785825 L-12.713499011557019 -15.89950874383038 L-12.573813393656598 -15.820962984862895 L-12.321603129655784 -15.66862437244753 L-12.104685657411544 -15.524932571584824 L-11.918404810916844 -15.389994904755957 L-11.763990103994036 -15.267936513868872 L-11.644945085273905 -15.165927416147523 L-11.597246958804284 -15.12816091073217 L-11.55323110312211 -15.098967297585348 L-11.513236546265286 -15.078149701138443 L-11.47759201378434 -15.065531091697826 L-11.446614475524765 -15.060918259229979 L-11.420637081671929 -15.064106237996333 L-11.399959168513758 -15.07487754745355 L-11.386231408391504 -15.085296333468523 L-11.109141268327743 -15.290421193686504 L-10.828430371109866 -15.490562509219139 L-10.81427940560596 -15.500398802998163 L-10.797645454983558 -15.516736149376674 L-10.786586050833908 -15.54045697946027 L-10.781400529444925 -15.57134381270559 L-10.782386773886845 -15.60914314235442 L-10.789826486890023 -15.653613217353572 L-10.803989615479761 -15.704496106309985 L-10.825168164873771 -15.761530212295488 L-10.885397648102842 -15.906271297858499 L-10.953765307503932 -16.090846528179412 L-11.024534707541775 -16.309708173330595 L-11.094162545790113 -16.56041215722567 L-11.161107918079066 -16.847353592416013 L-11.192644144171442 -17.004474483909956 L-11.222341780905392 -17.170446482067533 L-11.249566475081018 -17.343443745707866 L-11.27456934981186 -17.527214519377658 L-11.294917150735664 -17.7038051359589 A21 21 0 0 1 -10.646420797319655 -18.1012042124381 L-10.49831511414532 -18.002903726791075 L-10.345925223444375 -17.897195816906553 L-10.204143285388149 -17.79439932260339 L-10.069743597139096 -17.692588824134134 L-9.94406500477528 -17.59315844888869 L-9.718790876981423 -17.40324099985697 L-9.527022368773041 -17.22738491477735 L-9.364143850338186 -17.064967809974725 L-9.230724383776206 -16.920256378351937 L-9.129102745411677 -16.800880438078742 L-9.08789984510049 -16.75611727011728 L-9.048992784897104 -16.720397481955388 L-9.012747216965943 -16.693579657559148 L-8.979515513245945 -16.675540370769856 L-8.94964096586605 -16.66613837529835 L-8.923484687085683 -16.66522334504543 L-8.901376349318795 -16.67262730352622 L-8.886187743486936 -16.68077032218544 L-8.580420445077435 -16.84002330716015 L-8.271856565189541 -16.993787691945865 L-8.256341086197867 -17.001289185907666 L-8.237356203069186 -17.014823269274867 L-8.222722203172212 -17.03652198460586 L-8.212768758920886 -17.066217355415727 L-8.207829743144655 -17.10370559521386 L-8.208221208542477 -17.14879199731962 L-8.214250128003313 -17.2012640349219 L-8.226245834451605 -17.260909011464825 L-8.26309129850764 -17.413290061069084 L-8.301743311156942 -17.60628792224417 L-8.337403918068185 -17.833525790599605 L-8.366955778482833 -18.09203538606181 L-8.388189412237553 -18.385916659533887 L-8.394758252447867 -18.546036484784516 L-8.398126521249779 -18.714610826145467 L-8.397953299872313 -18.889737086867136 L-8.393900265056267 -19.075156648695923 L-8.386372692149445 -19.25275623910398 A21 21 0 0 1 -7.683693493025486 -19.54381549337859 L-7.552788820463706 -19.42355641651339 L-7.418811462527119 -19.295310915382426 L-7.29485600999633 -19.171600434872943 L-7.178037675796636 -19.05001864925187 L-7.069460733016757 -18.9321519635575 L-6.8766697380981086 -18.70933207580446 L-6.714772171040867 -18.505641866955468 L-6.57930659035253 -18.319744572330798 L-6.470167594211957 -18.15594337568856 L-6.3884715982024485 -18.02214002469908 L-6.354778476199943 -17.971482411947157 L-6.3219382324226805 -17.930115988501925 L-6.290334139591794 -17.89795827999624 L-6.260333539468028 -17.874942502967993 L-6.2322975934722455 -17.86098285282476 L-6.206606484155631 -17.85598734463421 L-6.183612102429215 -17.859841642108446 L-6.167336644771425 -17.865508385267393 L-5.840421193686508 -17.9749681579784 L-5.511602197916242 -18.078569422549034 L-5.495104248022502 -18.083551405016248 L-5.474235903217385 -18.093948971322586 L-5.456387645218007 -18.11309127751562 L-5.441911364935396 -18.14086398730741 L-5.431168703901077 -18.17711805237468 L-5.424502282516248 -18.221710604734014 L-5.422248540842219 -18.274479755271678 L-5.424766030240569 -18.335266945099217 L-5.43732021751542 -18.491535831579757 L-5.445304842582841 -18.688204075743712 L-5.444978573874556 -18.91822281682524 L-5.433726791575101 -19.178172659670132 L-5.40872584426216 -19.471757439135033 L-5.390165551943703 -19.630933516637445 L-5.367121514857031 -19.797959341451296 L-5.339554643211677 -19.9709024095046 L-5.306545498017161 -20.153405114507915 L-5.271327905107264 -20.327640587407696 A21 21 0 0 1 -4.531768154216345 -20.505193174667188 L-4.42128779975329 -20.365936684173228 L-4.30902194177882 -20.21831142165608 L-4.205945169399337 -20.076733117541966 L-4.109584644334822 -19.938373791837876 L-4.020782875816334 -19.80497306467348 L-3.865222167904418 -19.554737303332413 L-3.7371819974064864 -19.328228499664963 L-3.6324649666457027 -19.12342842356965 L-3.550293805223079 -18.944570790994305 L-3.49053507812381 -18.799634711857756 L-3.465181370914749 -18.7443300128643 L-3.4392165793559273 -18.698335532768237 L-3.41303215927878 -18.661629769661833 L-3.387001377092578 -18.63420422721005 L-3.3614943705172946 -18.616030655311047 L-3.3369010310397114 -18.60707767517366 L-3.3135868033458493 -18.607287406045845 L-3.29662524964481 -18.610338339681103 L-2.9566113892603654 -18.6673096372481 L-2.615633892571274 -18.71819677463704 L-2.598559706055405 -18.72053657266707 L-2.5763217474810194 -18.72754159932254 L-2.555698714726158 -18.743656149269466 L-2.5370560524768386 -18.768822341755772 L-2.5207742661519443 -18.802949536689876 L-2.5072141074035437 -18.845950222669497 L-2.496733199194405 -18.897717134525546 L-2.489710482598757 -18.958149755283024 L-2.4776642673367593 -19.114458620027996 L-2.454784896853684 -19.30995462230502 L-2.4184797863442946 -19.537090411318776 L-2.366701417553475 -19.79207967369145 L-2.296081495469104 -20.078138927526734 L-2.252849086616835 -20.232451813977704 L-2.203960164313428 -20.39381639211061 L-2.1496784302692946 -20.560317835194933 L-2.0885259694020695 -20.735409861083845 L-2.0264855305070304 -20.901990960878177 A21 21 0 0 1 -1.2682556433741772 -20.96166494716097 L-1.1809200000000024 -20.80684 L-1.0931300000000024 -20.64347 L-1.0134700000000025 -20.48751 L-0.9399400000000024 -20.33578 L-0.8731000000000024 -20.19013 L-0.7586000000000025 -19.91864 L-0.6675700000000024 -19.67489 L-0.5961800000000024 -19.45623 L-0.5430000000000024 -19.26672 L-0.5066500000000024 -19.11422 L-0.4902600000000023 -19.05563 L-0.47181000000000234 -19.00614 L-0.4516900000000023 -18.96579 L-0.4302700000000023 -18.93463 L-0.40792000000000234 -18.91269 L-0.3850300000000023 -18.9 L-0.36197000000000235 -18.89656 L-0.3447400000000023 -18.89692 L-2.3145824503884972e-15 -18.9 L0.34473999999999766 -18.89692 L0.3619699999999977 -18.89656 L0.38502999999999765 -18.9 L0.4079199999999977 -18.91269 L0.43026999999999765 -18.93463 L0.45168999999999765 -18.96579 L0.4718099999999977 -19.00614 L0.49025999999999764 -19.05563 L0.5066499999999977 -19.11422 L0.5429999999999977 -19.26672 L0.5961799999999977 -19.45623 L0.6675699999999976 -19.67489 L0.7585999999999976 -19.91864 L0.8730999999999975 -20.19013 L0.9399399999999976 -20.33578 L1.0134699999999977 -20.48751 L1.0931299999999975 -20.64347 L1.1809199999999975 -20.80684 L1.2682556433741718 -20.96166494716097 A21 21 0 0 1 2.026485530507025 -20.901990960878173 L2.0885259694020646 -20.735409861083845 L2.1496784302692893 -20.560317835194937 L2.2039601643134232 -20.393816392110615 L2.252849086616829 -20.232451813977704 L2.2960814954690987 -20.078138927526737 L2.36670141755347 -19.792079673691454 L2.4184797863442897 -19.53709041131878 L2.4547848968536794 -19.309954622305025 L2.4776642673367544 -19.114458620027996 L2.4897104825987526 -18.958149755283028 L2.4967331991944 -18.89771713452555 L2.507214107403539 -18.8459502226695 L2.5207742661519394 -18.80294953668988 L2.537056052476834 -18.768822341755772 L2.5556987147261525 -18.743656149269466 L2.5763217474810145 -18.727541599322542 L2.5985597060554007 -18.72053657266707 L2.615633892571269 -18.71819677463704 L2.9566113892603605 -18.667309637248103 L3.296625249644805 -18.610338339681103 L3.313586803345845 -18.607287406045845 L3.3369010310397065 -18.607077675173663 L3.36149437051729 -18.616030655311047 L3.3870013770925738 -18.63420422721005 L3.413032159278775 -18.661629769661836 L3.4392165793559224 -18.69833553276824 L3.465181370914744 -18.744330012864303 L3.4905350781238056 -18.79963471185776 L3.550293805223074 -18.944570790994305 L3.6324649666456974 -19.123428423569653 L3.7371819974064815 -19.328228499664966 L3.865222167904413 -19.554737303332416 L4.020782875816328 -19.804973064673483 L4.1095846443348165 -19.938373791837876 L4.205945169399332 -20.07673311754197 L4.3090219417788145 -20.218311421656082 L4.421287799753285 -20.365936684173228 L4.53176815421634 -20.50519317466719 A21 21 0 0 1 5.27132790510726 -20.3276405874077 L5.306545498017155 -20.15340511450792 L5.339554643211672 -19.970902409504603 L5.367121514857026 -19.7979593414513 L5.390165551943698 -19.630933516637445 L5.408725844262156 -19.471757439135036 L5.433726791575096 -19.178172659670135 L5.444978573874551 -18.918222816825242 L5.4453048425828365 -18.688204075743716 L5.437320217515415 -18.49153583157976 L5.424766030240565 -18.33526694509922 L5.422248540842215 -18.27447975527168 L5.424502282516244 -18.221710604734014 L5.431168703901073 -18.17711805237468 L5.441911364935391 -18.140863987307412 L5.456387645218003 -18.113091277515622 L5.47423590321738 -18.09394897132259 L5.495104248022497 -18.08355140501625 L5.511602197916238 -18.078569422549037 L5.840421193686503 -17.974968157978402 L6.167336644771421 -17.865508385267397 L6.183612102429211 -17.85984164210845 L6.2066064841556265 -17.855987344634215 L6.232297593472241 -17.860982852824762 L6.260333539468023 -17.874942502967997 L6.290334139591789 -17.89795827999624 L6.321938232422676 -17.930115988501925 L6.3547784761999395 -17.97148241194716 L6.388471598202444 -18.022140024699084 L6.4701675942119525 -18.155943375688565 L6.579306590352526 -18.3197445723308 L6.714772171040862 -18.50564186695547 L6.876669738098104 -18.709332075804465 L7.0694607330167525 -18.932151963557505 L7.178037675796632 -19.05001864925187 L7.294856009996326 -19.171600434872946 L7.418811462527115 -19.29531091538243 L7.552788820463701 -19.423556416513392 L7.683693493025482 -19.543815493378595 A21 21 0 0 1 8.386372692149441 -19.252756239103984 L8.393900265056262 -19.075156648695927 L8.397953299872308 -18.88973708686714 L8.398126521249774 -18.714610826145467 L8.394758252447863 -18.54603648478452 L8.38818941223755 -18.38591665953389 L8.366955778482826 -18.092035386061813 L8.337403918068182 -17.833525790599605 L8.301743311156939 -17.606287922244174 L8.263091298507634 -17.413290061069084 L8.226245834451602 -17.260909011464825 L8.214250128003307 -17.2012640349219 L8.208221208542472 -17.14879199731962 L8.207829743144652 -17.10370559521386 L8.212768758920882 -17.06621735541573 L8.222722203172207 -17.03652198460586 L8.237356203069183 -17.01482326927487 L8.256341086197864 -17.00128918590767 L8.271856565189537 -16.993787691945865 L8.580420445077431 -16.840023307160152 L8.886187743486932 -16.68077032218544 L8.901376349318792 -16.672627303526223 L8.92348468708568 -16.665223345045433 L8.949640965866045 -16.66613837529835 L8.979515513245941 -16.67554037076986 L9.01274721696594 -16.693579657559148 L9.048992784897099 -16.720397481955388 L9.087899845100488 -16.75611727011728 L9.129102745411673 -16.800880438078742 L9.2307243837762 -16.920256378351937 L9.364143850338182 -17.06496780997473 L9.527022368773038 -17.22738491477735 L9.71879087698142 -17.403240999856973 L9.944065004775277 -17.593158448888694 L10.069743597139093 -17.692588824134138 L10.204143285388144 -17.79439932260339 L10.34592522344437 -17.897195816906557 L10.498315114145315 -18.00290372679108 L10.646420797319651 -18.101204212438102 A21 21 0 0 1 11.294917150735658 -17.703805135958902 L11.274569349811857 -17.527214519377658 L11.249566475081012 -17.34344374570787 L11.222341780905387 -17.170446482067533 L11.192644144171439 -17.004474483909956 L11.161107918079063 -16.847353592416017 L11.094162545790109 -16.560412157225674 L11.024534707541772 -16.3097081733306 L10.953765307503927 -16.090846528179412 L10.885397648102838 -15.9062712978585 L10.825168164873766 -15.761530212295488 L10.803989615479757 -15.704496106309989 L10.78982648689002 -15.653613217353573 L10.78238677388684 -15.60914314235442 L10.78140052944492 -15.571343812705592 L10.786586050833904 -15.540456979460272 L10.797645454983554 -15.516736149376676 L10.814279405605955 -15.500398802998165 L10.82843037110986 -15.49056250921914 L11.10914126832774 -15.290421193686505 L11.386231408391499 -15.085296333468525 L11.399959168513753 -15.074877547453552 L11.420637081671925 -15.064106237996334 L11.446614475524761 -15.06091825922998 L11.477592013784335 -15.065531091697828 L11.513236546265281 -15.078149701138447 L11.553231103122107 -15.09896729758535 L11.59724695880428 -15.128160910732174 L11.6449450852739 -15.165927416147527 L11.763990103994033 -15.267936513868873 L11.918404810916838 -15.389994904755959 L12.10468565741154 -15.524932571584825 L12.32160312965578 -15.668624372447535 L12.573813393656595 -15.820962984862899 L12.713499011557015 -15.899508743830383 L12.862170687483742 -15.979041042785829 L13.018287969203184 -16.058392360030926 L13.185338047806384 -16.138959799103205 L13.346997888138938 -16.212881209334817 A21 21 0 0 1 13.925343263389886 -15.718927594805864 L13.877621119024687 -15.547694199102326 L13.824177988502607 -15.370097259939513 L13.770225741098072 -15.203488760156338 L13.714929990809285 -15.044205886626255 L13.659202905383973 -14.893952766691926 L13.548194211805496 -14.62101662022173 L13.440204864182688 -14.3842914120161 L13.336069248517346 -14.179195090132941 L13.239669381038183 -14.007587345406776 L13.157538928403364 -13.874050229779698 L13.127699022237294 -13.82103136332633 L13.10575042774926 -13.772990528612516 L13.091445657565856 -13.730231781554165 L13.084558437517101 -13.693052106999376 L13.084848351297389 -13.661734347660627 L13.092060840465491 -13.636575488386006 L13.10593427551237 -13.617837158684566 L13.118372283793445 -13.605908267285947 L13.364318164425747 -13.36431816442575 L13.605908267285944 -13.118372283793448 L13.61783715868456 -13.105934275512375 L13.636575488386002 -13.092060840465495 L13.661734347660623 -13.084848351297392 L13.693052106999373 -13.084558437517105 L13.73023178155416 -13.091445657565862 L13.77299052861251 -13.105750427749266 L13.821031363326327 -13.127699022237298 L13.874050229779693 -13.157538928403369 L14.007587345406773 -13.239669381038187 L14.179195090132938 -13.336069248517349 L14.384291412016095 -13.440204864182693 L14.621016620221726 -13.548194211805502 L14.893952766691923 -13.659202905383976 L15.044205886626251 -13.714929990809289 L15.203488760156334 -13.770225741098079 L15.370097259939508 -13.824177988502612 L15.547694199102322 -13.87762111902469 L15.71892759480586 -13.925343263389893 A21 21 0 0 1 16.212881209334814 -13.346997888138944 L16.138959799103205 -13.185338047806388 L16.058392360030922 -13.01828796920319 L15.979041042785825 -12.862170687483747 L15.89950874383038 -12.713499011557019 L15.820962984862895 -12.573813393656598 L15.66862437244753 -12.321603129655784 L15.524932571584824 -12.104685657411544 L15.389994904755957 -11.918404810916844 L15.267936513868872 -11.763990103994036 L15.165927416147523 -11.644945085273905 L15.12816091073217 -11.597246958804284 L15.098967297585348 -11.55323110312211 L15.078149701138443 -11.513236546265286 L15.065531091697826 -11.47759201378434 L15.060918259229979 -11.446614475524765 L15.064106237996333 -11.420637081671929 L15.07487754745355 -11.399959168513758 L15.085296333468523 -11.386231408391504 L15.290421193686504 -11.109141268327743 L15.490562509219139 -10.828430371109866 L15.500398802998163 -10.81427940560596 L15.516736149376674 -10.797645454983558 L15.54045697946027 -10.786586050833908 L15.57134381270559 -10.781400529444925 L15.60914314235442 -10.782386773886845 L15.653613217353572 -10.789826486890023 L15.704496106309985 -10.803989615479761 L15.761530212295488 -10.825168164873771 L15.906271297858499 -10.885397648102842 L16.090846528179412 -10.953765307503932 L16.309708173330595 -11.024534707541775 L16.56041215722567 -11.094162545790113 L16.847353592416013 -11.161107918079066 L17.004474483909956 -11.192644144171442 L17.170446482067533 -11.222341780905392 L17.343443745707866 -11.249566475081018 L17.527214519377658 -11.27456934981186 L17.7038051359589 -11.294917150735664 A21 21 0 0 1 18.1012042124381 -10.646420797319657 L18.002903726791075 -10.498315114145322 L17.897195816906553 -10.345925223444375 L17.79439932260339 -10.20414328538815 L17.692588824134134 -10.069743597139098 L17.59315844888869 -9.944065004775283 L17.40324099985697 -9.718790876981425 L17.22738491477735 -9.527022368773043 L17.064967809974725 -9.364143850338188 L16.920256378351937 -9.230724383776206 L16.800880438078742 -9.129102745411679 L16.75611727011728 -9.087899845100491 L16.720397481955388 -9.048992784897104 L16.693579657559148 -9.012747216965945 L16.675540370769856 -8.979515513245946 L16.66613837529835 -8.94964096586605 L16.66522334504543 -8.923484687085683 L16.67262730352622 -8.901376349318797 L16.68077032218544 -8.886187743486937 L16.84002330716015 -8.580420445077436 L16.993787691945865 -8.271856565189543 L17.001289185907666 -8.25634108619787 L17.014823269274867 -8.23735620306919 L17.03652198460586 -8.222722203172212 L17.066217355415727 -8.212768758920888 L17.10370559521386 -8.207829743144657 L17.14879199731962 -8.208221208542477 L17.2012640349219 -8.214250128003314 L17.260909011464825 -8.226245834451607 L17.413290061069084 -8.26309129850764 L17.60628792224417 -8.301743311156944 L17.833525790599605 -8.337403918068187 L18.09203538606181 -8.366955778482835 L18.385916659533887 -8.388189412237555 L18.546036484784516 -8.394758252447868 L18.714610826145467 -8.39812652124978 L18.889737086867136 -8.397953299872313 L19.075156648695923 -8.393900265056269 L19.25275623910398 -8.386372692149447 A21 21 0 0 1 19.54381549337859 -7.683693493025488 L19.42355641651339 -7.552788820463707 L19.295310915382426 -7.41881146252712 L19.171600434872943 -7.294856009996332 L19.05001864925187 -7.178037675796638 L18.9321519635575 -7.069460733016759 L18.70933207580446 -6.8766697380981086 L18.505641866955468 -6.714772171040868 L18.319744572330798 -6.579306590352531 L18.15594337568856 -6.470167594211958 L18.02214002469908 -6.388471598202449 L17.971482411947157 -6.354778476199945 L17.930115988501925 -6.321938232422681 L17.89795827999624 -6.290334139591795 L17.874942502967993 -6.260333539468029 L17.86098285282476 -6.232297593472246 L17.85598734463421 -6.206606484155632 L17.859841642108446 -6.183612102429216 L17.865508385267393 -6.167336644771426 L17.9749681579784 -5.840421193686509 L18.078569422549034 -5.511602197916243 L18.083551405016248 -5.4951042480225025 L18.093948971322586 -5.4742359032173855 L18.11309127751562 -5.456387645218008 L18.14086398730741 -5.441911364935397 L18.17711805237468 -5.431168703901078 L18.221710604734014 -5.424502282516249 L18.274479755271678 -5.4222485408422205 L18.335266945099217 -5.42476603024057 L18.491535831579757 -5.4373202175154205 L18.688204075743712 -5.445304842582842 L18.91822281682524 -5.444978573874557 L19.178172659670132 -5.433726791575102 L19.471757439135033 -5.408725844262162 L19.630933516637445 -5.390165551943705 L19.797959341451296 -5.367121514857033 L19.9709024095046 -5.339554643211677 L20.153405114507915 -5.306545498017162 L20.327640587407696 -5.271327905107266 A21 21 0 0 1 20.505193174667188 -4.531768154216346 L20.365936684173228 -4.421287799753291 L20.21831142165608 -4.309021941778821 L20.076733117541966 -4.205945169399338 L19.938373791837876 -4.109584644334823 L19.80497306467348 -4.020782875816335 L19.554737303332413 -3.865222167904419 L19.328228499664963 -3.7371819974064873 L19.12342842356965 -3.6324649666457036 L18.944570790994305 -3.5502938052230797 L18.799634711857756 -3.4905350781238114 L18.7443300128643 -3.46518137091475 L18.698335532768237 -3.439216579355928 L18.661629769661833 -3.4130321592787807 L18.63420422721005 -3.3870013770925795 L18.616030655311047 -3.3614943705172955 L18.60707767517366 -3.3369010310397123 L18.607287406045845 -3.3135868033458507 L18.610338339681103 -3.2966252496448107 L18.6673096372481 -2.9566113892603663 L18.71819677463704 -2.615633892571275 L18.72053657266707 -2.5985597060554064 L18.72754159932254 -2.5763217474810203 L18.743656149269466 -2.5556987147261587 L18.768822341755772 -2.53705605247684 L18.802949536689876 -2.520774266151945 L18.845950222669497 -2.5072141074035446 L18.897717134525546 -2.4967331991944057 L18.958149755283024 -2.4897104825987584 L19.114458620027996 -2.47766426733676 L19.30995462230502 -2.4547848968536856 L19.537090411318776 -2.4184797863442955 L19.79207967369145 -2.3667014175534757 L20.078138927526734 -2.296081495469105 L20.232451813977704 -2.252849086616836 L20.39381639211061 -2.20396016431343 L20.560317835194933 -2.1496784302692955 L20.735409861083845 -2.0885259694020712 L20.901990960878177 -2.026485530507032 A21 21 0 0 1 20.96166494716097 -1.2682556433741783 L20.80684 -1.1809200000000037 L20.64347 -1.0931300000000037 L20.48751 -1.0134700000000039 L20.33578 -0.9399400000000038 L20.19013 -0.8731000000000037 L19.91864 -0.7586000000000037 L19.67489 -0.6675700000000037 L19.45623 -0.5961800000000036 L19.26672 -0.5430000000000036 L19.11422 -0.5066500000000036 L19.05563 -0.49026000000000347 L19.00614 -0.4718100000000035 L18.96579 -0.4516900000000035 L18.93463 -0.4302700000000035 L18.91269 -0.4079200000000035 L18.9 -0.3850300000000035 L18.89656 -0.3619700000000035 L18.89692 -0.3447400000000035 L18.9 -3.471873675582746e-15 L18.89692 0.3447399999999965 L18.89656 0.3619699999999965 L18.9 0.3850299999999965 L18.91269 0.4079199999999965 L18.93463 0.4302699999999965 L18.96579 0.4516899999999965 L19.00614 0.4718099999999965 L19.05563 0.4902599999999965 L19.11422 0.5066499999999965 L19.26672 0.5429999999999965 L19.45623 0.5961799999999965 L19.67489 0.6675699999999963 L19.91864 0.7585999999999964 L20.19013 0.8730999999999963 L20.33578 0.9399399999999962 L20.48751 1.0134699999999963 L20.64347 1.0931299999999962 L20.80684 1.1809199999999962 L20.96166494716097 1.2682556433741707 A21 21 0 0 1 20.901990960878173 2.026485530507024 L20.735409861083845 2.0885259694020633 L20.560317835194937 2.1496784302692884 L20.393816392110615 2.203960164313422 L20.232451813977704 2.2528490866168283 L20.078138927526737 2.296081495469098 L19.792079673691454 2.3667014175534686 L19.53709041131878 2.418479786344288 L19.309954622305025 2.4547848968536785 L19.114458620027996 2.4776642673367535 L18.958149755283028 2.4897104825987513 L18.89771713452555 2.496733199194399 L18.8459502226695 2.507214107403538 L18.80294953668988 2.5207742661519386 L18.76882234175577 2.537056052476833 L18.743656149269466 2.5556987147261516 L18.727541599322542 2.5763217474810136 L18.72053657266707 2.5985597060553993 L18.71819677463704 2.6156338925712683 L18.667309637248103 2.9566113892603596 L18.610338339681103 3.296625249644804 L18.607287406045845 3.3135868033458435 L18.607077675173663 3.3369010310397056 L18.616030655311047 3.3614943705172893 L18.634204227210052 3.3870013770925724 L18.661629769661836 3.413032159278774 L18.69833553276824 3.4392165793559215 L18.744330012864303 3.465181370914743 L18.79963471185776 3.4905350781238043 L18.944570790994305 3.550293805223073 L19.123428423569653 3.6324649666456965 L19.328228499664966 3.7371819974064806 L19.554737303332416 3.865222167904412 L19.804973064673483 4.0207828758163275 L19.938373791837876 4.109584644334816 L20.07673311754197 4.205945169399331 L20.218311421656082 4.309021941778814 L20.365936684173228 4.421287799753284 L20.50519317466719 4.531768154216339 A21 21 0 0 1 20.3276405874077 5.271327905107259 L20.15340511450792 5.3065454980171545 L19.970902409504603 5.33955464321167 L19.7979593414513 5.3671215148570255 L19.630933516637445 5.3901655519436975 L19.471757439135036 5.408725844262155 L19.178172659670135 5.433726791575095 L18.918222816825242 5.44497857387455 L18.688204075743716 5.445304842582836 L18.49153583157976 5.437320217515414 L18.33526694509922 5.424766030240564 L18.27447975527168 5.422248540842213 L18.221710604734014 5.424502282516243 L18.17711805237468 5.431168703901072 L18.140863987307412 5.4419113649353905 L18.113091277515622 5.456387645218002 L18.09394897132259 5.474235903217379 L18.08355140501625 5.495104248022496 L18.078569422549037 5.511602197916237 L17.974968157978402 5.8404211936865025 L17.865508385267397 6.16733664477142 L17.85984164210845 6.18361210242921 L17.855987344634215 6.206606484155626 L17.860982852824762 6.23229759347224 L17.874942502967997 6.260333539468022 L17.89795827999624 6.290334139591788 L17.930115988501925 6.321938232422675 L17.97148241194716 6.354778476199938 L18.022140024699084 6.388471598202443 L18.155943375688565 6.470167594211952 L18.3197445723308 6.579306590352525 L18.50564186695547 6.714772171040861 L18.709332075804465 6.876669738098103 L18.932151963557505 7.069460733016752 L19.05001864925187 7.178037675796631 L19.171600434872946 7.294856009996325 L19.29531091538243 7.418811462527113 L19.423556416513392 7.5527888204637 L19.543815493378595 7.683693493025481 A21 21 0 0 1 19.252756239103988 8.38637269214944 L19.075156648695927 8.393900265056262 L18.889737086867143 8.397953299872308 L18.71461082614547 8.398126521249774 L18.546036484784523 8.394758252447863 L18.385916659533894 8.38818941223755 L18.092035386061813 8.366955778482826 L17.83352579059961 8.33740391806818 L17.606287922244174 8.301743311156939 L17.413290061069087 8.263091298507634 L17.26090901146483 8.226245834451602 L17.201264034921902 8.214250128003307 L17.148791997319623 8.208221208542472 L17.103705595213864 8.207829743144652 L17.066217355415734 8.212768758920882 L17.036521984605862 8.222722203172207 L17.014823269274874 8.237356203069183 L17.001289185907673 8.256341086197864 L16.99378769194587 8.271856565189537 L16.840023307160155 8.580420445077431 L16.680770322185445 8.886187743486932 L16.672627303526227 8.901376349318792 L16.665223345045437 8.92348468708568 L16.666138375298353 8.949640965866045 L16.675540370769863 8.979515513245941 L16.69357965755915 9.01274721696594 L16.72039748195539 9.048992784897099 L16.756117270117283 9.087899845100488 L16.800880438078746 9.129102745411673 L16.92025637835194 9.2307243837762 L17.06496780997473 9.364143850338182 L17.227384914777353 9.52702236877304 L17.403240999856973 9.71879087698142 L17.593158448888698 9.944065004775277 L17.69258882413414 10.069743597139093 L17.794399322603393 10.204143285388144 L17.89719581690656 10.34592522344437 L18.00290372679108 10.498315114145315 L18.101204212438105 10.646420797319653 A21 21 0 0 1 17.703805135958902 11.294917150735657 L17.52721451937766 11.274569349811854 L17.343443745707873 11.24956647508101 L17.170446482067533 11.222341780905385 L17.004474483909956 11.192644144171437 L16.84735359241602 11.16110791807906 L16.560412157225674 11.094162545790107 L16.3097081733306 11.024534707541768 L16.090846528179412 10.953765307503925 L15.906271297858503 10.885397648102836 L15.76153021229549 10.825168164873764 L15.70449610630999 10.803989615479754 L15.653613217353577 10.789826486890016 L15.609143142354421 10.782386773886838 L15.571343812705594 10.781400529444916 L15.540456979460274 10.786586050833902 L15.516736149376678 10.797645454983552 L15.500398802998166 10.814279405605953 L15.490562509219142 10.828430371109858 L15.290421193686507 11.109141268327738 L15.085296333468527 11.386231408391497 L15.074877547453553 11.399959168513751 L15.064106237996336 11.420637081671924 L15.060918259229982 11.44661447552476 L15.06553109169783 11.477592013784335 L15.078149701138448 11.51323654626528 L15.098967297585354 11.553231103122103 L15.128160910732175 11.597246958804277 L15.165927416147529 11.644945085273898 L15.267936513868875 11.763990103994031 L15.38999490475596 11.918404810916837 L15.524932571584827 12.104685657411537 L15.668624372447535 12.321603129655779 L15.820962984862904 12.573813393656591 L15.899508743830383 12.713499011557014 L15.979041042785829 12.86217068748374 L16.05839236003093 13.018287969203183 L16.13895979910321 13.18533804780638 L16.212881209334817 13.346997888138937 A21 21 0 0 1 15.718927594805864 13.925343263389884 L15.547694199102326 13.877621119024685 L15.370097259939513 13.824177988502605 L15.203488760156338 13.77022574109807 L15.044205886626255 13.714929990809283 L14.893952766691926 13.659202905383971 L14.62101662022173 13.548194211805495 L14.3842914120161 13.440204864182686 L14.179195090132941 13.336069248517344 L14.007587345406776 13.23966938103818 L13.874050229779698 13.157538928403362 L13.82103136332633 13.127699022237291 L13.772990528612516 13.105750427749259 L13.730231781554165 13.091445657565854 L13.693052106999376 13.084558437517098 L13.661734347660627 13.084848351297387 L13.636575488386006 13.092060840465487 L13.617837158684566 13.105934275512368 L13.605908267285947 13.118372283793441 L13.36431816442575 13.364318164425743 L13.118372283793448 13.60590826728594 L13.105934275512375 13.617837158684559 L13.092060840465495 13.636575488385999 L13.084848351297392 13.661734347660621 L13.084558437517105 13.69305210699937 L13.091445657565862 13.730231781554158 L13.105750427749266 13.772990528612508 L13.127699022237298 13.821031363326323 L13.157538928403369 13.87405022977969 L13.239669381038187 14.007587345406769 L13.336069248517349 14.179195090132936 L13.440204864182693 14.384291412016093 L13.548194211805502 14.621016620221724 L13.659202905383976 14.893952766691921 L13.714929990809289 15.04420588662625 L13.770225741098079 15.203488760156333 L13.824177988502612 15.370097259939506 L13.87762111902469 15.54769419910232 L13.925343263389893 15.718927594805859 A21 21 0 0 1 13.346997888138945 16.212881209334814 L13.18533804780639 16.138959799103205 L13.018287969203191 16.058392360030922 L12.862170687483749 15.979041042785825 L12.713499011557023 15.89950874383038 L12.573813393656602 15.820962984862895 L12.321603129655788 15.66862437244753 L12.104685657411546 15.524932571584824 L11.918404810916845 15.389994904755957 L11.76399010399404 15.267936513868872 L11.644945085273907 15.165927416147523 L11.597246958804286 15.12816091073217 L11.553231103122112 15.098967297585348 L11.513236546265288 15.078149701138443 L11.477592013784342 15.065531091697826 L11.446614475524767 15.060918259229979 L11.42063708167193 15.064106237996333 L11.39995916851376 15.07487754745355 L11.386231408391506 15.085296333468523 L11.109141268327745 15.290421193686504 L10.828430371109867 15.490562509219139 L10.814279405605962 15.500398802998163 L10.79764545498356 15.516736149376674 L10.78658605083391 15.54045697946027 L10.781400529444927 15.57134381270559 L10.782386773886847 15.60914314235442 L10.789826486890025 15.653613217353572 L10.803989615479763 15.704496106309985 L10.825168164873773 15.761530212295488 L10.885397648102845 15.906271297858499 L10.953765307503934 16.090846528179412 L11.024534707541777 16.309708173330595 L11.094162545790116 16.56041215722567 L11.16110791807907 16.847353592416013 L11.192644144171446 17.004474483909956 L11.222341780905394 17.170446482067533 L11.24956647508102 17.343443745707866 L11.274569349811863 17.527214519377658 L11.294917150735666 17.7038051359589 A21 21 0 0 1 10.646420797319658 18.1012042124381 L10.498315114145322 18.002903726791075 L10.345925223444377 17.897195816906553 L10.20414328538815 17.79439932260339 L10.0697435971391 17.692588824134134 L9.944065004775283 17.59315844888869 L9.718790876981425 17.40324099985697 L9.527022368773045 17.22738491477735 L9.364143850338188 17.064967809974725 L9.230724383776208 16.920256378351937 L9.129102745411679 16.800880438078742 L9.087899845100493 16.75611727011728 L9.048992784897106 16.720397481955388 L9.012747216965945 16.693579657559148 L8.979515513245946 16.675540370769856 L8.949640965866053 16.66613837529835 L8.923484687085683 16.66522334504543 L8.901376349318799 16.67262730352622 L8.886187743486937 16.68077032218544 L8.580420445077436 16.84002330716015 L8.271856565189543 16.993787691945865 L8.256341086197871 17.001289185907666 L8.23735620306919 17.014823269274867 L8.222722203172214 17.03652198460586 L8.212768758920888 17.066217355415727 L8.207829743144657 17.10370559521386 L8.20822120854248 17.14879199731962 L8.214250128003316 17.2012640349219 L8.226245834451607 17.260909011464825 L8.263091298507641 17.413290061069084 L8.301743311156944 17.60628792224417 L8.337403918068189 17.833525790599605 L8.366955778482835 18.09203538606181 L8.388189412237555 18.385916659533887 L8.39475825244787 18.546036484784516 L8.39812652124978 18.714610826145467 L8.397953299872315 18.889737086867136 L8.393900265056269 19.075156648695923 L8.386372692149449 19.25275623910398 A21 21 0 0 1 7.68369349302549 19.54381549337859 L7.552788820463709 19.42355641651339 L7.418811462527122 19.295310915382426 L7.294856009996334 19.171600434872943 L7.17803767579664 19.050018649251868 L7.0694607330167605 18.9321519635575 L6.87666973809811 18.70933207580446 L6.71477217104087 18.505641866955468 L6.579306590352533 18.319744572330798 L6.4701675942119605 18.15594337568856 L6.388471598202452 18.02214002469908 L6.354778476199947 17.971482411947157 L6.321938232422684 17.930115988501925 L6.290334139591796 17.89795827999624 L6.260333539468031 17.874942502967993 L6.232297593472248 17.86098285282476 L6.206606484155634 17.85598734463421 L6.183612102429218 17.859841642108446 L6.167336644771428 17.865508385267393 L5.8404211936865105 17.9749681579784 L5.511602197916245 18.078569422549034 L5.495104248022504 18.083551405016248 L5.474235903217387 18.093948971322586 L5.45638764521801 18.11309127751562 L5.441911364935399 18.14086398730741 L5.43116870390108 18.17711805237468 L5.424502282516252 18.221710604734014 L5.422248540842222 18.274479755271678 L5.424766030240573 18.335266945099217 L5.437320217515423 18.491535831579757 L5.445304842582844 18.688204075743712 L5.444978573874559 18.91822281682524 L5.433726791575104 19.178172659670132 L5.408725844262164 19.471757439135033 L5.390165551943706 19.630933516637448 L5.367121514857034 19.797959341451296 L5.339554643211681 19.9709024095046 L5.306545498017163 20.153405114507915 L5.271327905107268 20.327640587407696 A21 21 0 0 1 4.531768154216347 20.505193174667188 L4.421287799753292 20.365936684173228 L4.3090219417788225 20.21831142165608 L4.205945169399339 20.076733117541966 L4.1095846443348245 19.938373791837876 L4.0207828758163355 19.80497306467348 L3.8652221679044203 19.554737303332413 L3.7371819974064886 19.328228499664963 L3.6324649666457045 19.12342842356965 L3.550293805223081 18.944570790994305 L3.4905350781238123 18.799634711857756 L3.4651813709147508 18.7443300128643 L3.4392165793559295 18.698335532768237 L3.413032159278782 18.661629769661833 L3.3870013770925804 18.63420422721005 L3.361494370517297 18.616030655311047 L3.3369010310397136 18.60707767517366 L3.3135868033458515 18.607287406045845 L3.2966252496448116 18.610338339681103 L2.9566113892603676 18.6673096372481 L2.615633892571276 18.71819677463704 L2.5985597060554073 18.72053657266707 L2.5763217474810216 18.72754159932254 L2.55569871472616 18.743656149269466 L2.537056052476841 18.768822341755772 L2.5207742661519466 18.802949536689876 L2.507214107403546 18.845950222669497 L2.4967331991944066 18.897717134525546 L2.4897104825987593 18.958149755283024 L2.4776642673367615 19.114458620027996 L2.4547848968536865 19.30995462230502 L2.418479786344297 19.537090411318776 L2.366701417553477 19.79207967369145 L2.2960814954691067 20.078138927526734 L2.2528490866168367 20.232451813977704 L2.203960164313431 20.39381639211061 L2.1496784302692964 20.560317835194933 L2.088525969402072 20.735409861083845 L2.026485530507033 20.901990960878177 A21 21 0 0 1 1.2682556433741796 20.96166494716097 L1.180920000000005 20.80684 L1.093130000000005 20.64347 L1.0134700000000052 20.48751 L0.939940000000005 20.33578 L0.873100000000005 20.19013 L0.7586000000000049 19.91864 L0.6675700000000048 19.67489 L0.5961800000000048 19.45623 L0.5430000000000048 19.26672 L0.5066500000000047 19.11422 L0.49026000000000464 19.05563 L0.47181000000000467 19.00614 L0.45169000000000464 18.96579 L0.43027000000000465 18.93463 L0.4079200000000046 18.91269 L0.3850300000000046 18.9 L0.3619700000000046 18.89656 L0.3447400000000046 18.89692 L4.6291649007769944e-15 18.9 L-0.3447399999999954 18.89692 L-0.3619699999999954 18.89656 L-0.3850299999999954 18.9 L-0.4079199999999954 18.91269 L-0.4302699999999953 18.93463 L-0.4516899999999953 18.96579 L-0.47180999999999534 19.00614 L-0.4902599999999953 19.05563 L-0.5066499999999954 19.11422 L-0.5429999999999953 19.26672 L-0.5961799999999953 19.45623 L-0.6675699999999952 19.67489 L-0.7585999999999952 19.91864 L-0.873099999999995 20.19013 L-0.939939999999995 20.33578 L-1.013469999999995 20.48751 L-1.0931299999999948 20.64347 L-1.1809199999999949 20.80684 L-1.2682556433741694 20.96166494716097 A21 21 0 0 1 -2.026485530507023 20.901990960878173 L-2.088525969402062 20.735409861083845 L-2.1496784302692866 20.560317835194937 L-2.203960164313421 20.393816392110615 L-2.252849086616827 20.232451813977704 L-2.2960814954690965 20.078138927526737 L-2.3667014175534677 19.792079673691454 L-2.418479786344287 19.53709041131878 L-2.4547848968536776 19.309954622305025 L-2.477664267336752 19.114458620027996 L-2.4897104825987504 18.958149755283028 L-2.4967331991943977 18.89771713452555 L-2.5072141074035366 18.8459502226695 L-2.5207742661519377 18.80294953668988 L-2.537056052476832 18.76882234175577 L-2.5556987147261507 18.743656149269466 L-2.5763217474810123 18.727541599322542 L-2.5985597060553984 18.72053657266707 L-2.615633892571267 18.71819677463704 L-2.9566113892603583 18.667309637248103 L-3.2966252496448027 18.610338339681103 L-3.3135868033458427 18.607287406045845 L-3.3369010310397043 18.607077675173663 L-3.3614943705172884 18.616030655311047 L-3.3870013770925715 18.634204227210052 L-3.413032159278773 18.661629769661836 L-3.43921657935592 18.69833553276824 L-3.465181370914742 18.744330012864303 L-3.4905350781238034 18.79963471185776 L-3.5502938052230717 18.944570790994305 L-3.6324649666456956 19.123428423569653 L-3.7371819974064797 19.328228499664966 L-3.865222167904411 19.554737303332416 L-4.020782875816326 19.804973064673483 L-4.109584644334815 19.938373791837876 L-4.20594516939933 20.07673311754197 L-4.309021941778813 20.218311421656082 L-4.421287799753282 20.365936684173228 L-4.531768154216337 20.50519317466719 A21 21 0 0 1 -5.271327905107258 20.3276405874077 L-5.306545498017154 20.15340511450792 L-5.339554643211669 19.970902409504603 L-5.367121514857025 19.7979593414513 L-5.390165551943697 19.630933516637445 L-5.408725844262154 19.471757439135036 L-5.4337267915750935 19.178172659670135 L-5.4449785738745495 18.91822281682524 L-5.445304842582834 18.688204075743716 L-5.437320217515413 18.49153583157976 L-5.424766030240563 18.33526694509922 L-5.4222485408422125 18.27447975527168 L-5.424502282516242 18.221710604734014 L-5.43116870390107 18.17711805237468 L-5.44191136493539 18.140863987307412 L-5.456387645218001 18.113091277515622 L-5.4742359032173775 18.09394897132259 L-5.495104248022495 18.08355140501625 L-5.511602197916236 18.078569422549037 L-5.840421193686501 17.974968157978402 L-6.167336644771419 17.865508385267397 L-6.183612102429209 17.85984164210845 L-6.206606484155624 17.855987344634215 L-6.232297593472239 17.860982852824762 L-6.2603335394680215 17.874942502967997 L-6.290334139591787 17.89795827999624 L-6.321938232422674 17.930115988501925 L-6.354778476199937 17.97148241194716 L-6.388471598202442 18.022140024699084 L-6.470167594211951 18.155943375688565 L-6.579306590352523 18.3197445723308 L-6.7147721710408605 18.505641866955475 L-6.8766697380981014 18.709332075804465 L-7.069460733016751 18.932151963557505 L-7.17803767579663 19.05001864925187 L-7.294856009996324 19.171600434872946 L-7.418811462527112 19.29531091538243 L-7.552788820463699 19.423556416513392 L-7.68369349302548 19.543815493378595 A21 21 0 0 1 -8.38637269214944 19.252756239103988 L-8.393900265056262 19.075156648695927 L-8.397953299872308 18.889737086867143 L-8.398126521249774 18.71461082614547 L-8.394758252447861 18.546036484784523 L-8.388189412237548 18.385916659533894 L-8.366955778482826 18.092035386061813 L-8.33740391806818 17.83352579059961 L-8.301743311156937 17.606287922244174 L-8.263091298507634 17.413290061069087 L-8.2262458344516 17.26090901146483 L-8.214250128003306 17.201264034921902 L-8.208221208542472 17.148791997319623 L-8.20782974314465 17.103705595213864 L-8.21276875892088 17.066217355415734 L-8.222722203172207 17.036521984605862 L-8.237356203069181 17.014823269274874 L-8.256341086197862 17.001289185907673 L-8.271856565189536 16.99378769194587 L-8.58042044507743 16.840023307160155 L-8.88618774348693 16.680770322185445 L-8.90137634931879 16.672627303526227 L-8.923484687085677 16.665223345045437 L-8.949640965866045 16.666138375298353 L-8.97951551324594 16.675540370769863 L-9.012747216965938 16.69357965755915 L-9.048992784897099 16.72039748195539 L-9.087899845100486 16.756117270117283 L-9.129102745411672 16.800880438078746 L-9.2307243837762 16.92025637835194 L-9.36414385033818 17.06496780997473 L-9.527022368773036 17.227384914777353 L-9.71879087698142 17.403240999856973 L-9.944065004775275 17.593158448888698 L-10.069743597139091 17.69258882413414 L-10.204143285388144 17.794399322603393 L-10.34592522344437 17.89719581690656 L-10.498315114145315 18.00290372679108 L-10.64642079731965 18.101204212438105 A21 21 0 0 1 -11.294917150735657 17.703805135958902 L-11.274569349811854 17.52721451937766 L-11.24956647508101 17.343443745707873 L-11.222341780905385 17.170446482067533 L-11.192644144171437 17.004474483909956 L-11.16110791807906 16.84735359241602 L-11.094162545790107 16.560412157225674 L-11.024534707541768 16.3097081733306 L-10.953765307503925 16.090846528179412 L-10.885397648102836 15.906271297858503 L-10.825168164873764 15.76153021229549 L-10.803989615479754 15.70449610630999 L-10.789826486890016 15.653613217353577 L-10.782386773886838 15.609143142354421 L-10.781400529444916 15.571343812705594 L-10.786586050833902 15.540456979460274 L-10.797645454983552 15.516736149376678 L-10.814279405605953 15.500398802998166 L-10.828430371109858 15.490562509219142 L-11.109141268327738 15.290421193686507 L-11.386231408391497 15.085296333468527 L-11.399959168513751 15.074877547453553 L-11.420637081671924 15.064106237996336 L-11.44661447552476 15.060918259229982 L-11.477592013784335 15.06553109169783 L-11.51323654626528 15.078149701138448 L-11.553231103122103 15.098967297585354 L-11.597246958804277 15.128160910732175 L-11.644945085273898 15.165927416147529 L-11.763990103994031 15.267936513868875 L-11.918404810916837 15.38999490475596 L-12.104685657411537 15.524932571584827 L-12.321603129655779 15.668624372447535 L-12.573813393656591 15.820962984862904 L-12.713499011557014 15.899508743830383 L-12.86217068748374 15.979041042785829 L-13.018287969203183 16.05839236003093 L-13.18533804780638 16.13895979910321 L-13.346997888138937 16.212881209334817 A21 21 0 0 1 -13.925343263389884 15.718927594805864 L-13.877621119024685 15.547694199102326 L-13.824177988502605 15.370097259939513 L-13.77022574109807 15.203488760156338 L-13.714929990809283 15.044205886626255 L-13.659202905383971 14.893952766691926 L-13.548194211805495 14.62101662022173 L-13.440204864182686 14.3842914120161 L-13.336069248517344 14.179195090132941 L-13.23966938103818 14.007587345406776 L-13.157538928403362 13.874050229779698 L-13.127699022237291 13.82103136332633 L-13.105750427749259 13.772990528612516 L-13.091445657565854 13.730231781554165 L-13.084558437517098 13.693052106999376 L-13.084848351297387 13.661734347660627 L-13.092060840465487 13.636575488386006 L-13.105934275512368 13.617837158684566 L-13.118372283793441 13.605908267285947 L-13.364318164425743 13.36431816442575 L-13.60590826728594 13.118372283793448 L-13.617837158684559 13.105934275512375 L-13.636575488385999 13.092060840465495 L-13.661734347660621 13.084848351297392 L-13.69305210699937 13.084558437517105 L-13.730231781554158 13.091445657565862 L-13.772990528612508 13.105750427749266 L-13.821031363326323 13.127699022237298 L-13.87405022977969 13.157538928403369 L-14.007587345406769 13.239669381038187 L-14.179195090132936 13.336069248517349 L-14.384291412016093 13.440204864182693 L-14.621016620221724 13.548194211805502 L-14.893952766691921 13.659202905383976 L-15.04420588662625 13.714929990809289 L-15.203488760156333 13.770225741098079 L-15.370097259939506 13.824177988502612 L-15.54769419910232 13.87762111902469 L-15.718927594805859 13.925343263389893 A21 21 0 0 1 -16.21288120933481 13.346997888138945 L-16.1389597991032 13.18533804780639 L-16.058392360030922 13.018287969203191 L-15.979041042785822 12.862170687483749 L-15.899508743830376 12.713499011557023 L-15.820962984862895 12.573813393656602 L-15.668624372447526 12.321603129655788 L-15.52493257158482 12.104685657411546 L-15.389994904755953 11.918404810916845 L-15.26793651386887 11.76399010399404 L-15.165927416147522 11.644945085273907 L-15.128160910732168 11.597246958804286 L-15.098967297585347 11.553231103122112 L-15.078149701138441 11.513236546265288 L-15.065531091697824 11.477592013784342 L-15.060918259229977 11.446614475524767 L-15.06410623799633 11.42063708167193 L-15.074877547453546 11.39995916851376 L-15.085296333468522 11.386231408391506 L-15.290421193686502 11.109141268327745 L-15.490562509219137 10.828430371109867 L-15.50039880299816 10.814279405605962 L-15.516736149376673 10.79764545498356 L-15.540456979460268 10.78658605083391 L-15.571343812705589 10.781400529444927 L-15.609143142354418 10.782386773886847 L-15.65361321735357 10.789826486890025 L-15.704496106309984 10.803989615479763 L-15.761530212295487 10.825168164873773 L-15.906271297858497 10.885397648102845 L-16.09084652817941 10.953765307503934 L-16.30970817333059 11.024534707541777 L-16.560412157225667 11.094162545790116 L-16.847353592416013 11.16110791807907 L-17.004474483909952 11.192644144171446 L-17.17044648206753 11.222341780905394 L-17.343443745707866 11.24956647508102 L-17.527214519377655 11.274569349811863 L-17.703805135958895 11.294917150735666 A21 21 0 0 1 -18.1012042124381 10.646420797319658 L-18.002903726791075 10.498315114145324 L-17.897195816906553 10.345925223444379 L-17.79439932260339 10.204143285388152 L-17.692588824134134 10.0697435971391 L-17.59315844888869 9.944065004775284 L-17.40324099985697 9.718790876981426 L-17.22738491477735 9.527022368773045 L-17.064967809974725 9.36414385033819 L-16.920256378351937 9.23072438377621 L-16.800880438078742 9.12910274541168 L-16.75611727011728 9.087899845100493 L-16.720397481955388 9.048992784897107 L-16.693579657559148 9.012747216965947 L-16.675540370769856 8.979515513245948 L-16.66613837529835 8.949640965866053 L-16.66522334504543 8.923484687085686 L-16.67262730352622 8.901376349318799 L-16.68077032218544 8.88618774348694 L-16.84002330716015 8.580420445077438 L-16.993787691945865 8.271856565189545 L-17.001289185907666 8.256341086197871 L-17.014823269274867 8.23735620306919 L-17.03652198460586 8.222722203172214 L-17.066217355415727 8.21276875892089 L-17.10370559521386 8.207829743144659 L-17.14879199731962 8.208221208542481 L-17.2012640349219 8.214250128003316 L-17.260909011464825 8.226245834451609 L-17.413290061069084 8.263091298507643 L-17.60628792224417 8.301743311156946 L-17.833525790599605 8.337403918068189 L-18.09203538606181 8.366955778482836 L-18.385916659533887 8.388189412237557 L-18.546036484784516 8.39475825244787 L-18.714610826145467 8.398126521249782 L-18.889737086867136 8.397953299872317 L-19.075156648695923 8.39390026505627 L-19.25275623910398 8.386372692149449 A21 21 0 0 1 -19.54381549337859 7.683693493025491 L-19.42355641651339 7.552788820463711 L-19.295310915382426 7.418811462527124 L-19.171600434872943 7.2948560099963355 L-19.050018649251868 7.1780376757966415 L-18.9321519635575 7.069460733016761 L-18.70933207580446 6.876669738098112 L-18.505641866955468 6.714772171040871 L-18.319744572330798 6.579306590352535 L-18.15594337568856 6.470167594211961 L-18.02214002469908 6.388471598202453 L-17.971482411947157 6.3547784761999475 L-17.930115988501925 6.321938232422685 L-17.89795827999624 6.290334139591797 L-17.874942502967993 6.260333539468032 L-17.86098285282476 6.23229759347225 L-17.85598734463421 6.2066064841556345 L-17.859841642108446 6.18361210242922 L-17.865508385267393 6.167336644771429 L-17.9749681579784 5.840421193686511 L-18.078569422549034 5.511602197916246 L-18.083551405016248 5.495104248022506 L-18.093948971322586 5.474235903217388 L-18.11309127751562 5.456387645218012 L-18.14086398730741 5.4419113649354 L-18.17711805237468 5.431168703901081 L-18.221710604734014 5.4245022825162525 L-18.274479755271678 5.422248540842223 L-18.335266945099217 5.424766030240574 L-18.491535831579757 5.437320217515424 L-18.688204075743712 5.445304842582845 L-18.91822281682524 5.44497857387456 L-19.178172659670132 5.433726791575106 L-19.471757439135033 5.408725844262165 L-19.630933516637448 5.390165551943708 L-19.797959341451296 5.367121514857036 L-19.9709024095046 5.339554643211681 L-20.153405114507915 5.306545498017165 L-20.327640587407696 5.2713279051072695 A21 21 0 0 1 -20.505193174667188 4.531768154216344 Z" id="SvgjsPath1238">
        </path>
      </g>
    </g>
    <g transform="matrix(1,0,0,1,0,0)" id="SvgjsG1239">
      <g fill="none" stroke-width="0.04" stroke="blue" id="SvgjsG1240">
      </g>
      <g fill="none" stroke-width="0.1" stroke="black" id="SvgjsG1241">
        <path d="M-1.1 20.03532134262903  L1 19.270983850670003 L1 18.428127992407514 L-1.1 17.66379050044849 L-1.1 16.893728689039236 L1 16.12939119708021 L1 15.28653533881772 L-1.1 14.522197846858695 L-1.1 13.752136035449443 L1 12.987798543490419 L1 12.144942685227926 L-1.1 11.380605193268902 L-1.1 10.61054338185965 L1 9.846205889900626 L1 9.003350031638133 L-1.1 8.23901253967911 L-1.1 7.468950728269857 L1 6.704613236310832 L1 5.86175737804834 L-1.1 5.097419886089315 L-1.1 4.327358074680064 L1 3.5630205827210393 L1 2.720164724458547 L-1.1 1.9558272324995223 L-1.1 1.1857654210902708 L1 0.42142792913124594 L1 -0.42142792913124594 L-1.1 -1.1857654210902708 L-1.1 -1.9558272324995223 L1 -2.720164724458547 L1 -3.5630205827210393 L-1.1 -4.327358074680064 L-1.1 -5.097419886089315 L1 -5.86175737804834 L1 -6.704613236310832 L-1.1 -7.468950728269857 L-1.1 -8.23901253967911 L1 -9.003350031638133 L1 -9.846205889900626 L-1.1 -10.61054338185965 L-1.1 -11.380605193268902 L1 -12.144942685227926 L1 -12.987798543490419 L-1.1 -13.752136035449443 L-1.1 -14.522197846858695 L1 -15.28653533881772 L1 -16.12939119708021 L-1.1 -16.893728689039236 L-1.1 -17.66379050044849 L1 -18.428127992407514 L1 -19.270983850670003 L-1.1 -20.03532134262903 L-2.6707963267948966 -20.03532134262903 L-2.6707963267948966 20.03532134262903 Z" id="SvgjsPath1242">
        </path>
      </g>
    </g>
  </g>
</svg>
