<?xml version="1.0" encoding="UTF-8"?>
<svg viewBox="-26.6 -41.6 123.2 83.2" height="83.2mm" width="123.2mm" xmlns:svgjs="http://svgjs.com/svgjs" xmlns:xlink="http://www.w3.org/1999/xlink" version="1.1" xmlns="http://www.w3.org/2000/svg" id="SvgjsSvg1068">
  <defs id="SvgjsDefs1069">
  </defs>
  <defs id="SvgjsDefs1069">
  </defs>
  <g id="SvgjsG1070">
    <g transform="matrix(1,0,0,1,55,0)" id="SvgjsG1071">
      <g fill="none" stroke-width="0.04" stroke="blue" id="SvgjsG1072">
      </g>
      <g fill="none" stroke-width="0.1" stroke="black" id="SvgjsG1073">
        <path d="M-35.51235852220208 4.313217019114841  L-35.262530016273985 4.171903678535345 L-35.022288242984736 4.042547823365052 L-34.792704173768485 3.9250751556414185 L-34.5720788779135 3.817947190903439 L-34.362572025689495 3.7215992730681697 L-34.166194588777266 3.636222433282537 L-33.85465020420478 3.5096060897823844 L-33.81263197339513 3.485833904783366 L-33.78644854083249 3.46216154201077 L-33.779289395710684 3.4505631093095412 L-33.77606156045193 3.439238177541872 L-33.7885273879047 3.3084290064340407 L-33.81332728113837 3.043254537271569 L-33.8362746621852 2.7779133389945367 L-33.84736604511226 2.6469804656404192 L-33.8525641523807 2.636413882426073 L-33.86167922722279 2.6262801560323257 L-33.89166874484147 2.6076634502818834 L-33.93725641293165 2.591775938894012 L-34.26640237220041 2.5228227700252592 L-34.474868566311365 2.473882516522694 L-34.6982121422577 2.4164918423368578 L-34.934420335572455 2.350479635806705 L-35.18129044911765 2.2758886206762963 L-35.44076881809757 2.1915083923552117 L-35.711814948443106 2.0970746175460344 L-35.94377466654542 2.0112107724126767 A36 36 0 0 1 -35.97935914073475 1.2188608913605419 L-35.75603 1.1125500000000021 L-35.49454 0.9942000000000022 L-35.24367 0.8869000000000021 L-35.00448 0.7904800000000021 L-34.77514 0.7035600000000021 L-34.55784 0.6263800000000022 L-34.3546 0.5589500000000021 L-34.03296 0.4607700000000021 L-33.98898 0.44086000000000203 L-33.96078 0.41963000000000206 L-33.95261 0.4087200000000021 L-33.94838 0.397730000000002 L-33.94907 0.26633000000000207 L-33.95 2.078837941552632e-15 L-33.94907 -0.26632999999999796 L-33.94838 -0.3977299999999979 L-33.95261 -0.408719999999998 L-33.96078 -0.41962999999999795 L-33.98898 -0.4408599999999979 L-34.03296 -0.4607699999999979 L-34.3546 -0.5589499999999978 L-34.55784 -0.6263799999999979 L-34.77514 -0.7035599999999979 L-35.00448 -0.7904799999999979 L-35.24367 -0.8868999999999979 L-35.49454 -0.9941999999999978 L-35.75603 -1.1125499999999977 L-35.97935914073475 -1.2188608913605374 A36 36 0 0 1 -35.94377466654542 -2.0112107724126727 L-35.711814948443106 -2.0970746175460304 L-35.44076881809757 -2.1915083923552077 L-35.18129044911765 -2.2758886206762927 L-34.934420335572455 -2.3504796358067015 L-34.6982121422577 -2.416491842336854 L-34.474868566311365 -2.4738825165226905 L-34.26640237220041 -2.5228227700252552 L-33.93725641293165 -2.591775938894008 L-33.89166874484147 -2.60766345028188 L-33.86167922722279 -2.626280156032322 L-33.8525641523807 -2.636413882426069 L-33.84736604511226 -2.6469804656404152 L-33.8362746621852 -2.777913338994533 L-33.81332728113837 -3.0432545372715656 L-33.7885273879047 -3.308429006434037 L-33.77606156045193 -3.439238177541868 L-33.779289395710684 -3.4505631093095372 L-33.78644854083249 -3.4621615420107665 L-33.81263197339513 -3.4858339047833624 L-33.85465020420478 -3.5096060897823804 L-34.166194588777266 -3.636222433282533 L-34.362572025689495 -3.721599273068166 L-34.5720788779135 -3.8179471909034346 L-34.792704173768485 -3.925075155641414 L-35.022288242984736 -4.042547823365048 L-35.262530016273985 -4.171903678535341 L-35.51235852220208 -4.313217019114837 L-35.725258970643466 -4.439119003915115 A36 36 0 0 1 -35.618792053338325 -5.2250893496192035 L-35.38006936112849 -5.289814823331488 L-35.10164940450641 -5.359572047721239 L-34.83565183380278 -5.420353124379739 L-34.58308925970939 -5.472514591645534 L-34.34191468256428 -5.517087513233406 L-34.11432576182124 -5.5542267856417045 L-33.90231182081818 -5.5842832545020356 L-33.56830999200999 -5.623454421867616 L-33.52148170092798 -5.635191527743371 L-33.48994412365292 -5.651045048475998 L-33.479957363191815 -5.660320910457104 L-33.47383300075821 -5.670379000970804 L-33.4510495361978 -5.799790553170076 L-33.40440953292348 -6.062006578413712 L-33.35593942061436 -6.3238904878330215 L-33.33179813322169 -6.45305563151747 L-33.33399781510762 -6.464624313361169 L-33.34008846412422 -6.476817795003283 L-33.36404451564613 -6.502741924602554 L-33.403762671177255 -6.530184894944797 L-33.70270306812278 -6.6842181415964435 L-33.890636826293296 -6.786854417054524 L-34.090663704755215 -6.90159451594231 L-34.30079795130853 -7.028067914036423 L-34.51892761380896 -7.165647428635989 L-34.746606874888805 -7.316017641690755 L-34.98276241451204 -7.4791565509222995 L-35.183520021432656 -7.623635940409873 A36 36 0 0 1 -35.00702787002831 -8.396898579685384 L-34.763464258461966 -8.43996455052023 L-34.479912149345786 -8.484483580336354 L-34.20953703295371 -8.521176131841708 L-33.953315483654336 -8.550488077778908 L-33.70911631856569 -8.57326283946833 L-33.47911446519564 -8.589851686515196 L-33.26525978889126 -8.600782373718948 L-32.929091276879305 -8.609856156374002 L-32.88139939667067 -8.617348356462433 L-32.84856768176766 -8.630311048950025 L-32.83778964321065 -8.638654362731938 L-32.83078833537713 -8.64812297871424 L-32.79649622824355 -8.774971264033116 L-32.726539120624224 -9.03195090698862 L-32.654789042084 -9.288435721411368 L-32.619166666202666 -9.414916875883362 L-32.62032048417063 -9.426636163579158 L-32.62529359875738 -9.439326519417628 L-32.64682938919762 -9.46729368999518 L-32.683927682215796 -9.498186491019657 L-32.96785719923227 -9.678396455690843 L-33.14583414654353 -9.797465799880534 L-33.334770552431905 -9.92967426001068 L-33.53272187228724 -10.074474802024625 L-33.73764087628755 -10.231053454144012 L-33.95092448562101 -10.401227332543987 L-34.17150567339155 -10.584878311854574 L-34.358504056584025 -10.746771842937793 A36 36 0 0 1 -34.11340768210788 -11.501100919684351 L-33.86696418217227 -11.522160645766972 L-33.58056291541865 -11.541083039958153 L-33.30798715479733 -11.55339163946051 L-33.05016957555109 -11.559618061515577 L-32.804911970609425 -11.560411294316769 L-32.57434902429681 -11.556316152359866 L-32.360375444800184 -11.54803305044081 L-32.02474688077931 -11.5269363916227 L-31.97657539842111 -11.530123363134038 L-31.94271388755383 -11.540090859398624 L-31.931231349329973 -11.54743444952456 L-31.923409466510513 -11.556237355247028 L-31.877884816686965 -11.679501065877705 L-31.785173858219082 -11.929175277561583 L-31.690721502891797 -12.178195932072668 L-31.643904848946768 -12.300974745446112 L-31.64400351313292 -12.312750282180309 L-31.64781905269532 -12.325835336931732 L-31.666761188532114 -12.355620373274508 L-31.700940925395393 -12.389714274312043 L-31.967573528959647 -12.594650012328973 L-32.13416069968066 -12.729193748902503 L-32.310485428148084 -12.877806105491356 L-32.494660033671444 -13.039767942602177 L-32.68471849184185 -13.214085053001277 L-32.88188921521531 -13.402692456738205 L-33.08512006110887 -13.60537685642745 L-33.256853619545005 -13.783381057585888 A36 36 0 0 1 -32.945126393890014 -14.512703157615846 L-32.69778722374018 -14.511587078414745 L-32.41084273394781 -14.504760484989145 L-32.13826094884981 -14.492586030882652 L-31.88092313521052 -14.475676797566276 L-31.636581760441683 -14.454482114835134 L-31.407314078461393 -14.429735955549594 L-31.194944385220207 -14.402305755174002 L-30.862558053041514 -14.351208512774893 L-30.81429481698533 -14.350064596088439 L-30.779676143129016 -14.356956643710891 L-30.767581555884483 -14.363241383911115 L-30.759002075280353 -14.371307703552896 L-30.702611420479162 -14.489994392575264 L-30.587893065287133 -14.730352943041098 L-30.4714989080008 -14.969904469752167 L-30.413864916161902 -15.087992399214555 L-30.41290763218023 -15.09972937528927 L-30.415534876237217 -15.113103775786676 L-30.4317308465306 -15.144466866295359 L-30.462716832095122 -15.181487363301688 L-30.70990575326069 -15.409498852602116 L-30.86376188544448 -15.55843371450303 L-31.026055273454585 -15.722253428237984 L-31.194970299015228 -15.900072538965283 L-31.36863797240309 -16.090724608767964 L-31.54810830708646 -16.296246981926316 L-31.732352515829703 -16.516332906384417 L-31.887438551874673 -16.709014592455123 A36 36 0 0 1 -31.511590319369162 -17.407457643053483 L-31.265346908570073 -17.384174744582143 L-30.980169504050135 -17.35165412725605 L-30.70977636273358 -17.315094641086713 L-30.45499024746447 -17.275185895603087 L-30.2135323959477 -17.232173944462687 L-29.987405906867824 -17.18697600937258 L-29.778349975780696 -17.140619562385176 L-29.45188205475089 -17.059933141356176 L-29.40391565219512 -17.054467546616472 L-29.36881854455622 -17.058228654881795 L-29.356209286796 -17.063403944123582 L-29.346941285340368 -17.070668732421844 L-29.280138649956818 -17.183822804402535 L-29.144336542783357 -17.41293046793051 L-29.00693772085379 -17.64108413880251 L-28.93895042613507 -17.75353040978038 L-28.936944901473314 -17.765134325965494 L-28.938362697000542 -17.778690389400097 L-28.951682101320788 -17.81137901691111 L-28.979224854650248 -17.851028042612036 L-29.204979873568636 -18.100279468752703 L-29.3448662081048 -18.26240632004525 L-29.4918215647243 -18.440114410915747 L-29.64411700585683 -18.63235910033589 L-29.799995624470984 -18.837811111177704 L-29.96032058085623 -19.058593708454 L-30.124094726414192 -19.29430915522566 L-30.26128457849488 -19.500116966567383 A36 36 0 0 1 -29.824341448111802 -20.162057514968595 L-29.581176403818446 -20.11679525743539 L-29.300062165350525 -20.058842453097704 L-29.0340347144007 -19.998192290351522 L-28.783851685490117 -19.935605354453315 L-28.547221433870902 -19.87112244184363 L-28.326056775221293 -19.805836638146335 L-28.121997801722447 -19.740927179401115 L-27.804076819581617 -19.6313012193615 L-27.75679344779586 -19.62155795232368 L-27.721500487648317 -19.622157838999613 L-27.708478081701763 -19.626182008897015 L-27.698596179892867 -19.632586774047997 L-27.62191941946775 -19.739297178932947 L-27.466126959029467 -19.955309315329462 L-27.308829726981642 -20.170228171156705 L-27.231036523104294 -20.27612743239349 L-27.227998905067807 -20.28750486077887 L-27.228195836809338 -20.30113344169873 L-27.23853143514454 -20.33488441660396 L-27.26240919818401 -20.37684274035779 L-27.46491266818469 -20.64532727741287 L-27.589702922559372 -20.819340768019497 L-27.72013704966512 -21.009506434968507 L-27.854586713025807 -21.214628861880335 L-27.991421233884314 -21.433226634973803 L-28.13130996969217 -21.66749184471285 L-28.273295438942462 -21.916938971619086 L-28.391484535036234 -22.134215864747944 A36 36 0 0 1 -27.896964515943036 -22.75432435487102 L-27.658835660113326 -22.68744716335982 L-27.384047954253074 -22.604528773915373 L-27.124528090283416 -22.520276254041065 L-26.880962474374904 -22.435515040935613 L-26.651065030302956 -22.350080345353636 L-26.436642889872346 -22.26523231595309 L-26.239223836831655 -22.182292458245726 L-25.932409506393498 -22.044609602966716 L-25.886189863285193 -22.030667110688015 L-25.850985208792196 -22.02810094583977 L-25.837654503414942 -22.03094159614295 L-25.827238264515668 -22.0364347707436 L-25.74130473523873 -22.135842339097373 L-25.566776270822594 -22.33701974565324 L-25.39084709347968 -22.536973386178857 L-25.303874325579667 -22.635472999090833 L-25.299829071282783 -22.646532335312937 L-25.29880355366003 -22.660123704397964 L-25.30607212984963 -22.69466528369272 L-25.326092652891013 -22.738595081747683 L-25.50371413510365 -23.024151050091163 L-25.61240357156411 -23.208650125703773 L-25.72526629025867 -23.409742266596634 L-25.84078766621326 -23.626090905828683 L-25.957476378211556 -23.85607442043827 L-26.07580259159455 -24.101936076916953 L-26.19485620102487 -24.363106482364458 L-26.293092952024043 -24.59010307149372 A36 36 0 0 1 -25.744977628641397 -25.16338675439408 L-25.513802234804974 -25.07543308472779 L-25.247553490587425 -24.968216720293157 L-24.99663071494741 -24.86104019504107 L-24.761643559166004 -24.75478715217751 L-24.54032992168348 -24.649088543557276 L-24.334376700468436 -24.54536143489639 L-24.145187070020466 -24.445058961193293 L-23.851949679869758 -24.280427752069386 L-23.807165898828508 -24.262398291299583 L-23.772332997168025 -24.256686736177638 L-23.758801323361446 -24.25832099564062 L-23.74793461280277 -24.262858351878993 L-23.65343620092365 -24.354162712411906 L-23.46157693310406 -24.53888562693994 L-23.268432288757353 -24.72226414302125 L-23.172980210422633 -24.812571046642088 L-23.167959889874382 -24.82322324742844 L-23.165720179752245 -24.836667974966357 L-23.169863211494622 -24.87172205016428 L-23.18586530105826 -24.91726962561674 L-23.337174691747823 -25.217597896495707 L-23.428888206860034 -25.411097079041173 L-23.52327081289468 -25.62149661819967 L-23.618933791249454 -25.847329557719785 L-23.714537185490382 -26.086847121813975 L-23.81034818335304 -26.34232569153864 L-23.905511383302642 -26.61311658498846 L-23.98300484465045 -26.84800522705429 A36 36 0 0 1 -23.38570731927564 -27.369848359602564 L-23.163346675774743 -27.261526363013413 L-22.90778057153661 -27.130875266712827 L-22.66747516687549 -27.001637658445514 L-22.442958449629334 -26.874748272849207 L-22.232010506014927 -26.749636774237548 L-22.03618441825414 -26.627865736004704 L-21.856747454061555 -26.51100822284723 L-21.579447979243 -26.32075417357271 L-21.536460632941314 -26.298782906928768 L-21.5022799381561 -26.289971947616632 L-21.488656245001188 -26.29038665814315 L-21.477426555147005 -26.293931663894735 L-21.37512410631399 -26.376397687581875 L-21.16747877310401 -26.54317882978961 L-20.958673748862566 -26.70850576543995 L-20.855510884102983 -26.789892861681285 L-20.849555917972523 -26.800052161774552 L-20.846120048179984 -26.813241998724596 L-20.847104178219602 -26.848526335023653 L-20.858958994889413 -26.895324965577608 L-20.982738039810542 -27.20800747234511 L-21.056737210277493 -27.408948820181248 L-21.131879790404515 -27.62696174422901 L-21.206914149106677 -27.860460709995788 L-21.2806624832737 -28.107583868982534 L-21.35318685179718 -28.370622388728734 L-21.42369344413513 -28.64885352112928 L-21.479819684046213 -28.889743030898046 A36 36 0 0 1 -20.838149045148306 -29.355944039029747 L-20.626393469138463 -29.228125860541972 L-20.383567672880634 -29.07509195818124 L-20.15581443701945 -28.92483381212999 L-19.943575834902113 -28.778329722524003 L-19.744692013962432 -28.634812658143375 L-19.56056973617068 -28.495978119138208 L-19.392330159161926 -28.363506434511205 L-19.133201251997317 -28.149161358823257 L-19.092356449271463 -28.123425186025305 L-19.05910316421801 -28.11158576318659 L-19.045497141681448 -28.110777585771327 L-19.033994887391504 -28.113301698734247 L-18.92471208076973 -28.18626541764212 L-18.702952520298886 -28.333761963838224 L-18.48016829144254 -28.4797062037824 L-18.37012524698636 -28.55151821160014 L-18.363283581159504 -28.561102814289537 L-18.358679215299865 -28.573931563840084 L-18.356496520000313 -28.60916207251125 L-18.36410861576299 -28.656834963110626 L-18.459360718826883 -28.97935417007651 L-18.51504974683878 -29.186119821622142 L-18.570347297186114 -29.409990818684257 L-18.62414890369888 -29.64927581432052 L-18.6754483995686 -29.90201487782973 L-18.724102215181194 -30.1704955161006 L-18.76938452228319 -30.453926733971045 L-18.803691645275478 -30.69887761075083 A36 36 0 0 1 -18.122814247542653 -31.10568291807024 L-17.92336867041163 -30.959397674501147 L-17.695238272666323 -30.785213105079606 L-17.481870940743494 -30.615144211486058 L-17.28361927418495 -30.450204982656892 L-17.098400871504403 -30.289437867523024 L-16.92746484800032 -30.134657641820215 L-16.771777224326208 -29.98763836983621 L-16.532905238410695 -29.75092804825141 L-16.494531837595865 -29.721634181830183 L-16.462473698172808 -29.706861619536127 L-16.448994893947848 -29.704837061148435 L-16.437312684610482 -29.70631995864926 L-16.321929401101613 -29.769193911815194 L-16.08784109095831 -29.89621830653626 L-15.852871385102802 -30.02160479356806 L-15.73683416283972 -30.083263524900033 L-15.729160882386877 -30.092196260600364 L-15.723425092106723 -30.104560633203214 L-15.718093145247144 -30.13945365890587 L-15.721401231983437 -30.187616975466774 L-15.787359479263559 -30.517376147614772 L-15.82428998951147 -30.72830134741989 L-15.859297286718151 -30.95622793986203 L-15.89143296214072 -31.199372383280206 L-15.919870586336014 -31.455692444980667 L-15.944262117122385 -31.72745355354092 L-15.963955552477204 -32.013802835369816 L-15.976167337768628 -32.26084287872957 A36 36 0 0 1 -15.261565205657998 -32.6049771280998 L-15.076035445920763 -32.44140262221627 L-14.864437218512114 -32.24746981746804 L-14.667173698826323 -32.05895947106452 L-14.48450517367561 -31.876913096700005 L-14.314443458925927 -31.70019033309442 L-14.158069966062008 -31.530710620062035 L-14.01618780092552 -31.370327473453102 L-13.799495993035253 -31.11315775829744 L-13.763902954191613 -31.08054205524085 L-13.733298073687704 -31.062955293476918 L-13.720055011180555 -31.059730654670513 L-13.708286905076319 -31.0601603972905 L-13.5877321430349 -31.11243836061288 L-13.34319982465071 -31.21796787812175 L-13.097936479707643 -31.321787073973663 L-12.976839343122544 -31.37279608896993 L-12.968396228786098 -31.381005036545698 L-12.961575195296176 -31.392805481542787 L-12.953136926577548 -31.42708008615075 L-12.95211436951819 -31.475346045967797 L-12.988247703990252 -31.809690156339023 L-13.006122353720453 -32.0230766587168 L-13.02055753961333 -32.253223715635286 L-13.030768546382669 -32.49826995074359 L-13.03611533587456 -32.756107272212255 L-13.036048195570809 -33.028960790408696 L-13.029994199216532 -33.31592262014942 L-13.020012324692331 -33.5630628089172 A36 36 0 0 1 -12.277439014392407 -33.841755233709975 L-12.107318848584628 -33.66220847125316 L-11.91395645602199 -33.45008886409141 L-11.734384998444678 -33.244654839344875 L-11.568770354258955 -33.04696704980987 L-11.41523456437263 -32.8557115055138 L-11.274682629567293 -32.67289685614873 L-11.147748274736747 -32.500441145707605 L-10.954981319896131 -32.22488261631417 L-10.922455217244083 -32.189207679085506 L-10.893550008161764 -32.16894831611657 L-10.880649312724941 -32.16454955978706 L-10.868890059724652 -32.16392268749132 L-10.744134455209588 -32.20518374954843 L-10.491126959029469 -32.28836872822046 L-10.23754469123981 -32.369784741772186 L-10.112362643272508 -32.40973334583681 L-10.103217674044632 -32.41715241166892 L-10.095366316295895 -32.42829391881568 L-10.08388966569632 -32.46167414336579 L-10.078544697869496 -32.509654137310456 L-10.084562195170394 -32.84589124371936 L-10.083237068213377 -33.06002098602189 L-10.076983919163395 -33.29053549863868 L-10.06518804425697 -33.53551055723688 L-10.047400949840334 -33.79278918396716 L-10.022875679020709 -34.06453825570655 L-9.991122994176282 -34.34980218543685 L-9.959027828020886 -34.59505269212879 A36 36 0 0 1 -9.194462103200165 -34.80605942480817 L-9.041121238867888 -34.61198601073755 L-8.867551521440934 -34.38338746351486 L-8.707117929762202 -34.162683794399314 L-8.55989059827662 -33.950946255536614 L-8.424116913156235 -33.74669780773632 L-8.300518177945333 -33.55202013810195 L-8.189553634209632 -33.368880375806796 L-8.022263578593913 -33.07715166742847 L-7.993066293186972 -33.03870472964578 L-7.966093483273785 -33.01593588195014 L-7.9536390237214585 -33.01039842429709 L-7.941983302415945 -33.00871998429273 L-7.814031314199683 -33.038631935274 L-7.554585707816878 -33.09880261857291 L-7.294726212496913 -33.157159935955164 L-7.166467145391792 -33.18572648641763 L-7.156693951187548 -33.19229593655033 L-7.147875483696068 -33.202688800982315 L-7.133452854458016 -33.234905887533735 L-7.123828510401875 -33.282213608906574 L-7.099681721181572 -33.617636527876556 L-7.079167486680433 -33.83078546332507 L-7.052276349366947 -34.05981146432493 L-7.018568566233644 -34.302742951284195 L-6.977790799134083 -34.55739142705103 L-6.929004860858595 -34.825848088593595 L-6.871809141472113 -35.10711734088375 L-6.81785909509175 -35.34850355262492 A36 36 0 0 1 -6.037456789409124 -35.49012569104932 L-5.902129837028984 -35.28308819038169 L-5.7497502760450905 -35.03985124418652 L-5.609746267211715 -34.805654906874025 L-5.482091636331126 -34.581572404846895 L-5.365173225855636 -34.36597554194791 L-5.25952283458021 -34.16100228217154 L-5.165421523199417 -33.96865300170391 L-5.024955287971452 -33.663102942366855 L-4.999321899183991 -33.62219355616673 L-4.974498657645601 -33.59709854511818 L-4.962590709962982 -33.59046697049461 L-4.951132365366744 -33.58775047659366 L-4.821014187623851 -33.60607248305772 L-4.557219374509408 -33.642744412021386 L-4.293174887520543 -33.677573174428154 L-4.162871467870822 -33.69452767022097 L-4.152548736703401 -33.70019461130459 L-4.142834160584243 -33.70975515578831 L-4.125581675237967 -33.740549711303466 L-4.11175544451183 -33.78680426614846 L-4.057638784519043 -34.118712369561464 L-4.018100611027812 -34.329164348257265 L-3.97078799707674 -34.55485785494525 L-3.915439700966492 -34.79378982877398 L-3.851999579787753 -35.04375787378139 L-3.7793457697457287 -35.30676066993834 L-3.6971675221191527 -35.58177063015256 L-3.6217969695651653 -35.81734904709881 A36 36 0 0 1 -2.831841423516863 -35.88844633308212 L-2.715617956138466 -35.67011169003678 L-2.5856554222249453 -35.41419474573887 L-2.4672082261950288 -35.16839135143226 L-2.3601540959475753 -34.933768066788645 L-2.2630323184112173 -34.70855864796213 L-2.1761809059003916 -34.494940122209144 L-2.099700475303072 -34.29493000687582 L-1.9871890119961062 -33.97801870599729 L-1.965325904802453 -33.934976249703084 L-1.9428520937838962 -33.90775712557495 L-1.9315865337639668 -33.90008482752044 L-1.920417821730295 -33.896352151334526 L-1.7891810895197082 -33.9029366952585 L-1.523160990399986 -33.915814609077636 L-1.2570574426958117 -33.926834395793 L-1.125758797019341 -33.932040329285144 L-1.1149696414504346 -33.93675913444216 L-1.1044371727584326 -33.94541038309493 L-1.0844937381716448 -33.97453446791974 L-1.0665769414556232 -34.01936344175851 L-0.9829261262165364 -34.345084400724666 L-0.9246823518600942 -34.551144987079056 L-0.8573291946196028 -34.77168884804494 L-0.7807860174684187 -35.004697568979594 L-0.6951943247640449 -35.247972587508 L-0.5992576087141955 -35.50340397440783 L-0.4927584837773873 -35.76994042404971 L-0.3965742644217718 -35.99781430730565 A36 36 0 0 1 0.3965742644217629 -35.99781430730565 L0.4927584837773782 -35.769940424049715 L0.5992576087141865 -35.50340397440784 L0.6951943247640359 -35.24797258750801 L0.7807860174684099 -35.004697568979594 L0.857329194619594 -34.77168884804494 L0.9246823518600855 -34.55114498707906 L0.9829261262165279 -34.345084400724666 L1.0665769414556148 -34.019363441758514 L1.0844937381716364 -33.97453446791974 L1.1044371727584241 -33.94541038309494 L1.1149696414504262 -33.93675913444217 L1.1257587970193326 -33.932040329285144 L1.2570574426958032 -33.926834395793 L1.5231609903999777 -33.915814609077636 L1.7891810895196998 -33.9029366952585 L1.9204178217302865 -33.896352151334526 L1.9315865337639584 -33.900084827520445 L1.9428520937838878 -33.90775712557496 L1.9653259048024445 -33.934976249703084 L1.9871890119960978 -33.9780187059973 L2.0997004753030635 -34.29493000687582 L2.1761809059003827 -34.49494012220915 L2.2630323184112084 -34.70855864796213 L2.360154095947567 -34.933768066788645 L2.46720822619502 -35.16839135143227 L2.585655422224937 -35.414194745738875 L2.7156179561384572 -35.670111690036784 L2.8318414235168543 -35.88844633308212 A36 36 0 0 1 3.6217969695651564 -35.817349047098816 L3.697167522119144 -35.58177063015257 L3.77934576974572 -35.30676066993834 L3.8519995797877438 -35.043757873781395 L3.915439700966483 -34.79378982877398 L3.970787997076731 -34.55485785494525 L4.018100611027804 -34.32916434825727 L4.057638784519035 -34.118712369561464 L4.111755444511821 -33.78680426614846 L4.125581675237959 -33.740549711303466 L4.1428341605842345 -33.70975515578831 L4.152548736703393 -33.70019461130459 L4.162871467870813 -33.69452767022098 L4.293174887520535 -33.677573174428154 L4.557219374509399 -33.642744412021386 L4.821014187623843 -33.60607248305772 L4.951132365366735 -33.58775047659367 L4.962590709962974 -33.59046697049461 L4.974498657645592 -33.59709854511818 L4.999321899183983 -33.62219355616673 L5.024955287971443 -33.663102942366855 L5.165421523199409 -33.96865300170391 L5.259522834580202 -34.161002282171545 L5.365173225855627 -34.36597554194791 L5.482091636331117 -34.581572404846895 L5.609746267211706 -34.80565490687403 L5.749750276045082 -35.03985124418652 L5.902129837028975 -35.2830881903817 L6.037456789409115 -35.49012569104933 A36 36 0 0 1 6.817859095091743 -35.34850355262492 L6.871809141472104 -35.10711734088375 L6.929004860858587 -34.825848088593595 L6.977790799134076 -34.55739142705103 L7.018568566233637 -34.302742951284195 L7.052276349366939 -34.05981146432493 L7.079167486680426 -33.830785463325064 L7.099681721181564 -33.617636527876556 L7.123828510401867 -33.282213608906574 L7.1334528544580085 -33.234905887533735 L7.14787548369606 -33.202688800982315 L7.156693951187541 -33.19229593655033 L7.166467145391784 -33.18572648641763 L7.294726212496905 -33.157159935955164 L7.55458570781687 -33.09880261857291 L7.814031314199675 -33.038631935274 L7.941983302415937 -33.00871998429273 L7.953639023721451 -33.01039842429709 L7.966093483273777 -33.01593588195014 L7.993066293186965 -33.03870472964578 L8.022263578593904 -33.07715166742847 L8.189553634209624 -33.368880375806796 L8.300518177945326 -33.55202013810196 L8.424116913156226 -33.74669780773632 L8.559890598276613 -33.950946255536614 L8.707117929762195 -34.162683794399314 L8.867551521440925 -34.38338746351486 L9.04112123886788 -34.61198601073755 L9.194462103200157 -34.80605942480817 A36 36 0 0 1 9.95902782802088 -34.59505269212878 L9.991122994176274 -34.34980218543685 L10.0228756790207 -34.06453825570655 L10.047400949840327 -33.79278918396716 L10.065188044256963 -33.53551055723688 L10.076983919163387 -33.29053549863869 L10.08323706821337 -33.06002098602189 L10.084562195170387 -32.84589124371936 L10.07854469786949 -32.509654137310456 L10.083889665696313 -32.46167414336579 L10.095366316295888 -32.42829391881568 L10.103217674044625 -32.41715241166893 L10.112362643272501 -32.40973334583681 L10.237544691239803 -32.369784741772186 L10.491126959029462 -32.28836872822047 L10.744134455209581 -32.20518374954843 L10.868890059724645 -32.16392268749132 L10.880649312724934 -32.16454955978707 L10.893550008161757 -32.16894831611657 L10.922455217244076 -32.189207679085506 L10.954981319896124 -32.22488261631417 L11.14774827473674 -32.500441145707605 L11.274682629567286 -32.67289685614873 L11.415234564372623 -32.85571150551381 L11.568770354258948 -33.04696704980987 L11.734384998444671 -33.244654839344875 L11.913956456021982 -33.45008886409141 L12.10731884858462 -33.66220847125316 L12.2774390143924 -33.84175523370998 A36 36 0 0 1 13.020012324692324 -33.5630628089172 L13.029994199216524 -33.31592262014942 L13.036048195570801 -33.028960790408696 L13.036115335874554 -32.756107272212255 L13.030768546382662 -32.4982699507436 L13.020557539613323 -32.25322371563529 L13.006122353720446 -32.02307665871681 L12.988247703990245 -31.809690156339027 L12.952114369518181 -31.4753460459678 L12.953136926577539 -31.427080086150752 L12.961575195296167 -31.39280548154279 L12.96839622878609 -31.3810050365457 L12.976839343122537 -31.372796088969935 L13.097936479707636 -31.321787073973667 L13.343199824650704 -31.217967878121755 L13.587732143034893 -31.112438360612884 L13.708286905076312 -31.060160397290502 L13.720055011180548 -31.059730654670517 L13.733298073687696 -31.06295529347692 L13.763902954191604 -31.080542055240855 L13.799495993035244 -31.113157758297444 L14.016187800925513 -31.370327473453106 L14.158069966062001 -31.530710620062038 L14.31444345892592 -31.700190333094422 L14.484505173675602 -31.87691309670001 L14.667173698826316 -32.05895947106452 L14.864437218512107 -32.24746981746804 L15.076035445920756 -32.44140262221627 L15.261565205657991 -32.6049771280998 A36 36 0 0 1 15.976167337768617 -32.26084287872958 L15.963955552477197 -32.01380283536982 L15.944262117122378 -31.727453553540922 L15.919870586336003 -31.455692444980667 L15.891432962140714 -31.19937238328021 L15.859297286718144 -30.956227939862032 L15.824289989511463 -30.728301347419894 L15.787359479263552 -30.517376147614776 L15.72140123198343 -30.187616975466778 L15.718093145247137 -30.13945365890588 L15.723425092106716 -30.104560633203217 L15.72916088238687 -30.09219626060037 L15.736834162839713 -30.083263524900037 L15.852871385102794 -30.021604793568063 L16.0878410909583 -29.896218306536262 L16.321929401101606 -29.769193911815197 L16.437312684610475 -29.706319958649264 L16.44899489394784 -29.704837061148442 L16.4624736981728 -29.70686161953613 L16.49453183759586 -29.72163418183019 L16.532905238410688 -29.750928048251414 L16.7717772243262 -29.987638369836212 L16.927464848000312 -30.13465764182022 L17.098400871504396 -30.289437867523027 L17.283619274184943 -30.450204982656896 L17.481870940743484 -30.615144211486065 L17.695238272666316 -30.78521310507961 L17.923368670411623 -30.95939767450115 L18.122814247542642 -31.105682918070244 A36 36 0 0 1 18.80369164527547 -30.698877610750838 L18.769384522283183 -30.453926733971052 L18.724102215181187 -30.170495516100612 L18.675448399568594 -29.902014877829735 L18.624148903698874 -29.64927581432053 L18.570347297186107 -29.409990818684264 L18.515049746838773 -29.186119821622153 L18.459360718826876 -28.97935417007652 L18.364108615762984 -28.656834963110633 L18.356496520000302 -28.609162072511257 L18.35867921529986 -28.57393156384009 L18.363283581159497 -28.561102814289548 L18.37012524698635 -28.551518211600147 L18.48016829144253 -28.479706203782406 L18.70295252029888 -28.33376196383823 L18.924712080769723 -28.186265417642126 L19.033994887391497 -28.113301698734254 L19.04549714168144 -28.110777585771338 L19.059103164218 -28.111585763186596 L19.092356449271453 -28.12342518602531 L19.13320125199731 -28.149161358823264 L19.39233015916192 -28.363506434511216 L19.560569736170674 -28.49597811913822 L19.744692013962425 -28.63481265814338 L19.943575834902106 -28.77832972252401 L20.155814437019444 -28.924833812129997 L20.383567672880627 -29.07509195818125 L20.626393469138456 -29.22812586054198 L20.8381490451483 -29.355944039029755 A36 36 0 0 1 21.479819684046202 -28.889743030898053 L21.42369344413512 -28.648853521129286 L21.353186851797172 -28.37062238872874 L21.28066248327369 -28.107583868982545 L21.206914149106666 -27.860460709995795 L21.131879790404508 -27.626961744229018 L21.056737210277486 -27.408948820181255 L20.982738039810535 -27.208007472345116 L20.858958994889406 -26.895324965577615 L20.847104178219595 -26.84852633502366 L20.846120048179976 -26.8132419987246 L20.849555917972516 -26.80005216177456 L20.855510884102976 -26.78989286168129 L20.958673748862555 -26.708505765439956 L21.167478773104 -26.543178829789618 L21.37512410631398 -26.376397687581882 L21.477426555146998 -26.293931663894742 L21.48865624500118 -26.290386658143156 L21.502279938156093 -26.289971947616642 L21.536460632941306 -26.298782906928775 L21.579447979242993 -26.320754173572716 L21.856747454061548 -26.511008222847238 L22.036184418254134 -26.62786573600471 L22.23201050601492 -26.749636774237555 L22.442958449629323 -26.874748272849214 L22.66747516687548 -27.001637658445524 L22.907780571536602 -27.130875266712835 L23.163346675774736 -27.26152636301342 L23.385707319275635 -27.36984835960257 A36 36 0 0 1 23.98300484465044 -26.8480052270543 L23.905511383302635 -26.613116584988468 L23.81034818335303 -26.342325691538647 L23.714537185490375 -26.086847121813978 L23.618933791249447 -25.847329557719792 L23.523270812894673 -25.62149661819968 L23.428888206860023 -25.41109707904118 L23.337174691747812 -25.217597896495715 L23.185865301058254 -24.917269625616747 L23.169863211494615 -24.871722050164287 L23.16572017975224 -24.836667974966364 L23.167959889874375 -24.823223247428448 L23.172980210422626 -24.812571046642095 L23.268432288757342 -24.72226414302126 L23.461576933104052 -24.538885626939948 L23.65343620092364 -24.354162712411917 L23.747934612802762 -24.262858351879 L23.75880132336144 -24.258320995640627 L23.772332997168018 -24.256686736177645 L23.8071658988285 -24.26239829129959 L23.85194967986975 -24.280427752069393 L24.145187070020455 -24.4450589611933 L24.334376700468425 -24.545361434896396 L24.540329921683472 -24.649088543557284 L24.761643559165996 -24.754787152177517 L24.996630714947404 -24.86104019504108 L25.247553490587418 -24.968216720293164 L25.513802234804967 -25.0754330847278 L25.74497762864139 -25.16338675439409 A36 36 0 0 1 26.29309295202404 -24.590103071493726 L26.194856201024862 -24.363106482364465 L26.075802591594545 -24.10193607691696 L25.957476378211553 -23.856074420438276 L25.840787666213252 -23.62609090582869 L25.725266290258666 -23.40974226659664 L25.612403571564105 -23.208650125703784 L25.503714135103646 -23.02415105009117 L25.32609265289101 -22.73859508174769 L25.306072129849625 -22.69466528369273 L25.298803553660026 -22.66012370439797 L25.29982907128278 -22.646532335312944 L25.303874325579663 -22.63547299909084 L25.390847093479678 -22.536973386178865 L25.56677627082259 -22.337019745653247 L25.741304735238728 -22.13584233909738 L25.827238264515664 -22.036434770743607 L25.83765450341494 -22.030941596142956 L25.850985208792192 -22.02810094583978 L25.88618986328519 -22.03066711068802 L25.932409506393494 -22.044609602966723 L26.239223836831652 -22.182292458245733 L26.436642889872342 -22.2652323159531 L26.651065030302952 -22.350080345353643 L26.880962474374904 -22.43551504093562 L27.124528090283412 -22.52027625404107 L27.38404795425307 -22.60452877391538 L27.65883566011332 -22.687447163359828 L27.896964515943033 -22.754324354871027 A36 36 0 0 1 28.39148453503623 -22.134215864747954 L28.27329543894246 -21.916938971619093 L28.131309969692165 -21.667491844712856 L27.991421233884306 -21.433226634973813 L27.854586713025803 -21.214628861880346 L27.720137049665116 -21.009506434968515 L27.58970292255937 -20.819340768019504 L27.464912668184688 -20.64532727741288 L27.262409198184006 -20.376842740357798 L27.238531435144537 -20.334884416603966 L27.228195836809334 -20.301133441698738 L27.227998905067803 -20.287504860778878 L27.231036523104287 -20.2761274323935 L27.30882972698164 -20.17022817115671 L27.466126959029463 -19.95530931532947 L27.621919419467748 -19.739297178932954 L27.69859617989286 -19.632586774048008 L27.70847808170176 -19.626182008897022 L27.721500487648314 -19.62215783899962 L27.756793447795857 -19.621557952323688 L27.804076819581613 -19.631301219361507 L28.121997801722443 -19.740927179401123 L28.32605677522129 -19.805836638146342 L28.5472214338709 -19.87112244184364 L28.783851685490113 -19.935605354453326 L29.034034714400693 -19.998192290351533 L29.30006216535052 -20.05884245309771 L29.581176403818443 -20.116795257435395 L29.8243414481118 -20.162057514968605 A36 36 0 0 1 30.261284578494877 -19.50011696656739 L30.12409472641419 -19.294309155225665 L29.960320580856223 -19.058593708454012 L29.79999562447098 -18.83781111117771 L29.644117005856824 -18.632359100335897 L29.491821564724294 -18.440114410915758 L29.344866208104797 -18.262406320045258 L29.204979873568632 -18.10027946875271 L28.979224854650244 -17.851028042612043 L28.951682101320785 -17.81137901691112 L28.93836269700054 -17.778690389400104 L28.93694490147331 -17.7651343259655 L28.938950426135065 -17.75353040978039 L29.006937720853788 -17.641084138802515 L29.144336542783353 -17.41293046793052 L29.280138649956815 -17.183822804402542 L29.346941285340364 -17.07066873242185 L29.356209286795995 -17.06340394412359 L29.368818544556216 -17.058228654881802 L29.403915652195117 -17.05446754661648 L29.451882054750886 -17.059933141356183 L29.778349975780692 -17.140619562385183 L29.98740590686782 -17.186976009372586 L30.21353239594769 -17.232173944462698 L30.45499024746447 -17.275185895603094 L30.709776362733578 -17.31509464108672 L30.980169504050128 -17.35165412725606 L31.26534690857007 -17.38417474458215 L31.51159031936916 -17.40745764305349 A36 36 0 0 1 31.887438551874673 -16.709014592455134 L31.732352515829692 -16.516332906384424 L31.548108307086455 -16.296246981926323 L31.368637972403086 -16.09072460876797 L31.19497029901522 -15.90007253896529 L31.02605527345458 -15.722253428237991 L30.863761885444475 -15.558433714503037 L30.709905753260685 -15.409498852602125 L30.46271683209512 -15.181487363301695 L30.431730846530595 -15.144466866295366 L30.415534876237214 -15.113103775786684 L30.412907632180225 -15.099729375289279 L30.4138649161619 -15.087992399214563 L30.471498908000797 -14.969904469752176 L30.58789306528713 -14.730352943041105 L30.70261142047916 -14.489994392575273 L30.75900207528035 -14.371307703552905 L30.76758155588448 -14.363241383911124 L30.779676143129013 -14.356956643710898 L30.814294816985328 -14.350064596088446 L30.86255805304151 -14.3512085127749 L31.194944385220204 -14.40230575517401 L31.40731407846139 -14.429735955549601 L31.63658176044168 -14.454482114835141 L31.88092313521052 -14.475676797566283 L32.13826094884981 -14.492586030882661 L32.41084273394781 -14.504760484989152 L32.69778722374017 -14.511587078414752 L32.945126393890014 -14.512703157615855 A36 36 0 0 1 33.256853619545005 -13.783381057585899 L33.08512006110887 -13.605376856427457 L32.88188921521531 -13.402692456738214 L32.68471849184185 -13.214085053001284 L32.494660033671444 -13.039767942602184 L32.310485428148084 -12.877806105491363 L32.13416069968066 -12.729193748902512 L31.967573528959647 -12.594650012328982 L31.700940925395393 -12.38971427431205 L31.66676118853211 -12.355620373274515 L31.64781905269532 -12.32583533693174 L31.64400351313292 -12.312750282180316 L31.643904848946768 -12.300974745446121 L31.690721502891797 -12.178195932072676 L31.785173858219082 -11.92917527756159 L31.877884816686965 -11.679501065877712 L31.923409466510513 -11.556237355247037 L31.931231349329973 -11.547434449524568 L31.94271388755383 -11.540090859398633 L31.976575398421115 -11.530123363134045 L32.02474688077931 -11.526936391622707 L32.360375444800184 -11.54803305044082 L32.57434902429681 -11.556316152359875 L32.804911970609425 -11.560411294316776 L33.05016957555109 -11.559618061515584 L33.30798715479733 -11.553391639460518 L33.58056291541865 -11.541083039958162 L33.86696418217227 -11.522160645766979 L34.11340768210788 -11.501100919684358 A36 36 0 0 1 34.358504056584025 -10.7467718429378 L34.17150567339154 -10.584878311854581 L33.950924485621 -10.401227332543995 L33.73764087628754 -10.23105345414402 L33.53272187228723 -10.074474802024632 L33.3347705524319 -9.929674260010685 L33.14583414654353 -9.797465799880543 L32.96785719923226 -9.67839645569085 L32.683927682215796 -9.498186491019666 L32.64682938919761 -9.467293689995188 L32.62529359875738 -9.439326519417635 L32.62032048417062 -9.426636163579165 L32.61916666620266 -9.41491687588337 L32.654789042084 -9.288435721411375 L32.72653912062422 -9.031950906988627 L32.79649622824355 -8.774971264033123 L32.83078833537712 -8.648122978714246 L32.83778964321064 -8.638654362731945 L32.84856768176766 -8.630311048950032 L32.881399396670666 -8.61734835646244 L32.929091276879305 -8.609856156374011 L33.26525978889125 -8.600782373718955 L33.47911446519564 -8.589851686515205 L33.709116318565684 -8.573262839468338 L33.95331548365433 -8.550488077778915 L34.209537032953705 -8.521176131841715 L34.47991214934578 -8.484483580336361 L34.76346425846196 -8.439964550520237 L35.00702787002831 -8.396898579685395 A36 36 0 0 1 35.183520021432656 -7.623635940409882 L34.98276241451204 -7.479156550922308 L34.746606874888805 -7.316017641690764 L34.51892761380896 -7.165647428635998 L34.30079795130853 -7.0280679140364315 L34.090663704755215 -6.901594515942319 L33.890636826293296 -6.786854417054533 L33.70270306812278 -6.684218141596452 L33.403762671177255 -6.530184894944806 L33.36404451564613 -6.502741924602562 L33.34008846412422 -6.476817795003292 L33.33399781510762 -6.464624313361176 L33.33179813322169 -6.453055631517479 L33.35593942061436 -6.3238904878330295 L33.40440953292348 -6.062006578413721 L33.4510495361978 -5.799790553170084 L33.47383300075821 -5.670379000970813 L33.479957363191815 -5.660320910457113 L33.48994412365292 -5.651045048476007 L33.52148170092798 -5.635191527743379 L33.56830999200999 -5.623454421867625 L33.90231182081818 -5.584283254502044 L34.11432576182124 -5.554226785641713 L34.34191468256428 -5.517087513233415 L34.58308925970939 -5.472514591645543 L34.83565183380278 -5.420353124379748 L35.10164940450641 -5.359572047721248 L35.38006936112849 -5.289814823331497 L35.618792053338325 -5.225089349619212 A36 36 0 0 1 35.72525897064346 -4.439119003915124 L35.51235852220208 -4.313217019114845 L35.262530016273985 -4.171903678535349 L35.022288242984736 -4.042547823365056 L34.792704173768485 -3.925075155641423 L34.5720788779135 -3.8179471909034426 L34.362572025689495 -3.721599273068174 L34.166194588777266 -3.6362224332825415 L33.85465020420478 -3.5096060897823884 L33.81263197339513 -3.4858339047833704 L33.78644854083249 -3.4621615420107745 L33.779289395710684 -3.4505631093095452 L33.77606156045193 -3.439238177541876 L33.7885273879047 -3.308429006434045 L33.81332728113837 -3.0432545372715736 L33.8362746621852 -2.777913338994541 L33.84736604511226 -2.646980465640423 L33.8525641523807 -2.636413882426077 L33.86167922722279 -2.62628015603233 L33.89166874484147 -2.607663450281888 L33.93725641293165 -2.591775938894016 L34.26640237220041 -2.5228227700252637 L34.474868566311365 -2.4738825165226985 L34.6982121422577 -2.416491842336862 L34.934420335572455 -2.3504796358067095 L35.18129044911765 -2.2758886206763007 L35.44076881809757 -2.191508392355216 L35.711814948443106 -2.097074617546039 L35.94377466654543 -2.011210772412681 A36 36 0 0 1 35.97935914073475 -1.2188608913605463 L35.75603 -1.1125500000000066 L35.49454 -0.9942000000000065 L35.24367 -0.8869000000000065 L35.00448 -0.7904800000000064 L34.77514 -0.7035600000000064 L34.55784 -0.6263800000000064 L34.3546 -0.5589500000000063 L34.03296 -0.4607700000000063 L33.98898 -0.4408600000000062 L33.96078 -0.4196300000000062 L33.95261 -0.40872000000000624 L33.94838 -0.3977300000000062 L33.94907 -0.26633000000000623 L33.95 -6.2365138246578964e-15 L33.94907 0.2663299999999938 L33.94838 0.39772999999999376 L33.95261 0.4087199999999938 L33.96078 0.4196299999999938 L33.98898 0.44085999999999376 L34.03296 0.46076999999999374 L34.3546 0.5589499999999936 L34.55784 0.6263799999999937 L34.77514 0.7035599999999935 L35.00448 0.7904799999999935 L35.24367 0.8868999999999936 L35.49454 0.9941999999999934 L35.75603 1.1125499999999933 L35.97935914073475 1.218860891360533 A36 36 0 0 1 35.94377466654542 2.011210772412668 L35.711814948443106 2.097074617546026 L35.44076881809757 2.1915083923552032 L35.18129044911765 2.2758886206762883 L34.934420335572455 2.350479635806697 L34.6982121422577 2.4164918423368498 L34.474868566311365 2.473882516522686 L34.26640237220041 2.5228227700252512 L33.93725641293165 2.591775938894004 L33.89166874484147 2.6076634502818754 L33.86167922722279 2.6262801560323177 L33.8525641523807 2.636413882426065 L33.84736604511226 2.6469804656404112 L33.8362746621852 2.7779133389945287 L33.81332728113837 3.043254537271561 L33.7885273879047 3.3084290064340327 L33.77606156045193 3.439238177541864 L33.779289395710684 3.450563109309533 L33.78644854083249 3.462161542010762 L33.81263197339513 3.485833904783358 L33.85465020420478 3.5096060897823764 L34.166194588777266 3.636222433282529 L34.362572025689495 3.7215992730681617 L34.5720788779135 3.81794719090343 L34.792704173768485 3.9250751556414096 L35.022288242984736 4.042547823365044 L35.262530016273985 4.171903678535337 L35.51235852220208 4.313217019114832 L35.725258970643466 4.439119003915111 A36 36 0 0 1 35.618792053338325 5.225089349619199 L35.380069361128484 5.289814823331484 L35.10164940450641 5.359572047721236 L34.83565183380278 5.420353124379735 L34.58308925970939 5.472514591645529 L34.34191468256427 5.5170875132334025 L34.11432576182124 5.554226785641701 L33.90231182081818 5.584283254502032 L33.56830999200999 5.623454421867613 L33.52148170092798 5.635191527743366 L33.48994412365292 5.651045048475995 L33.479957363191815 5.6603209104571 L33.47383300075821 5.670379000970801 L33.4510495361978 5.799790553170072 L33.40440953292348 6.062006578413708 L33.35593942061436 6.323890487833018 L33.33179813322169 6.453055631517467 L33.33399781510762 6.464624313361163 L33.34008846412422 6.47681779500328 L33.36404451564613 6.5027419246025495 L33.403762671177255 6.530184894944793 L33.70270306812278 6.68421814159644 L33.890636826293296 6.786854417054521 L34.09066370475522 6.901594515942307 L34.30079795130853 7.028067914036418 L34.51892761380896 7.165647428635985 L34.746606874888805 7.316017641690752 L34.982762414512045 7.479156550922295 L35.183520021432656 7.623635940409868 A36 36 0 0 1 35.00702787002831 8.39689857968538 L34.763464258461966 8.439964550520223 L34.479912149345786 8.484483580336349 L34.20953703295371 8.5211761318417 L33.953315483654336 8.550488077778901 L33.70911631856569 8.573262839468324 L33.47911446519564 8.58985168651519 L33.26525978889126 8.60078237371894 L32.929091276879305 8.609856156373997 L32.88139939667067 8.617348356462427 L32.84856768176766 8.63031104895002 L32.83778964321065 8.638654362731932 L32.83078833537713 8.648122978714234 L32.79649622824355 8.774971264033109 L32.726539120624224 9.031950906988614 L32.654789042084 9.28843572141136 L32.619166666202666 9.414916875883357 L32.62032048417063 9.426636163579152 L32.62529359875738 9.439326519417623 L32.64682938919762 9.467293689995175 L32.683927682215796 9.498186491019652 L32.96785719923227 9.678396455690836 L33.14583414654353 9.797465799880529 L33.334770552431905 9.929674260010675 L33.53272187228724 10.074474802024618 L33.73764087628755 10.231053454144005 L33.95092448562101 10.401227332543982 L34.17150567339155 10.584878311854567 L34.358504056584025 10.746771842937786 A36 36 0 0 1 34.11340768210789 11.501100919684346 L33.86696418217227 11.522160645766967 L33.58056291541865 11.54108303995815 L33.30798715479733 11.553391639460507 L33.050169575551095 11.559618061515573 L32.804911970609425 11.560411294316763 L32.57434902429681 11.556316152359862 L32.360375444800184 11.548033050440807 L32.02474688077932 11.526936391622696 L31.976575398421115 11.530123363134033 L31.942713887553833 11.540090859398621 L31.93123134932998 11.547434449524557 L31.923409466510517 11.556237355247024 L31.87788481668697 11.679501065877702 L31.785173858219085 11.92917527756158 L31.6907215028918 12.178195932072665 L31.64390484894677 12.300974745446108 L31.644003513132926 12.312750282180305 L31.647819052695322 12.325835336931728 L31.666761188532117 12.355620373274503 L31.700940925395397 12.38971427431204 L31.967573528959647 12.59465001232897 L32.13416069968066 12.7291937489025 L32.310485428148084 12.87780610549135 L32.49466003367145 13.039767942602174 L32.68471849184185 13.214085053001273 L32.88188921521531 13.402692456738201 L33.08512006110887 13.605376856427448 L33.25685361954501 13.783381057585887 A36 36 0 0 1 32.94512639389002 14.512703157615842 L32.69778722374018 14.511587078414742 L32.41084273394782 14.50476048498914 L32.13826094884982 14.492586030882649 L31.880923135210523 14.47567679756627 L31.636581760441686 14.454482114835127 L31.407314078461397 14.42973595554959 L31.19494438522021 14.402305755173998 L30.862558053041518 14.351208512774889 L30.814294816985335 14.350064596088433 L30.77967614312902 14.356956643710888 L30.767581555884487 14.363241383911111 L30.759002075280357 14.371307703552892 L30.702611420479165 14.48999439257526 L30.587893065287137 14.730352943041094 L30.471498908000804 14.969904469752164 L30.413864916161906 15.087992399214551 L30.412907632180232 15.099729375289266 L30.41553487623722 15.113103775786673 L30.431730846530602 15.144466866295353 L30.462716832095126 15.181487363301684 L30.709905753260692 15.409498852602113 L30.863761885444482 15.558433714503026 L31.02605527345459 15.72225342823798 L31.19497029901523 15.900072538965281 L31.368637972403096 16.09072460876796 L31.548108307086462 16.29624698192631 L31.732352515829703 16.516332906384413 L31.88743855187468 16.70901459245512 A36 36 0 0 1 31.511590319369162 17.40745764305348 L31.26534690857008 17.384174744582136 L30.98016950405014 17.351654127256047 L30.709776362733585 17.31509464108671 L30.454990247464472 17.27518589560308 L30.213532395947702 17.232173944462684 L29.987405906867828 17.186976009372575 L29.7783499757807 17.14061956238517 L29.451882054750893 17.059933141356172 L29.403915652195124 17.05446754661647 L29.368818544556223 17.05822865488179 L29.356209286796002 17.06340394412358 L29.34694128534037 17.07066873242184 L29.28013864995682 17.18382280440253 L29.14433654278336 17.412930467930508 L29.006937720853795 17.641084138802505 L28.938950426135072 17.753530409780378 L28.936944901473318 17.76513432596549 L28.938362697000546 17.778690389400094 L28.95168210132079 17.811379016911108 L28.97922485465025 17.851028042612032 L29.20497987356864 18.100279468752696 L29.344866208104804 18.262406320045248 L29.491821564724304 18.440114410915744 L29.644117005856835 18.63235910033589 L29.799995624470988 18.8378111111777 L29.960320580856234 19.058593708453998 L30.1240947264142 19.29430915522565 L30.261284578494887 19.50011696656738 A36 36 0 0 1 29.82434144811181 20.16205751496859 L29.58117640381845 20.116795257435385 L29.300062165350525 20.0588424530977 L29.034034714400704 19.99819229035152 L28.78385168549012 19.935605354453312 L28.547221433870906 19.871122441843628 L28.326056775221296 19.80583663814633 L28.12199780172245 19.740927179401112 L27.80407681958162 19.631301219361497 L27.756793447795864 19.621557952323677 L27.72150048764832 19.62215783899961 L27.708478081701767 19.62618200889701 L27.69859617989287 19.632586774047994 L27.621919419467755 19.739297178932944 L27.466126959029474 19.95530931532946 L27.308829726981646 20.1702281711567 L27.231036523104297 20.276127432393487 L27.22799890506781 20.287504860778867 L27.22819583680934 20.301133441698727 L27.238531435144544 20.334884416603956 L27.262409198184013 20.376842740357787 L27.464912668184695 20.645327277412868 L27.589702922559376 20.819340768019494 L27.720137049665123 21.009506434968504 L27.85458671302581 21.214628861880332 L27.991421233884317 21.4332266349738 L28.131309969692175 21.667491844712846 L28.273295438942466 21.916938971619082 L28.39148453503624 22.13421586474794 A36 36 0 0 1 27.89696451594304 22.75432435487102 L27.65883566011333 22.68744716335982 L27.384047954253077 22.604528773915373 L27.12452809028342 22.520276254041065 L26.880962474374908 22.435515040935613 L26.65106503030296 22.350080345353636 L26.43664288987235 22.26523231595309 L26.23922383683166 22.182292458245726 L25.9324095063935 22.044609602966716 L25.886189863285196 22.030667110688015 L25.8509852087922 22.02810094583977 L25.837654503414946 22.03094159614295 L25.82723826451567 22.0364347707436 L25.741304735238735 22.135842339097373 L25.566776270822597 22.33701974565324 L25.390847093479685 22.536973386178857 L25.30387432557967 22.635472999090833 L25.299829071282787 22.646532335312937 L25.298803553660033 22.660123704397964 L25.306072129849632 22.69466528369272 L25.326092652891017 22.738595081747683 L25.503714135103653 23.024151050091163 L25.612403571564112 23.208650125703773 L25.725266290258674 23.409742266596634 L25.840787666213263 23.626090905828683 L25.95747637821156 23.85607442043827 L26.075802591594552 24.101936076916953 L26.194856201024873 24.363106482364458 L26.293092952024047 24.59010307149372 A36 36 0 0 1 25.744977628641397 25.163386754394075 L25.51380223480497 25.075433084727788 L25.247553490587425 24.968216720293153 L24.99663071494741 24.861040195041067 L24.761643559166004 24.754787152177506 L24.54032992168348 24.649088543557273 L24.334376700468436 24.545361434896385 L24.145187070020466 24.44505896119329 L23.851949679869758 24.280427752069382 L23.807165898828508 24.262398291299576 L23.772332997168025 24.256686736177635 L23.758801323361446 24.258320995640617 L23.74793461280277 24.26285835187899 L23.65343620092365 24.354162712411902 L23.46157693310406 24.538885626939937 L23.268432288757353 24.722264143021246 L23.172980210422633 24.812571046642084 L23.167959889874382 24.823223247428437 L23.165720179752245 24.836667974966353 L23.169863211494622 24.871722050164273 L23.18586530105826 24.917269625616736 L23.337174691747823 25.217597896495704 L23.428888206860034 25.41109707904117 L23.52327081289468 25.621496618199668 L23.618933791249454 25.84732955771978 L23.714537185490382 26.08684712181397 L23.81034818335304 26.342325691538637 L23.905511383302645 26.613116584988457 L23.98300484465045 26.848005227054287 A36 36 0 0 1 23.385707319275642 27.369848359602564 L23.163346675774747 27.261526363013413 L22.907780571536613 27.130875266712827 L22.667475166875494 27.001637658445514 L22.442958449629337 26.874748272849207 L22.23201050601493 26.749636774237548 L22.036184418254145 26.6278657360047 L21.85674745406156 26.51100822284723 L21.579447979243003 26.32075417357271 L21.536460632941317 26.298782906928768 L21.502279938156104 26.289971947616632 L21.48865624500119 26.29038665814315 L21.47742655514701 26.293931663894735 L21.375124106313994 26.376397687581875 L21.167478773104012 26.54317882978961 L20.95867374886257 26.70850576543995 L20.855510884102987 26.789892861681285 L20.849555917972527 26.800052161774552 L20.846120048179987 26.813241998724596 L20.847104178219606 26.848526335023653 L20.858958994889417 26.895324965577608 L20.982738039810545 27.20800747234511 L21.056737210277497 27.40894882018125 L21.13187979040452 27.62696174422901 L21.20691414910668 27.860460709995788 L21.280662483273705 28.107583868982534 L21.353186851797183 28.370622388728734 L21.423693444135132 28.64885352112928 L21.479819684046216 28.889743030898046 A36 36 0 0 1 20.83814904514831 29.355944039029747 L20.626393469138463 29.228125860541972 L20.38356767288064 29.07509195818124 L20.155814437019455 28.92483381212999 L19.94357583490212 28.778329722524003 L19.744692013962435 28.634812658143375 L19.560569736170685 28.495978119138208 L19.39233015916193 28.363506434511205 L19.13320125199732 28.149161358823257 L19.092356449271467 28.123425186025305 L19.059103164218012 28.11158576318659 L19.04549714168145 28.110777585771327 L19.033994887391508 28.113301698734247 L18.924712080769734 28.18626541764212 L18.70295252029889 28.333761963838224 L18.480168291442542 28.4797062037824 L18.370125246986362 28.55151821160014 L18.363283581159507 28.561102814289537 L18.35867921529987 28.573931563840084 L18.356496520000317 28.60916207251125 L18.364108615762994 28.656834963110626 L18.459360718826886 28.97935417007651 L18.515049746838784 29.186119821622142 L18.570347297186117 29.409990818684257 L18.624148903698888 29.64927581432052 L18.675448399568605 29.90201487782973 L18.7241022151812 30.1704955161006 L18.769384522283197 30.453926733971045 L18.80369164527548 30.69887761075083 A36 36 0 0 1 18.122814247542657 31.105682918070237 L17.923368670411634 30.959397674501144 L17.695238272666327 30.785213105079603 L17.481870940743498 30.615144211486054 L17.283619274184954 30.45020498265689 L17.098400871504406 30.289437867523016 L16.927464848000323 30.134657641820212 L16.77177722432621 29.987638369836205 L16.532905238410702 29.750928048251406 L16.49453183759587 29.721634181830176 L16.46247369817281 29.706861619536124 L16.44899489394785 29.70483706114843 L16.437312684610486 29.706319958649257 L16.321929401101617 29.76919391181519 L16.087841090958314 29.896218306536255 L15.852871385102805 30.021604793568056 L15.736834162839724 30.08326352490003 L15.72916088238688 30.09219626060036 L15.723425092106726 30.10456063320321 L15.718093145247147 30.13945365890587 L15.721401231983444 30.18761697546677 L15.787359479263563 30.51737614761477 L15.824289989511476 30.728301347419887 L15.859297286718155 30.95622793986202 L15.891432962140724 31.199372383280203 L15.919870586336017 31.455692444980663 L15.944262117122388 31.727453553540915 L15.963955552477207 32.013802835369816 L15.976167337768631 32.26084287872957 A36 36 0 0 1 15.261565205658002 32.60497712809979 L15.076035445920766 32.44140262221627 L14.86443721851212 32.24746981746804 L14.667173698826327 32.05895947106452 L14.484505173675615 31.876913096700005 L14.31444345892593 31.70019033309442 L14.158069966062012 31.530710620062035 L14.016187800925525 31.370327473453102 L13.799495993035256 31.11315775829744 L13.763902954191616 31.08054205524085 L13.733298073687708 31.062955293476918 L13.720055011180559 31.059730654670513 L13.708286905076323 31.0601603972905 L13.587732143034904 31.11243836061288 L13.343199824650716 31.21796787812175 L13.097936479707647 31.321787073973663 L12.976839343122547 31.37279608896993 L12.968396228786101 31.381005036545698 L12.961575195296179 31.392805481542787 L12.953136926577551 31.42708008615075 L12.952114369518194 31.475346045967797 L12.988247703990258 31.809690156339023 L13.006122353720457 32.0230766587168 L13.020557539613334 32.253223715635286 L13.030768546382674 32.49826995074359 L13.036115335874564 32.756107272212255 L13.036048195570814 33.028960790408696 L13.029994199216535 33.31592262014942 L13.020012324692335 33.56306280891721 A36 36 0 0 1 12.277439014392412 33.841755233709975 L12.107318848584635 33.66220847125316 L11.913956456021996 33.45008886409141 L11.734384998444686 33.244654839344875 L11.56877035425896 33.04696704980987 L11.415234564372636 32.8557115055138 L11.2746826295673 32.67289685614873 L11.147748274736754 32.500441145707605 L10.954981319896138 32.22488261631417 L10.92245521724409 32.189207679085506 L10.89355000816177 32.16894831611657 L10.880649312724948 32.16454955978706 L10.868890059724658 32.16392268749132 L10.744134455209593 32.20518374954843 L10.491126959029474 32.28836872822046 L10.237544691239815 32.369784741772186 L10.112362643272514 32.40973334583681 L10.103217674044636 32.41715241166892 L10.0953663162959 32.42829391881568 L10.083889665696327 32.46167414336579 L10.078544697869503 32.509654137310456 L10.0845621951704 32.84589124371936 L10.083237068213384 33.06002098602189 L10.0769839191634 33.29053549863868 L10.065188044256976 33.53551055723688 L10.047400949840341 33.79278918396716 L10.022875679020714 34.06453825570655 L9.991122994176289 34.34980218543685 L9.959027828020892 34.59505269212879 A36 36 0 0 1 9.19446210320017 34.80605942480816 L9.041121238867893 34.61198601073755 L8.867551521440937 34.38338746351485 L8.707117929762207 34.162683794399314 L8.559890598276626 33.95094625553661 L8.424116913156238 33.74669780773631 L8.300518177945339 33.552020138101945 L8.189553634209636 33.36888037580679 L8.022263578593916 33.07715166742846 L7.993066293186978 33.03870472964578 L7.96609348327379 33.01593588195014 L7.953639023721463 33.01039842429708 L7.94198330241595 33.008719984292725 L7.8140313141996876 33.038631935274 L7.554585707816883 33.09880261857291 L7.294726212496918 33.157159935955164 L7.166467145391796 33.18572648641762 L7.1566939511875525 33.19229593655032 L7.1478754836960725 33.202688800982315 L7.133452854458021 33.234905887533735 L7.1238285104018795 33.28221360890657 L7.099681721181576 33.61763652787655 L7.079167486680438 33.830785463325064 L7.052276349366951 34.05981146432492 L7.018568566233649 34.30274295128419 L6.977790799134089 34.55739142705103 L6.9290048608585995 34.82584808859359 L6.871809141472118 35.10711734088375 L6.817859095091755 35.34850355262491 A36 36 0 0 1 6.037456789409127 35.49012569104932 L5.902129837028989 35.28308819038169 L5.749750276045094 35.03985124418652 L5.60974626721172 34.805654906874025 L5.4820916363311305 34.581572404846895 L5.3651732258556395 34.36597554194791 L5.259522834580214 34.16100228217154 L5.165421523199422 33.96865300170391 L5.024955287971456 33.663102942366855 L4.999321899183996 33.62219355616673 L4.974498657645604 33.59709854511818 L4.962590709962986 33.59046697049461 L4.951132365366748 33.58775047659366 L4.821014187623855 33.60607248305772 L4.557219374509412 33.642744412021386 L4.293174887520547 33.677573174428154 L4.162871467870826 33.69452767022097 L4.152548736703404 33.70019461130459 L4.142834160584247 33.70975515578831 L4.125581675237972 33.740549711303466 L4.111755444511833 33.78680426614846 L4.057638784519048 34.118712369561464 L4.018100611027816 34.329164348257265 L3.9707879970767435 34.55485785494525 L3.9154397009664965 34.79378982877398 L3.8519995797877575 35.04375787378139 L3.779345769745732 35.30676066993834 L3.697167522119157 35.58177063015256 L3.621796969565169 35.81734904709881 A36 36 0 0 1 2.8318414235168676 35.88844633308212 L2.7156179561384706 35.67011169003678 L2.5856554222249497 35.41419474573887 L2.4672082261950328 35.16839135143226 L2.3601540959475793 34.933768066788645 L2.2630323184112213 34.70855864796213 L2.176180905900396 34.494940122209144 L2.099700475303076 34.29493000687582 L1.9871890119961102 33.97801870599729 L1.965325904802457 33.934976249703084 L1.9428520937839002 33.90775712557495 L1.9315865337639708 33.90008482752044 L1.920417821730299 33.896352151334526 L1.7891810895197122 33.9029366952585 L1.52316099039999 33.915814609077636 L1.2570574426958157 33.926834395793 L1.125758797019345 33.932040329285144 L1.1149696414504386 33.93675913444216 L1.1044371727584366 33.94541038309493 L1.0844937381716488 33.97453446791974 L1.0665769414556272 34.01936344175851 L0.9829261262165406 34.345084400724666 L0.9246823518600984 34.551144987079056 L0.8573291946196068 34.77168884804494 L0.7807860174684229 35.004697568979594 L0.6951943247640491 35.247972587508 L0.5992576087141998 35.50340397440783 L0.4927584837773915 35.76994042404971 L0.396574264421776 35.99781430730565 A36 36 0 0 1 -0.39657426442175847 35.99781430730565 L-0.49275848377737397 35.769940424049715 L-0.5992576087141823 35.50340397440784 L-0.6951943247640316 35.24797258750801 L-0.7807860174684057 35.004697568979594 L-0.8573291946195898 34.77168884804494 L-0.9246823518600815 34.55114498707906 L-0.9829261262165239 34.345084400724666 L-1.0665769414556108 34.019363441758514 L-1.0844937381716324 33.97453446791974 L-1.1044371727584201 33.94541038309494 L-1.1149696414504222 33.93675913444217 L-1.1257587970193286 33.932040329285144 L-1.2570574426957992 33.926834395793 L-1.5231609903999737 33.915814609077636 L-1.7891810895196958 33.9029366952585 L-1.9204178217302825 33.896352151334526 L-1.9315865337639544 33.900084827520445 L-1.9428520937838838 33.90775712557496 L-1.9653259048024405 33.934976249703084 L-1.9871890119960938 33.9780187059973 L-2.0997004753030595 34.29493000687582 L-2.176180905900379 34.49494012220915 L-2.2630323184112044 34.70855864796213 L-2.3601540959475624 34.933768066788645 L-2.467208226195016 35.16839135143227 L-2.5856554222249324 35.414194745738875 L-2.7156179561384532 35.670111690036784 L-2.83184142351685 35.88844633308212 A36 36 0 0 1 -3.621796969565152 35.817349047098816 L-3.6971675221191402 35.58177063015257 L-3.7793457697457153 35.30676066993834 L-3.85199957978774 35.043757873781395 L-3.9154397009664796 34.79378982877398 L-3.9707879970767275 34.55485785494525 L-4.0181006110277995 34.32916434825727 L-4.057638784519032 34.118712369561464 L-4.111755444511817 33.78680426614846 L-4.125581675237955 33.740549711303466 L-4.142834160584231 33.70975515578831 L-4.152548736703388 33.70019461130459 L-4.16287146787081 33.69452767022098 L-4.293174887520531 33.677573174428154 L-4.557219374509396 33.642744412021386 L-4.821014187623839 33.60607248305772 L-4.951132365366732 33.58775047659367 L-4.96259070996297 33.59046697049461 L-4.974498657645588 33.59709854511818 L-4.999321899183979 33.62219355616673 L-5.02495528797144 33.663102942366855 L-5.165421523199406 33.96865300170391 L-5.259522834580197 34.161002282171545 L-5.3651732258556235 34.36597554194791 L-5.482091636331114 34.581572404846895 L-5.609746267211703 34.80565490687403 L-5.749750276045077 35.03985124418652 L-5.902129837028972 35.2830881903817 L-6.037456789409111 35.49012569104933 A36 36 0 0 1 -6.8178590950917375 35.34850355262492 L-6.8718091414721005 35.10711734088375 L-6.929004860858582 34.825848088593595 L-6.977790799134071 34.55739142705103 L-7.018568566233632 34.302742951284195 L-7.0522763493669345 34.05981146432493 L-7.07916748668042 33.830785463325064 L-7.099681721181559 33.617636527876556 L-7.123828510401863 33.282213608906574 L-7.133452854458003 33.234905887533735 L-7.147875483696056 33.202688800982315 L-7.156693951187536 33.19229593655033 L-7.166467145391779 33.18572648641762 L-7.294726212496901 33.157159935955164 L-7.554585707816866 33.09880261857291 L-7.814031314199671 33.038631935274 L-7.941983302415933 33.00871998429274 L-7.953639023721446 33.01039842429709 L-7.966093483273773 33.01593588195014 L-7.99306629318696 33.03870472964578 L-8.0222635785939 33.07715166742847 L-8.18955363420962 33.368880375806796 L-8.300518177945321 33.55202013810196 L-8.424116913156222 33.74669780773632 L-8.559890598276608 33.950946255536614 L-8.70711792976219 34.162683794399314 L-8.86755152144092 34.38338746351486 L-9.041121238867875 34.61198601073755 L-9.194462103200152 34.80605942480817 A36 36 0 0 1 -9.959027828020874 34.59505269212878 L-9.991122994176271 34.34980218543685 L-10.022875679020697 34.06453825570655 L-10.047400949840323 33.79278918396716 L-10.065188044256958 33.53551055723688 L-10.076983919163382 33.29053549863869 L-10.083237068213366 33.06002098602189 L-10.084562195170383 32.84589124371936 L-10.078544697869486 32.509654137310456 L-10.08388966569631 32.46167414336579 L-10.095366316295884 32.42829391881568 L-10.103217674044618 32.41715241166893 L-10.112362643272498 32.40973334583681 L-10.2375446912398 32.369784741772186 L-10.491126959029458 32.28836872822047 L-10.744134455209577 32.20518374954843 L-10.868890059724642 32.16392268749132 L-10.88064931272493 32.16454955978707 L-10.893550008161753 32.16894831611657 L-10.922455217244073 32.189207679085506 L-10.95498131989612 32.22488261631417 L-11.147748274736736 32.500441145707605 L-11.274682629567282 32.67289685614873 L-11.415234564372618 32.85571150551381 L-11.568770354258943 33.04696704980987 L-11.734384998444668 33.244654839344875 L-11.913956456021978 33.45008886409141 L-12.107318848584617 33.66220847125316 L-12.277439014392394 33.84175523370998 A36 36 0 0 1 -13.02001232469232 33.5630628089172 L-13.029994199216517 33.31592262014942 L-13.036048195570798 33.028960790408696 L-13.03611533587455 32.756107272212255 L-13.030768546382658 32.4982699507436 L-13.02055753961332 32.25322371563529 L-13.006122353720441 32.02307665871681 L-12.988247703990242 31.809690156339027 L-12.952114369518178 31.4753460459678 L-12.953136926577535 31.427080086150752 L-12.961575195296163 31.39280548154279 L-12.968396228786087 31.3810050365457 L-12.976839343122531 31.372796088969935 L-13.097936479707633 31.321787073973667 L-13.3431998246507 31.217967878121755 L-13.58773214303489 31.112438360612884 L-13.708286905076307 31.060160397290502 L-13.720055011180545 31.059730654670517 L-13.733298073687692 31.06295529347692 L-13.7639029541916 31.080542055240855 L-13.79949599303524 31.113157758297444 L-14.01618780092551 31.370327473453106 L-14.158069966061996 31.530710620062038 L-14.314443458925917 31.700190333094422 L-14.484505173675599 31.87691309670001 L-14.667173698826312 32.05895947106452 L-14.864437218512103 32.24746981746804 L-15.076035445920752 32.44140262221627 L-15.261565205657984 32.6049771280998 A36 36 0 0 1 -15.976167337768613 32.26084287872958 L-15.963955552477193 32.013802835369816 L-15.94426211712237 31.727453553540922 L-15.919870586336 31.455692444980667 L-15.89143296214071 31.19937238328021 L-15.85929728671814 30.956227939862032 L-15.82428998951146 30.728301347419894 L-15.787359479263548 30.517376147614776 L-15.721401231983426 30.187616975466778 L-15.71809314524713 30.13945365890588 L-15.723425092106712 30.104560633203217 L-15.729160882386862 30.09219626060037 L-15.73683416283971 30.083263524900037 L-15.852871385102791 30.021604793568063 L-16.087841090958296 29.896218306536262 L-16.321929401101603 29.769193911815197 L-16.437312684610472 29.706319958649264 L-16.448994893947834 29.704837061148442 L-16.462473698172797 29.70686161953613 L-16.494531837595854 29.72163418183019 L-16.532905238410684 29.750928048251414 L-16.771777224326197 29.987638369836212 L-16.92746484800031 30.13465764182022 L-17.098400871504396 30.289437867523027 L-17.28361927418494 30.450204982656896 L-17.48187094074348 30.615144211486065 L-17.69523827266631 30.78521310507961 L-17.92336867041162 30.95939767450115 L-18.12281424754264 31.105682918070244 A36 36 0 0 1 -18.803691645275464 30.698877610750838 L-18.76938452228318 30.453926733971052 L-18.724102215181183 30.170495516100612 L-18.67544839956859 29.902014877829735 L-18.62414890369887 29.64927581432053 L-18.570347297186103 29.409990818684264 L-18.51504974683877 29.186119821622153 L-18.459360718826872 28.97935417007652 L-18.364108615762976 28.656834963110633 L-18.3564965200003 28.609162072511257 L-18.358679215299855 28.57393156384009 L-18.36328358115949 28.561102814289548 L-18.370125246986348 28.551518211600147 L-18.480168291442528 28.479706203782406 L-18.702952520298876 28.33376196383823 L-18.92471208076972 28.186265417642126 L-19.033994887391493 28.113301698734254 L-19.045497141681434 28.110777585771338 L-19.059103164217998 28.111585763186596 L-19.09235644927145 28.12342518602531 L-19.133201251997303 28.149161358823264 L-19.392330159161915 28.363506434511216 L-19.56056973617067 28.49597811913822 L-19.74469201396242 28.63481265814338 L-19.943575834902102 28.77832972252401 L-20.15581443701944 28.924833812129997 L-20.383567672880623 29.07509195818125 L-20.626393469138453 29.22812586054198 L-20.838149045148292 29.355944039029755 A36 36 0 0 1 -21.479819684046202 28.889743030898053 L-21.42369344413512 28.648853521129286 L-21.353186851797172 28.37062238872874 L-21.28066248327369 28.107583868982545 L-21.206914149106666 27.860460709995795 L-21.131879790404508 27.626961744229018 L-21.056737210277486 27.408948820181255 L-20.982738039810535 27.208007472345116 L-20.858958994889406 26.895324965577615 L-20.847104178219595 26.84852633502366 L-20.846120048179976 26.8132419987246 L-20.849555917972516 26.80005216177456 L-20.855510884102976 26.78989286168129 L-20.958673748862555 26.708505765439956 L-21.167478773104 26.543178829789618 L-21.37512410631398 26.376397687581882 L-21.477426555146998 26.293931663894742 L-21.48865624500118 26.290386658143156 L-21.502279938156093 26.289971947616642 L-21.536460632941306 26.298782906928775 L-21.579447979242993 26.320754173572716 L-21.856747454061548 26.511008222847238 L-22.036184418254134 26.62786573600471 L-22.23201050601492 26.749636774237555 L-22.442958449629323 26.874748272849214 L-22.66747516687548 27.001637658445524 L-22.907780571536602 27.130875266712835 L-23.163346675774736 27.26152636301342 L-23.385707319275635 27.36984835960257 A36 36 0 0 1 -23.983004844650438 26.848005227054305 L-23.90551138330263 26.61311658498847 L-23.810348183353025 26.342325691538655 L-23.71453718549037 26.08684712181398 L-23.618933791249443 25.847329557719796 L-23.52327081289467 25.621496618199682 L-23.42888820686002 25.411097079041184 L-23.33717469174781 25.217597896495718 L-23.18586530105825 24.91726962561675 L-23.16986321149461 24.87172205016429 L-23.165720179752235 24.836667974966367 L-23.16795988987437 24.82322324742845 L-23.17298021042262 24.8125710466421 L-23.26843228875734 24.722264143021263 L-23.46157693310405 24.53888562693995 L-23.653436200923636 24.35416271241192 L-23.747934612802755 24.262858351879004 L-23.758801323361435 24.25832099564063 L-23.772332997168014 24.25668673617765 L-23.807165898828497 24.262398291299593 L-23.851949679869747 24.280427752069397 L-24.14518707002045 24.445058961193304 L-24.33437670046842 24.5453614348964 L-24.54032992168347 24.649088543557287 L-24.761643559165993 24.75478715217752 L-24.9966307149474 24.861040195041085 L-25.24755349058741 24.96821672029317 L-25.513802234804963 25.075433084727802 L-25.744977628641387 25.163386754394093 A36 36 0 0 1 -26.293092952024036 24.590103071493733 L-26.19485620102486 24.36310648236447 L-26.075802591594538 24.101936076916964 L-25.957476378211545 23.856074420438283 L-25.840787666213252 23.626090905828693 L-25.725266290258663 23.409742266596645 L-25.6124035715641 23.208650125703787 L-25.503714135103642 23.024151050091174 L-25.326092652891003 22.738595081747693 L-25.30607212984962 22.694665283692732 L-25.29880355366002 22.660123704397975 L-25.299829071282776 22.646532335312948 L-25.30387432557966 22.635472999090844 L-25.390847093479675 22.536973386178868 L-25.566776270822587 22.33701974565325 L-25.741304735238725 22.135842339097383 L-25.82723826451566 22.03643477074361 L-25.837654503414935 22.03094159614296 L-25.850985208792185 22.028100945839782 L-25.886189863285185 22.030667110688025 L-25.932409506393487 22.044609602966727 L-26.23922383683165 22.182292458245737 L-26.43664288987234 22.265232315953103 L-26.65106503030295 22.350080345353646 L-26.880962474374897 22.435515040935623 L-27.124528090283405 22.52027625404108 L-27.384047954253063 22.604528773915384 L-27.658835660113315 22.68744716335983 L-27.89696451594303 22.754324354871034 A36 36 0 0 1 -28.391484535036227 22.134215864747958 L-28.273295438942455 21.916938971619096 L-28.13130996969216 21.66749184471286 L-27.991421233884303 21.433226634973817 L-27.8545867130258 21.21462886188035 L-27.720137049665112 21.00950643496852 L-27.589702922559365 20.819340768019508 L-27.46491266818468 20.645327277412882 L-27.262409198184002 20.3768427403578 L-27.238531435144534 20.33488441660397 L-27.22819583680933 20.30113344169874 L-27.2279989050678 20.28750486077888 L-27.231036523104283 20.276127432393505 L-27.308829726981635 20.170228171156715 L-27.46612695902946 19.955309315329472 L-27.621919419467744 19.739297178932958 L-27.698596179892856 19.63258677404801 L-27.708478081701756 19.626182008897025 L-27.72150048764831 19.622157838999623 L-27.756793447795854 19.62155795232369 L-27.80407681958161 19.63130121936151 L-28.121997801722436 19.740927179401126 L-28.326056775221286 19.805836638146346 L-28.547221433870895 19.871122441843646 L-28.78385168549011 19.93560535445333 L-29.03403471440069 19.998192290351536 L-29.300062165350518 20.058842453097714 L-29.58117640381844 20.1167952574354 L-29.824341448111795 20.16205751496861 A36 36 0 0 1 -30.261284578494877 19.500116966567393 L-30.12409472641419 19.29430915522567 L-29.960320580856223 19.058593708454016 L-29.79999562447098 18.837811111177714 L-29.644117005856824 18.632359100335904 L-29.491821564724294 18.44011441091576 L-29.344866208104797 18.26240632004526 L-29.204979873568632 18.100279468752714 L-28.979224854650244 17.851028042612047 L-28.951682101320785 17.811379016911122 L-28.93836269700054 17.778690389400108 L-28.93694490147331 17.765134325965505 L-28.938950426135065 17.753530409780392 L-29.006937720853788 17.64108413880252 L-29.144336542783353 17.412930467930522 L-29.280138649956815 17.183822804402546 L-29.346941285340364 17.070668732421854 L-29.356209286795995 17.063403944123593 L-29.368818544556216 17.058228654881805 L-29.403915652195117 17.054467546616483 L-29.451882054750886 17.059933141356186 L-29.778349975780692 17.140619562385186 L-29.98740590686782 17.18697600937259 L-30.21353239594769 17.2321739444627 L-30.45499024746447 17.2751858956031 L-30.709776362733578 17.315094641086723 L-30.980169504050128 17.351654127256065 L-31.26534690857007 17.384174744582154 L-31.51159031936916 17.407457643053494 A36 36 0 0 1 -31.887438551874673 16.709014592455137 L-31.732352515829692 16.51633290638443 L-31.548108307086455 16.296246981926327 L-31.368637972403086 16.090724608767975 L-31.19497029901522 15.900072538965293 L-31.02605527345458 15.722253428237995 L-30.863761885444475 15.558433714503042 L-30.709905753260685 15.409498852602129 L-30.46271683209512 15.181487363301699 L-30.431730846530595 15.14446686629537 L-30.415534876237214 15.113103775786687 L-30.412907632180225 15.099729375289282 L-30.4138649161619 15.087992399214567 L-30.471498908000797 14.96990446975218 L-30.58789306528713 14.730352943041108 L-30.70261142047916 14.489994392575277 L-30.75900207528035 14.371307703552908 L-30.76758155588448 14.363241383911127 L-30.779676143129013 14.356956643710902 L-30.814294816985328 14.35006459608845 L-30.86255805304151 14.351208512774903 L-31.194944385220204 14.402305755174014 L-31.40731407846139 14.429735955549607 L-31.63658176044168 14.454482114835145 L-31.88092313521052 14.475676797566287 L-32.13826094884981 14.492586030882665 L-32.41084273394781 14.504760484989156 L-32.69778722374017 14.511587078414758 L-32.945126393890014 14.512703157615858 A36 36 0 0 1 -33.256853619545005 13.783381057585903 L-33.08512006110886 13.605376856427462 L-32.8818892152153 13.402692456738217 L-32.68471849184184 13.214085053001288 L-32.494660033671444 13.039767942602188 L-32.31048542814808 12.877806105491366 L-32.134160699680656 12.729193748902516 L-31.96757352895964 12.594650012328986 L-31.70094092539539 12.389714274312054 L-31.666761188532107 12.355620373274519 L-31.647819052695315 12.325835336931743 L-31.644003513132915 12.31275028218032 L-31.643904848946764 12.300974745446124 L-31.690721502891794 12.17819593207268 L-31.78517385821908 11.929175277561594 L-31.87788481668696 11.679501065877716 L-31.92340946651051 11.55623735524704 L-31.93123134932997 11.547434449524571 L-31.942713887553825 11.540090859398639 L-31.97657539842111 11.530123363134049 L-32.02474688077931 11.52693639162271 L-32.36037544480018 11.548033050440823 L-32.5743490242968 11.556316152359878 L-32.80491197060942 11.56041129431678 L-33.05016957555109 11.559618061515588 L-33.307987154797324 11.553391639460521 L-33.580562915418646 11.541083039958165 L-33.86696418217226 11.522160645766984 L-34.11340768210788 11.501100919684362 A36 36 0 0 1 -34.358504056584025 10.746771842937804 L-34.17150567339154 10.584878311854585 L-33.950924485621 10.401227332544 L-33.73764087628754 10.231053454144023 L-33.53272187228723 10.074474802024636 L-33.3347705524319 9.929674260010692 L-33.14583414654353 9.797465799880547 L-32.96785719923226 9.678396455690853 L-32.683927682215796 9.49818649101967 L-32.64682938919761 9.467293689995191 L-32.62529359875738 9.43932651941764 L-32.62032048417062 9.426636163579168 L-32.61916666620266 9.414916875883373 L-32.654789042084 9.288435721411378 L-32.72653912062422 9.03195090698863 L-32.79649622824355 8.774971264033127 L-32.83078833537712 8.64812297871425 L-32.83778964321064 8.638654362731948 L-32.84856768176766 8.630311048950038 L-32.881399396670666 8.617348356462443 L-32.929091276879305 8.609856156374015 L-33.26525978889125 8.600782373718959 L-33.47911446519564 8.589851686515209 L-33.709116318565684 8.573262839468342 L-33.95331548365433 8.550488077778919 L-34.209537032953705 8.521176131841719 L-34.47991214934578 8.484483580336367 L-34.76346425846196 8.43996455052024 L-35.00702787002831 8.396898579685399 A36 36 0 0 1 -35.18352002143265 7.623635940409886 L-34.98276241451203 7.479156550922312 L-34.7466068748888 7.3160176416907685 L-34.518927613808955 7.165647428636002 L-34.30079795130853 7.028067914036436 L-34.090663704755215 6.901594515942323 L-33.89063682629329 6.7868544170545375 L-33.70270306812278 6.684218141596457 L-33.40376267117725 6.53018489494481 L-33.36404451564612 6.502741924602566 L-33.340088464124214 6.476817795003297 L-33.33399781510762 6.46462431336118 L-33.33179813322168 6.453055631517484 L-33.355939420614355 6.323890487833035 L-33.404409532923474 6.062006578413725 L-33.45104953619779 5.799790553170089 L-33.473833000758205 5.670379000970818 L-33.479957363191815 5.660320910457117 L-33.48994412365291 5.6510450484760115 L-33.52148170092797 5.635191527743383 L-33.568309992009986 5.6234544218676294 L-33.90231182081818 5.584283254502049 L-34.114325761821235 5.554226785641718 L-34.34191468256428 5.51708751323342 L-34.58308925970939 5.472514591645547 L-34.83565183380277 5.420353124379752 L-35.101649404506404 5.3595720477212545 L-35.380069361128484 5.289814823331502 L-35.61879205333832 5.225089349619217 A36 36 0 0 1 -35.725258970643466 4.439119003915119 Z" id="SvgjsPath1074">
        </path>
      </g>
    </g>
  </g>
</svg>
