0
SECTION
2
HEADER
0
ENDSEC
0
SECTION
2
TABLES
0
TABLE
2
LTYPE
0
LTYPE
72
65
70
64
2
CONTINUOUS
3
______
73
0
40
0
0
ENDTAB
0
TABLE
2
LAYER
0
ENDTAB
0
ENDSEC
0
SECTION
2
ENTITIES
0
CIRCLE
8
0
10
30
20
0
40
1
0
CIRCLE
8
0
10
30
20
0
40
1
0
LINE
8
layer0
10
20.1645422
20
-4.5098935
11
20.2946163
21
-4.3362392
0
LINE
8
layer0
10
20.2946163
20
-4.3362392
11
20.4206381
21
-4.1819235
0
LINE
8
layer0
10
20.4206381
20
-4.1819235
11
20.5423412
21
-4.0449618
0
LINE
8
layer0
10
20.5423412
20
-4.0449618
11
20.659223
21
-3.9240663
0
LINE
8
layer0
10
20.659223
20
-3.9240663
11
20.7679651
21
-3.8206412
0
LINE
8
layer0
10
20.7679651
20
-3.8206412
11
20.8694359
21
-3.7319228
0
LINE
8
layer0
10
20.8694359
20
-3.7319228
11
20.9601958
21
-3.6590393
0
LINE
8
layer0
10
20.9601958
20
-3.6590393
11
21.0410483
21
-3.5994479
0
LINE
8
layer0
10
21.0410483
20
-3.5994479
11
21.1104764
21
-3.55259
0
LINE
8
layer0
10
21.1104764
20
-3.55259
11
21.2148063
21
-3.4909221
0
LINE
8
layer0
10
21.2148063
20
-3.4909221
11
21.3214152
21
-3.4397958
0
LINE
8
layer0
10
21.3214152
20
-3.4397958
11
21.4184011
21
-3.3849091
0
LINE
8
layer0
10
21.4184011
20
-3.3849091
11
21.4956579
21
-3.3286521
0
LINE
8
layer0
10
21.4956579
20
-3.3286521
11
21.5269102
21
-3.300507
0
LINE
8
layer0
10
21.5269102
20
-3.300507
11
21.5532749
21
-3.2725937
0
LINE
8
layer0
10
21.5532749
20
-3.2725937
11
21.5747663
21
-3.2451178
0
LINE
8
layer0
10
21.5747663
20
-3.2451178
11
21.591427
21
-3.2182756
0
LINE
8
layer0
10
21.591427
20
-3.2182756
11
21.6032907
21
-3.192235
0
LINE
8
layer0
10
21.6032907
20
-3.192235
11
21.6104031
21
-3.1672019
0
LINE
8
layer0
10
21.6104031
20
-3.1672019
11
21.6128136
21
-3.1433601
0
LINE
8
layer0
10
21.6128136
20
-3.1433601
11
21.6105712
21
-3.1208935
0
LINE
8
layer0
10
21.6105712
20
-3.1208935
11
21.6058752
21
-3.1050491
0
LINE
8
layer0
10
21.6058752
20
-3.1050491
11
21.555385
21
-2.9650599
0
LINE
8
layer0
10
21.555385
20
-2.9650599
11
21.4880442
21
-2.7657021
0
LINE
8
layer0
10
21.4880442
20
-2.7657021
11
21.4253445
21
-2.5648363
0
LINE
8
layer0
10
21.4253445
20
-2.5648363
11
21.3839083
21
-2.4219052
0
LINE
8
layer0
10
21.3839083
20
-2.4219052
11
21.3783944
21
-2.4063267
0
LINE
8
layer0
10
21.3783944
20
-2.4063267
11
21.3670029
21
-2.3868327
0
LINE
8
layer0
10
21.3670029
20
-2.3868327
11
21.351039
21
-2.3689612
0
LINE
8
layer0
10
21.351039
20
-2.3689612
11
21.3305708
21
-2.3528896
0
LINE
8
layer0
10
21.3305708
20
-2.3528896
11
21.3056666
21
-2.3387956
0
LINE
8
layer0
10
21.3056666
20
-2.3387956
11
21.2764103
21
-2.3268727
0
LINE
8
layer0
10
21.2764103
20
-2.3268727
11
21.2428735
21
-2.3172765
0
LINE
8
layer0
10
21.2428735
20
-2.3172765
11
21.205137
21
-2.3101909
0
LINE
8
layer0
10
21.205137
20
-2.3101909
11
21.1633101
21
-2.3057908
0
LINE
8
layer0
10
21.1633101
20
-2.3057908
11
21.067741
21
-2.3056883
0
LINE
8
layer0
10
21.067741
20
-2.3056883
11
20.9570162
21
-2.3182909
0
LINE
8
layer0
10
20.9570162
20
-2.3182909
11
20.8407165
21
-2.3395921
0
LINE
8
layer0
10
20.8407165
20
-2.3395921
11
20.7200644
21
-2.3510252
0
LINE
8
layer0
10
20.7200644
20
-2.3510252
11
20.6363534
21
-2.3539252
0
LINE
8
layer0
10
20.6363534
20
-2.3539252
11
20.5359155
21
-2.3532387
0
LINE
8
layer0
10
20.5359155
20
-2.3532387
11
20.4196493
21
-2.347622
0
LINE
8
layer0
10
20.4196493
20
-2.347622
11
20.2854103
21
-2.3354903
0
LINE
8
layer0
10
20.2854103
20
-2.3354903
11
20.1366444
21
-2.3157346
0
LINE
8
layer0
10
20.1366444
20
-2.3157346
11
19.9710244
21
-2.2866295
0
LINE
8
layer0
10
19.9710244
20
-2.2866295
11
19.7920604
21
-2.2473604
0
LINE
8
layer0
10
19.7920604
20
-2.2473604
11
19.5994022
21
-2.1965902
0
LINE
8
layer0
10
19.5994022
20
-2.1965902
11
19.3920986
21
-2.1325566
0
LINE
8
layer0
10
19.3920986
20
-2.1325566
11
19.1951823
21
-2.062905
0
ARC
8
layer0
10
30.0000151
20
0.0000027
40
11
50
187.1909186
51
190.8090848
0
LINE
8
layer0
10
19.086535
20
-1.376933
11
19.25229
21
-1.24984
0
LINE
8
layer0
10
19.25229
20
-1.24984
11
19.42966
21
-1.12488
0
LINE
8
layer0
10
19.42966
20
-1.12488
11
19.5972
21
-1.01706
0
LINE
8
layer0
10
19.5972
20
-1.01706
11
19.75527
21
-0.92441
0
LINE
8
layer0
10
19.75527
20
-0.92441
11
19.90379
21
-0.84555
0
LINE
8
layer0
10
19.90379
20
-0.84555
11
20.03917
21
-0.78079
0
LINE
8
layer0
10
20.03917
20
-0.78079
11
20.16309
21
-0.72777
0
LINE
8
layer0
10
20.16309
20
-0.72777
11
20.27193
21
-0.6865
0
LINE
8
layer0
10
20.27193
20
-0.6865
11
20.36724
21
-0.65481
0
LINE
8
layer0
10
20.36724
20
-0.65481
11
20.44775
21
-0.6317
0
LINE
8
layer0
10
20.44775
20
-0.6317
11
20.56603
21
-0.60529
0
LINE
8
layer0
10
20.56603
20
-0.60529
11
20.68322
21
-0.58961
0
LINE
8
layer0
10
20.68322
20
-0.58961
11
20.79242
21
-0.56738
0
LINE
8
layer0
10
20.79242
20
-0.56738
11
20.88328
21
-0.53775
0
LINE
8
layer0
10
20.88328
20
-0.53775
11
20.9217
21
-0.52064
0
LINE
8
layer0
10
20.9217
20
-0.52064
11
20.9554
21
-0.50224
0
LINE
8
layer0
10
20.9554
20
-0.50224
11
20.98433
21
-0.48275
0
LINE
8
layer0
10
20.98433
20
-0.48275
11
21.00847
21
-0.46237
0
LINE
8
layer0
10
21.00847
20
-0.46237
11
21.0278
21
-0.44127
0
LINE
8
layer0
10
21.0278
20
-0.44127
11
21.0423
21
-0.41966
0
LINE
8
layer0
10
21.0423
20
-0.41966
11
21.05196
21
-0.39773
0
LINE
8
layer0
10
21.05196
20
-0.39773
11
21.05677
21
-0.37567
0
LINE
8
layer0
10
21.05677
20
-0.37567
11
21.0572
21
-0.35915
0
LINE
8
layer0
10
21.0572
20
-0.35915
11
21.05244
21
-0.21041
0
LINE
8
layer0
10
21.05244
20
-0.21041
11
21.05
21
0
0
LINE
8
layer0
10
21.05
20
0
11
21.05244
21
0.21041
0
LINE
8
layer0
10
21.05244
20
0.21041
11
21.0572
21
0.35915
0
LINE
8
layer0
10
21.0572
20
0.35915
11
21.05677
21
0.37567
0
LINE
8
layer0
10
21.05677
20
0.37567
11
21.05196
21
0.39773
0
LINE
8
layer0
10
21.05196
20
0.39773
11
21.0423
21
0.41966
0
LINE
8
layer0
10
21.0423
20
0.41966
11
21.0278
21
0.44127
0
LINE
8
layer0
10
21.0278
20
0.44127
11
21.00847
21
0.46237
0
LINE
8
layer0
10
21.00847
20
0.46237
11
20.98433
21
0.48275
0
LINE
8
layer0
10
20.98433
20
0.48275
11
20.9554
21
0.50224
0
LINE
8
layer0
10
20.9554
20
0.50224
11
20.9217
21
0.52064
0
LINE
8
layer0
10
20.9217
20
0.52064
11
20.88328
21
0.53775
0
LINE
8
layer0
10
20.88328
20
0.53775
11
20.79242
21
0.56738
0
LINE
8
layer0
10
20.79242
20
0.56738
11
20.68322
21
0.58961
0
LINE
8
layer0
10
20.68322
20
0.58961
11
20.56603
21
0.60529
0
LINE
8
layer0
10
20.56603
20
0.60529
11
20.44775
21
0.6317
0
LINE
8
layer0
10
20.44775
20
0.6317
11
20.36724
21
0.65481
0
LINE
8
layer0
10
20.36724
20
0.65481
11
20.27193
21
0.6865
0
LINE
8
layer0
10
20.27193
20
0.6865
11
20.16309
21
0.72777
0
LINE
8
layer0
10
20.16309
20
0.72777
11
20.03917
21
0.78079
0
LINE
8
layer0
10
20.03917
20
0.78079
11
19.90379
21
0.84555
0
LINE
8
layer0
10
19.90379
20
0.84555
11
19.75527
21
0.92441
0
LINE
8
layer0
10
19.75527
20
0.92441
11
19.5972
21
1.01706
0
LINE
8
layer0
10
19.5972
20
1.01706
11
19.42966
21
1.12488
0
LINE
8
layer0
10
19.42966
20
1.12488
11
19.25229
21
1.24984
0
LINE
8
layer0
10
19.25229
20
1.24984
11
19.086535
21
1.376933
0
ARC
8
layer0
10
30.0000151
20
-0.0000029
40
11
50
169.1909147
51
172.8090809
0
LINE
8
layer0
10
19.1951823
20
2.062905
11
19.3920986
21
2.1325566
0
LINE
8
layer0
10
19.3920986
20
2.1325566
11
19.5994022
21
2.1965902
0
LINE
8
layer0
10
19.5994022
20
2.1965902
11
19.7920604
21
2.2473604
0
LINE
8
layer0
10
19.7920604
20
2.2473604
11
19.9710244
21
2.2866295
0
LINE
8
layer0
10
19.9710244
20
2.2866295
11
20.1366444
21
2.3157346
0
LINE
8
layer0
10
20.1366444
20
2.3157346
11
20.2854103
21
2.3354903
0
LINE
8
layer0
10
20.2854103
20
2.3354903
11
20.4196493
21
2.347622
0
LINE
8
layer0
10
20.4196493
20
2.347622
11
20.5359155
21
2.3532387
0
LINE
8
layer0
10
20.5359155
20
2.3532387
11
20.6363534
21
2.3539252
0
LINE
8
layer0
10
20.6363534
20
2.3539252
11
20.7200644
21
2.3510252
0
LINE
8
layer0
10
20.7200644
20
2.3510252
11
20.8407165
21
2.3395921
0
LINE
8
layer0
10
20.8407165
20
2.3395921
11
20.9570162
21
2.3182909
0
LINE
8
layer0
10
20.9570162
20
2.3182909
11
21.067741
21
2.3056883
0
LINE
8
layer0
10
21.067741
20
2.3056883
11
21.1633101
21
2.3057908
0
LINE
8
layer0
10
21.1633101
20
2.3057908
11
21.205137
21
2.3101909
0
LINE
8
layer0
10
21.205137
20
2.3101909
11
21.2428735
21
2.3172765
0
LINE
8
layer0
10
21.2428735
20
2.3172765
11
21.2764103
21
2.3268727
0
LINE
8
layer0
10
21.2764103
20
2.3268727
11
21.3056666
21
2.3387956
0
LINE
8
layer0
10
21.3056666
20
2.3387956
11
21.3305708
21
2.3528896
0
LINE
8
layer0
10
21.3305708
20
2.3528896
11
21.351039
21
2.3689612
0
LINE
8
layer0
10
21.351039
20
2.3689612
11
21.3670029
21
2.3868327
0
LINE
8
layer0
10
21.3670029
20
2.3868327
11
21.3783944
21
2.4063267
0
LINE
8
layer0
10
21.3783944
20
2.4063267
11
21.3839083
21
2.4219052
0
LINE
8
layer0
10
21.3839083
20
2.4219052
11
21.4253445
21
2.5648363
0
LINE
8
layer0
10
21.4253445
20
2.5648363
11
21.4880442
21
2.7657021
0
LINE
8
layer0
10
21.4880442
20
2.7657021
11
21.555385
21
2.9650599
0
LINE
8
layer0
10
21.555385
20
2.9650599
11
21.6058752
21
3.1050491
0
LINE
8
layer0
10
21.6058752
20
3.1050491
11
21.6105712
21
3.1208935
0
LINE
8
layer0
10
21.6105712
20
3.1208935
11
21.6128136
21
3.1433601
0
LINE
8
layer0
10
21.6128136
20
3.1433601
11
21.6104031
21
3.1672019
0
LINE
8
layer0
10
21.6104031
20
3.1672019
11
21.6032907
21
3.192235
0
LINE
8
layer0
10
21.6032907
20
3.192235
11
21.591427
21
3.2182756
0
LINE
8
layer0
10
21.591427
20
3.2182756
11
21.5747663
21
3.2451178
0
LINE
8
layer0
10
21.5747663
20
3.2451178
11
21.5532749
21
3.2725937
0
LINE
8
layer0
10
21.5532749
20
3.2725937
11
21.5269102
21
3.300507
0
LINE
8
layer0
10
21.5269102
20
3.300507
11
21.4956579
21
3.3286521
0
LINE
8
layer0
10
21.4956579
20
3.3286521
11
21.4184011
21
3.3849091
0
LINE
8
layer0
10
21.4184011
20
3.3849091
11
21.3214152
21
3.4397958
0
LINE
8
layer0
10
21.3214152
20
3.4397958
11
21.2148063
21
3.4909221
0
LINE
8
layer0
10
21.2148063
20
3.4909221
11
21.1104764
21
3.55259
0
LINE
8
layer0
10
21.1104764
20
3.55259
11
21.0410483
21
3.5994479
0
LINE
8
layer0
10
21.0410483
20
3.5994479
11
20.9601958
21
3.6590393
0
LINE
8
layer0
10
20.9601958
20
3.6590393
11
20.8694359
21
3.7319228
0
LINE
8
layer0
10
20.8694359
20
3.7319228
11
20.7679651
21
3.8206412
0
LINE
8
layer0
10
20.7679651
20
3.8206412
11
20.659223
21
3.9240663
0
LINE
8
layer0
10
20.659223
20
3.9240663
11
20.5423412
21
4.0449618
0
LINE
8
layer0
10
20.5423412
20
4.0449618
11
20.4206381
21
4.1819235
0
LINE
8
layer0
10
20.4206381
20
4.1819235
11
20.2946163
21
4.3362392
0
LINE
8
layer0
10
20.2946163
20
4.3362392
11
20.1645422
21
4.5098935
0
LINE
8
layer0
10
20.1645422
20
4.5098935
11
20.0461737
21
4.6819873
0
ARC
8
layer0
10
30.0000135
20
-0.0000073
40
11
50
151.190915
51
154.8090813
0
LINE
8
layer0
10
20.3614804
20
5.3008115
11
20.5702824
21
5.3062036
0
LINE
8
layer0
10
20.5702824
20
5.3062036
11
20.7872274
21
5.3030429
0
LINE
8
layer0
10
20.7872274
20
5.3030429
11
20.9861451
21
5.2917936
0
LINE
8
layer0
10
20.9861451
20
5.2917936
11
21.1684848
21
5.2738378
0
LINE
8
layer0
10
21.1684848
20
5.2738378
11
21.3349927
21
5.250339
0
LINE
8
layer0
10
21.3349927
20
5.250339
11
21.4825824
21
5.2231566
0
LINE
8
layer0
10
21.4825824
20
5.2231566
11
21.6140002
21
5.1932123
0
LINE
8
layer0
10
21.6140002
20
5.1932123
11
21.7263115
21
5.1626259
0
LINE
8
layer0
10
21.7263115
20
5.1626259
11
21.8220458
21
5.1322418
0
LINE
8
layer0
10
21.8220458
20
5.1322418
11
21.9007635
21
5.1036156
0
LINE
8
layer0
10
21.9007635
20
5.1036156
11
22.0119774
21
5.0554585
0
LINE
8
layer0
10
22.0119774
20
5.0554585
11
22.1160026
21
4.9992614
0
LINE
8
layer0
10
22.1160026
20
4.9992614
11
22.2174137
21
4.9530597
0
LINE
8
layer0
10
22.2174137
20
4.9530597
11
22.3083371
21
4.9236247
0
LINE
8
layer0
10
22.3083371
20
4.9236247
11
22.3494765
21
4.9148842
0
LINE
8
layer0
10
22.3494765
20
4.9148842
11
22.3875556
21
4.9099618
0
LINE
8
layer0
10
22.3875556
20
4.9099618
11
22.4224164
21
4.9087249
0
LINE
8
layer0
10
22.4224164
20
4.9087249
11
22.4539252
21
4.9110235
0
LINE
8
layer0
10
22.4539252
20
4.9110235
11
22.4819657
21
4.9167319
0
LINE
8
layer0
10
22.4819657
20
4.9167319
11
22.5063985
21
4.9256919
0
LINE
8
layer0
10
22.5063985
20
4.9256919
11
22.5271037
21
4.9377556
0
LINE
8
layer0
10
22.5271037
20
4.9377556
11
22.5439617
21
4.9527753
0
LINE
8
layer0
10
22.5439617
20
4.9527753
11
22.5540197
21
4.9658875
0
LINE
8
layer0
10
22.5540197
20
4.9658875
11
22.637596
21
5.0890185
0
LINE
8
layer0
10
22.637596
20
5.0890185
11
22.7592979
21
5.260678
0
LINE
8
layer0
10
22.7592979
20
5.260678
11
22.8849478
21
5.4294691
0
LINE
8
layer0
10
22.8849478
20
5.4294691
11
22.9762259
21
5.5470044
0
LINE
8
layer0
10
22.9762259
20
5.5470044
11
22.9855882
21
5.5606221
0
LINE
8
layer0
10
22.9855882
20
5.5606221
11
22.9946634
21
5.5812963
0
LINE
8
layer0
10
22.9946634
20
5.5812963
11
22.9997384
21
5.604716
0
LINE
8
layer0
10
22.9997384
20
5.604716
11
23.0007097
21
5.6307218
0
LINE
8
layer0
10
23.0007097
20
5.6307218
11
22.9974737
21
5.6591539
0
LINE
8
layer0
10
22.9974737
20
5.6591539
11
22.9899231
21
5.6898308
0
LINE
8
layer0
10
22.9899231
20
5.6898308
11
22.9779742
21
5.7226032
0
LINE
8
layer0
10
22.9779742
20
5.7226032
11
22.9615255
21
5.7572975
0
LINE
8
layer0
10
22.9615255
20
5.7572975
11
22.9405001
21
5.7937225
0
LINE
8
layer0
10
22.9405001
20
5.7937225
11
22.8844089
21
5.8710998
0
LINE
8
layer0
10
22.8844089
20
5.8710998
11
22.8091307
21
5.9532704
0
LINE
8
layer0
10
22.8091307
20
5.9532704
11
22.7235385
21
6.0348383
0
LINE
8
layer0
10
22.7235385
20
6.0348383
11
22.6433714
21
6.1257277
0
LINE
8
layer0
10
22.6433714
20
6.1257277
11
22.5918211
21
6.1917467
0
LINE
8
layer0
10
22.5918211
20
6.1917467
11
22.5333406
21
6.2734062
0
LINE
8
layer0
10
22.5333406
20
6.2734062
11
22.4695451
21
6.3707689
0
LINE
8
layer0
10
22.4695451
20
6.3707689
11
22.4004561
21
6.4865014
0
LINE
8
layer0
10
22.4004561
20
6.4865014
11
22.3289964
21
6.6184677
0
LINE
8
layer0
10
22.3289964
20
6.6184677
11
22.2551939
21
6.7695646
0
LINE
8
layer0
10
22.2551939
20
6.7695646
11
22.1817709
21
6.9374312
0
LINE
8
layer0
10
22.1817709
20
6.9374312
11
22.1096032
21
7.123137
0
LINE
8
layer0
10
22.1096032
20
7.123137
11
22.0395575
21
7.3284872
0
LINE
8
layer0
10
22.0395575
20
7.3284872
11
21.9801623
21
7.528736
0
ARC
8
layer0
10
30.0000109
20
-0.0000108
40
11
50
133.1909171
51
136.8090836
0
LINE
8
layer0
10
22.471264
20
8.0198377
11
22.6715128
21
7.9604425
0
LINE
8
layer0
10
22.6715128
20
7.9604425
11
22.876863
21
7.8903968
0
LINE
8
layer0
10
22.876863
20
7.8903968
11
23.0625688
21
7.8182291
0
LINE
8
layer0
10
23.0625688
20
7.8182291
11
23.2304354
21
7.7448061
0
LINE
8
layer0
10
23.2304354
20
7.7448061
11
23.3815323
21
7.6710036
0
LINE
8
layer0
10
23.3815323
20
7.6710036
11
23.5134986
21
7.5995439
0
LINE
8
layer0
10
23.5134986
20
7.5995439
11
23.6292311
21
7.5304549
0
LINE
8
layer0
10
23.6292311
20
7.5304549
11
23.7265938
21
7.4666594
0
LINE
8
layer0
10
23.7265938
20
7.4666594
11
23.8082533
21
7.4081789
0
LINE
8
layer0
10
23.8082533
20
7.4081789
11
23.8742723
21
7.3566286
0
LINE
8
layer0
10
23.8742723
20
7.3566286
11
23.9651617
21
7.2764615
0
LINE
8
layer0
10
23.9651617
20
7.2764615
11
24.0467296
21
7.1908693
0
LINE
8
layer0
10
24.0467296
20
7.1908693
11
24.1289002
21
7.1155911
0
LINE
8
layer0
10
24.1289002
20
7.1155911
11
24.2062775
21
7.0594999
0
LINE
8
layer0
10
24.2062775
20
7.0594999
11
24.2427025
21
7.0384745
0
LINE
8
layer0
10
24.2427025
20
7.0384745
11
24.2773968
21
7.0220258
0
LINE
8
layer0
10
24.2773968
20
7.0220258
11
24.3101692
21
7.0100769
0
LINE
8
layer0
10
24.3101692
20
7.0100769
11
24.3408461
21
7.0025263
0
LINE
8
layer0
10
24.3408461
20
7.0025263
11
24.3692782
21
6.9992903
0
LINE
8
layer0
10
24.3692782
20
6.9992903
11
24.395284
21
7.0002616
0
LINE
8
layer0
10
24.395284
20
7.0002616
11
24.4187037
21
7.0053366
0
LINE
8
layer0
10
24.4187037
20
7.0053366
11
24.4393779
21
7.0144118
0
LINE
8
layer0
10
24.4393779
20
7.0144118
11
24.4529956
21
7.0237741
0
LINE
8
layer0
10
24.4529956
20
7.0237741
11
24.5705309
21
7.1150522
0
LINE
8
layer0
10
24.5705309
20
7.1150522
11
24.739322
21
7.2407021
0
LINE
8
layer0
10
24.739322
20
7.2407021
11
24.9109815
21
7.362404
0
LINE
8
layer0
10
24.9109815
20
7.362404
11
25.0341125
21
7.4459803
0
LINE
8
layer0
10
25.0341125
20
7.4459803
11
25.0472247
21
7.4560383
0
LINE
8
layer0
10
25.0472247
20
7.4560383
11
25.0622444
21
7.4728963
0
LINE
8
layer0
10
25.0622444
20
7.4728963
11
25.0743081
21
7.4936015
0
LINE
8
layer0
10
25.0743081
20
7.4936015
11
25.0832681
21
7.5180343
0
LINE
8
layer0
10
25.0832681
20
7.5180343
11
25.0889765
21
7.5460748
0
LINE
8
layer0
10
25.0889765
20
7.5460748
11
25.0912751
21
7.5775836
0
LINE
8
layer0
10
25.0912751
20
7.5775836
11
25.0900382
21
7.6124444
0
LINE
8
layer0
10
25.0900382
20
7.6124444
11
25.0851158
21
7.6505235
0
LINE
8
layer0
10
25.0851158
20
7.6505235
11
25.0763753
21
7.6916629
0
LINE
8
layer0
10
25.0763753
20
7.6916629
11
25.0469403
21
7.7825863
0
LINE
8
layer0
10
25.0469403
20
7.7825863
11
25.0007386
21
7.8839974
0
LINE
8
layer0
10
25.0007386
20
7.8839974
11
24.9445415
21
7.9880226
0
LINE
8
layer0
10
24.9445415
20
7.9880226
11
24.8963844
21
8.0992365
0
LINE
8
layer0
10
24.8963844
20
8.0992365
11
24.8677582
21
8.1779542
0
LINE
8
layer0
10
24.8677582
20
8.1779542
11
24.8373741
21
8.2736885
0
LINE
8
layer0
10
24.8373741
20
8.2736885
11
24.8067877
21
8.3859998
0
LINE
8
layer0
10
24.8067877
20
8.3859998
11
24.7768434
21
8.5174176
0
LINE
8
layer0
10
24.7768434
20
8.5174176
11
24.749661
21
8.6650073
0
LINE
8
layer0
10
24.749661
20
8.6650073
11
24.7261622
21
8.8315152
0
LINE
8
layer0
10
24.7261622
20
8.8315152
11
24.7082064
21
9.0138549
0
LINE
8
layer0
10
24.7082064
20
9.0138549
11
24.6969571
21
9.2127726
0
LINE
8
layer0
10
24.6969571
20
9.2127726
11
24.6937964
21
9.4297176
0
LINE
8
layer0
10
24.6937964
20
9.4297176
11
24.6991885
21
9.6385196
0
ARC
8
layer0
10
30.0000072
20
-0.0000135
40
11
50
115.1909182
51
118.8090845
0
LINE
8
layer0
10
25.3180127
20
9.9538263
11
25.4901065
21
9.8354578
0
LINE
8
layer0
10
25.4901065
20
9.8354578
11
25.6637608
21
9.7053837
0
LINE
8
layer0
10
25.6637608
20
9.7053837
11
25.8180765
21
9.5793619
0
LINE
8
layer0
10
25.8180765
20
9.5793619
11
25.9550382
21
9.4576588
0
LINE
8
layer0
10
25.9550382
20
9.4576588
11
26.0759337
21
9.340777
0
LINE
8
layer0
10
26.0759337
20
9.340777
11
26.1793588
21
9.2320349
0
LINE
8
layer0
10
26.1793588
20
9.2320349
11
26.2680772
21
9.1305641
0
LINE
8
layer0
10
26.2680772
20
9.1305641
11
26.3409607
21
9.0398042
0
LINE
8
layer0
10
26.3409607
20
9.0398042
11
26.4005521
21
8.9589517
0
LINE
8
layer0
10
26.4005521
20
8.9589517
11
26.44741
21
8.8895236
0
LINE
8
layer0
10
26.44741
20
8.8895236
11
26.5090779
21
8.7851937
0
LINE
8
layer0
10
26.5090779
20
8.7851937
11
26.5602042
21
8.6785848
0
LINE
8
layer0
10
26.5602042
20
8.6785848
11
26.6150909
21
8.5815989
0
LINE
8
layer0
10
26.6150909
20
8.5815989
11
26.6713479
21
8.5043421
0
LINE
8
layer0
10
26.6713479
20
8.5043421
11
26.699493
21
8.4730898
0
LINE
8
layer0
10
26.699493
20
8.4730898
11
26.7274063
21
8.4467251
0
LINE
8
layer0
10
26.7274063
20
8.4467251
11
26.7548822
21
8.4252337
0
LINE
8
layer0
10
26.7548822
20
8.4252337
11
26.7817244
21
8.408573
0
LINE
8
layer0
10
26.7817244
20
8.408573
11
26.807765
21
8.3967093
0
LINE
8
layer0
10
26.807765
20
8.3967093
11
26.8327981
21
8.3895969
0
LINE
8
layer0
10
26.8327981
20
8.3895969
11
26.8566399
21
8.3871864
0
LINE
8
layer0
10
26.8566399
20
8.3871864
11
26.8791065
21
8.3894288
0
LINE
8
layer0
10
26.8791065
20
8.3894288
11
26.8949509
21
8.3941248
0
LINE
8
layer0
10
26.8949509
20
8.3941248
11
27.0349401
21
8.444615
0
LINE
8
layer0
10
27.0349401
20
8.444615
11
27.2342979
21
8.5119558
0
LINE
8
layer0
10
27.2342979
20
8.5119558
11
27.4351637
21
8.5746555
0
LINE
8
layer0
10
27.4351637
20
8.5746555
11
27.5780948
21
8.6160917
0
LINE
8
layer0
10
27.5780948
20
8.6160917
11
27.5936733
21
8.6216056
0
LINE
8
layer0
10
27.5936733
20
8.6216056
11
27.6131673
21
8.6329971
0
LINE
8
layer0
10
27.6131673
20
8.6329971
11
27.6310388
21
8.648961
0
LINE
8
layer0
10
27.6310388
20
8.648961
11
27.6471104
21
8.6694292
0
LINE
8
layer0
10
27.6471104
20
8.6694292
11
27.6612044
21
8.6943334
0
LINE
8
layer0
10
27.6612044
20
8.6943334
11
27.6731273
21
8.7235897
0
LINE
8
layer0
10
27.6731273
20
8.7235897
11
27.6827235
21
8.7571265
0
LINE
8
layer0
10
27.6827235
20
8.7571265
11
27.6898091
21
8.794863
0
LINE
8
layer0
10
27.6898091
20
8.794863
11
27.6942092
21
8.8366899
0
LINE
8
layer0
10
27.6942092
20
8.8366899
11
27.6943117
21
8.932259
0
LINE
8
layer0
10
27.6943117
20
8.932259
11
27.6817091
21
9.0429838
0
LINE
8
layer0
10
27.6817091
20
9.0429838
11
27.6604079
21
9.1592835
0
LINE
8
layer0
10
27.6604079
20
9.1592835
11
27.6489748
21
9.2799356
0
LINE
8
layer0
10
27.6489748
20
9.2799356
11
27.6460748
21
9.3636466
0
LINE
8
layer0
10
27.6460748
20
9.3636466
11
27.6467613
21
9.4640845
0
LINE
8
layer0
10
27.6467613
20
9.4640845
11
27.652378
21
9.5803507
0
LINE
8
layer0
10
27.652378
20
9.5803507
11
27.6645097
21
9.7145897
0
LINE
8
layer0
10
27.6645097
20
9.7145897
11
27.6842654
21
9.8633556
0
LINE
8
layer0
10
27.6842654
20
9.8633556
11
27.7133705
21
10.0289756
0
LINE
8
layer0
10
27.7133705
20
10.0289756
11
27.7526396
21
10.2079396
0
LINE
8
layer0
10
27.7526396
20
10.2079396
11
27.8034098
21
10.4005978
0
LINE
8
layer0
10
27.8034098
20
10.4005978
11
27.8674434
21
10.6079014
0
LINE
8
layer0
10
27.8674434
20
10.6079014
11
27.937095
21
10.8048177
0
ARC
8
layer0
10
30.0000027
20
-0.0000151
40
11
50
97.1909186
51
100.8090848
0
LINE
8
layer0
10
28.623067
20
10.913465
11
28.75016
21
10.74771
0
LINE
8
layer0
10
28.75016
20
10.74771
11
28.87512
21
10.57034
0
LINE
8
layer0
10
28.87512
20
10.57034
11
28.98294
21
10.4028
0
LINE
8
layer0
10
28.98294
20
10.4028
11
29.07559
21
10.24473
0
LINE
8
layer0
10
29.07559
20
10.24473
11
29.15445
21
10.09621
0
LINE
8
layer0
10
29.15445
20
10.09621
11
29.21921
21
9.96083
0
LINE
8
layer0
10
29.21921
20
9.96083
11
29.27223
21
9.83691
0
LINE
8
layer0
10
29.27223
20
9.83691
11
29.3135
21
9.72807
0
LINE
8
layer0
10
29.3135
20
9.72807
11
29.34519
21
9.63276
0
LINE
8
layer0
10
29.34519
20
9.63276
11
29.3683
21
9.55225
0
LINE
8
layer0
10
29.3683
20
9.55225
11
29.39471
21
9.43397
0
LINE
8
layer0
10
29.39471
20
9.43397
11
29.41039
21
9.31678
0
LINE
8
layer0
10
29.41039
20
9.31678
11
29.43262
21
9.20758
0
LINE
8
layer0
10
29.43262
20
9.20758
11
29.46225
21
9.11672
0
LINE
8
layer0
10
29.46225
20
9.11672
11
29.47936
21
9.0783
0
LINE
8
layer0
10
29.47936
20
9.0783
11
29.49776
21
9.0446
0
LINE
8
layer0
10
29.49776
20
9.0446
11
29.51725
21
9.01567
0
LINE
8
layer0
10
29.51725
20
9.01567
11
29.53763
21
8.99153
0
LINE
8
layer0
10
29.53763
20
8.99153
11
29.55873
21
8.9722
0
LINE
8
layer0
10
29.55873
20
8.9722
11
29.58034
21
8.9577
0
LINE
8
layer0
10
29.58034
20
8.9577
11
29.60227
21
8.94804
0
LINE
8
layer0
10
29.60227
20
8.94804
11
29.62433
21
8.94323
0
LINE
8
layer0
10
29.62433
20
8.94323
11
29.64085
21
8.9428
0
LINE
8
layer0
10
29.64085
20
8.9428
11
29.78959
21
8.94756
0
LINE
8
layer0
10
29.78959
20
8.94756
11
30
21
8.95
0
LINE
8
layer0
10
30
20
8.95
11
30.21041
21
8.94756
0
LINE
8
layer0
10
30.21041
20
8.94756
11
30.35915
21
8.9428
0
LINE
8
layer0
10
30.35915
20
8.9428
11
30.37567
21
8.94323
0
LINE
8
layer0
10
30.37567
20
8.94323
11
30.39773
21
8.94804
0
LINE
8
layer0
10
30.39773
20
8.94804
11
30.41966
21
8.9577
0
LINE
8
layer0
10
30.41966
20
8.9577
11
30.44127
21
8.9722
0
LINE
8
layer0
10
30.44127
20
8.9722
11
30.46237
21
8.99153
0
LINE
8
layer0
10
30.46237
20
8.99153
11
30.48275
21
9.01567
0
LINE
8
layer0
10
30.48275
20
9.01567
11
30.50224
21
9.0446
0
LINE
8
layer0
10
30.50224
20
9.0446
11
30.52064
21
9.0783
0
LINE
8
layer0
10
30.52064
20
9.0783
11
30.53775
21
9.11672
0
LINE
8
layer0
10
30.53775
20
9.11672
11
30.56738
21
9.20758
0
LINE
8
layer0
10
30.56738
20
9.20758
11
30.58961
21
9.31678
0
LINE
8
layer0
10
30.58961
20
9.31678
11
30.60529
21
9.43397
0
LINE
8
layer0
10
30.60529
20
9.43397
11
30.6317
21
9.55225
0
LINE
8
layer0
10
30.6317
20
9.55225
11
30.65481
21
9.63276
0
LINE
8
layer0
10
30.65481
20
9.63276
11
30.6865
21
9.72807
0
LINE
8
layer0
10
30.6865
20
9.72807
11
30.72777
21
9.83691
0
LINE
8
layer0
10
30.72777
20
9.83691
11
30.78079
21
9.96083
0
LINE
8
layer0
10
30.78079
20
9.96083
11
30.84555
21
10.09621
0
LINE
8
layer0
10
30.84555
20
10.09621
11
30.92441
21
10.24473
0
LINE
8
layer0
10
30.92441
20
10.24473
11
31.01706
21
10.4028
0
LINE
8
layer0
10
31.01706
20
10.4028
11
31.12488
21
10.57034
0
LINE
8
layer0
10
31.12488
20
10.57034
11
31.24984
21
10.74771
0
LINE
8
layer0
10
31.24984
20
10.74771
11
31.376933
21
10.913465
0
ARC
8
layer0
10
29.9999971
20
-0.0000151
40
11
50
79.1909147
51
82.8090809
0
LINE
8
layer0
10
32.062905
20
10.8048177
11
32.1325566
21
10.6079014
0
LINE
8
layer0
10
32.1325566
20
10.6079014
11
32.1965902
21
10.4005978
0
LINE
8
layer0
10
32.1965902
20
10.4005978
11
32.2473604
21
10.2079396
0
LINE
8
layer0
10
32.2473604
20
10.2079396
11
32.2866295
21
10.0289756
0
LINE
8
layer0
10
32.2866295
20
10.0289756
11
32.3157346
21
9.8633556
0
LINE
8
layer0
10
32.3157346
20
9.8633556
11
32.3354903
21
9.7145897
0
LINE
8
layer0
10
32.3354903
20
9.7145897
11
32.347622
21
9.5803507
0
LINE
8
layer0
10
32.347622
20
9.5803507
11
32.3532387
21
9.4640845
0
LINE
8
layer0
10
32.3532387
20
9.4640845
11
32.3539252
21
9.3636466
0
LINE
8
layer0
10
32.3539252
20
9.3636466
11
32.3510252
21
9.2799356
0
LINE
8
layer0
10
32.3510252
20
9.2799356
11
32.3395921
21
9.1592835
0
LINE
8
layer0
10
32.3395921
20
9.1592835
11
32.3182909
21
9.0429838
0
LINE
8
layer0
10
32.3182909
20
9.0429838
11
32.3056883
21
8.932259
0
LINE
8
layer0
10
32.3056883
20
8.932259
11
32.3057908
21
8.8366899
0
LINE
8
layer0
10
32.3057908
20
8.8366899
11
32.3101909
21
8.794863
0
LINE
8
layer0
10
32.3101909
20
8.794863
11
32.3172765
21
8.7571265
0
LINE
8
layer0
10
32.3172765
20
8.7571265
11
32.3268727
21
8.7235897
0
LINE
8
layer0
10
32.3268727
20
8.7235897
11
32.3387956
21
8.6943334
0
LINE
8
layer0
10
32.3387956
20
8.6943334
11
32.3528896
21
8.6694292
0
LINE
8
layer0
10
32.3528896
20
8.6694292
11
32.3689612
21
8.648961
0
LINE
8
layer0
10
32.3689612
20
8.648961
11
32.3868327
21
8.6329971
0
LINE
8
layer0
10
32.3868327
20
8.6329971
11
32.4063267
21
8.6216056
0
LINE
8
layer0
10
32.4063267
20
8.6216056
11
32.4219052
21
8.6160917
0
LINE
8
layer0
10
32.4219052
20
8.6160917
11
32.5648363
21
8.5746555
0
LINE
8
layer0
10
32.5648363
20
8.5746555
11
32.7657021
21
8.5119558
0
LINE
8
layer0
10
32.7657021
20
8.5119558
11
32.9650599
21
8.444615
0
LINE
8
layer0
10
32.9650599
20
8.444615
11
33.1050491
21
8.3941248
0
LINE
8
layer0
10
33.1050491
20
8.3941248
11
33.1208935
21
8.3894288
0
LINE
8
layer0
10
33.1208935
20
8.3894288
11
33.1433601
21
8.3871864
0
LINE
8
layer0
10
33.1433601
20
8.3871864
11
33.1672019
21
8.3895969
0
LINE
8
layer0
10
33.1672019
20
8.3895969
11
33.192235
21
8.3967093
0
LINE
8
layer0
10
33.192235
20
8.3967093
11
33.2182756
21
8.408573
0
LINE
8
layer0
10
33.2182756
20
8.408573
11
33.2451178
21
8.4252337
0
LINE
8
layer0
10
33.2451178
20
8.4252337
11
33.2725937
21
8.4467251
0
LINE
8
layer0
10
33.2725937
20
8.4467251
11
33.300507
21
8.4730898
0
LINE
8
layer0
10
33.300507
20
8.4730898
11
33.3286521
21
8.5043421
0
LINE
8
layer0
10
33.3286521
20
8.5043421
11
33.3849091
21
8.5815989
0
LINE
8
layer0
10
33.3849091
20
8.5815989
11
33.4397958
21
8.6785848
0
LINE
8
layer0
10
33.4397958
20
8.6785848
11
33.4909221
21
8.7851937
0
LINE
8
layer0
10
33.4909221
20
8.7851937
11
33.55259
21
8.8895236
0
LINE
8
layer0
10
33.55259
20
8.8895236
11
33.5994479
21
8.9589517
0
LINE
8
layer0
10
33.5994479
20
8.9589517
11
33.6590393
21
9.0398042
0
LINE
8
layer0
10
33.6590393
20
9.0398042
11
33.7319228
21
9.1305641
0
LINE
8
layer0
10
33.7319228
20
9.1305641
11
33.8206412
21
9.2320349
0
LINE
8
layer0
10
33.8206412
20
9.2320349
11
33.9240663
21
9.340777
0
LINE
8
layer0
10
33.9240663
20
9.340777
11
34.0449618
21
9.4576588
0
LINE
8
layer0
10
34.0449618
20
9.4576588
11
34.1819235
21
9.5793619
0
LINE
8
layer0
10
34.1819235
20
9.5793619
11
34.3362392
21
9.7053837
0
LINE
8
layer0
10
34.3362392
20
9.7053837
11
34.5098935
21
9.8354578
0
LINE
8
layer0
10
34.5098935
20
9.8354578
11
34.6819873
21
9.9538263
0
ARC
8
layer0
10
29.9999927
20
-0.0000135
40
11
50
61.190915
51
64.8090813
0
LINE
8
layer0
10
35.3008115
20
9.6385196
11
35.3062036
21
9.4297176
0
LINE
8
layer0
10
35.3062036
20
9.4297176
11
35.3030429
21
9.2127726
0
LINE
8
layer0
10
35.3030429
20
9.2127726
11
35.2917936
21
9.0138549
0
LINE
8
layer0
10
35.2917936
20
9.0138549
11
35.2738378
21
8.8315152
0
LINE
8
layer0
10
35.2738378
20
8.8315152
11
35.250339
21
8.6650073
0
LINE
8
layer0
10
35.250339
20
8.6650073
11
35.2231566
21
8.5174176
0
LINE
8
layer0
10
35.2231566
20
8.5174176
11
35.1932123
21
8.3859998
0
LINE
8
layer0
10
35.1932123
20
8.3859998
11
35.1626259
21
8.2736885
0
LINE
8
layer0
10
35.1626259
20
8.2736885
11
35.1322418
21
8.1779542
0
LINE
8
layer0
10
35.1322418
20
8.1779542
11
35.1036156
21
8.0992365
0
LINE
8
layer0
10
35.1036156
20
8.0992365
11
35.0554585
21
7.9880226
0
LINE
8
layer0
10
35.0554585
20
7.9880226
11
34.9992614
21
7.8839974
0
LINE
8
layer0
10
34.9992614
20
7.8839974
11
34.9530597
21
7.7825863
0
LINE
8
layer0
10
34.9530597
20
7.7825863
11
34.9236247
21
7.6916629
0
LINE
8
layer0
10
34.9236247
20
7.6916629
11
34.9148842
21
7.6505235
0
LINE
8
layer0
10
34.9148842
20
7.6505235
11
34.9099618
21
7.6124444
0
LINE
8
layer0
10
34.9099618
20
7.6124444
11
34.9087249
21
7.5775836
0
LINE
8
layer0
10
34.9087249
20
7.5775836
11
34.9110235
21
7.5460748
0
LINE
8
layer0
10
34.9110235
20
7.5460748
11
34.9167319
21
7.5180343
0
LINE
8
layer0
10
34.9167319
20
7.5180343
11
34.9256919
21
7.4936015
0
LINE
8
layer0
10
34.9256919
20
7.4936015
11
34.9377556
21
7.4728963
0
LINE
8
layer0
10
34.9377556
20
7.4728963
11
34.9527753
21
7.4560383
0
LINE
8
layer0
10
34.9527753
20
7.4560383
11
34.9658875
21
7.4459803
0
LINE
8
layer0
10
34.9658875
20
7.4459803
11
35.0890185
21
7.362404
0
LINE
8
layer0
10
35.0890185
20
7.362404
11
35.260678
21
7.2407021
0
LINE
8
layer0
10
35.260678
20
7.2407021
11
35.4294691
21
7.1150522
0
LINE
8
layer0
10
35.4294691
20
7.1150522
11
35.5470044
21
7.0237741
0
LINE
8
layer0
10
35.5470044
20
7.0237741
11
35.5606221
21
7.0144118
0
LINE
8
layer0
10
35.5606221
20
7.0144118
11
35.5812963
21
7.0053366
0
LINE
8
layer0
10
35.5812963
20
7.0053366
11
35.604716
21
7.0002616
0
LINE
8
layer0
10
35.604716
20
7.0002616
11
35.6307218
21
6.9992903
0
LINE
8
layer0
10
35.6307218
20
6.9992903
11
35.6591539
21
7.0025263
0
LINE
8
layer0
10
35.6591539
20
7.0025263
11
35.6898308
21
7.0100769
0
LINE
8
layer0
10
35.6898308
20
7.0100769
11
35.7226032
21
7.0220258
0
LINE
8
layer0
10
35.7226032
20
7.0220258
11
35.7572975
21
7.0384745
0
LINE
8
layer0
10
35.7572975
20
7.0384745
11
35.7937225
21
7.0594999
0
LINE
8
layer0
10
35.7937225
20
7.0594999
11
35.8710998
21
7.1155911
0
LINE
8
layer0
10
35.8710998
20
7.1155911
11
35.9532704
21
7.1908693
0
LINE
8
layer0
10
35.9532704
20
7.1908693
11
36.0348383
21
7.2764615
0
LINE
8
layer0
10
36.0348383
20
7.2764615
11
36.1257277
21
7.3566286
0
LINE
8
layer0
10
36.1257277
20
7.3566286
11
36.1917467
21
7.4081789
0
LINE
8
layer0
10
36.1917467
20
7.4081789
11
36.2734062
21
7.4666594
0
LINE
8
layer0
10
36.2734062
20
7.4666594
11
36.3707689
21
7.5304549
0
LINE
8
layer0
10
36.3707689
20
7.5304549
11
36.4865014
21
7.5995439
0
LINE
8
layer0
10
36.4865014
20
7.5995439
11
36.6184677
21
7.6710036
0
LINE
8
layer0
10
36.6184677
20
7.6710036
11
36.7695646
21
7.7448061
0
LINE
8
layer0
10
36.7695646
20
7.7448061
11
36.9374312
21
7.8182291
0
LINE
8
layer0
10
36.9374312
20
7.8182291
11
37.123137
21
7.8903968
0
LINE
8
layer0
10
37.123137
20
7.8903968
11
37.3284872
21
7.9604425
0
LINE
8
layer0
10
37.3284872
20
7.9604425
11
37.528736
21
8.0198377
0
ARC
8
layer0
10
29.9999892
20
-0.0000109
40
11
50
43.1909171
51
46.8090836
0
LINE
8
layer0
10
38.0198377
20
7.528736
11
37.9604425
21
7.3284872
0
LINE
8
layer0
10
37.9604425
20
7.3284872
11
37.8903968
21
7.123137
0
LINE
8
layer0
10
37.8903968
20
7.123137
11
37.8182291
21
6.9374312
0
LINE
8
layer0
10
37.8182291
20
6.9374312
11
37.7448061
21
6.7695646
0
LINE
8
layer0
10
37.7448061
20
6.7695646
11
37.6710036
21
6.6184677
0
LINE
8
layer0
10
37.6710036
20
6.6184677
11
37.5995439
21
6.4865014
0
LINE
8
layer0
10
37.5995439
20
6.4865014
11
37.5304549
21
6.3707689
0
LINE
8
layer0
10
37.5304549
20
6.3707689
11
37.4666594
21
6.2734062
0
LINE
8
layer0
10
37.4666594
20
6.2734062
11
37.4081789
21
6.1917467
0
LINE
8
layer0
10
37.4081789
20
6.1917467
11
37.3566286
21
6.1257277
0
LINE
8
layer0
10
37.3566286
20
6.1257277
11
37.2764615
21
6.0348383
0
LINE
8
layer0
10
37.2764615
20
6.0348383
11
37.1908693
21
5.9532704
0
LINE
8
layer0
10
37.1908693
20
5.9532704
11
37.1155911
21
5.8710998
0
LINE
8
layer0
10
37.1155911
20
5.8710998
11
37.0594999
21
5.7937225
0
LINE
8
layer0
10
37.0594999
20
5.7937225
11
37.0384745
21
5.7572975
0
LINE
8
layer0
10
37.0384745
20
5.7572975
11
37.0220258
21
5.7226032
0
LINE
8
layer0
10
37.0220258
20
5.7226032
11
37.0100769
21
5.6898308
0
LINE
8
layer0
10
37.0100769
20
5.6898308
11
37.0025263
21
5.6591539
0
LINE
8
layer0
10
37.0025263
20
5.6591539
11
36.9992903
21
5.6307218
0
LINE
8
layer0
10
36.9992903
20
5.6307218
11
37.0002616
21
5.604716
0
LINE
8
layer0
10
37.0002616
20
5.604716
11
37.0053366
21
5.5812963
0
LINE
8
layer0
10
37.0053366
20
5.5812963
11
37.0144118
21
5.5606221
0
LINE
8
layer0
10
37.0144118
20
5.5606221
11
37.0237741
21
5.5470044
0
LINE
8
layer0
10
37.0237741
20
5.5470044
11
37.1150522
21
5.4294691
0
LINE
8
layer0
10
37.1150522
20
5.4294691
11
37.2407021
21
5.260678
0
LINE
8
layer0
10
37.2407021
20
5.260678
11
37.362404
21
5.0890185
0
LINE
8
layer0
10
37.362404
20
5.0890185
11
37.4459803
21
4.9658875
0
LINE
8
layer0
10
37.4459803
20
4.9658875
11
37.4560383
21
4.9527753
0
LINE
8
layer0
10
37.4560383
20
4.9527753
11
37.4728963
21
4.9377556
0
LINE
8
layer0
10
37.4728963
20
4.9377556
11
37.4936015
21
4.9256919
0
LINE
8
layer0
10
37.4936015
20
4.9256919
11
37.5180343
21
4.9167319
0
LINE
8
layer0
10
37.5180343
20
4.9167319
11
37.5460748
21
4.9110235
0
LINE
8
layer0
10
37.5460748
20
4.9110235
11
37.5775836
21
4.9087249
0
LINE
8
layer0
10
37.5775836
20
4.9087249
11
37.6124444
21
4.9099618
0
LINE
8
layer0
10
37.6124444
20
4.9099618
11
37.6505235
21
4.9148842
0
LINE
8
layer0
10
37.6505235
20
4.9148842
11
37.6916629
21
4.9236247
0
LINE
8
layer0
10
37.6916629
20
4.9236247
11
37.7825863
21
4.9530597
0
LINE
8
layer0
10
37.7825863
20
4.9530597
11
37.8839974
21
4.9992614
0
LINE
8
layer0
10
37.8839974
20
4.9992614
11
37.9880226
21
5.0554585
0
LINE
8
layer0
10
37.9880226
20
5.0554585
11
38.0992365
21
5.1036156
0
LINE
8
layer0
10
38.0992365
20
5.1036156
11
38.1779542
21
5.1322418
0
LINE
8
layer0
10
38.1779542
20
5.1322418
11
38.2736885
21
5.1626259
0
LINE
8
layer0
10
38.2736885
20
5.1626259
11
38.3859998
21
5.1932123
0
LINE
8
layer0
10
38.3859998
20
5.1932123
11
38.5174176
21
5.2231566
0
LINE
8
layer0
10
38.5174176
20
5.2231566
11
38.6650073
21
5.250339
0
LINE
8
layer0
10
38.6650073
20
5.250339
11
38.8315152
21
5.2738378
0
LINE
8
layer0
10
38.8315152
20
5.2738378
11
39.0138549
21
5.2917936
0
LINE
8
layer0
10
39.0138549
20
5.2917936
11
39.2127726
21
5.3030429
0
LINE
8
layer0
10
39.2127726
20
5.3030429
11
39.4297176
21
5.3062036
0
LINE
8
layer0
10
39.4297176
20
5.3062036
11
39.6385196
21
5.3008115
0
ARC
8
layer0
10
29.9999865
20
-0.0000072
40
11
50
25.1909182
51
28.8090845
0
LINE
8
layer0
10
39.9538263
20
4.6819873
11
39.8354578
21
4.5098935
0
LINE
8
layer0
10
39.8354578
20
4.5098935
11
39.7053837
21
4.3362392
0
LINE
8
layer0
10
39.7053837
20
4.3362392
11
39.5793619
21
4.1819235
0
LINE
8
layer0
10
39.5793619
20
4.1819235
11
39.4576588
21
4.0449618
0
LINE
8
layer0
10
39.4576588
20
4.0449618
11
39.340777
21
3.9240663
0
LINE
8
layer0
10
39.340777
20
3.9240663
11
39.2320349
21
3.8206412
0
LINE
8
layer0
10
39.2320349
20
3.8206412
11
39.1305641
21
3.7319228
0
LINE
8
layer0
10
39.1305641
20
3.7319228
11
39.0398042
21
3.6590393
0
LINE
8
layer0
10
39.0398042
20
3.6590393
11
38.9589517
21
3.5994479
0
LINE
8
layer0
10
38.9589517
20
3.5994479
11
38.8895236
21
3.55259
0
LINE
8
layer0
10
38.8895236
20
3.55259
11
38.7851937
21
3.4909221
0
LINE
8
layer0
10
38.7851937
20
3.4909221
11
38.6785848
21
3.4397958
0
LINE
8
layer0
10
38.6785848
20
3.4397958
11
38.5815989
21
3.3849091
0
LINE
8
layer0
10
38.5815989
20
3.3849091
11
38.5043421
21
3.3286521
0
LINE
8
layer0
10
38.5043421
20
3.3286521
11
38.4730898
21
3.300507
0
LINE
8
layer0
10
38.4730898
20
3.300507
11
38.4467251
21
3.2725937
0
LINE
8
layer0
10
38.4467251
20
3.2725937
11
38.4252337
21
3.2451178
0
LINE
8
layer0
10
38.4252337
20
3.2451178
11
38.408573
21
3.2182756
0
LINE
8
layer0
10
38.408573
20
3.2182756
11
38.3967093
21
3.192235
0
LINE
8
layer0
10
38.3967093
20
3.192235
11
38.3895969
21
3.1672019
0
LINE
8
layer0
10
38.3895969
20
3.1672019
11
38.3871864
21
3.1433601
0
LINE
8
layer0
10
38.3871864
20
3.1433601
11
38.3894288
21
3.1208935
0
LINE
8
layer0
10
38.3894288
20
3.1208935
11
38.3941248
21
3.1050491
0
LINE
8
layer0
10
38.3941248
20
3.1050491
11
38.444615
21
2.9650599
0
LINE
8
layer0
10
38.444615
20
2.9650599
11
38.5119558
21
2.7657021
0
LINE
8
layer0
10
38.5119558
20
2.7657021
11
38.5746555
21
2.5648363
0
LINE
8
layer0
10
38.5746555
20
2.5648363
11
38.6160917
21
2.4219052
0
LINE
8
layer0
10
38.6160917
20
2.4219052
11
38.6216056
21
2.4063267
0
LINE
8
layer0
10
38.6216056
20
2.4063267
11
38.6329971
21
2.3868327
0
LINE
8
layer0
10
38.6329971
20
2.3868327
11
38.648961
21
2.3689612
0
LINE
8
layer0
10
38.648961
20
2.3689612
11
38.6694292
21
2.3528896
0
LINE
8
layer0
10
38.6694292
20
2.3528896
11
38.6943334
21
2.3387956
0
LINE
8
layer0
10
38.6943334
20
2.3387956
11
38.7235897
21
2.3268727
0
LINE
8
layer0
10
38.7235897
20
2.3268727
11
38.7571265
21
2.3172765
0
LINE
8
layer0
10
38.7571265
20
2.3172765
11
38.794863
21
2.3101909
0
LINE
8
layer0
10
38.794863
20
2.3101909
11
38.8366899
21
2.3057908
0
LINE
8
layer0
10
38.8366899
20
2.3057908
11
38.932259
21
2.3056883
0
LINE
8
layer0
10
38.932259
20
2.3056883
11
39.0429838
21
2.3182909
0
LINE
8
layer0
10
39.0429838
20
2.3182909
11
39.1592835
21
2.3395921
0
LINE
8
layer0
10
39.1592835
20
2.3395921
11
39.2799356
21
2.3510252
0
LINE
8
layer0
10
39.2799356
20
2.3510252
11
39.3636466
21
2.3539252
0
LINE
8
layer0
10
39.3636466
20
2.3539252
11
39.4640845
21
2.3532387
0
LINE
8
layer0
10
39.4640845
20
2.3532387
11
39.5803507
21
2.347622
0
LINE
8
layer0
10
39.5803507
20
2.347622
11
39.7145897
21
2.3354903
0
LINE
8
layer0
10
39.7145897
20
2.3354903
11
39.8633556
21
2.3157346
0
LINE
8
layer0
10
39.8633556
20
2.3157346
11
40.0289756
21
2.2866295
0
LINE
8
layer0
10
40.0289756
20
2.2866295
11
40.2079396
21
2.2473604
0
LINE
8
layer0
10
40.2079396
20
2.2473604
11
40.4005978
21
2.1965902
0
LINE
8
layer0
10
40.4005978
20
2.1965902
11
40.6079014
21
2.1325566
0
LINE
8
layer0
10
40.6079014
20
2.1325566
11
40.8048177
21
2.062905
0
ARC
8
layer0
10
29.9999849
20
-0.0000027
40
11
50
7.1909186
51
10.8090848
0
LINE
8
layer0
10
40.913465
20
1.376933
11
40.74771
21
1.24984
0
LINE
8
layer0
10
40.74771
20
1.24984
11
40.57034
21
1.12488
0
LINE
8
layer0
10
40.57034
20
1.12488
11
40.4028
21
1.01706
0
LINE
8
layer0
10
40.4028
20
1.01706
11
40.24473
21
0.92441
0
LINE
8
layer0
10
40.24473
20
0.92441
11
40.09621
21
0.84555
0
LINE
8
layer0
10
40.09621
20
0.84555
11
39.96083
21
0.78079
0
LINE
8
layer0
10
39.96083
20
0.78079
11
39.83691
21
0.72777
0
LINE
8
layer0
10
39.83691
20
0.72777
11
39.72807
21
0.6865
0
LINE
8
layer0
10
39.72807
20
0.6865
11
39.63276
21
0.65481
0
LINE
8
layer0
10
39.63276
20
0.65481
11
39.55225
21
0.6317
0
LINE
8
layer0
10
39.55225
20
0.6317
11
39.43397
21
0.60529
0
LINE
8
layer0
10
39.43397
20
0.60529
11
39.31678
21
0.58961
0
LINE
8
layer0
10
39.31678
20
0.58961
11
39.20758
21
0.56738
0
LINE
8
layer0
10
39.20758
20
0.56738
11
39.11672
21
0.53775
0
LINE
8
layer0
10
39.11672
20
0.53775
11
39.0783
21
0.52064
0
LINE
8
layer0
10
39.0783
20
0.52064
11
39.0446
21
0.50224
0
LINE
8
layer0
10
39.0446
20
0.50224
11
39.01567
21
0.48275
0
LINE
8
layer0
10
39.01567
20
0.48275
11
38.99153
21
0.46237
0
LINE
8
layer0
10
38.99153
20
0.46237
11
38.9722
21
0.44127
0
LINE
8
layer0
10
38.9722
20
0.44127
11
38.9577
21
0.41966
0
LINE
8
layer0
10
38.9577
20
0.41966
11
38.94804
21
0.39773
0
LINE
8
layer0
10
38.94804
20
0.39773
11
38.94323
21
0.37567
0
LINE
8
layer0
10
38.94323
20
0.37567
11
38.9428
21
0.35915
0
LINE
8
layer0
10
38.9428
20
0.35915
11
38.94756
21
0.21041
0
LINE
8
layer0
10
38.94756
20
0.21041
11
38.95
21
0
0
LINE
8
layer0
10
38.95
20
0
11
38.94756
21
-0.21041
0
LINE
8
layer0
10
38.94756
20
-0.21041
11
38.9428
21
-0.35915
0
LINE
8
layer0
10
38.9428
20
-0.35915
11
38.94323
21
-0.37567
0
LINE
8
layer0
10
38.94323
20
-0.37567
11
38.94804
21
-0.39773
0
LINE
8
layer0
10
38.94804
20
-0.39773
11
38.9577
21
-0.41966
0
LINE
8
layer0
10
38.9577
20
-0.41966
11
38.9722
21
-0.44127
0
LINE
8
layer0
10
38.9722
20
-0.44127
11
38.99153
21
-0.46237
0
LINE
8
layer0
10
38.99153
20
-0.46237
11
39.01567
21
-0.48275
0
LINE
8
layer0
10
39.01567
20
-0.48275
11
39.0446
21
-0.50224
0
LINE
8
layer0
10
39.0446
20
-0.50224
11
39.0783
21
-0.52064
0
LINE
8
layer0
10
39.0783
20
-0.52064
11
39.11672
21
-0.53775
0
LINE
8
layer0
10
39.11672
20
-0.53775
11
39.20758
21
-0.56738
0
LINE
8
layer0
10
39.20758
20
-0.56738
11
39.31678
21
-0.58961
0
LINE
8
layer0
10
39.31678
20
-0.58961
11
39.43397
21
-0.60529
0
LINE
8
layer0
10
39.43397
20
-0.60529
11
39.55225
21
-0.6317
0
LINE
8
layer0
10
39.55225
20
-0.6317
11
39.63276
21
-0.65481
0
LINE
8
layer0
10
39.63276
20
-0.65481
11
39.72807
21
-0.6865
0
LINE
8
layer0
10
39.72807
20
-0.6865
11
39.83691
21
-0.72777
0
LINE
8
layer0
10
39.83691
20
-0.72777
11
39.96083
21
-0.78079
0
LINE
8
layer0
10
39.96083
20
-0.78079
11
40.09621
21
-0.84555
0
LINE
8
layer0
10
40.09621
20
-0.84555
11
40.24473
21
-0.92441
0
LINE
8
layer0
10
40.24473
20
-0.92441
11
40.4028
21
-1.01706
0
LINE
8
layer0
10
40.4028
20
-1.01706
11
40.57034
21
-1.12488
0
LINE
8
layer0
10
40.57034
20
-1.12488
11
40.74771
21
-1.24984
0
LINE
8
layer0
10
40.74771
20
-1.24984
11
40.913465
21
-1.376933
0
ARC
8
layer0
10
29.9999849
20
0.0000029
40
11
50
349.1909147
51
352.8090809
0
LINE
8
layer0
10
40.8048177
20
-2.062905
11
40.6079014
21
-2.1325566
0
LINE
8
layer0
10
40.6079014
20
-2.1325566
11
40.4005978
21
-2.1965902
0
LINE
8
layer0
10
40.4005978
20
-2.1965902
11
40.2079396
21
-2.2473604
0
LINE
8
layer0
10
40.2079396
20
-2.2473604
11
40.0289756
21
-2.2866295
0
LINE
8
layer0
10
40.0289756
20
-2.2866295
11
39.8633556
21
-2.3157346
0
LINE
8
layer0
10
39.8633556
20
-2.3157346
11
39.7145897
21
-2.3354903
0
LINE
8
layer0
10
39.7145897
20
-2.3354903
11
39.5803507
21
-2.347622
0
LINE
8
layer0
10
39.5803507
20
-2.347622
11
39.4640845
21
-2.3532387
0
LINE
8
layer0
10
39.4640845
20
-2.3532387
11
39.3636466
21
-2.3539252
0
LINE
8
layer0
10
39.3636466
20
-2.3539252
11
39.2799356
21
-2.3510252
0
LINE
8
layer0
10
39.2799356
20
-2.3510252
11
39.1592835
21
-2.3395921
0
LINE
8
layer0
10
39.1592835
20
-2.3395921
11
39.0429838
21
-2.3182909
0
LINE
8
layer0
10
39.0429838
20
-2.3182909
11
38.932259
21
-2.3056883
0
LINE
8
layer0
10
38.932259
20
-2.3056883
11
38.8366899
21
-2.3057908
0
LINE
8
layer0
10
38.8366899
20
-2.3057908
11
38.794863
21
-2.3101909
0
LINE
8
layer0
10
38.794863
20
-2.3101909
11
38.7571265
21
-2.3172765
0
LINE
8
layer0
10
38.7571265
20
-2.3172765
11
38.7235897
21
-2.3268727
0
LINE
8
layer0
10
38.7235897
20
-2.3268727
11
38.6943334
21
-2.3387956
0
LINE
8
layer0
10
38.6943334
20
-2.3387956
11
38.6694292
21
-2.3528896
0
LINE
8
layer0
10
38.6694292
20
-2.3528896
11
38.648961
21
-2.3689612
0
LINE
8
layer0
10
38.648961
20
-2.3689612
11
38.6329971
21
-2.3868327
0
LINE
8
layer0
10
38.6329971
20
-2.3868327
11
38.6216056
21
-2.4063267
0
LINE
8
layer0
10
38.6216056
20
-2.4063267
11
38.6160917
21
-2.4219052
0
LINE
8
layer0
10
38.6160917
20
-2.4219052
11
38.5746555
21
-2.5648363
0
LINE
8
layer0
10
38.5746555
20
-2.5648363
11
38.5119558
21
-2.7657021
0
LINE
8
layer0
10
38.5119558
20
-2.7657021
11
38.444615
21
-2.9650599
0
LINE
8
layer0
10
38.444615
20
-2.9650599
11
38.3941248
21
-3.1050491
0
LINE
8
layer0
10
38.3941248
20
-3.1050491
11
38.3894288
21
-3.1208935
0
LINE
8
layer0
10
38.3894288
20
-3.1208935
11
38.3871864
21
-3.1433601
0
LINE
8
layer0
10
38.3871864
20
-3.1433601
11
38.3895969
21
-3.1672019
0
LINE
8
layer0
10
38.3895969
20
-3.1672019
11
38.3967093
21
-3.192235
0
LINE
8
layer0
10
38.3967093
20
-3.192235
11
38.408573
21
-3.2182756
0
LINE
8
layer0
10
38.408573
20
-3.2182756
11
38.4252337
21
-3.2451178
0
LINE
8
layer0
10
38.4252337
20
-3.2451178
11
38.4467251
21
-3.2725937
0
LINE
8
layer0
10
38.4467251
20
-3.2725937
11
38.4730898
21
-3.300507
0
LINE
8
layer0
10
38.4730898
20
-3.300507
11
38.5043421
21
-3.3286521
0
LINE
8
layer0
10
38.5043421
20
-3.3286521
11
38.5815989
21
-3.3849091
0
LINE
8
layer0
10
38.5815989
20
-3.3849091
11
38.6785848
21
-3.4397958
0
LINE
8
layer0
10
38.6785848
20
-3.4397958
11
38.7851937
21
-3.4909221
0
LINE
8
layer0
10
38.7851937
20
-3.4909221
11
38.8895236
21
-3.55259
0
LINE
8
layer0
10
38.8895236
20
-3.55259
11
38.9589517
21
-3.5994479
0
LINE
8
layer0
10
38.9589517
20
-3.5994479
11
39.0398042
21
-3.6590393
0
LINE
8
layer0
10
39.0398042
20
-3.6590393
11
39.1305641
21
-3.7319228
0
LINE
8
layer0
10
39.1305641
20
-3.7319228
11
39.2320349
21
-3.8206412
0
LINE
8
layer0
10
39.2320349
20
-3.8206412
11
39.340777
21
-3.9240663
0
LINE
8
layer0
10
39.340777
20
-3.9240663
11
39.4576588
21
-4.0449618
0
LINE
8
layer0
10
39.4576588
20
-4.0449618
11
39.5793619
21
-4.1819235
0
LINE
8
layer0
10
39.5793619
20
-4.1819235
11
39.7053837
21
-4.3362392
0
LINE
8
layer0
10
39.7053837
20
-4.3362392
11
39.8354578
21
-4.5098935
0
LINE
8
layer0
10
39.8354578
20
-4.5098935
11
39.9538263
21
-4.6819873
0
ARC
8
layer0
10
29.9999865
20
0.0000073
40
11
50
331.190915
51
334.8090813
0
LINE
8
layer0
10
39.6385196
20
-5.3008115
11
39.4297176
21
-5.3062036
0
LINE
8
layer0
10
39.4297176
20
-5.3062036
11
39.2127726
21
-5.3030429
0
LINE
8
layer0
10
39.2127726
20
-5.3030429
11
39.0138549
21
-5.2917936
0
LINE
8
layer0
10
39.0138549
20
-5.2917936
11
38.8315152
21
-5.2738378
0
LINE
8
layer0
10
38.8315152
20
-5.2738378
11
38.6650073
21
-5.250339
0
LINE
8
layer0
10
38.6650073
20
-5.250339
11
38.5174176
21
-5.2231566
0
LINE
8
layer0
10
38.5174176
20
-5.2231566
11
38.3859998
21
-5.1932123
0
LINE
8
layer0
10
38.3859998
20
-5.1932123
11
38.2736885
21
-5.1626259
0
LINE
8
layer0
10
38.2736885
20
-5.1626259
11
38.1779542
21
-5.1322418
0
LINE
8
layer0
10
38.1779542
20
-5.1322418
11
38.0992365
21
-5.1036156
0
LINE
8
layer0
10
38.0992365
20
-5.1036156
11
37.9880226
21
-5.0554585
0
LINE
8
layer0
10
37.9880226
20
-5.0554585
11
37.8839974
21
-4.9992614
0
LINE
8
layer0
10
37.8839974
20
-4.9992614
11
37.7825863
21
-4.9530597
0
LINE
8
layer0
10
37.7825863
20
-4.9530597
11
37.6916629
21
-4.9236247
0
LINE
8
layer0
10
37.6916629
20
-4.9236247
11
37.6505235
21
-4.9148842
0
LINE
8
layer0
10
37.6505235
20
-4.9148842
11
37.6124444
21
-4.9099618
0
LINE
8
layer0
10
37.6124444
20
-4.9099618
11
37.5775836
21
-4.9087249
0
LINE
8
layer0
10
37.5775836
20
-4.9087249
11
37.5460748
21
-4.9110235
0
LINE
8
layer0
10
37.5460748
20
-4.9110235
11
37.5180343
21
-4.9167319
0
LINE
8
layer0
10
37.5180343
20
-4.9167319
11
37.4936015
21
-4.9256919
0
LINE
8
layer0
10
37.4936015
20
-4.9256919
11
37.4728963
21
-4.9377556
0
LINE
8
layer0
10
37.4728963
20
-4.9377556
11
37.4560383
21
-4.9527753
0
LINE
8
layer0
10
37.4560383
20
-4.9527753
11
37.4459803
21
-4.9658875
0
LINE
8
layer0
10
37.4459803
20
-4.9658875
11
37.362404
21
-5.0890185
0
LINE
8
layer0
10
37.362404
20
-5.0890185
11
37.2407021
21
-5.260678
0
LINE
8
layer0
10
37.2407021
20
-5.260678
11
37.1150522
21
-5.4294691
0
LINE
8
layer0
10
37.1150522
20
-5.4294691
11
37.0237741
21
-5.5470044
0
LINE
8
layer0
10
37.0237741
20
-5.5470044
11
37.0144118
21
-5.5606221
0
LINE
8
layer0
10
37.0144118
20
-5.5606221
11
37.0053366
21
-5.5812963
0
LINE
8
layer0
10
37.0053366
20
-5.5812963
11
37.0002616
21
-5.604716
0
LINE
8
layer0
10
37.0002616
20
-5.604716
11
36.9992903
21
-5.6307218
0
LINE
8
layer0
10
36.9992903
20
-5.6307218
11
37.0025263
21
-5.6591539
0
LINE
8
layer0
10
37.0025263
20
-5.6591539
11
37.0100769
21
-5.6898308
0
LINE
8
layer0
10
37.0100769
20
-5.6898308
11
37.0220258
21
-5.7226032
0
LINE
8
layer0
10
37.0220258
20
-5.7226032
11
37.0384745
21
-5.7572975
0
LINE
8
layer0
10
37.0384745
20
-5.7572975
11
37.0594999
21
-5.7937225
0
LINE
8
layer0
10
37.0594999
20
-5.7937225
11
37.1155911
21
-5.8710998
0
LINE
8
layer0
10
37.1155911
20
-5.8710998
11
37.1908693
21
-5.9532704
0
LINE
8
layer0
10
37.1908693
20
-5.9532704
11
37.2764615
21
-6.0348383
0
LINE
8
layer0
10
37.2764615
20
-6.0348383
11
37.3566286
21
-6.1257277
0
LINE
8
layer0
10
37.3566286
20
-6.1257277
11
37.4081789
21
-6.1917467
0
LINE
8
layer0
10
37.4081789
20
-6.1917467
11
37.4666594
21
-6.2734062
0
LINE
8
layer0
10
37.4666594
20
-6.2734062
11
37.5304549
21
-6.3707689
0
LINE
8
layer0
10
37.5304549
20
-6.3707689
11
37.5995439
21
-6.4865014
0
LINE
8
layer0
10
37.5995439
20
-6.4865014
11
37.6710036
21
-6.6184677
0
LINE
8
layer0
10
37.6710036
20
-6.6184677
11
37.7448061
21
-6.7695646
0
LINE
8
layer0
10
37.7448061
20
-6.7695646
11
37.8182291
21
-6.9374312
0
LINE
8
layer0
10
37.8182291
20
-6.9374312
11
37.8903968
21
-7.123137
0
LINE
8
layer0
10
37.8903968
20
-7.123137
11
37.9604425
21
-7.3284872
0
LINE
8
layer0
10
37.9604425
20
-7.3284872
11
38.0198377
21
-7.528736
0
ARC
8
layer0
10
29.9999891
20
0.0000108
40
11
50
313.1909171
51
316.8090836
0
LINE
8
layer0
10
37.528736
20
-8.0198377
11
37.3284872
21
-7.9604425
0
LINE
8
layer0
10
37.3284872
20
-7.9604425
11
37.123137
21
-7.8903968
0
LINE
8
layer0
10
37.123137
20
-7.8903968
11
36.9374312
21
-7.8182291
0
LINE
8
layer0
10
36.9374312
20
-7.8182291
11
36.7695646
21
-7.7448061
0
LINE
8
layer0
10
36.7695646
20
-7.7448061
11
36.6184677
21
-7.6710036
0
LINE
8
layer0
10
36.6184677
20
-7.6710036
11
36.4865014
21
-7.5995439
0
LINE
8
layer0
10
36.4865014
20
-7.5995439
11
36.3707689
21
-7.5304549
0
LINE
8
layer0
10
36.3707689
20
-7.5304549
11
36.2734062
21
-7.4666594
0
LINE
8
layer0
10
36.2734062
20
-7.4666594
11
36.1917467
21
-7.4081789
0
LINE
8
layer0
10
36.1917467
20
-7.4081789
11
36.1257277
21
-7.3566286
0
LINE
8
layer0
10
36.1257277
20
-7.3566286
11
36.0348383
21
-7.2764615
0
LINE
8
layer0
10
36.0348383
20
-7.2764615
11
35.9532704
21
-7.1908693
0
LINE
8
layer0
10
35.9532704
20
-7.1908693
11
35.8710998
21
-7.1155911
0
LINE
8
layer0
10
35.8710998
20
-7.1155911
11
35.7937225
21
-7.0594999
0
LINE
8
layer0
10
35.7937225
20
-7.0594999
11
35.7572975
21
-7.0384745
0
LINE
8
layer0
10
35.7572975
20
-7.0384745
11
35.7226032
21
-7.0220258
0
LINE
8
layer0
10
35.7226032
20
-7.0220258
11
35.6898308
21
-7.0100769
0
LINE
8
layer0
10
35.6898308
20
-7.0100769
11
35.6591539
21
-7.0025263
0
LINE
8
layer0
10
35.6591539
20
-7.0025263
11
35.6307218
21
-6.9992903
0
LINE
8
layer0
10
35.6307218
20
-6.9992903
11
35.604716
21
-7.0002616
0
LINE
8
layer0
10
35.604716
20
-7.0002616
11
35.5812963
21
-7.0053366
0
LINE
8
layer0
10
35.5812963
20
-7.0053366
11
35.5606221
21
-7.0144118
0
LINE
8
layer0
10
35.5606221
20
-7.0144118
11
35.5470044
21
-7.0237741
0
LINE
8
layer0
10
35.5470044
20
-7.0237741
11
35.4294691
21
-7.1150522
0
LINE
8
layer0
10
35.4294691
20
-7.1150522
11
35.260678
21
-7.2407021
0
LINE
8
layer0
10
35.260678
20
-7.2407021
11
35.0890185
21
-7.362404
0
LINE
8
layer0
10
35.0890185
20
-7.362404
11
34.9658875
21
-7.4459803
0
LINE
8
layer0
10
34.9658875
20
-7.4459803
11
34.9527753
21
-7.4560383
0
LINE
8
layer0
10
34.9527753
20
-7.4560383
11
34.9377556
21
-7.4728963
0
LINE
8
layer0
10
34.9377556
20
-7.4728963
11
34.9256919
21
-7.4936015
0
LINE
8
layer0
10
34.9256919
20
-7.4936015
11
34.9167319
21
-7.5180343
0
LINE
8
layer0
10
34.9167319
20
-7.5180343
11
34.9110235
21
-7.5460748
0
LINE
8
layer0
10
34.9110235
20
-7.5460748
11
34.9087249
21
-7.5775836
0
LINE
8
layer0
10
34.9087249
20
-7.5775836
11
34.9099618
21
-7.6124444
0
LINE
8
layer0
10
34.9099618
20
-7.6124444
11
34.9148842
21
-7.6505235
0
LINE
8
layer0
10
34.9148842
20
-7.6505235
11
34.9236247
21
-7.6916629
0
LINE
8
layer0
10
34.9236247
20
-7.6916629
11
34.9530597
21
-7.7825863
0
LINE
8
layer0
10
34.9530597
20
-7.7825863
11
34.9992614
21
-7.8839974
0
LINE
8
layer0
10
34.9992614
20
-7.8839974
11
35.0554585
21
-7.9880226
0
LINE
8
layer0
10
35.0554585
20
-7.9880226
11
35.1036156
21
-8.0992365
0
LINE
8
layer0
10
35.1036156
20
-8.0992365
11
35.1322418
21
-8.1779542
0
LINE
8
layer0
10
35.1322418
20
-8.1779542
11
35.1626259
21
-8.2736885
0
LINE
8
layer0
10
35.1626259
20
-8.2736885
11
35.1932123
21
-8.3859998
0
LINE
8
layer0
10
35.1932123
20
-8.3859998
11
35.2231566
21
-8.5174176
0
LINE
8
layer0
10
35.2231566
20
-8.5174176
11
35.250339
21
-8.6650073
0
LINE
8
layer0
10
35.250339
20
-8.6650073
11
35.2738378
21
-8.8315152
0
LINE
8
layer0
10
35.2738378
20
-8.8315152
11
35.2917936
21
-9.0138549
0
LINE
8
layer0
10
35.2917936
20
-9.0138549
11
35.3030429
21
-9.2127726
0
LINE
8
layer0
10
35.3030429
20
-9.2127726
11
35.3062036
21
-9.4297176
0
LINE
8
layer0
10
35.3062036
20
-9.4297176
11
35.3008115
21
-9.6385196
0
ARC
8
layer0
10
29.9999928
20
0.0000135
40
11
50
295.1909182
51
298.8090845
0
LINE
8
layer0
10
34.6819873
20
-9.9538263
11
34.5098935
21
-9.8354578
0
LINE
8
layer0
10
34.5098935
20
-9.8354578
11
34.3362392
21
-9.7053837
0
LINE
8
layer0
10
34.3362392
20
-9.7053837
11
34.1819235
21
-9.5793619
0
LINE
8
layer0
10
34.1819235
20
-9.5793619
11
34.0449618
21
-9.4576588
0
LINE
8
layer0
10
34.0449618
20
-9.4576588
11
33.9240663
21
-9.340777
0
LINE
8
layer0
10
33.9240663
20
-9.340777
11
33.8206412
21
-9.2320349
0
LINE
8
layer0
10
33.8206412
20
-9.2320349
11
33.7319228
21
-9.1305641
0
LINE
8
layer0
10
33.7319228
20
-9.1305641
11
33.6590393
21
-9.0398042
0
LINE
8
layer0
10
33.6590393
20
-9.0398042
11
33.5994479
21
-8.9589517
0
LINE
8
layer0
10
33.5994479
20
-8.9589517
11
33.55259
21
-8.8895236
0
LINE
8
layer0
10
33.55259
20
-8.8895236
11
33.4909221
21
-8.7851937
0
LINE
8
layer0
10
33.4909221
20
-8.7851937
11
33.4397958
21
-8.6785848
0
LINE
8
layer0
10
33.4397958
20
-8.6785848
11
33.3849091
21
-8.5815989
0
LINE
8
layer0
10
33.3849091
20
-8.5815989
11
33.3286521
21
-8.5043421
0
LINE
8
layer0
10
33.3286521
20
-8.5043421
11
33.300507
21
-8.4730898
0
LINE
8
layer0
10
33.300507
20
-8.4730898
11
33.2725937
21
-8.4467251
0
LINE
8
layer0
10
33.2725937
20
-8.4467251
11
33.2451178
21
-8.4252337
0
LINE
8
layer0
10
33.2451178
20
-8.4252337
11
33.2182756
21
-8.408573
0
LINE
8
layer0
10
33.2182756
20
-8.408573
11
33.192235
21
-8.3967093
0
LINE
8
layer0
10
33.192235
20
-8.3967093
11
33.1672019
21
-8.3895969
0
LINE
8
layer0
10
33.1672019
20
-8.3895969
11
33.1433601
21
-8.3871864
0
LINE
8
layer0
10
33.1433601
20
-8.3871864
11
33.1208935
21
-8.3894288
0
LINE
8
layer0
10
33.1208935
20
-8.3894288
11
33.1050491
21
-8.3941248
0
LINE
8
layer0
10
33.1050491
20
-8.3941248
11
32.9650599
21
-8.444615
0
LINE
8
layer0
10
32.9650599
20
-8.444615
11
32.7657021
21
-8.5119558
0
LINE
8
layer0
10
32.7657021
20
-8.5119558
11
32.5648363
21
-8.5746555
0
LINE
8
layer0
10
32.5648363
20
-8.5746555
11
32.4219052
21
-8.6160917
0
LINE
8
layer0
10
32.4219052
20
-8.6160917
11
32.4063267
21
-8.6216056
0
LINE
8
layer0
10
32.4063267
20
-8.6216056
11
32.3868327
21
-8.6329971
0
LINE
8
layer0
10
32.3868327
20
-8.6329971
11
32.3689612
21
-8.648961
0
LINE
8
layer0
10
32.3689612
20
-8.648961
11
32.3528896
21
-8.6694292
0
LINE
8
layer0
10
32.3528896
20
-8.6694292
11
32.3387956
21
-8.6943334
0
LINE
8
layer0
10
32.3387956
20
-8.6943334
11
32.3268727
21
-8.7235897
0
LINE
8
layer0
10
32.3268727
20
-8.7235897
11
32.3172765
21
-8.7571265
0
LINE
8
layer0
10
32.3172765
20
-8.7571265
11
32.3101909
21
-8.794863
0
LINE
8
layer0
10
32.3101909
20
-8.794863
11
32.3057908
21
-8.8366899
0
LINE
8
layer0
10
32.3057908
20
-8.8366899
11
32.3056883
21
-8.932259
0
LINE
8
layer0
10
32.3056883
20
-8.932259
11
32.3182909
21
-9.0429838
0
LINE
8
layer0
10
32.3182909
20
-9.0429838
11
32.3395921
21
-9.1592835
0
LINE
8
layer0
10
32.3395921
20
-9.1592835
11
32.3510252
21
-9.2799356
0
LINE
8
layer0
10
32.3510252
20
-9.2799356
11
32.3539252
21
-9.3636466
0
LINE
8
layer0
10
32.3539252
20
-9.3636466
11
32.3532387
21
-9.4640845
0
LINE
8
layer0
10
32.3532387
20
-9.4640845
11
32.347622
21
-9.5803507
0
LINE
8
layer0
10
32.347622
20
-9.5803507
11
32.3354903
21
-9.7145897
0
LINE
8
layer0
10
32.3354903
20
-9.7145897
11
32.3157346
21
-9.8633556
0
LINE
8
layer0
10
32.3157346
20
-9.8633556
11
32.2866295
21
-10.0289756
0
LINE
8
layer0
10
32.2866295
20
-10.0289756
11
32.2473604
21
-10.2079396
0
LINE
8
layer0
10
32.2473604
20
-10.2079396
11
32.1965902
21
-10.4005978
0
LINE
8
layer0
10
32.1965902
20
-10.4005978
11
32.1325566
21
-10.6079014
0
LINE
8
layer0
10
32.1325566
20
-10.6079014
11
32.062905
21
-10.8048177
0
ARC
8
layer0
10
29.9999973
20
0.0000151
40
11
50
277.1909186
51
280.8090848
0
LINE
8
layer0
10
31.376933
20
-10.913465
11
31.24984
21
-10.74771
0
LINE
8
layer0
10
31.24984
20
-10.74771
11
31.12488
21
-10.57034
0
LINE
8
layer0
10
31.12488
20
-10.57034
11
31.01706
21
-10.4028
0
LINE
8
layer0
10
31.01706
20
-10.4028
11
30.92441
21
-10.24473
0
LINE
8
layer0
10
30.92441
20
-10.24473
11
30.84555
21
-10.09621
0
LINE
8
layer0
10
30.84555
20
-10.09621
11
30.78079
21
-9.96083
0
LINE
8
layer0
10
30.78079
20
-9.96083
11
30.72777
21
-9.83691
0
LINE
8
layer0
10
30.72777
20
-9.83691
11
30.6865
21
-9.72807
0
LINE
8
layer0
10
30.6865
20
-9.72807
11
30.65481
21
-9.63276
0
LINE
8
layer0
10
30.65481
20
-9.63276
11
30.6317
21
-9.55225
0
LINE
8
layer0
10
30.6317
20
-9.55225
11
30.60529
21
-9.43397
0
LINE
8
layer0
10
30.60529
20
-9.43397
11
30.58961
21
-9.31678
0
LINE
8
layer0
10
30.58961
20
-9.31678
11
30.56738
21
-9.20758
0
LINE
8
layer0
10
30.56738
20
-9.20758
11
30.53775
21
-9.11672
0
LINE
8
layer0
10
30.53775
20
-9.11672
11
30.52064
21
-9.0783
0
LINE
8
layer0
10
30.52064
20
-9.0783
11
30.50224
21
-9.0446
0
LINE
8
layer0
10
30.50224
20
-9.0446
11
30.48275
21
-9.01567
0
LINE
8
layer0
10
30.48275
20
-9.01567
11
30.46237
21
-8.99153
0
LINE
8
layer0
10
30.46237
20
-8.99153
11
30.44127
21
-8.9722
0
LINE
8
layer0
10
30.44127
20
-8.9722
11
30.41966
21
-8.9577
0
LINE
8
layer0
10
30.41966
20
-8.9577
11
30.39773
21
-8.94804
0
LINE
8
layer0
10
30.39773
20
-8.94804
11
30.37567
21
-8.94323
0
LINE
8
layer0
10
30.37567
20
-8.94323
11
30.35915
21
-8.9428
0
LINE
8
layer0
10
30.35915
20
-8.9428
11
30.21041
21
-8.94756
0
LINE
8
layer0
10
30.21041
20
-8.94756
11
30
21
-8.95
0
LINE
8
layer0
10
30
20
-8.95
11
29.78959
21
-8.94756
0
LINE
8
layer0
10
29.78959
20
-8.94756
11
29.64085
21
-8.9428
0
LINE
8
layer0
10
29.64085
20
-8.9428
11
29.62433
21
-8.94323
0
LINE
8
layer0
10
29.62433
20
-8.94323
11
29.60227
21
-8.94804
0
LINE
8
layer0
10
29.60227
20
-8.94804
11
29.58034
21
-8.9577
0
LINE
8
layer0
10
29.58034
20
-8.9577
11
29.55873
21
-8.9722
0
LINE
8
layer0
10
29.55873
20
-8.9722
11
29.53763
21
-8.99153
0
LINE
8
layer0
10
29.53763
20
-8.99153
11
29.51725
21
-9.01567
0
LINE
8
layer0
10
29.51725
20
-9.01567
11
29.49776
21
-9.0446
0
LINE
8
layer0
10
29.49776
20
-9.0446
11
29.47936
21
-9.0783
0
LINE
8
layer0
10
29.47936
20
-9.0783
11
29.46225
21
-9.11672
0
LINE
8
layer0
10
29.46225
20
-9.11672
11
29.43262
21
-9.20758
0
LINE
8
layer0
10
29.43262
20
-9.20758
11
29.41039
21
-9.31678
0
LINE
8
layer0
10
29.41039
20
-9.31678
11
29.39471
21
-9.43397
0
LINE
8
layer0
10
29.39471
20
-9.43397
11
29.3683
21
-9.55225
0
LINE
8
layer0
10
29.3683
20
-9.55225
11
29.34519
21
-9.63276
0
LINE
8
layer0
10
29.34519
20
-9.63276
11
29.3135
21
-9.72807
0
LINE
8
layer0
10
29.3135
20
-9.72807
11
29.27223
21
-9.83691
0
LINE
8
layer0
10
29.27223
20
-9.83691
11
29.21921
21
-9.96083
0
LINE
8
layer0
10
29.21921
20
-9.96083
11
29.15445
21
-10.09621
0
LINE
8
layer0
10
29.15445
20
-10.09621
11
29.07559
21
-10.24473
0
LINE
8
layer0
10
29.07559
20
-10.24473
11
28.98294
21
-10.4028
0
LINE
8
layer0
10
28.98294
20
-10.4028
11
28.87512
21
-10.57034
0
LINE
8
layer0
10
28.87512
20
-10.57034
11
28.75016
21
-10.74771
0
LINE
8
layer0
10
28.75016
20
-10.74771
11
28.623067
21
-10.913465
0
ARC
8
layer0
10
30.0000029
20
0.0000151
40
11
50
259.1909147
51
262.8090809
0
LINE
8
layer0
10
27.937095
20
-10.8048177
11
27.8674434
21
-10.6079014
0
LINE
8
layer0
10
27.8674434
20
-10.6079014
11
27.8034098
21
-10.4005978
0
LINE
8
layer0
10
27.8034098
20
-10.4005978
11
27.7526396
21
-10.2079396
0
LINE
8
layer0
10
27.7526396
20
-10.2079396
11
27.7133705
21
-10.0289756
0
LINE
8
layer0
10
27.7133705
20
-10.0289756
11
27.6842654
21
-9.8633556
0
LINE
8
layer0
10
27.6842654
20
-9.8633556
11
27.6645097
21
-9.7145897
0
LINE
8
layer0
10
27.6645097
20
-9.7145897
11
27.652378
21
-9.5803507
0
LINE
8
layer0
10
27.652378
20
-9.5803507
11
27.6467613
21
-9.4640845
0
LINE
8
layer0
10
27.6467613
20
-9.4640845
11
27.6460748
21
-9.3636466
0
LINE
8
layer0
10
27.6460748
20
-9.3636466
11
27.6489748
21
-9.2799356
0
LINE
8
layer0
10
27.6489748
20
-9.2799356
11
27.6604079
21
-9.1592835
0
LINE
8
layer0
10
27.6604079
20
-9.1592835
11
27.6817091
21
-9.0429838
0
LINE
8
layer0
10
27.6817091
20
-9.0429838
11
27.6943117
21
-8.932259
0
LINE
8
layer0
10
27.6943117
20
-8.932259
11
27.6942092
21
-8.8366899
0
LINE
8
layer0
10
27.6942092
20
-8.8366899
11
27.6898091
21
-8.794863
0
LINE
8
layer0
10
27.6898091
20
-8.794863
11
27.6827235
21
-8.7571265
0
LINE
8
layer0
10
27.6827235
20
-8.7571265
11
27.6731273
21
-8.7235897
0
LINE
8
layer0
10
27.6731273
20
-8.7235897
11
27.6612044
21
-8.6943334
0
LINE
8
layer0
10
27.6612044
20
-8.6943334
11
27.6471104
21
-8.6694292
0
LINE
8
layer0
10
27.6471104
20
-8.6694292
11
27.6310388
21
-8.648961
0
LINE
8
layer0
10
27.6310388
20
-8.648961
11
27.6131673
21
-8.6329971
0
LINE
8
layer0
10
27.6131673
20
-8.6329971
11
27.5936733
21
-8.6216056
0
LINE
8
layer0
10
27.5936733
20
-8.6216056
11
27.5780948
21
-8.6160917
0
LINE
8
layer0
10
27.5780948
20
-8.6160917
11
27.4351637
21
-8.5746555
0
LINE
8
layer0
10
27.4351637
20
-8.5746555
11
27.2342979
21
-8.5119558
0
LINE
8
layer0
10
27.2342979
20
-8.5119558
11
27.0349401
21
-8.444615
0
LINE
8
layer0
10
27.0349401
20
-8.444615
11
26.8949509
21
-8.3941248
0
LINE
8
layer0
10
26.8949509
20
-8.3941248
11
26.8791065
21
-8.3894288
0
LINE
8
layer0
10
26.8791065
20
-8.3894288
11
26.8566399
21
-8.3871864
0
LINE
8
layer0
10
26.8566399
20
-8.3871864
11
26.8327981
21
-8.3895969
0
LINE
8
layer0
10
26.8327981
20
-8.3895969
11
26.807765
21
-8.3967093
0
LINE
8
layer0
10
26.807765
20
-8.3967093
11
26.7817244
21
-8.408573
0
LINE
8
layer0
10
26.7817244
20
-8.408573
11
26.7548822
21
-8.4252337
0
LINE
8
layer0
10
26.7548822
20
-8.4252337
11
26.7274063
21
-8.4467251
0
LINE
8
layer0
10
26.7274063
20
-8.4467251
11
26.699493
21
-8.4730898
0
LINE
8
layer0
10
26.699493
20
-8.4730898
11
26.6713479
21
-8.5043421
0
LINE
8
layer0
10
26.6713479
20
-8.5043421
11
26.6150909
21
-8.5815989
0
LINE
8
layer0
10
26.6150909
20
-8.5815989
11
26.5602042
21
-8.6785848
0
LINE
8
layer0
10
26.5602042
20
-8.6785848
11
26.5090779
21
-8.7851937
0
LINE
8
layer0
10
26.5090779
20
-8.7851937
11
26.44741
21
-8.8895236
0
LINE
8
layer0
10
26.44741
20
-8.8895236
11
26.4005521
21
-8.9589517
0
LINE
8
layer0
10
26.4005521
20
-8.9589517
11
26.3409607
21
-9.0398042
0
LINE
8
layer0
10
26.3409607
20
-9.0398042
11
26.2680772
21
-9.1305641
0
LINE
8
layer0
10
26.2680772
20
-9.1305641
11
26.1793588
21
-9.2320349
0
LINE
8
layer0
10
26.1793588
20
-9.2320349
11
26.0759337
21
-9.340777
0
LINE
8
layer0
10
26.0759337
20
-9.340777
11
25.9550382
21
-9.4576588
0
LINE
8
layer0
10
25.9550382
20
-9.4576588
11
25.8180765
21
-9.5793619
0
LINE
8
layer0
10
25.8180765
20
-9.5793619
11
25.6637608
21
-9.7053837
0
LINE
8
layer0
10
25.6637608
20
-9.7053837
11
25.4901065
21
-9.8354578
0
LINE
8
layer0
10
25.4901065
20
-9.8354578
11
25.3180127
21
-9.9538263
0
ARC
8
layer0
10
30.0000073
20
0.0000135
40
11
50
241.190915
51
244.8090813
0
LINE
8
layer0
10
24.6991885
20
-9.6385196
11
24.6937964
21
-9.4297176
0
LINE
8
layer0
10
24.6937964
20
-9.4297176
11
24.6969571
21
-9.2127726
0
LINE
8
layer0
10
24.6969571
20
-9.2127726
11
24.7082064
21
-9.0138549
0
LINE
8
layer0
10
24.7082064
20
-9.0138549
11
24.7261622
21
-8.8315152
0
LINE
8
layer0
10
24.7261622
20
-8.8315152
11
24.749661
21
-8.6650073
0
LINE
8
layer0
10
24.749661
20
-8.6650073
11
24.7768434
21
-8.5174176
0
LINE
8
layer0
10
24.7768434
20
-8.5174176
11
24.8067877
21
-8.3859998
0
LINE
8
layer0
10
24.8067877
20
-8.3859998
11
24.8373741
21
-8.2736885
0
LINE
8
layer0
10
24.8373741
20
-8.2736885
11
24.8677582
21
-8.1779542
0
LINE
8
layer0
10
24.8677582
20
-8.1779542
11
24.8963844
21
-8.0992365
0
LINE
8
layer0
10
24.8963844
20
-8.0992365
11
24.9445415
21
-7.9880226
0
LINE
8
layer0
10
24.9445415
20
-7.9880226
11
25.0007386
21
-7.8839974
0
LINE
8
layer0
10
25.0007386
20
-7.8839974
11
25.0469403
21
-7.7825863
0
LINE
8
layer0
10
25.0469403
20
-7.7825863
11
25.0763753
21
-7.6916629
0
LINE
8
layer0
10
25.0763753
20
-7.6916629
11
25.0851158
21
-7.6505235
0
LINE
8
layer0
10
25.0851158
20
-7.6505235
11
25.0900382
21
-7.6124444
0
LINE
8
layer0
10
25.0900382
20
-7.6124444
11
25.0912751
21
-7.5775836
0
LINE
8
layer0
10
25.0912751
20
-7.5775836
11
25.0889765
21
-7.5460748
0
LINE
8
layer0
10
25.0889765
20
-7.5460748
11
25.0832681
21
-7.5180343
0
LINE
8
layer0
10
25.0832681
20
-7.5180343
11
25.0743081
21
-7.4936015
0
LINE
8
layer0
10
25.0743081
20
-7.4936015
11
25.0622444
21
-7.4728963
0
LINE
8
layer0
10
25.0622444
20
-7.4728963
11
25.0472247
21
-7.4560383
0
LINE
8
layer0
10
25.0472247
20
-7.4560383
11
25.0341125
21
-7.4459803
0
LINE
8
layer0
10
25.0341125
20
-7.4459803
11
24.9109815
21
-7.362404
0
LINE
8
layer0
10
24.9109815
20
-7.362404
11
24.739322
21
-7.2407021
0
LINE
8
layer0
10
24.739322
20
-7.2407021
11
24.5705309
21
-7.1150522
0
LINE
8
layer0
10
24.5705309
20
-7.1150522
11
24.4529956
21
-7.0237741
0
LINE
8
layer0
10
24.4529956
20
-7.0237741
11
24.4393779
21
-7.0144118
0
LINE
8
layer0
10
24.4393779
20
-7.0144118
11
24.4187037
21
-7.0053366
0
LINE
8
layer0
10
24.4187037
20
-7.0053366
11
24.395284
21
-7.0002616
0
LINE
8
layer0
10
24.395284
20
-7.0002616
11
24.3692782
21
-6.9992903
0
LINE
8
layer0
10
24.3692782
20
-6.9992903
11
24.3408461
21
-7.0025263
0
LINE
8
layer0
10
24.3408461
20
-7.0025263
11
24.3101692
21
-7.0100769
0
LINE
8
layer0
10
24.3101692
20
-7.0100769
11
24.2773968
21
-7.0220258
0
LINE
8
layer0
10
24.2773968
20
-7.0220258
11
24.2427025
21
-7.0384745
0
LINE
8
layer0
10
24.2427025
20
-7.0384745
11
24.2062775
21
-7.0594999
0
LINE
8
layer0
10
24.2062775
20
-7.0594999
11
24.1289002
21
-7.1155911
0
LINE
8
layer0
10
24.1289002
20
-7.1155911
11
24.0467296
21
-7.1908693
0
LINE
8
layer0
10
24.0467296
20
-7.1908693
11
23.9651617
21
-7.2764615
0
LINE
8
layer0
10
23.9651617
20
-7.2764615
11
23.8742723
21
-7.3566286
0
LINE
8
layer0
10
23.8742723
20
-7.3566286
11
23.8082533
21
-7.4081789
0
LINE
8
layer0
10
23.8082533
20
-7.4081789
11
23.7265938
21
-7.4666594
0
LINE
8
layer0
10
23.7265938
20
-7.4666594
11
23.6292311
21
-7.5304549
0
LINE
8
layer0
10
23.6292311
20
-7.5304549
11
23.5134986
21
-7.5995439
0
LINE
8
layer0
10
23.5134986
20
-7.5995439
11
23.3815323
21
-7.6710036
0
LINE
8
layer0
10
23.3815323
20
-7.6710036
11
23.2304354
21
-7.7448061
0
LINE
8
layer0
10
23.2304354
20
-7.7448061
11
23.0625688
21
-7.8182291
0
LINE
8
layer0
10
23.0625688
20
-7.8182291
11
22.876863
21
-7.8903968
0
LINE
8
layer0
10
22.876863
20
-7.8903968
11
22.6715128
21
-7.9604425
0
LINE
8
layer0
10
22.6715128
20
-7.9604425
11
22.471264
21
-8.0198377
0
ARC
8
layer0
10
30.0000108
20
0.0000109
40
11
50
223.1909171
51
226.8090836
0
LINE
8
layer0
10
21.9801623
20
-7.528736
11
22.0395575
21
-7.3284872
0
LINE
8
layer0
10
22.0395575
20
-7.3284872
11
22.1096032
21
-7.123137
0
LINE
8
layer0
10
22.1096032
20
-7.123137
11
22.1817709
21
-6.9374312
0
LINE
8
layer0
10
22.1817709
20
-6.9374312
11
22.2551939
21
-6.7695646
0
LINE
8
layer0
10
22.2551939
20
-6.7695646
11
22.3289964
21
-6.6184677
0
LINE
8
layer0
10
22.3289964
20
-6.6184677
11
22.4004561
21
-6.4865014
0
LINE
8
layer0
10
22.4004561
20
-6.4865014
11
22.4695451
21
-6.3707689
0
LINE
8
layer0
10
22.4695451
20
-6.3707689
11
22.5333406
21
-6.2734062
0
LINE
8
layer0
10
22.5333406
20
-6.2734062
11
22.5918211
21
-6.1917467
0
LINE
8
layer0
10
22.5918211
20
-6.1917467
11
22.6433714
21
-6.1257277
0
LINE
8
layer0
10
22.6433714
20
-6.1257277
11
22.7235385
21
-6.0348383
0
LINE
8
layer0
10
22.7235385
20
-6.0348383
11
22.8091307
21
-5.9532704
0
LINE
8
layer0
10
22.8091307
20
-5.9532704
11
22.8844089
21
-5.8710998
0
LINE
8
layer0
10
22.8844089
20
-5.8710998
11
22.9405001
21
-5.7937225
0
LINE
8
layer0
10
22.9405001
20
-5.7937225
11
22.9615255
21
-5.7572975
0
LINE
8
layer0
10
22.9615255
20
-5.7572975
11
22.9779742
21
-5.7226032
0
LINE
8
layer0
10
22.9779742
20
-5.7226032
11
22.9899231
21
-5.6898308
0
LINE
8
layer0
10
22.9899231
20
-5.6898308
11
22.9974737
21
-5.6591539
0
LINE
8
layer0
10
22.9974737
20
-5.6591539
11
23.0007097
21
-5.6307218
0
LINE
8
layer0
10
23.0007097
20
-5.6307218
11
22.9997384
21
-5.604716
0
LINE
8
layer0
10
22.9997384
20
-5.604716
11
22.9946634
21
-5.5812963
0
LINE
8
layer0
10
22.9946634
20
-5.5812963
11
22.9855882
21
-5.5606221
0
LINE
8
layer0
10
22.9855882
20
-5.5606221
11
22.9762259
21
-5.5470044
0
LINE
8
layer0
10
22.9762259
20
-5.5470044
11
22.8849478
21
-5.4294691
0
LINE
8
layer0
10
22.8849478
20
-5.4294691
11
22.7592979
21
-5.260678
0
LINE
8
layer0
10
22.7592979
20
-5.260678
11
22.637596
21
-5.0890185
0
LINE
8
layer0
10
22.637596
20
-5.0890185
11
22.5540197
21
-4.9658875
0
LINE
8
layer0
10
22.5540197
20
-4.9658875
11
22.5439617
21
-4.9527753
0
LINE
8
layer0
10
22.5439617
20
-4.9527753
11
22.5271037
21
-4.9377556
0
LINE
8
layer0
10
22.5271037
20
-4.9377556
11
22.5063985
21
-4.9256919
0
LINE
8
layer0
10
22.5063985
20
-4.9256919
11
22.4819657
21
-4.9167319
0
LINE
8
layer0
10
22.4819657
20
-4.9167319
11
22.4539252
21
-4.9110235
0
LINE
8
layer0
10
22.4539252
20
-4.9110235
11
22.4224164
21
-4.9087249
0
LINE
8
layer0
10
22.4224164
20
-4.9087249
11
22.3875556
21
-4.9099618
0
LINE
8
layer0
10
22.3875556
20
-4.9099618
11
22.3494765
21
-4.9148842
0
LINE
8
layer0
10
22.3494765
20
-4.9148842
11
22.3083371
21
-4.9236247
0
LINE
8
layer0
10
22.3083371
20
-4.9236247
11
22.2174137
21
-4.9530597
0
LINE
8
layer0
10
22.2174137
20
-4.9530597
11
22.1160026
21
-4.9992614
0
LINE
8
layer0
10
22.1160026
20
-4.9992614
11
22.0119774
21
-5.0554585
0
LINE
8
layer0
10
22.0119774
20
-5.0554585
11
21.9007635
21
-5.1036156
0
LINE
8
layer0
10
21.9007635
20
-5.1036156
11
21.8220458
21
-5.1322418
0
LINE
8
layer0
10
21.8220458
20
-5.1322418
11
21.7263115
21
-5.1626259
0
LINE
8
layer0
10
21.7263115
20
-5.1626259
11
21.6140002
21
-5.1932123
0
LINE
8
layer0
10
21.6140002
20
-5.1932123
11
21.4825824
21
-5.2231566
0
LINE
8
layer0
10
21.4825824
20
-5.2231566
11
21.3349927
21
-5.250339
0
LINE
8
layer0
10
21.3349927
20
-5.250339
11
21.1684848
21
-5.2738378
0
LINE
8
layer0
10
21.1684848
20
-5.2738378
11
20.9861451
21
-5.2917936
0
LINE
8
layer0
10
20.9861451
20
-5.2917936
11
20.7872274
21
-5.3030429
0
LINE
8
layer0
10
20.7872274
20
-5.3030429
11
20.5702824
21
-5.3062036
0
LINE
8
layer0
10
20.5702824
20
-5.3062036
11
20.3614804
21
-5.3008115
0
ARC
8
layer0
10
30.0000135
20
0.0000072
40
11
50
205.1909182
51
208.8090845
0
LINE
8
layer0
10
20.0461737
20
-4.6819873
11
20.1645422
21
-4.5098935
0
LINE
8
layer1
10
20.1645422
20
-4.5098935
11
20.2946163
21
-4.3362392
0
LINE
8
layer1
10
20.2946163
20
-4.3362392
11
20.4206381
21
-4.1819235
0
LINE
8
layer1
10
20.4206381
20
-4.1819235
11
20.5423412
21
-4.0449618
0
LINE
8
layer1
10
20.5423412
20
-4.0449618
11
20.659223
21
-3.9240663
0
LINE
8
layer1
10
20.659223
20
-3.9240663
11
20.7679651
21
-3.8206412
0
LINE
8
layer1
10
20.7679651
20
-3.8206412
11
20.8694359
21
-3.7319228
0
LINE
8
layer1
10
20.8694359
20
-3.7319228
11
20.9601958
21
-3.6590393
0
LINE
8
layer1
10
20.9601958
20
-3.6590393
11
21.0410483
21
-3.5994479
0
LINE
8
layer1
10
21.0410483
20
-3.5994479
11
21.1104764
21
-3.55259
0
LINE
8
layer1
10
21.1104764
20
-3.55259
11
21.2148063
21
-3.4909221
0
LINE
8
layer1
10
21.2148063
20
-3.4909221
11
21.3214152
21
-3.4397958
0
LINE
8
layer1
10
21.3214152
20
-3.4397958
11
21.4184011
21
-3.3849091
0
LINE
8
layer1
10
21.4184011
20
-3.3849091
11
21.4956579
21
-3.3286521
0
LINE
8
layer1
10
21.4956579
20
-3.3286521
11
21.5269102
21
-3.300507
0
LINE
8
layer1
10
21.5269102
20
-3.300507
11
21.5532749
21
-3.2725937
0
LINE
8
layer1
10
21.5532749
20
-3.2725937
11
21.5747663
21
-3.2451178
0
LINE
8
layer1
10
21.5747663
20
-3.2451178
11
21.591427
21
-3.2182756
0
LINE
8
layer1
10
21.591427
20
-3.2182756
11
21.6032907
21
-3.192235
0
LINE
8
layer1
10
21.6032907
20
-3.192235
11
21.6104031
21
-3.1672019
0
LINE
8
layer1
10
21.6104031
20
-3.1672019
11
21.6128136
21
-3.1433601
0
LINE
8
layer1
10
21.6128136
20
-3.1433601
11
21.6105712
21
-3.1208935
0
LINE
8
layer1
10
21.6105712
20
-3.1208935
11
21.6058752
21
-3.1050491
0
LINE
8
layer1
10
21.6058752
20
-3.1050491
11
21.555385
21
-2.9650599
0
LINE
8
layer1
10
21.555385
20
-2.9650599
11
21.4880442
21
-2.7657021
0
LINE
8
layer1
10
21.4880442
20
-2.7657021
11
21.4253445
21
-2.5648363
0
LINE
8
layer1
10
21.4253445
20
-2.5648363
11
21.3839083
21
-2.4219052
0
LINE
8
layer1
10
21.3839083
20
-2.4219052
11
21.3783944
21
-2.4063267
0
LINE
8
layer1
10
21.3783944
20
-2.4063267
11
21.3670029
21
-2.3868327
0
LINE
8
layer1
10
21.3670029
20
-2.3868327
11
21.351039
21
-2.3689612
0
LINE
8
layer1
10
21.351039
20
-2.3689612
11
21.3305708
21
-2.3528896
0
LINE
8
layer1
10
21.3305708
20
-2.3528896
11
21.3056666
21
-2.3387956
0
LINE
8
layer1
10
21.3056666
20
-2.3387956
11
21.2764103
21
-2.3268727
0
LINE
8
layer1
10
21.2764103
20
-2.3268727
11
21.2428735
21
-2.3172765
0
LINE
8
layer1
10
21.2428735
20
-2.3172765
11
21.205137
21
-2.3101909
0
LINE
8
layer1
10
21.205137
20
-2.3101909
11
21.1633101
21
-2.3057908
0
LINE
8
layer1
10
21.1633101
20
-2.3057908
11
21.067741
21
-2.3056883
0
LINE
8
layer1
10
21.067741
20
-2.3056883
11
20.9570162
21
-2.3182909
0
LINE
8
layer1
10
20.9570162
20
-2.3182909
11
20.8407165
21
-2.3395921
0
LINE
8
layer1
10
20.8407165
20
-2.3395921
11
20.7200644
21
-2.3510252
0
LINE
8
layer1
10
20.7200644
20
-2.3510252
11
20.6363534
21
-2.3539252
0
LINE
8
layer1
10
20.6363534
20
-2.3539252
11
20.5359155
21
-2.3532387
0
LINE
8
layer1
10
20.5359155
20
-2.3532387
11
20.4196493
21
-2.347622
0
LINE
8
layer1
10
20.4196493
20
-2.347622
11
20.2854103
21
-2.3354903
0
LINE
8
layer1
10
20.2854103
20
-2.3354903
11
20.1366444
21
-2.3157346
0
LINE
8
layer1
10
20.1366444
20
-2.3157346
11
19.9710244
21
-2.2866295
0
LINE
8
layer1
10
19.9710244
20
-2.2866295
11
19.7920604
21
-2.2473604
0
LINE
8
layer1
10
19.7920604
20
-2.2473604
11
19.5994022
21
-2.1965902
0
LINE
8
layer1
10
19.5994022
20
-2.1965902
11
19.3920986
21
-2.1325566
0
LINE
8
layer1
10
19.3920986
20
-2.1325566
11
19.1951823
21
-2.062905
0
ARC
8
layer1
10
30.0000151
20
0.0000027
40
11
50
187.1909186
51
190.8090848
0
LINE
8
layer1
10
19.086535
20
-1.376933
11
19.25229
21
-1.24984
0
LINE
8
layer1
10
19.25229
20
-1.24984
11
19.42966
21
-1.12488
0
LINE
8
layer1
10
19.42966
20
-1.12488
11
19.5972
21
-1.01706
0
LINE
8
layer1
10
19.5972
20
-1.01706
11
19.75527
21
-0.92441
0
LINE
8
layer1
10
19.75527
20
-0.92441
11
19.90379
21
-0.84555
0
LINE
8
layer1
10
19.90379
20
-0.84555
11
20.03917
21
-0.78079
0
LINE
8
layer1
10
20.03917
20
-0.78079
11
20.16309
21
-0.72777
0
LINE
8
layer1
10
20.16309
20
-0.72777
11
20.27193
21
-0.6865
0
LINE
8
layer1
10
20.27193
20
-0.6865
11
20.36724
21
-0.65481
0
LINE
8
layer1
10
20.36724
20
-0.65481
11
20.44775
21
-0.6317
0
LINE
8
layer1
10
20.44775
20
-0.6317
11
20.56603
21
-0.60529
0
LINE
8
layer1
10
20.56603
20
-0.60529
11
20.68322
21
-0.58961
0
LINE
8
layer1
10
20.68322
20
-0.58961
11
20.79242
21
-0.56738
0
LINE
8
layer1
10
20.79242
20
-0.56738
11
20.88328
21
-0.53775
0
LINE
8
layer1
10
20.88328
20
-0.53775
11
20.9217
21
-0.52064
0
LINE
8
layer1
10
20.9217
20
-0.52064
11
20.9554
21
-0.50224
0
LINE
8
layer1
10
20.9554
20
-0.50224
11
20.98433
21
-0.48275
0
LINE
8
layer1
10
20.98433
20
-0.48275
11
21.00847
21
-0.46237
0
LINE
8
layer1
10
21.00847
20
-0.46237
11
21.0278
21
-0.44127
0
LINE
8
layer1
10
21.0278
20
-0.44127
11
21.0423
21
-0.41966
0
LINE
8
layer1
10
21.0423
20
-0.41966
11
21.05196
21
-0.39773
0
LINE
8
layer1
10
21.05196
20
-0.39773
11
21.05677
21
-0.37567
0
LINE
8
layer1
10
21.05677
20
-0.37567
11
21.0572
21
-0.35915
0
LINE
8
layer1
10
21.0572
20
-0.35915
11
21.05244
21
-0.21041
0
LINE
8
layer1
10
21.05244
20
-0.21041
11
21.05
21
0
0
LINE
8
layer1
10
21.05
20
0
11
21.05244
21
0.21041
0
LINE
8
layer1
10
21.05244
20
0.21041
11
21.0572
21
0.35915
0
LINE
8
layer1
10
21.0572
20
0.35915
11
21.05677
21
0.37567
0
LINE
8
layer1
10
21.05677
20
0.37567
11
21.05196
21
0.39773
0
LINE
8
layer1
10
21.05196
20
0.39773
11
21.0423
21
0.41966
0
LINE
8
layer1
10
21.0423
20
0.41966
11
21.0278
21
0.44127
0
LINE
8
layer1
10
21.0278
20
0.44127
11
21.00847
21
0.46237
0
LINE
8
layer1
10
21.00847
20
0.46237
11
20.98433
21
0.48275
0
LINE
8
layer1
10
20.98433
20
0.48275
11
20.9554
21
0.50224
0
LINE
8
layer1
10
20.9554
20
0.50224
11
20.9217
21
0.52064
0
LINE
8
layer1
10
20.9217
20
0.52064
11
20.88328
21
0.53775
0
LINE
8
layer1
10
20.88328
20
0.53775
11
20.79242
21
0.56738
0
LINE
8
layer1
10
20.79242
20
0.56738
11
20.68322
21
0.58961
0
LINE
8
layer1
10
20.68322
20
0.58961
11
20.56603
21
0.60529
0
LINE
8
layer1
10
20.56603
20
0.60529
11
20.44775
21
0.6317
0
LINE
8
layer1
10
20.44775
20
0.6317
11
20.36724
21
0.65481
0
LINE
8
layer1
10
20.36724
20
0.65481
11
20.27193
21
0.6865
0
LINE
8
layer1
10
20.27193
20
0.6865
11
20.16309
21
0.72777
0
LINE
8
layer1
10
20.16309
20
0.72777
11
20.03917
21
0.78079
0
LINE
8
layer1
10
20.03917
20
0.78079
11
19.90379
21
0.84555
0
LINE
8
layer1
10
19.90379
20
0.84555
11
19.75527
21
0.92441
0
LINE
8
layer1
10
19.75527
20
0.92441
11
19.5972
21
1.01706
0
LINE
8
layer1
10
19.5972
20
1.01706
11
19.42966
21
1.12488
0
LINE
8
layer1
10
19.42966
20
1.12488
11
19.25229
21
1.24984
0
LINE
8
layer1
10
19.25229
20
1.24984
11
19.086535
21
1.376933
0
ARC
8
layer1
10
30.0000151
20
-0.0000029
40
11
50
169.1909147
51
172.8090809
0
LINE
8
layer1
10
19.1951823
20
2.062905
11
19.3920986
21
2.1325566
0
LINE
8
layer1
10
19.3920986
20
2.1325566
11
19.5994022
21
2.1965902
0
LINE
8
layer1
10
19.5994022
20
2.1965902
11
19.7920604
21
2.2473604
0
LINE
8
layer1
10
19.7920604
20
2.2473604
11
19.9710244
21
2.2866295
0
LINE
8
layer1
10
19.9710244
20
2.2866295
11
20.1366444
21
2.3157346
0
LINE
8
layer1
10
20.1366444
20
2.3157346
11
20.2854103
21
2.3354903
0
LINE
8
layer1
10
20.2854103
20
2.3354903
11
20.4196493
21
2.347622
0
LINE
8
layer1
10
20.4196493
20
2.347622
11
20.5359155
21
2.3532387
0
LINE
8
layer1
10
20.5359155
20
2.3532387
11
20.6363534
21
2.3539252
0
LINE
8
layer1
10
20.6363534
20
2.3539252
11
20.7200644
21
2.3510252
0
LINE
8
layer1
10
20.7200644
20
2.3510252
11
20.8407165
21
2.3395921
0
LINE
8
layer1
10
20.8407165
20
2.3395921
11
20.9570162
21
2.3182909
0
LINE
8
layer1
10
20.9570162
20
2.3182909
11
21.067741
21
2.3056883
0
LINE
8
layer1
10
21.067741
20
2.3056883
11
21.1633101
21
2.3057908
0
LINE
8
layer1
10
21.1633101
20
2.3057908
11
21.205137
21
2.3101909
0
LINE
8
layer1
10
21.205137
20
2.3101909
11
21.2428735
21
2.3172765
0
LINE
8
layer1
10
21.2428735
20
2.3172765
11
21.2764103
21
2.3268727
0
LINE
8
layer1
10
21.2764103
20
2.3268727
11
21.3056666
21
2.3387956
0
LINE
8
layer1
10
21.3056666
20
2.3387956
11
21.3305708
21
2.3528896
0
LINE
8
layer1
10
21.3305708
20
2.3528896
11
21.351039
21
2.3689612
0
LINE
8
layer1
10
21.351039
20
2.3689612
11
21.3670029
21
2.3868327
0
LINE
8
layer1
10
21.3670029
20
2.3868327
11
21.3783944
21
2.4063267
0
LINE
8
layer1
10
21.3783944
20
2.4063267
11
21.3839083
21
2.4219052
0
LINE
8
layer1
10
21.3839083
20
2.4219052
11
21.4253445
21
2.5648363
0
LINE
8
layer1
10
21.4253445
20
2.5648363
11
21.4880442
21
2.7657021
0
LINE
8
layer1
10
21.4880442
20
2.7657021
11
21.555385
21
2.9650599
0
LINE
8
layer1
10
21.555385
20
2.9650599
11
21.6058752
21
3.1050491
0
LINE
8
layer1
10
21.6058752
20
3.1050491
11
21.6105712
21
3.1208935
0
LINE
8
layer1
10
21.6105712
20
3.1208935
11
21.6128136
21
3.1433601
0
LINE
8
layer1
10
21.6128136
20
3.1433601
11
21.6104031
21
3.1672019
0
LINE
8
layer1
10
21.6104031
20
3.1672019
11
21.6032907
21
3.192235
0
LINE
8
layer1
10
21.6032907
20
3.192235
11
21.591427
21
3.2182756
0
LINE
8
layer1
10
21.591427
20
3.2182756
11
21.5747663
21
3.2451178
0
LINE
8
layer1
10
21.5747663
20
3.2451178
11
21.5532749
21
3.2725937
0
LINE
8
layer1
10
21.5532749
20
3.2725937
11
21.5269102
21
3.300507
0
LINE
8
layer1
10
21.5269102
20
3.300507
11
21.4956579
21
3.3286521
0
LINE
8
layer1
10
21.4956579
20
3.3286521
11
21.4184011
21
3.3849091
0
LINE
8
layer1
10
21.4184011
20
3.3849091
11
21.3214152
21
3.4397958
0
LINE
8
layer1
10
21.3214152
20
3.4397958
11
21.2148063
21
3.4909221
0
LINE
8
layer1
10
21.2148063
20
3.4909221
11
21.1104764
21
3.55259
0
LINE
8
layer1
10
21.1104764
20
3.55259
11
21.0410483
21
3.5994479
0
LINE
8
layer1
10
21.0410483
20
3.5994479
11
20.9601958
21
3.6590393
0
LINE
8
layer1
10
20.9601958
20
3.6590393
11
20.8694359
21
3.7319228
0
LINE
8
layer1
10
20.8694359
20
3.7319228
11
20.7679651
21
3.8206412
0
LINE
8
layer1
10
20.7679651
20
3.8206412
11
20.659223
21
3.9240663
0
LINE
8
layer1
10
20.659223
20
3.9240663
11
20.5423412
21
4.0449618
0
LINE
8
layer1
10
20.5423412
20
4.0449618
11
20.4206381
21
4.1819235
0
LINE
8
layer1
10
20.4206381
20
4.1819235
11
20.2946163
21
4.3362392
0
LINE
8
layer1
10
20.2946163
20
4.3362392
11
20.1645422
21
4.5098935
0
LINE
8
layer1
10
20.1645422
20
4.5098935
11
20.0461737
21
4.6819873
0
ARC
8
layer1
10
30.0000135
20
-0.0000073
40
11
50
151.190915
51
154.8090813
0
LINE
8
layer1
10
20.3614804
20
5.3008115
11
20.5702824
21
5.3062036
0
LINE
8
layer1
10
20.5702824
20
5.3062036
11
20.7872274
21
5.3030429
0
LINE
8
layer1
10
20.7872274
20
5.3030429
11
20.9861451
21
5.2917936
0
LINE
8
layer1
10
20.9861451
20
5.2917936
11
21.1684848
21
5.2738378
0
LINE
8
layer1
10
21.1684848
20
5.2738378
11
21.3349927
21
5.250339
0
LINE
8
layer1
10
21.3349927
20
5.250339
11
21.4825824
21
5.2231566
0
LINE
8
layer1
10
21.4825824
20
5.2231566
11
21.6140002
21
5.1932123
0
LINE
8
layer1
10
21.6140002
20
5.1932123
11
21.7263115
21
5.1626259
0
LINE
8
layer1
10
21.7263115
20
5.1626259
11
21.8220458
21
5.1322418
0
LINE
8
layer1
10
21.8220458
20
5.1322418
11
21.9007635
21
5.1036156
0
LINE
8
layer1
10
21.9007635
20
5.1036156
11
22.0119774
21
5.0554585
0
LINE
8
layer1
10
22.0119774
20
5.0554585
11
22.1160026
21
4.9992614
0
LINE
8
layer1
10
22.1160026
20
4.9992614
11
22.2174137
21
4.9530597
0
LINE
8
layer1
10
22.2174137
20
4.9530597
11
22.3083371
21
4.9236247
0
LINE
8
layer1
10
22.3083371
20
4.9236247
11
22.3494765
21
4.9148842
0
LINE
8
layer1
10
22.3494765
20
4.9148842
11
22.3875556
21
4.9099618
0
LINE
8
layer1
10
22.3875556
20
4.9099618
11
22.4224164
21
4.9087249
0
LINE
8
layer1
10
22.4224164
20
4.9087249
11
22.4539252
21
4.9110235
0
LINE
8
layer1
10
22.4539252
20
4.9110235
11
22.4819657
21
4.9167319
0
LINE
8
layer1
10
22.4819657
20
4.9167319
11
22.5063985
21
4.9256919
0
LINE
8
layer1
10
22.5063985
20
4.9256919
11
22.5271037
21
4.9377556
0
LINE
8
layer1
10
22.5271037
20
4.9377556
11
22.5439617
21
4.9527753
0
LINE
8
layer1
10
22.5439617
20
4.9527753
11
22.5540197
21
4.9658875
0
LINE
8
layer1
10
22.5540197
20
4.9658875
11
22.637596
21
5.0890185
0
LINE
8
layer1
10
22.637596
20
5.0890185
11
22.7592979
21
5.260678
0
LINE
8
layer1
10
22.7592979
20
5.260678
11
22.8849478
21
5.4294691
0
LINE
8
layer1
10
22.8849478
20
5.4294691
11
22.9762259
21
5.5470044
0
LINE
8
layer1
10
22.9762259
20
5.5470044
11
22.9855882
21
5.5606221
0
LINE
8
layer1
10
22.9855882
20
5.5606221
11
22.9946634
21
5.5812963
0
LINE
8
layer1
10
22.9946634
20
5.5812963
11
22.9997384
21
5.604716
0
LINE
8
layer1
10
22.9997384
20
5.604716
11
23.0007097
21
5.6307218
0
LINE
8
layer1
10
23.0007097
20
5.6307218
11
22.9974737
21
5.6591539
0
LINE
8
layer1
10
22.9974737
20
5.6591539
11
22.9899231
21
5.6898308
0
LINE
8
layer1
10
22.9899231
20
5.6898308
11
22.9779742
21
5.7226032
0
LINE
8
layer1
10
22.9779742
20
5.7226032
11
22.9615255
21
5.7572975
0
LINE
8
layer1
10
22.9615255
20
5.7572975
11
22.9405001
21
5.7937225
0
LINE
8
layer1
10
22.9405001
20
5.7937225
11
22.8844089
21
5.8710998
0
LINE
8
layer1
10
22.8844089
20
5.8710998
11
22.8091307
21
5.9532704
0
LINE
8
layer1
10
22.8091307
20
5.9532704
11
22.7235385
21
6.0348383
0
LINE
8
layer1
10
22.7235385
20
6.0348383
11
22.6433714
21
6.1257277
0
LINE
8
layer1
10
22.6433714
20
6.1257277
11
22.5918211
21
6.1917467
0
LINE
8
layer1
10
22.5918211
20
6.1917467
11
22.5333406
21
6.2734062
0
LINE
8
layer1
10
22.5333406
20
6.2734062
11
22.4695451
21
6.3707689
0
LINE
8
layer1
10
22.4695451
20
6.3707689
11
22.4004561
21
6.4865014
0
LINE
8
layer1
10
22.4004561
20
6.4865014
11
22.3289964
21
6.6184677
0
LINE
8
layer1
10
22.3289964
20
6.6184677
11
22.2551939
21
6.7695646
0
LINE
8
layer1
10
22.2551939
20
6.7695646
11
22.1817709
21
6.9374312
0
LINE
8
layer1
10
22.1817709
20
6.9374312
11
22.1096032
21
7.123137
0
LINE
8
layer1
10
22.1096032
20
7.123137
11
22.0395575
21
7.3284872
0
LINE
8
layer1
10
22.0395575
20
7.3284872
11
21.9801623
21
7.528736
0
ARC
8
layer1
10
30.0000109
20
-0.0000108
40
11
50
133.1909171
51
136.8090836
0
LINE
8
layer1
10
22.471264
20
8.0198377
11
22.6715128
21
7.9604425
0
LINE
8
layer1
10
22.6715128
20
7.9604425
11
22.876863
21
7.8903968
0
LINE
8
layer1
10
22.876863
20
7.8903968
11
23.0625688
21
7.8182291
0
LINE
8
layer1
10
23.0625688
20
7.8182291
11
23.2304354
21
7.7448061
0
LINE
8
layer1
10
23.2304354
20
7.7448061
11
23.3815323
21
7.6710036
0
LINE
8
layer1
10
23.3815323
20
7.6710036
11
23.5134986
21
7.5995439
0
LINE
8
layer1
10
23.5134986
20
7.5995439
11
23.6292311
21
7.5304549
0
LINE
8
layer1
10
23.6292311
20
7.5304549
11
23.7265938
21
7.4666594
0
LINE
8
layer1
10
23.7265938
20
7.4666594
11
23.8082533
21
7.4081789
0
LINE
8
layer1
10
23.8082533
20
7.4081789
11
23.8742723
21
7.3566286
0
LINE
8
layer1
10
23.8742723
20
7.3566286
11
23.9651617
21
7.2764615
0
LINE
8
layer1
10
23.9651617
20
7.2764615
11
24.0467296
21
7.1908693
0
LINE
8
layer1
10
24.0467296
20
7.1908693
11
24.1289002
21
7.1155911
0
LINE
8
layer1
10
24.1289002
20
7.1155911
11
24.2062775
21
7.0594999
0
LINE
8
layer1
10
24.2062775
20
7.0594999
11
24.2427025
21
7.0384745
0
LINE
8
layer1
10
24.2427025
20
7.0384745
11
24.2773968
21
7.0220258
0
LINE
8
layer1
10
24.2773968
20
7.0220258
11
24.3101692
21
7.0100769
0
LINE
8
layer1
10
24.3101692
20
7.0100769
11
24.3408461
21
7.0025263
0
LINE
8
layer1
10
24.3408461
20
7.0025263
11
24.3692782
21
6.9992903
0
LINE
8
layer1
10
24.3692782
20
6.9992903
11
24.395284
21
7.0002616
0
LINE
8
layer1
10
24.395284
20
7.0002616
11
24.4187037
21
7.0053366
0
LINE
8
layer1
10
24.4187037
20
7.0053366
11
24.4393779
21
7.0144118
0
LINE
8
layer1
10
24.4393779
20
7.0144118
11
24.4529956
21
7.0237741
0
LINE
8
layer1
10
24.4529956
20
7.0237741
11
24.5705309
21
7.1150522
0
LINE
8
layer1
10
24.5705309
20
7.1150522
11
24.739322
21
7.2407021
0
LINE
8
layer1
10
24.739322
20
7.2407021
11
24.9109815
21
7.362404
0
LINE
8
layer1
10
24.9109815
20
7.362404
11
25.0341125
21
7.4459803
0
LINE
8
layer1
10
25.0341125
20
7.4459803
11
25.0472247
21
7.4560383
0
LINE
8
layer1
10
25.0472247
20
7.4560383
11
25.0622444
21
7.4728963
0
LINE
8
layer1
10
25.0622444
20
7.4728963
11
25.0743081
21
7.4936015
0
LINE
8
layer1
10
25.0743081
20
7.4936015
11
25.0832681
21
7.5180343
0
LINE
8
layer1
10
25.0832681
20
7.5180343
11
25.0889765
21
7.5460748
0
LINE
8
layer1
10
25.0889765
20
7.5460748
11
25.0912751
21
7.5775836
0
LINE
8
layer1
10
25.0912751
20
7.5775836
11
25.0900382
21
7.6124444
0
LINE
8
layer1
10
25.0900382
20
7.6124444
11
25.0851158
21
7.6505235
0
LINE
8
layer1
10
25.0851158
20
7.6505235
11
25.0763753
21
7.6916629
0
LINE
8
layer1
10
25.0763753
20
7.6916629
11
25.0469403
21
7.7825863
0
LINE
8
layer1
10
25.0469403
20
7.7825863
11
25.0007386
21
7.8839974
0
LINE
8
layer1
10
25.0007386
20
7.8839974
11
24.9445415
21
7.9880226
0
LINE
8
layer1
10
24.9445415
20
7.9880226
11
24.8963844
21
8.0992365
0
LINE
8
layer1
10
24.8963844
20
8.0992365
11
24.8677582
21
8.1779542
0
LINE
8
layer1
10
24.8677582
20
8.1779542
11
24.8373741
21
8.2736885
0
LINE
8
layer1
10
24.8373741
20
8.2736885
11
24.8067877
21
8.3859998
0
LINE
8
layer1
10
24.8067877
20
8.3859998
11
24.7768434
21
8.5174176
0
LINE
8
layer1
10
24.7768434
20
8.5174176
11
24.749661
21
8.6650073
0
LINE
8
layer1
10
24.749661
20
8.6650073
11
24.7261622
21
8.8315152
0
LINE
8
layer1
10
24.7261622
20
8.8315152
11
24.7082064
21
9.0138549
0
LINE
8
layer1
10
24.7082064
20
9.0138549
11
24.6969571
21
9.2127726
0
LINE
8
layer1
10
24.6969571
20
9.2127726
11
24.6937964
21
9.4297176
0
LINE
8
layer1
10
24.6937964
20
9.4297176
11
24.6991885
21
9.6385196
0
ARC
8
layer1
10
30.0000072
20
-0.0000135
40
11
50
115.1909182
51
118.8090845
0
LINE
8
layer1
10
25.3180127
20
9.9538263
11
25.4901065
21
9.8354578
0
LINE
8
layer1
10
25.4901065
20
9.8354578
11
25.6637608
21
9.7053837
0
LINE
8
layer1
10
25.6637608
20
9.7053837
11
25.8180765
21
9.5793619
0
LINE
8
layer1
10
25.8180765
20
9.5793619
11
25.9550382
21
9.4576588
0
LINE
8
layer1
10
25.9550382
20
9.4576588
11
26.0759337
21
9.340777
0
LINE
8
layer1
10
26.0759337
20
9.340777
11
26.1793588
21
9.2320349
0
LINE
8
layer1
10
26.1793588
20
9.2320349
11
26.2680772
21
9.1305641
0
LINE
8
layer1
10
26.2680772
20
9.1305641
11
26.3409607
21
9.0398042
0
LINE
8
layer1
10
26.3409607
20
9.0398042
11
26.4005521
21
8.9589517
0
LINE
8
layer1
10
26.4005521
20
8.9589517
11
26.44741
21
8.8895236
0
LINE
8
layer1
10
26.44741
20
8.8895236
11
26.5090779
21
8.7851937
0
LINE
8
layer1
10
26.5090779
20
8.7851937
11
26.5602042
21
8.6785848
0
LINE
8
layer1
10
26.5602042
20
8.6785848
11
26.6150909
21
8.5815989
0
LINE
8
layer1
10
26.6150909
20
8.5815989
11
26.6713479
21
8.5043421
0
LINE
8
layer1
10
26.6713479
20
8.5043421
11
26.699493
21
8.4730898
0
LINE
8
layer1
10
26.699493
20
8.4730898
11
26.7274063
21
8.4467251
0
LINE
8
layer1
10
26.7274063
20
8.4467251
11
26.7548822
21
8.4252337
0
LINE
8
layer1
10
26.7548822
20
8.4252337
11
26.7817244
21
8.408573
0
LINE
8
layer1
10
26.7817244
20
8.408573
11
26.807765
21
8.3967093
0
LINE
8
layer1
10
26.807765
20
8.3967093
11
26.8327981
21
8.3895969
0
LINE
8
layer1
10
26.8327981
20
8.3895969
11
26.8566399
21
8.3871864
0
LINE
8
layer1
10
26.8566399
20
8.3871864
11
26.8791065
21
8.3894288
0
LINE
8
layer1
10
26.8791065
20
8.3894288
11
26.8949509
21
8.3941248
0
LINE
8
layer1
10
26.8949509
20
8.3941248
11
27.0349401
21
8.444615
0
LINE
8
layer1
10
27.0349401
20
8.444615
11
27.2342979
21
8.5119558
0
LINE
8
layer1
10
27.2342979
20
8.5119558
11
27.4351637
21
8.5746555
0
LINE
8
layer1
10
27.4351637
20
8.5746555
11
27.5780948
21
8.6160917
0
LINE
8
layer1
10
27.5780948
20
8.6160917
11
27.5936733
21
8.6216056
0
LINE
8
layer1
10
27.5936733
20
8.6216056
11
27.6131673
21
8.6329971
0
LINE
8
layer1
10
27.6131673
20
8.6329971
11
27.6310388
21
8.648961
0
LINE
8
layer1
10
27.6310388
20
8.648961
11
27.6471104
21
8.6694292
0
LINE
8
layer1
10
27.6471104
20
8.6694292
11
27.6612044
21
8.6943334
0
LINE
8
layer1
10
27.6612044
20
8.6943334
11
27.6731273
21
8.7235897
0
LINE
8
layer1
10
27.6731273
20
8.7235897
11
27.6827235
21
8.7571265
0
LINE
8
layer1
10
27.6827235
20
8.7571265
11
27.6898091
21
8.794863
0
LINE
8
layer1
10
27.6898091
20
8.794863
11
27.6942092
21
8.8366899
0
LINE
8
layer1
10
27.6942092
20
8.8366899
11
27.6943117
21
8.932259
0
LINE
8
layer1
10
27.6943117
20
8.932259
11
27.6817091
21
9.0429838
0
LINE
8
layer1
10
27.6817091
20
9.0429838
11
27.6604079
21
9.1592835
0
LINE
8
layer1
10
27.6604079
20
9.1592835
11
27.6489748
21
9.2799356
0
LINE
8
layer1
10
27.6489748
20
9.2799356
11
27.6460748
21
9.3636466
0
LINE
8
layer1
10
27.6460748
20
9.3636466
11
27.6467613
21
9.4640845
0
LINE
8
layer1
10
27.6467613
20
9.4640845
11
27.652378
21
9.5803507
0
LINE
8
layer1
10
27.652378
20
9.5803507
11
27.6645097
21
9.7145897
0
LINE
8
layer1
10
27.6645097
20
9.7145897
11
27.6842654
21
9.8633556
0
LINE
8
layer1
10
27.6842654
20
9.8633556
11
27.7133705
21
10.0289756
0
LINE
8
layer1
10
27.7133705
20
10.0289756
11
27.7526396
21
10.2079396
0
LINE
8
layer1
10
27.7526396
20
10.2079396
11
27.8034098
21
10.4005978
0
LINE
8
layer1
10
27.8034098
20
10.4005978
11
27.8674434
21
10.6079014
0
LINE
8
layer1
10
27.8674434
20
10.6079014
11
27.937095
21
10.8048177
0
ARC
8
layer1
10
30.0000027
20
-0.0000151
40
11
50
97.1909186
51
100.8090848
0
LINE
8
layer1
10
28.623067
20
10.913465
11
28.75016
21
10.74771
0
LINE
8
layer1
10
28.75016
20
10.74771
11
28.87512
21
10.57034
0
LINE
8
layer1
10
28.87512
20
10.57034
11
28.98294
21
10.4028
0
LINE
8
layer1
10
28.98294
20
10.4028
11
29.07559
21
10.24473
0
LINE
8
layer1
10
29.07559
20
10.24473
11
29.15445
21
10.09621
0
LINE
8
layer1
10
29.15445
20
10.09621
11
29.21921
21
9.96083
0
LINE
8
layer1
10
29.21921
20
9.96083
11
29.27223
21
9.83691
0
LINE
8
layer1
10
29.27223
20
9.83691
11
29.3135
21
9.72807
0
LINE
8
layer1
10
29.3135
20
9.72807
11
29.34519
21
9.63276
0
LINE
8
layer1
10
29.34519
20
9.63276
11
29.3683
21
9.55225
0
LINE
8
layer1
10
29.3683
20
9.55225
11
29.39471
21
9.43397
0
LINE
8
layer1
10
29.39471
20
9.43397
11
29.41039
21
9.31678
0
LINE
8
layer1
10
29.41039
20
9.31678
11
29.43262
21
9.20758
0
LINE
8
layer1
10
29.43262
20
9.20758
11
29.46225
21
9.11672
0
LINE
8
layer1
10
29.46225
20
9.11672
11
29.47936
21
9.0783
0
LINE
8
layer1
10
29.47936
20
9.0783
11
29.49776
21
9.0446
0
LINE
8
layer1
10
29.49776
20
9.0446
11
29.51725
21
9.01567
0
LINE
8
layer1
10
29.51725
20
9.01567
11
29.53763
21
8.99153
0
LINE
8
layer1
10
29.53763
20
8.99153
11
29.55873
21
8.9722
0
LINE
8
layer1
10
29.55873
20
8.9722
11
29.58034
21
8.9577
0
LINE
8
layer1
10
29.58034
20
8.9577
11
29.60227
21
8.94804
0
LINE
8
layer1
10
29.60227
20
8.94804
11
29.62433
21
8.94323
0
LINE
8
layer1
10
29.62433
20
8.94323
11
29.64085
21
8.9428
0
LINE
8
layer1
10
29.64085
20
8.9428
11
29.78959
21
8.94756
0
LINE
8
layer1
10
29.78959
20
8.94756
11
30
21
8.95
0
LINE
8
layer1
10
30
20
8.95
11
30.21041
21
8.94756
0
LINE
8
layer1
10
30.21041
20
8.94756
11
30.35915
21
8.9428
0
LINE
8
layer1
10
30.35915
20
8.9428
11
30.37567
21
8.94323
0
LINE
8
layer1
10
30.37567
20
8.94323
11
30.39773
21
8.94804
0
LINE
8
layer1
10
30.39773
20
8.94804
11
30.41966
21
8.9577
0
LINE
8
layer1
10
30.41966
20
8.9577
11
30.44127
21
8.9722
0
LINE
8
layer1
10
30.44127
20
8.9722
11
30.46237
21
8.99153
0
LINE
8
layer1
10
30.46237
20
8.99153
11
30.48275
21
9.01567
0
LINE
8
layer1
10
30.48275
20
9.01567
11
30.50224
21
9.0446
0
LINE
8
layer1
10
30.50224
20
9.0446
11
30.52064
21
9.0783
0
LINE
8
layer1
10
30.52064
20
9.0783
11
30.53775
21
9.11672
0
LINE
8
layer1
10
30.53775
20
9.11672
11
30.56738
21
9.20758
0
LINE
8
layer1
10
30.56738
20
9.20758
11
30.58961
21
9.31678
0
LINE
8
layer1
10
30.58961
20
9.31678
11
30.60529
21
9.43397
0
LINE
8
layer1
10
30.60529
20
9.43397
11
30.6317
21
9.55225
0
LINE
8
layer1
10
30.6317
20
9.55225
11
30.65481
21
9.63276
0
LINE
8
layer1
10
30.65481
20
9.63276
11
30.6865
21
9.72807
0
LINE
8
layer1
10
30.6865
20
9.72807
11
30.72777
21
9.83691
0
LINE
8
layer1
10
30.72777
20
9.83691
11
30.78079
21
9.96083
0
LINE
8
layer1
10
30.78079
20
9.96083
11
30.84555
21
10.09621
0
LINE
8
layer1
10
30.84555
20
10.09621
11
30.92441
21
10.24473
0
LINE
8
layer1
10
30.92441
20
10.24473
11
31.01706
21
10.4028
0
LINE
8
layer1
10
31.01706
20
10.4028
11
31.12488
21
10.57034
0
LINE
8
layer1
10
31.12488
20
10.57034
11
31.24984
21
10.74771
0
LINE
8
layer1
10
31.24984
20
10.74771
11
31.376933
21
10.913465
0
ARC
8
layer1
10
29.9999971
20
-0.0000151
40
11
50
79.1909147
51
82.8090809
0
LINE
8
layer1
10
32.062905
20
10.8048177
11
32.1325566
21
10.6079014
0
LINE
8
layer1
10
32.1325566
20
10.6079014
11
32.1965902
21
10.4005978
0
LINE
8
layer1
10
32.1965902
20
10.4005978
11
32.2473604
21
10.2079396
0
LINE
8
layer1
10
32.2473604
20
10.2079396
11
32.2866295
21
10.0289756
0
LINE
8
layer1
10
32.2866295
20
10.0289756
11
32.3157346
21
9.8633556
0
LINE
8
layer1
10
32.3157346
20
9.8633556
11
32.3354903
21
9.7145897
0
LINE
8
layer1
10
32.3354903
20
9.7145897
11
32.347622
21
9.5803507
0
LINE
8
layer1
10
32.347622
20
9.5803507
11
32.3532387
21
9.4640845
0
LINE
8
layer1
10
32.3532387
20
9.4640845
11
32.3539252
21
9.3636466
0
LINE
8
layer1
10
32.3539252
20
9.3636466
11
32.3510252
21
9.2799356
0
LINE
8
layer1
10
32.3510252
20
9.2799356
11
32.3395921
21
9.1592835
0
LINE
8
layer1
10
32.3395921
20
9.1592835
11
32.3182909
21
9.0429838
0
LINE
8
layer1
10
32.3182909
20
9.0429838
11
32.3056883
21
8.932259
0
LINE
8
layer1
10
32.3056883
20
8.932259
11
32.3057908
21
8.8366899
0
LINE
8
layer1
10
32.3057908
20
8.8366899
11
32.3101909
21
8.794863
0
LINE
8
layer1
10
32.3101909
20
8.794863
11
32.3172765
21
8.7571265
0
LINE
8
layer1
10
32.3172765
20
8.7571265
11
32.3268727
21
8.7235897
0
LINE
8
layer1
10
32.3268727
20
8.7235897
11
32.3387956
21
8.6943334
0
LINE
8
layer1
10
32.3387956
20
8.6943334
11
32.3528896
21
8.6694292
0
LINE
8
layer1
10
32.3528896
20
8.6694292
11
32.3689612
21
8.648961
0
LINE
8
layer1
10
32.3689612
20
8.648961
11
32.3868327
21
8.6329971
0
LINE
8
layer1
10
32.3868327
20
8.6329971
11
32.4063267
21
8.6216056
0
LINE
8
layer1
10
32.4063267
20
8.6216056
11
32.4219052
21
8.6160917
0
LINE
8
layer1
10
32.4219052
20
8.6160917
11
32.5648363
21
8.5746555
0
LINE
8
layer1
10
32.5648363
20
8.5746555
11
32.7657021
21
8.5119558
0
LINE
8
layer1
10
32.7657021
20
8.5119558
11
32.9650599
21
8.444615
0
LINE
8
layer1
10
32.9650599
20
8.444615
11
33.1050491
21
8.3941248
0
LINE
8
layer1
10
33.1050491
20
8.3941248
11
33.1208935
21
8.3894288
0
LINE
8
layer1
10
33.1208935
20
8.3894288
11
33.1433601
21
8.3871864
0
LINE
8
layer1
10
33.1433601
20
8.3871864
11
33.1672019
21
8.3895969
0
LINE
8
layer1
10
33.1672019
20
8.3895969
11
33.192235
21
8.3967093
0
LINE
8
layer1
10
33.192235
20
8.3967093
11
33.2182756
21
8.408573
0
LINE
8
layer1
10
33.2182756
20
8.408573
11
33.2451178
21
8.4252337
0
LINE
8
layer1
10
33.2451178
20
8.4252337
11
33.2725937
21
8.4467251
0
LINE
8
layer1
10
33.2725937
20
8.4467251
11
33.300507
21
8.4730898
0
LINE
8
layer1
10
33.300507
20
8.4730898
11
33.3286521
21
8.5043421
0
LINE
8
layer1
10
33.3286521
20
8.5043421
11
33.3849091
21
8.5815989
0
LINE
8
layer1
10
33.3849091
20
8.5815989
11
33.4397958
21
8.6785848
0
LINE
8
layer1
10
33.4397958
20
8.6785848
11
33.4909221
21
8.7851937
0
LINE
8
layer1
10
33.4909221
20
8.7851937
11
33.55259
21
8.8895236
0
LINE
8
layer1
10
33.55259
20
8.8895236
11
33.5994479
21
8.9589517
0
LINE
8
layer1
10
33.5994479
20
8.9589517
11
33.6590393
21
9.0398042
0
LINE
8
layer1
10
33.6590393
20
9.0398042
11
33.7319228
21
9.1305641
0
LINE
8
layer1
10
33.7319228
20
9.1305641
11
33.8206412
21
9.2320349
0
LINE
8
layer1
10
33.8206412
20
9.2320349
11
33.9240663
21
9.340777
0
LINE
8
layer1
10
33.9240663
20
9.340777
11
34.0449618
21
9.4576588
0
LINE
8
layer1
10
34.0449618
20
9.4576588
11
34.1819235
21
9.5793619
0
LINE
8
layer1
10
34.1819235
20
9.5793619
11
34.3362392
21
9.7053837
0
LINE
8
layer1
10
34.3362392
20
9.7053837
11
34.5098935
21
9.8354578
0
LINE
8
layer1
10
34.5098935
20
9.8354578
11
34.6819873
21
9.9538263
0
ARC
8
layer1
10
29.9999927
20
-0.0000135
40
11
50
61.190915
51
64.8090813
0
LINE
8
layer1
10
35.3008115
20
9.6385196
11
35.3062036
21
9.4297176
0
LINE
8
layer1
10
35.3062036
20
9.4297176
11
35.3030429
21
9.2127726
0
LINE
8
layer1
10
35.3030429
20
9.2127726
11
35.2917936
21
9.0138549
0
LINE
8
layer1
10
35.2917936
20
9.0138549
11
35.2738378
21
8.8315152
0
LINE
8
layer1
10
35.2738378
20
8.8315152
11
35.250339
21
8.6650073
0
LINE
8
layer1
10
35.250339
20
8.6650073
11
35.2231566
21
8.5174176
0
LINE
8
layer1
10
35.2231566
20
8.5174176
11
35.1932123
21
8.3859998
0
LINE
8
layer1
10
35.1932123
20
8.3859998
11
35.1626259
21
8.2736885
0
LINE
8
layer1
10
35.1626259
20
8.2736885
11
35.1322418
21
8.1779542
0
LINE
8
layer1
10
35.1322418
20
8.1779542
11
35.1036156
21
8.0992365
0
LINE
8
layer1
10
35.1036156
20
8.0992365
11
35.0554585
21
7.9880226
0
LINE
8
layer1
10
35.0554585
20
7.9880226
11
34.9992614
21
7.8839974
0
LINE
8
layer1
10
34.9992614
20
7.8839974
11
34.9530597
21
7.7825863
0
LINE
8
layer1
10
34.9530597
20
7.7825863
11
34.9236247
21
7.6916629
0
LINE
8
layer1
10
34.9236247
20
7.6916629
11
34.9148842
21
7.6505235
0
LINE
8
layer1
10
34.9148842
20
7.6505235
11
34.9099618
21
7.6124444
0
LINE
8
layer1
10
34.9099618
20
7.6124444
11
34.9087249
21
7.5775836
0
LINE
8
layer1
10
34.9087249
20
7.5775836
11
34.9110235
21
7.5460748
0
LINE
8
layer1
10
34.9110235
20
7.5460748
11
34.9167319
21
7.5180343
0
LINE
8
layer1
10
34.9167319
20
7.5180343
11
34.9256919
21
7.4936015
0
LINE
8
layer1
10
34.9256919
20
7.4936015
11
34.9377556
21
7.4728963
0
LINE
8
layer1
10
34.9377556
20
7.4728963
11
34.9527753
21
7.4560383
0
LINE
8
layer1
10
34.9527753
20
7.4560383
11
34.9658875
21
7.4459803
0
LINE
8
layer1
10
34.9658875
20
7.4459803
11
35.0890185
21
7.362404
0
LINE
8
layer1
10
35.0890185
20
7.362404
11
35.260678
21
7.2407021
0
LINE
8
layer1
10
35.260678
20
7.2407021
11
35.4294691
21
7.1150522
0
LINE
8
layer1
10
35.4294691
20
7.1150522
11
35.5470044
21
7.0237741
0
LINE
8
layer1
10
35.5470044
20
7.0237741
11
35.5606221
21
7.0144118
0
LINE
8
layer1
10
35.5606221
20
7.0144118
11
35.5812963
21
7.0053366
0
LINE
8
layer1
10
35.5812963
20
7.0053366
11
35.604716
21
7.0002616
0
LINE
8
layer1
10
35.604716
20
7.0002616
11
35.6307218
21
6.9992903
0
LINE
8
layer1
10
35.6307218
20
6.9992903
11
35.6591539
21
7.0025263
0
LINE
8
layer1
10
35.6591539
20
7.0025263
11
35.6898308
21
7.0100769
0
LINE
8
layer1
10
35.6898308
20
7.0100769
11
35.7226032
21
7.0220258
0
LINE
8
layer1
10
35.7226032
20
7.0220258
11
35.7572975
21
7.0384745
0
LINE
8
layer1
10
35.7572975
20
7.0384745
11
35.7937225
21
7.0594999
0
LINE
8
layer1
10
35.7937225
20
7.0594999
11
35.8710998
21
7.1155911
0
LINE
8
layer1
10
35.8710998
20
7.1155911
11
35.9532704
21
7.1908693
0
LINE
8
layer1
10
35.9532704
20
7.1908693
11
36.0348383
21
7.2764615
0
LINE
8
layer1
10
36.0348383
20
7.2764615
11
36.1257277
21
7.3566286
0
LINE
8
layer1
10
36.1257277
20
7.3566286
11
36.1917467
21
7.4081789
0
LINE
8
layer1
10
36.1917467
20
7.4081789
11
36.2734062
21
7.4666594
0
LINE
8
layer1
10
36.2734062
20
7.4666594
11
36.3707689
21
7.5304549
0
LINE
8
layer1
10
36.3707689
20
7.5304549
11
36.4865014
21
7.5995439
0
LINE
8
layer1
10
36.4865014
20
7.5995439
11
36.6184677
21
7.6710036
0
LINE
8
layer1
10
36.6184677
20
7.6710036
11
36.7695646
21
7.7448061
0
LINE
8
layer1
10
36.7695646
20
7.7448061
11
36.9374312
21
7.8182291
0
LINE
8
layer1
10
36.9374312
20
7.8182291
11
37.123137
21
7.8903968
0
LINE
8
layer1
10
37.123137
20
7.8903968
11
37.3284872
21
7.9604425
0
LINE
8
layer1
10
37.3284872
20
7.9604425
11
37.528736
21
8.0198377
0
ARC
8
layer1
10
29.9999892
20
-0.0000109
40
11
50
43.1909171
51
46.8090836
0
LINE
8
layer1
10
38.0198377
20
7.528736
11
37.9604425
21
7.3284872
0
LINE
8
layer1
10
37.9604425
20
7.3284872
11
37.8903968
21
7.123137
0
LINE
8
layer1
10
37.8903968
20
7.123137
11
37.8182291
21
6.9374312
0
LINE
8
layer1
10
37.8182291
20
6.9374312
11
37.7448061
21
6.7695646
0
LINE
8
layer1
10
37.7448061
20
6.7695646
11
37.6710036
21
6.6184677
0
LINE
8
layer1
10
37.6710036
20
6.6184677
11
37.5995439
21
6.4865014
0
LINE
8
layer1
10
37.5995439
20
6.4865014
11
37.5304549
21
6.3707689
0
LINE
8
layer1
10
37.5304549
20
6.3707689
11
37.4666594
21
6.2734062
0
LINE
8
layer1
10
37.4666594
20
6.2734062
11
37.4081789
21
6.1917467
0
LINE
8
layer1
10
37.4081789
20
6.1917467
11
37.3566286
21
6.1257277
0
LINE
8
layer1
10
37.3566286
20
6.1257277
11
37.2764615
21
6.0348383
0
LINE
8
layer1
10
37.2764615
20
6.0348383
11
37.1908693
21
5.9532704
0
LINE
8
layer1
10
37.1908693
20
5.9532704
11
37.1155911
21
5.8710998
0
LINE
8
layer1
10
37.1155911
20
5.8710998
11
37.0594999
21
5.7937225
0
LINE
8
layer1
10
37.0594999
20
5.7937225
11
37.0384745
21
5.7572975
0
LINE
8
layer1
10
37.0384745
20
5.7572975
11
37.0220258
21
5.7226032
0
LINE
8
layer1
10
37.0220258
20
5.7226032
11
37.0100769
21
5.6898308
0
LINE
8
layer1
10
37.0100769
20
5.6898308
11
37.0025263
21
5.6591539
0
LINE
8
layer1
10
37.0025263
20
5.6591539
11
36.9992903
21
5.6307218
0
LINE
8
layer1
10
36.9992903
20
5.6307218
11
37.0002616
21
5.604716
0
LINE
8
layer1
10
37.0002616
20
5.604716
11
37.0053366
21
5.5812963
0
LINE
8
layer1
10
37.0053366
20
5.5812963
11
37.0144118
21
5.5606221
0
LINE
8
layer1
10
37.0144118
20
5.5606221
11
37.0237741
21
5.5470044
0
LINE
8
layer1
10
37.0237741
20
5.5470044
11
37.1150522
21
5.4294691
0
LINE
8
layer1
10
37.1150522
20
5.4294691
11
37.2407021
21
5.260678
0
LINE
8
layer1
10
37.2407021
20
5.260678
11
37.362404
21
5.0890185
0
LINE
8
layer1
10
37.362404
20
5.0890185
11
37.4459803
21
4.9658875
0
LINE
8
layer1
10
37.4459803
20
4.9658875
11
37.4560383
21
4.9527753
0
LINE
8
layer1
10
37.4560383
20
4.9527753
11
37.4728963
21
4.9377556
0
LINE
8
layer1
10
37.4728963
20
4.9377556
11
37.4936015
21
4.9256919
0
LINE
8
layer1
10
37.4936015
20
4.9256919
11
37.5180343
21
4.9167319
0
LINE
8
layer1
10
37.5180343
20
4.9167319
11
37.5460748
21
4.9110235
0
LINE
8
layer1
10
37.5460748
20
4.9110235
11
37.5775836
21
4.9087249
0
LINE
8
layer1
10
37.5775836
20
4.9087249
11
37.6124444
21
4.9099618
0
LINE
8
layer1
10
37.6124444
20
4.9099618
11
37.6505235
21
4.9148842
0
LINE
8
layer1
10
37.6505235
20
4.9148842
11
37.6916629
21
4.9236247
0
LINE
8
layer1
10
37.6916629
20
4.9236247
11
37.7825863
21
4.9530597
0
LINE
8
layer1
10
37.7825863
20
4.9530597
11
37.8839974
21
4.9992614
0
LINE
8
layer1
10
37.8839974
20
4.9992614
11
37.9880226
21
5.0554585
0
LINE
8
layer1
10
37.9880226
20
5.0554585
11
38.0992365
21
5.1036156
0
LINE
8
layer1
10
38.0992365
20
5.1036156
11
38.1779542
21
5.1322418
0
LINE
8
layer1
10
38.1779542
20
5.1322418
11
38.2736885
21
5.1626259
0
LINE
8
layer1
10
38.2736885
20
5.1626259
11
38.3859998
21
5.1932123
0
LINE
8
layer1
10
38.3859998
20
5.1932123
11
38.5174176
21
5.2231566
0
LINE
8
layer1
10
38.5174176
20
5.2231566
11
38.6650073
21
5.250339
0
LINE
8
layer1
10
38.6650073
20
5.250339
11
38.8315152
21
5.2738378
0
LINE
8
layer1
10
38.8315152
20
5.2738378
11
39.0138549
21
5.2917936
0
LINE
8
layer1
10
39.0138549
20
5.2917936
11
39.2127726
21
5.3030429
0
LINE
8
layer1
10
39.2127726
20
5.3030429
11
39.4297176
21
5.3062036
0
LINE
8
layer1
10
39.4297176
20
5.3062036
11
39.6385196
21
5.3008115
0
ARC
8
layer1
10
29.9999865
20
-0.0000072
40
11
50
25.1909182
51
28.8090845
0
LINE
8
layer1
10
39.9538263
20
4.6819873
11
39.8354578
21
4.5098935
0
LINE
8
layer1
10
39.8354578
20
4.5098935
11
39.7053837
21
4.3362392
0
LINE
8
layer1
10
39.7053837
20
4.3362392
11
39.5793619
21
4.1819235
0
LINE
8
layer1
10
39.5793619
20
4.1819235
11
39.4576588
21
4.0449618
0
LINE
8
layer1
10
39.4576588
20
4.0449618
11
39.340777
21
3.9240663
0
LINE
8
layer1
10
39.340777
20
3.9240663
11
39.2320349
21
3.8206412
0
LINE
8
layer1
10
39.2320349
20
3.8206412
11
39.1305641
21
3.7319228
0
LINE
8
layer1
10
39.1305641
20
3.7319228
11
39.0398042
21
3.6590393
0
LINE
8
layer1
10
39.0398042
20
3.6590393
11
38.9589517
21
3.5994479
0
LINE
8
layer1
10
38.9589517
20
3.5994479
11
38.8895236
21
3.55259
0
LINE
8
layer1
10
38.8895236
20
3.55259
11
38.7851937
21
3.4909221
0
LINE
8
layer1
10
38.7851937
20
3.4909221
11
38.6785848
21
3.4397958
0
LINE
8
layer1
10
38.6785848
20
3.4397958
11
38.5815989
21
3.3849091
0
LINE
8
layer1
10
38.5815989
20
3.3849091
11
38.5043421
21
3.3286521
0
LINE
8
layer1
10
38.5043421
20
3.3286521
11
38.4730898
21
3.300507
0
LINE
8
layer1
10
38.4730898
20
3.300507
11
38.4467251
21
3.2725937
0
LINE
8
layer1
10
38.4467251
20
3.2725937
11
38.4252337
21
3.2451178
0
LINE
8
layer1
10
38.4252337
20
3.2451178
11
38.408573
21
3.2182756
0
LINE
8
layer1
10
38.408573
20
3.2182756
11
38.3967093
21
3.192235
0
LINE
8
layer1
10
38.3967093
20
3.192235
11
38.3895969
21
3.1672019
0
LINE
8
layer1
10
38.3895969
20
3.1672019
11
38.3871864
21
3.1433601
0
LINE
8
layer1
10
38.3871864
20
3.1433601
11
38.3894288
21
3.1208935
0
LINE
8
layer1
10
38.3894288
20
3.1208935
11
38.3941248
21
3.1050491
0
LINE
8
layer1
10
38.3941248
20
3.1050491
11
38.444615
21
2.9650599
0
LINE
8
layer1
10
38.444615
20
2.9650599
11
38.5119558
21
2.7657021
0
LINE
8
layer1
10
38.5119558
20
2.7657021
11
38.5746555
21
2.5648363
0
LINE
8
layer1
10
38.5746555
20
2.5648363
11
38.6160917
21
2.4219052
0
LINE
8
layer1
10
38.6160917
20
2.4219052
11
38.6216056
21
2.4063267
0
LINE
8
layer1
10
38.6216056
20
2.4063267
11
38.6329971
21
2.3868327
0
LINE
8
layer1
10
38.6329971
20
2.3868327
11
38.648961
21
2.3689612
0
LINE
8
layer1
10
38.648961
20
2.3689612
11
38.6694292
21
2.3528896
0
LINE
8
layer1
10
38.6694292
20
2.3528896
11
38.6943334
21
2.3387956
0
LINE
8
layer1
10
38.6943334
20
2.3387956
11
38.7235897
21
2.3268727
0
LINE
8
layer1
10
38.7235897
20
2.3268727
11
38.7571265
21
2.3172765
0
LINE
8
layer1
10
38.7571265
20
2.3172765
11
38.794863
21
2.3101909
0
LINE
8
layer1
10
38.794863
20
2.3101909
11
38.8366899
21
2.3057908
0
LINE
8
layer1
10
38.8366899
20
2.3057908
11
38.932259
21
2.3056883
0
LINE
8
layer1
10
38.932259
20
2.3056883
11
39.0429838
21
2.3182909
0
LINE
8
layer1
10
39.0429838
20
2.3182909
11
39.1592835
21
2.3395921
0
LINE
8
layer1
10
39.1592835
20
2.3395921
11
39.2799356
21
2.3510252
0
LINE
8
layer1
10
39.2799356
20
2.3510252
11
39.3636466
21
2.3539252
0
LINE
8
layer1
10
39.3636466
20
2.3539252
11
39.4640845
21
2.3532387
0
LINE
8
layer1
10
39.4640845
20
2.3532387
11
39.5803507
21
2.347622
0
LINE
8
layer1
10
39.5803507
20
2.347622
11
39.7145897
21
2.3354903
0
LINE
8
layer1
10
39.7145897
20
2.3354903
11
39.8633556
21
2.3157346
0
LINE
8
layer1
10
39.8633556
20
2.3157346
11
40.0289756
21
2.2866295
0
LINE
8
layer1
10
40.0289756
20
2.2866295
11
40.2079396
21
2.2473604
0
LINE
8
layer1
10
40.2079396
20
2.2473604
11
40.4005978
21
2.1965902
0
LINE
8
layer1
10
40.4005978
20
2.1965902
11
40.6079014
21
2.1325566
0
LINE
8
layer1
10
40.6079014
20
2.1325566
11
40.8048177
21
2.062905
0
ARC
8
layer1
10
29.9999849
20
-0.0000027
40
11
50
7.1909186
51
10.8090848
0
LINE
8
layer1
10
40.913465
20
1.376933
11
40.74771
21
1.24984
0
LINE
8
layer1
10
40.74771
20
1.24984
11
40.57034
21
1.12488
0
LINE
8
layer1
10
40.57034
20
1.12488
11
40.4028
21
1.01706
0
LINE
8
layer1
10
40.4028
20
1.01706
11
40.24473
21
0.92441
0
LINE
8
layer1
10
40.24473
20
0.92441
11
40.09621
21
0.84555
0
LINE
8
layer1
10
40.09621
20
0.84555
11
39.96083
21
0.78079
0
LINE
8
layer1
10
39.96083
20
0.78079
11
39.83691
21
0.72777
0
LINE
8
layer1
10
39.83691
20
0.72777
11
39.72807
21
0.6865
0
LINE
8
layer1
10
39.72807
20
0.6865
11
39.63276
21
0.65481
0
LINE
8
layer1
10
39.63276
20
0.65481
11
39.55225
21
0.6317
0
LINE
8
layer1
10
39.55225
20
0.6317
11
39.43397
21
0.60529
0
LINE
8
layer1
10
39.43397
20
0.60529
11
39.31678
21
0.58961
0
LINE
8
layer1
10
39.31678
20
0.58961
11
39.20758
21
0.56738
0
LINE
8
layer1
10
39.20758
20
0.56738
11
39.11672
21
0.53775
0
LINE
8
layer1
10
39.11672
20
0.53775
11
39.0783
21
0.52064
0
LINE
8
layer1
10
39.0783
20
0.52064
11
39.0446
21
0.50224
0
LINE
8
layer1
10
39.0446
20
0.50224
11
39.01567
21
0.48275
0
LINE
8
layer1
10
39.01567
20
0.48275
11
38.99153
21
0.46237
0
LINE
8
layer1
10
38.99153
20
0.46237
11
38.9722
21
0.44127
0
LINE
8
layer1
10
38.9722
20
0.44127
11
38.9577
21
0.41966
0
LINE
8
layer1
10
38.9577
20
0.41966
11
38.94804
21
0.39773
0
LINE
8
layer1
10
38.94804
20
0.39773
11
38.94323
21
0.37567
0
LINE
8
layer1
10
38.94323
20
0.37567
11
38.9428
21
0.35915
0
LINE
8
layer1
10
38.9428
20
0.35915
11
38.94756
21
0.21041
0
LINE
8
layer1
10
38.94756
20
0.21041
11
38.95
21
0
0
LINE
8
layer1
10
38.95
20
0
11
38.94756
21
-0.21041
0
LINE
8
layer1
10
38.94756
20
-0.21041
11
38.9428
21
-0.35915
0
LINE
8
layer1
10
38.9428
20
-0.35915
11
38.94323
21
-0.37567
0
LINE
8
layer1
10
38.94323
20
-0.37567
11
38.94804
21
-0.39773
0
LINE
8
layer1
10
38.94804
20
-0.39773
11
38.9577
21
-0.41966
0
LINE
8
layer1
10
38.9577
20
-0.41966
11
38.9722
21
-0.44127
0
LINE
8
layer1
10
38.9722
20
-0.44127
11
38.99153
21
-0.46237
0
LINE
8
layer1
10
38.99153
20
-0.46237
11
39.01567
21
-0.48275
0
LINE
8
layer1
10
39.01567
20
-0.48275
11
39.0446
21
-0.50224
0
LINE
8
layer1
10
39.0446
20
-0.50224
11
39.0783
21
-0.52064
0
LINE
8
layer1
10
39.0783
20
-0.52064
11
39.11672
21
-0.53775
0
LINE
8
layer1
10
39.11672
20
-0.53775
11
39.20758
21
-0.56738
0
LINE
8
layer1
10
39.20758
20
-0.56738
11
39.31678
21
-0.58961
0
LINE
8
layer1
10
39.31678
20
-0.58961
11
39.43397
21
-0.60529
0
LINE
8
layer1
10
39.43397
20
-0.60529
11
39.55225
21
-0.6317
0
LINE
8
layer1
10
39.55225
20
-0.6317
11
39.63276
21
-0.65481
0
LINE
8
layer1
10
39.63276
20
-0.65481
11
39.72807
21
-0.6865
0
LINE
8
layer1
10
39.72807
20
-0.6865
11
39.83691
21
-0.72777
0
LINE
8
layer1
10
39.83691
20
-0.72777
11
39.96083
21
-0.78079
0
LINE
8
layer1
10
39.96083
20
-0.78079
11
40.09621
21
-0.84555
0
LINE
8
layer1
10
40.09621
20
-0.84555
11
40.24473
21
-0.92441
0
LINE
8
layer1
10
40.24473
20
-0.92441
11
40.4028
21
-1.01706
0
LINE
8
layer1
10
40.4028
20
-1.01706
11
40.57034
21
-1.12488
0
LINE
8
layer1
10
40.57034
20
-1.12488
11
40.74771
21
-1.24984
0
LINE
8
layer1
10
40.74771
20
-1.24984
11
40.913465
21
-1.376933
0
ARC
8
layer1
10
29.9999849
20
0.0000029
40
11
50
349.1909147
51
352.8090809
0
LINE
8
layer1
10
40.8048177
20
-2.062905
11
40.6079014
21
-2.1325566
0
LINE
8
layer1
10
40.6079014
20
-2.1325566
11
40.4005978
21
-2.1965902
0
LINE
8
layer1
10
40.4005978
20
-2.1965902
11
40.2079396
21
-2.2473604
0
LINE
8
layer1
10
40.2079396
20
-2.2473604
11
40.0289756
21
-2.2866295
0
LINE
8
layer1
10
40.0289756
20
-2.2866295
11
39.8633556
21
-2.3157346
0
LINE
8
layer1
10
39.8633556
20
-2.3157346
11
39.7145897
21
-2.3354903
0
LINE
8
layer1
10
39.7145897
20
-2.3354903
11
39.5803507
21
-2.347622
0
LINE
8
layer1
10
39.5803507
20
-2.347622
11
39.4640845
21
-2.3532387
0
LINE
8
layer1
10
39.4640845
20
-2.3532387
11
39.3636466
21
-2.3539252
0
LINE
8
layer1
10
39.3636466
20
-2.3539252
11
39.2799356
21
-2.3510252
0
LINE
8
layer1
10
39.2799356
20
-2.3510252
11
39.1592835
21
-2.3395921
0
LINE
8
layer1
10
39.1592835
20
-2.3395921
11
39.0429838
21
-2.3182909
0
LINE
8
layer1
10
39.0429838
20
-2.3182909
11
38.932259
21
-2.3056883
0
LINE
8
layer1
10
38.932259
20
-2.3056883
11
38.8366899
21
-2.3057908
0
LINE
8
layer1
10
38.8366899
20
-2.3057908
11
38.794863
21
-2.3101909
0
LINE
8
layer1
10
38.794863
20
-2.3101909
11
38.7571265
21
-2.3172765
0
LINE
8
layer1
10
38.7571265
20
-2.3172765
11
38.7235897
21
-2.3268727
0
LINE
8
layer1
10
38.7235897
20
-2.3268727
11
38.6943334
21
-2.3387956
0
LINE
8
layer1
10
38.6943334
20
-2.3387956
11
38.6694292
21
-2.3528896
0
LINE
8
layer1
10
38.6694292
20
-2.3528896
11
38.648961
21
-2.3689612
0
LINE
8
layer1
10
38.648961
20
-2.3689612
11
38.6329971
21
-2.3868327
0
LINE
8
layer1
10
38.6329971
20
-2.3868327
11
38.6216056
21
-2.4063267
0
LINE
8
layer1
10
38.6216056
20
-2.4063267
11
38.6160917
21
-2.4219052
0
LINE
8
layer1
10
38.6160917
20
-2.4219052
11
38.5746555
21
-2.5648363
0
LINE
8
layer1
10
38.5746555
20
-2.5648363
11
38.5119558
21
-2.7657021
0
LINE
8
layer1
10
38.5119558
20
-2.7657021
11
38.444615
21
-2.9650599
0
LINE
8
layer1
10
38.444615
20
-2.9650599
11
38.3941248
21
-3.1050491
0
LINE
8
layer1
10
38.3941248
20
-3.1050491
11
38.3894288
21
-3.1208935
0
LINE
8
layer1
10
38.3894288
20
-3.1208935
11
38.3871864
21
-3.1433601
0
LINE
8
layer1
10
38.3871864
20
-3.1433601
11
38.3895969
21
-3.1672019
0
LINE
8
layer1
10
38.3895969
20
-3.1672019
11
38.3967093
21
-3.192235
0
LINE
8
layer1
10
38.3967093
20
-3.192235
11
38.408573
21
-3.2182756
0
LINE
8
layer1
10
38.408573
20
-3.2182756
11
38.4252337
21
-3.2451178
0
LINE
8
layer1
10
38.4252337
20
-3.2451178
11
38.4467251
21
-3.2725937
0
LINE
8
layer1
10
38.4467251
20
-3.2725937
11
38.4730898
21
-3.300507
0
LINE
8
layer1
10
38.4730898
20
-3.300507
11
38.5043421
21
-3.3286521
0
LINE
8
layer1
10
38.5043421
20
-3.3286521
11
38.5815989
21
-3.3849091
0
LINE
8
layer1
10
38.5815989
20
-3.3849091
11
38.6785848
21
-3.4397958
0
LINE
8
layer1
10
38.6785848
20
-3.4397958
11
38.7851937
21
-3.4909221
0
LINE
8
layer1
10
38.7851937
20
-3.4909221
11
38.8895236
21
-3.55259
0
LINE
8
layer1
10
38.8895236
20
-3.55259
11
38.9589517
21
-3.5994479
0
LINE
8
layer1
10
38.9589517
20
-3.5994479
11
39.0398042
21
-3.6590393
0
LINE
8
layer1
10
39.0398042
20
-3.6590393
11
39.1305641
21
-3.7319228
0
LINE
8
layer1
10
39.1305641
20
-3.7319228
11
39.2320349
21
-3.8206412
0
LINE
8
layer1
10
39.2320349
20
-3.8206412
11
39.340777
21
-3.9240663
0
LINE
8
layer1
10
39.340777
20
-3.9240663
11
39.4576588
21
-4.0449618
0
LINE
8
layer1
10
39.4576588
20
-4.0449618
11
39.5793619
21
-4.1819235
0
LINE
8
layer1
10
39.5793619
20
-4.1819235
11
39.7053837
21
-4.3362392
0
LINE
8
layer1
10
39.7053837
20
-4.3362392
11
39.8354578
21
-4.5098935
0
LINE
8
layer1
10
39.8354578
20
-4.5098935
11
39.9538263
21
-4.6819873
0
ARC
8
layer1
10
29.9999865
20
0.0000073
40
11
50
331.190915
51
334.8090813
0
LINE
8
layer1
10
39.6385196
20
-5.3008115
11
39.4297176
21
-5.3062036
0
LINE
8
layer1
10
39.4297176
20
-5.3062036
11
39.2127726
21
-5.3030429
0
LINE
8
layer1
10
39.2127726
20
-5.3030429
11
39.0138549
21
-5.2917936
0
LINE
8
layer1
10
39.0138549
20
-5.2917936
11
38.8315152
21
-5.2738378
0
LINE
8
layer1
10
38.8315152
20
-5.2738378
11
38.6650073
21
-5.250339
0
LINE
8
layer1
10
38.6650073
20
-5.250339
11
38.5174176
21
-5.2231566
0
LINE
8
layer1
10
38.5174176
20
-5.2231566
11
38.3859998
21
-5.1932123
0
LINE
8
layer1
10
38.3859998
20
-5.1932123
11
38.2736885
21
-5.1626259
0
LINE
8
layer1
10
38.2736885
20
-5.1626259
11
38.1779542
21
-5.1322418
0
LINE
8
layer1
10
38.1779542
20
-5.1322418
11
38.0992365
21
-5.1036156
0
LINE
8
layer1
10
38.0992365
20
-5.1036156
11
37.9880226
21
-5.0554585
0
LINE
8
layer1
10
37.9880226
20
-5.0554585
11
37.8839974
21
-4.9992614
0
LINE
8
layer1
10
37.8839974
20
-4.9992614
11
37.7825863
21
-4.9530597
0
LINE
8
layer1
10
37.7825863
20
-4.9530597
11
37.6916629
21
-4.9236247
0
LINE
8
layer1
10
37.6916629
20
-4.9236247
11
37.6505235
21
-4.9148842
0
LINE
8
layer1
10
37.6505235
20
-4.9148842
11
37.6124444
21
-4.9099618
0
LINE
8
layer1
10
37.6124444
20
-4.9099618
11
37.5775836
21
-4.9087249
0
LINE
8
layer1
10
37.5775836
20
-4.9087249
11
37.5460748
21
-4.9110235
0
LINE
8
layer1
10
37.5460748
20
-4.9110235
11
37.5180343
21
-4.9167319
0
LINE
8
layer1
10
37.5180343
20
-4.9167319
11
37.4936015
21
-4.9256919
0
LINE
8
layer1
10
37.4936015
20
-4.9256919
11
37.4728963
21
-4.9377556
0
LINE
8
layer1
10
37.4728963
20
-4.9377556
11
37.4560383
21
-4.9527753
0
LINE
8
layer1
10
37.4560383
20
-4.9527753
11
37.4459803
21
-4.9658875
0
LINE
8
layer1
10
37.4459803
20
-4.9658875
11
37.362404
21
-5.0890185
0
LINE
8
layer1
10
37.362404
20
-5.0890185
11
37.2407021
21
-5.260678
0
LINE
8
layer1
10
37.2407021
20
-5.260678
11
37.1150522
21
-5.4294691
0
LINE
8
layer1
10
37.1150522
20
-5.4294691
11
37.0237741
21
-5.5470044
0
LINE
8
layer1
10
37.0237741
20
-5.5470044
11
37.0144118
21
-5.5606221
0
LINE
8
layer1
10
37.0144118
20
-5.5606221
11
37.0053366
21
-5.5812963
0
LINE
8
layer1
10
37.0053366
20
-5.5812963
11
37.0002616
21
-5.604716
0
LINE
8
layer1
10
37.0002616
20
-5.604716
11
36.9992903
21
-5.6307218
0
LINE
8
layer1
10
36.9992903
20
-5.6307218
11
37.0025263
21
-5.6591539
0
LINE
8
layer1
10
37.0025263
20
-5.6591539
11
37.0100769
21
-5.6898308
0
LINE
8
layer1
10
37.0100769
20
-5.6898308
11
37.0220258
21
-5.7226032
0
LINE
8
layer1
10
37.0220258
20
-5.7226032
11
37.0384745
21
-5.7572975
0
LINE
8
layer1
10
37.0384745
20
-5.7572975
11
37.0594999
21
-5.7937225
0
LINE
8
layer1
10
37.0594999
20
-5.7937225
11
37.1155911
21
-5.8710998
0
LINE
8
layer1
10
37.1155911
20
-5.8710998
11
37.1908693
21
-5.9532704
0
LINE
8
layer1
10
37.1908693
20
-5.9532704
11
37.2764615
21
-6.0348383
0
LINE
8
layer1
10
37.2764615
20
-6.0348383
11
37.3566286
21
-6.1257277
0
LINE
8
layer1
10
37.3566286
20
-6.1257277
11
37.4081789
21
-6.1917467
0
LINE
8
layer1
10
37.4081789
20
-6.1917467
11
37.4666594
21
-6.2734062
0
LINE
8
layer1
10
37.4666594
20
-6.2734062
11
37.5304549
21
-6.3707689
0
LINE
8
layer1
10
37.5304549
20
-6.3707689
11
37.5995439
21
-6.4865014
0
LINE
8
layer1
10
37.5995439
20
-6.4865014
11
37.6710036
21
-6.6184677
0
LINE
8
layer1
10
37.6710036
20
-6.6184677
11
37.7448061
21
-6.7695646
0
LINE
8
layer1
10
37.7448061
20
-6.7695646
11
37.8182291
21
-6.9374312
0
LINE
8
layer1
10
37.8182291
20
-6.9374312
11
37.8903968
21
-7.123137
0
LINE
8
layer1
10
37.8903968
20
-7.123137
11
37.9604425
21
-7.3284872
0
LINE
8
layer1
10
37.9604425
20
-7.3284872
11
38.0198377
21
-7.528736
0
ARC
8
layer1
10
29.9999891
20
0.0000108
40
11
50
313.1909171
51
316.8090836
0
LINE
8
layer1
10
37.528736
20
-8.0198377
11
37.3284872
21
-7.9604425
0
LINE
8
layer1
10
37.3284872
20
-7.9604425
11
37.123137
21
-7.8903968
0
LINE
8
layer1
10
37.123137
20
-7.8903968
11
36.9374312
21
-7.8182291
0
LINE
8
layer1
10
36.9374312
20
-7.8182291
11
36.7695646
21
-7.7448061
0
LINE
8
layer1
10
36.7695646
20
-7.7448061
11
36.6184677
21
-7.6710036
0
LINE
8
layer1
10
36.6184677
20
-7.6710036
11
36.4865014
21
-7.5995439
0
LINE
8
layer1
10
36.4865014
20
-7.5995439
11
36.3707689
21
-7.5304549
0
LINE
8
layer1
10
36.3707689
20
-7.5304549
11
36.2734062
21
-7.4666594
0
LINE
8
layer1
10
36.2734062
20
-7.4666594
11
36.1917467
21
-7.4081789
0
LINE
8
layer1
10
36.1917467
20
-7.4081789
11
36.1257277
21
-7.3566286
0
LINE
8
layer1
10
36.1257277
20
-7.3566286
11
36.0348383
21
-7.2764615
0
LINE
8
layer1
10
36.0348383
20
-7.2764615
11
35.9532704
21
-7.1908693
0
LINE
8
layer1
10
35.9532704
20
-7.1908693
11
35.8710998
21
-7.1155911
0
LINE
8
layer1
10
35.8710998
20
-7.1155911
11
35.7937225
21
-7.0594999
0
LINE
8
layer1
10
35.7937225
20
-7.0594999
11
35.7572975
21
-7.0384745
0
LINE
8
layer1
10
35.7572975
20
-7.0384745
11
35.7226032
21
-7.0220258
0
LINE
8
layer1
10
35.7226032
20
-7.0220258
11
35.6898308
21
-7.0100769
0
LINE
8
layer1
10
35.6898308
20
-7.0100769
11
35.6591539
21
-7.0025263
0
LINE
8
layer1
10
35.6591539
20
-7.0025263
11
35.6307218
21
-6.9992903
0
LINE
8
layer1
10
35.6307218
20
-6.9992903
11
35.604716
21
-7.0002616
0
LINE
8
layer1
10
35.604716
20
-7.0002616
11
35.5812963
21
-7.0053366
0
LINE
8
layer1
10
35.5812963
20
-7.0053366
11
35.5606221
21
-7.0144118
0
LINE
8
layer1
10
35.5606221
20
-7.0144118
11
35.5470044
21
-7.0237741
0
LINE
8
layer1
10
35.5470044
20
-7.0237741
11
35.4294691
21
-7.1150522
0
LINE
8
layer1
10
35.4294691
20
-7.1150522
11
35.260678
21
-7.2407021
0
LINE
8
layer1
10
35.260678
20
-7.2407021
11
35.0890185
21
-7.362404
0
LINE
8
layer1
10
35.0890185
20
-7.362404
11
34.9658875
21
-7.4459803
0
LINE
8
layer1
10
34.9658875
20
-7.4459803
11
34.9527753
21
-7.4560383
0
LINE
8
layer1
10
34.9527753
20
-7.4560383
11
34.9377556
21
-7.4728963
0
LINE
8
layer1
10
34.9377556
20
-7.4728963
11
34.9256919
21
-7.4936015
0
LINE
8
layer1
10
34.9256919
20
-7.4936015
11
34.9167319
21
-7.5180343
0
LINE
8
layer1
10
34.9167319
20
-7.5180343
11
34.9110235
21
-7.5460748
0
LINE
8
layer1
10
34.9110235
20
-7.5460748
11
34.9087249
21
-7.5775836
0
LINE
8
layer1
10
34.9087249
20
-7.5775836
11
34.9099618
21
-7.6124444
0
LINE
8
layer1
10
34.9099618
20
-7.6124444
11
34.9148842
21
-7.6505235
0
LINE
8
layer1
10
34.9148842
20
-7.6505235
11
34.9236247
21
-7.6916629
0
LINE
8
layer1
10
34.9236247
20
-7.6916629
11
34.9530597
21
-7.7825863
0
LINE
8
layer1
10
34.9530597
20
-7.7825863
11
34.9992614
21
-7.8839974
0
LINE
8
layer1
10
34.9992614
20
-7.8839974
11
35.0554585
21
-7.9880226
0
LINE
8
layer1
10
35.0554585
20
-7.9880226
11
35.1036156
21
-8.0992365
0
LINE
8
layer1
10
35.1036156
20
-8.0992365
11
35.1322418
21
-8.1779542
0
LINE
8
layer1
10
35.1322418
20
-8.1779542
11
35.1626259
21
-8.2736885
0
LINE
8
layer1
10
35.1626259
20
-8.2736885
11
35.1932123
21
-8.3859998
0
LINE
8
layer1
10
35.1932123
20
-8.3859998
11
35.2231566
21
-8.5174176
0
LINE
8
layer1
10
35.2231566
20
-8.5174176
11
35.250339
21
-8.6650073
0
LINE
8
layer1
10
35.250339
20
-8.6650073
11
35.2738378
21
-8.8315152
0
LINE
8
layer1
10
35.2738378
20
-8.8315152
11
35.2917936
21
-9.0138549
0
LINE
8
layer1
10
35.2917936
20
-9.0138549
11
35.3030429
21
-9.2127726
0
LINE
8
layer1
10
35.3030429
20
-9.2127726
11
35.3062036
21
-9.4297176
0
LINE
8
layer1
10
35.3062036
20
-9.4297176
11
35.3008115
21
-9.6385196
0
ARC
8
layer1
10
29.9999928
20
0.0000135
40
11
50
295.1909182
51
298.8090845
0
LINE
8
layer1
10
34.6819873
20
-9.9538263
11
34.5098935
21
-9.8354578
0
LINE
8
layer1
10
34.5098935
20
-9.8354578
11
34.3362392
21
-9.7053837
0
LINE
8
layer1
10
34.3362392
20
-9.7053837
11
34.1819235
21
-9.5793619
0
LINE
8
layer1
10
34.1819235
20
-9.5793619
11
34.0449618
21
-9.4576588
0
LINE
8
layer1
10
34.0449618
20
-9.4576588
11
33.9240663
21
-9.340777
0
LINE
8
layer1
10
33.9240663
20
-9.340777
11
33.8206412
21
-9.2320349
0
LINE
8
layer1
10
33.8206412
20
-9.2320349
11
33.7319228
21
-9.1305641
0
LINE
8
layer1
10
33.7319228
20
-9.1305641
11
33.6590393
21
-9.0398042
0
LINE
8
layer1
10
33.6590393
20
-9.0398042
11
33.5994479
21
-8.9589517
0
LINE
8
layer1
10
33.5994479
20
-8.9589517
11
33.55259
21
-8.8895236
0
LINE
8
layer1
10
33.55259
20
-8.8895236
11
33.4909221
21
-8.7851937
0
LINE
8
layer1
10
33.4909221
20
-8.7851937
11
33.4397958
21
-8.6785848
0
LINE
8
layer1
10
33.4397958
20
-8.6785848
11
33.3849091
21
-8.5815989
0
LINE
8
layer1
10
33.3849091
20
-8.5815989
11
33.3286521
21
-8.5043421
0
LINE
8
layer1
10
33.3286521
20
-8.5043421
11
33.300507
21
-8.4730898
0
LINE
8
layer1
10
33.300507
20
-8.4730898
11
33.2725937
21
-8.4467251
0
LINE
8
layer1
10
33.2725937
20
-8.4467251
11
33.2451178
21
-8.4252337
0
LINE
8
layer1
10
33.2451178
20
-8.4252337
11
33.2182756
21
-8.408573
0
LINE
8
layer1
10
33.2182756
20
-8.408573
11
33.192235
21
-8.3967093
0
LINE
8
layer1
10
33.192235
20
-8.3967093
11
33.1672019
21
-8.3895969
0
LINE
8
layer1
10
33.1672019
20
-8.3895969
11
33.1433601
21
-8.3871864
0
LINE
8
layer1
10
33.1433601
20
-8.3871864
11
33.1208935
21
-8.3894288
0
LINE
8
layer1
10
33.1208935
20
-8.3894288
11
33.1050491
21
-8.3941248
0
LINE
8
layer1
10
33.1050491
20
-8.3941248
11
32.9650599
21
-8.444615
0
LINE
8
layer1
10
32.9650599
20
-8.444615
11
32.7657021
21
-8.5119558
0
LINE
8
layer1
10
32.7657021
20
-8.5119558
11
32.5648363
21
-8.5746555
0
LINE
8
layer1
10
32.5648363
20
-8.5746555
11
32.4219052
21
-8.6160917
0
LINE
8
layer1
10
32.4219052
20
-8.6160917
11
32.4063267
21
-8.6216056
0
LINE
8
layer1
10
32.4063267
20
-8.6216056
11
32.3868327
21
-8.6329971
0
LINE
8
layer1
10
32.3868327
20
-8.6329971
11
32.3689612
21
-8.648961
0
LINE
8
layer1
10
32.3689612
20
-8.648961
11
32.3528896
21
-8.6694292
0
LINE
8
layer1
10
32.3528896
20
-8.6694292
11
32.3387956
21
-8.6943334
0
LINE
8
layer1
10
32.3387956
20
-8.6943334
11
32.3268727
21
-8.7235897
0
LINE
8
layer1
10
32.3268727
20
-8.7235897
11
32.3172765
21
-8.7571265
0
LINE
8
layer1
10
32.3172765
20
-8.7571265
11
32.3101909
21
-8.794863
0
LINE
8
layer1
10
32.3101909
20
-8.794863
11
32.3057908
21
-8.8366899
0
LINE
8
layer1
10
32.3057908
20
-8.8366899
11
32.3056883
21
-8.932259
0
LINE
8
layer1
10
32.3056883
20
-8.932259
11
32.3182909
21
-9.0429838
0
LINE
8
layer1
10
32.3182909
20
-9.0429838
11
32.3395921
21
-9.1592835
0
LINE
8
layer1
10
32.3395921
20
-9.1592835
11
32.3510252
21
-9.2799356
0
LINE
8
layer1
10
32.3510252
20
-9.2799356
11
32.3539252
21
-9.3636466
0
LINE
8
layer1
10
32.3539252
20
-9.3636466
11
32.3532387
21
-9.4640845
0
LINE
8
layer1
10
32.3532387
20
-9.4640845
11
32.347622
21
-9.5803507
0
LINE
8
layer1
10
32.347622
20
-9.5803507
11
32.3354903
21
-9.7145897
0
LINE
8
layer1
10
32.3354903
20
-9.7145897
11
32.3157346
21
-9.8633556
0
LINE
8
layer1
10
32.3157346
20
-9.8633556
11
32.2866295
21
-10.0289756
0
LINE
8
layer1
10
32.2866295
20
-10.0289756
11
32.2473604
21
-10.2079396
0
LINE
8
layer1
10
32.2473604
20
-10.2079396
11
32.1965902
21
-10.4005978
0
LINE
8
layer1
10
32.1965902
20
-10.4005978
11
32.1325566
21
-10.6079014
0
LINE
8
layer1
10
32.1325566
20
-10.6079014
11
32.062905
21
-10.8048177
0
ARC
8
layer1
10
29.9999973
20
0.0000151
40
11
50
277.1909186
51
280.8090848
0
LINE
8
layer1
10
31.376933
20
-10.913465
11
31.24984
21
-10.74771
0
LINE
8
layer1
10
31.24984
20
-10.74771
11
31.12488
21
-10.57034
0
LINE
8
layer1
10
31.12488
20
-10.57034
11
31.01706
21
-10.4028
0
LINE
8
layer1
10
31.01706
20
-10.4028
11
30.92441
21
-10.24473
0
LINE
8
layer1
10
30.92441
20
-10.24473
11
30.84555
21
-10.09621
0
LINE
8
layer1
10
30.84555
20
-10.09621
11
30.78079
21
-9.96083
0
LINE
8
layer1
10
30.78079
20
-9.96083
11
30.72777
21
-9.83691
0
LINE
8
layer1
10
30.72777
20
-9.83691
11
30.6865
21
-9.72807
0
LINE
8
layer1
10
30.6865
20
-9.72807
11
30.65481
21
-9.63276
0
LINE
8
layer1
10
30.65481
20
-9.63276
11
30.6317
21
-9.55225
0
LINE
8
layer1
10
30.6317
20
-9.55225
11
30.60529
21
-9.43397
0
LINE
8
layer1
10
30.60529
20
-9.43397
11
30.58961
21
-9.31678
0
LINE
8
layer1
10
30.58961
20
-9.31678
11
30.56738
21
-9.20758
0
LINE
8
layer1
10
30.56738
20
-9.20758
11
30.53775
21
-9.11672
0
LINE
8
layer1
10
30.53775
20
-9.11672
11
30.52064
21
-9.0783
0
LINE
8
layer1
10
30.52064
20
-9.0783
11
30.50224
21
-9.0446
0
LINE
8
layer1
10
30.50224
20
-9.0446
11
30.48275
21
-9.01567
0
LINE
8
layer1
10
30.48275
20
-9.01567
11
30.46237
21
-8.99153
0
LINE
8
layer1
10
30.46237
20
-8.99153
11
30.44127
21
-8.9722
0
LINE
8
layer1
10
30.44127
20
-8.9722
11
30.41966
21
-8.9577
0
LINE
8
layer1
10
30.41966
20
-8.9577
11
30.39773
21
-8.94804
0
LINE
8
layer1
10
30.39773
20
-8.94804
11
30.37567
21
-8.94323
0
LINE
8
layer1
10
30.37567
20
-8.94323
11
30.35915
21
-8.9428
0
LINE
8
layer1
10
30.35915
20
-8.9428
11
30.21041
21
-8.94756
0
LINE
8
layer1
10
30.21041
20
-8.94756
11
30
21
-8.95
0
LINE
8
layer1
10
30
20
-8.95
11
29.78959
21
-8.94756
0
LINE
8
layer1
10
29.78959
20
-8.94756
11
29.64085
21
-8.9428
0
LINE
8
layer1
10
29.64085
20
-8.9428
11
29.62433
21
-8.94323
0
LINE
8
layer1
10
29.62433
20
-8.94323
11
29.60227
21
-8.94804
0
LINE
8
layer1
10
29.60227
20
-8.94804
11
29.58034
21
-8.9577
0
LINE
8
layer1
10
29.58034
20
-8.9577
11
29.55873
21
-8.9722
0
LINE
8
layer1
10
29.55873
20
-8.9722
11
29.53763
21
-8.99153
0
LINE
8
layer1
10
29.53763
20
-8.99153
11
29.51725
21
-9.01567
0
LINE
8
layer1
10
29.51725
20
-9.01567
11
29.49776
21
-9.0446
0
LINE
8
layer1
10
29.49776
20
-9.0446
11
29.47936
21
-9.0783
0
LINE
8
layer1
10
29.47936
20
-9.0783
11
29.46225
21
-9.11672
0
LINE
8
layer1
10
29.46225
20
-9.11672
11
29.43262
21
-9.20758
0
LINE
8
layer1
10
29.43262
20
-9.20758
11
29.41039
21
-9.31678
0
LINE
8
layer1
10
29.41039
20
-9.31678
11
29.39471
21
-9.43397
0
LINE
8
layer1
10
29.39471
20
-9.43397
11
29.3683
21
-9.55225
0
LINE
8
layer1
10
29.3683
20
-9.55225
11
29.34519
21
-9.63276
0
LINE
8
layer1
10
29.34519
20
-9.63276
11
29.3135
21
-9.72807
0
LINE
8
layer1
10
29.3135
20
-9.72807
11
29.27223
21
-9.83691
0
LINE
8
layer1
10
29.27223
20
-9.83691
11
29.21921
21
-9.96083
0
LINE
8
layer1
10
29.21921
20
-9.96083
11
29.15445
21
-10.09621
0
LINE
8
layer1
10
29.15445
20
-10.09621
11
29.07559
21
-10.24473
0
LINE
8
layer1
10
29.07559
20
-10.24473
11
28.98294
21
-10.4028
0
LINE
8
layer1
10
28.98294
20
-10.4028
11
28.87512
21
-10.57034
0
LINE
8
layer1
10
28.87512
20
-10.57034
11
28.75016
21
-10.74771
0
LINE
8
layer1
10
28.75016
20
-10.74771
11
28.623067
21
-10.913465
0
ARC
8
layer1
10
30.0000029
20
0.0000151
40
11
50
259.1909147
51
262.8090809
0
LINE
8
layer1
10
27.937095
20
-10.8048177
11
27.8674434
21
-10.6079014
0
LINE
8
layer1
10
27.8674434
20
-10.6079014
11
27.8034098
21
-10.4005978
0
LINE
8
layer1
10
27.8034098
20
-10.4005978
11
27.7526396
21
-10.2079396
0
LINE
8
layer1
10
27.7526396
20
-10.2079396
11
27.7133705
21
-10.0289756
0
LINE
8
layer1
10
27.7133705
20
-10.0289756
11
27.6842654
21
-9.8633556
0
LINE
8
layer1
10
27.6842654
20
-9.8633556
11
27.6645097
21
-9.7145897
0
LINE
8
layer1
10
27.6645097
20
-9.7145897
11
27.652378
21
-9.5803507
0
LINE
8
layer1
10
27.652378
20
-9.5803507
11
27.6467613
21
-9.4640845
0
LINE
8
layer1
10
27.6467613
20
-9.4640845
11
27.6460748
21
-9.3636466
0
LINE
8
layer1
10
27.6460748
20
-9.3636466
11
27.6489748
21
-9.2799356
0
LINE
8
layer1
10
27.6489748
20
-9.2799356
11
27.6604079
21
-9.1592835
0
LINE
8
layer1
10
27.6604079
20
-9.1592835
11
27.6817091
21
-9.0429838
0
LINE
8
layer1
10
27.6817091
20
-9.0429838
11
27.6943117
21
-8.932259
0
LINE
8
layer1
10
27.6943117
20
-8.932259
11
27.6942092
21
-8.8366899
0
LINE
8
layer1
10
27.6942092
20
-8.8366899
11
27.6898091
21
-8.794863
0
LINE
8
layer1
10
27.6898091
20
-8.794863
11
27.6827235
21
-8.7571265
0
LINE
8
layer1
10
27.6827235
20
-8.7571265
11
27.6731273
21
-8.7235897
0
LINE
8
layer1
10
27.6731273
20
-8.7235897
11
27.6612044
21
-8.6943334
0
LINE
8
layer1
10
27.6612044
20
-8.6943334
11
27.6471104
21
-8.6694292
0
LINE
8
layer1
10
27.6471104
20
-8.6694292
11
27.6310388
21
-8.648961
0
LINE
8
layer1
10
27.6310388
20
-8.648961
11
27.6131673
21
-8.6329971
0
LINE
8
layer1
10
27.6131673
20
-8.6329971
11
27.5936733
21
-8.6216056
0
LINE
8
layer1
10
27.5936733
20
-8.6216056
11
27.5780948
21
-8.6160917
0
LINE
8
layer1
10
27.5780948
20
-8.6160917
11
27.4351637
21
-8.5746555
0
LINE
8
layer1
10
27.4351637
20
-8.5746555
11
27.2342979
21
-8.5119558
0
LINE
8
layer1
10
27.2342979
20
-8.5119558
11
27.0349401
21
-8.444615
0
LINE
8
layer1
10
27.0349401
20
-8.444615
11
26.8949509
21
-8.3941248
0
LINE
8
layer1
10
26.8949509
20
-8.3941248
11
26.8791065
21
-8.3894288
0
LINE
8
layer1
10
26.8791065
20
-8.3894288
11
26.8566399
21
-8.3871864
0
LINE
8
layer1
10
26.8566399
20
-8.3871864
11
26.8327981
21
-8.3895969
0
LINE
8
layer1
10
26.8327981
20
-8.3895969
11
26.807765
21
-8.3967093
0
LINE
8
layer1
10
26.807765
20
-8.3967093
11
26.7817244
21
-8.408573
0
LINE
8
layer1
10
26.7817244
20
-8.408573
11
26.7548822
21
-8.4252337
0
LINE
8
layer1
10
26.7548822
20
-8.4252337
11
26.7274063
21
-8.4467251
0
LINE
8
layer1
10
26.7274063
20
-8.4467251
11
26.699493
21
-8.4730898
0
LINE
8
layer1
10
26.699493
20
-8.4730898
11
26.6713479
21
-8.5043421
0
LINE
8
layer1
10
26.6713479
20
-8.5043421
11
26.6150909
21
-8.5815989
0
LINE
8
layer1
10
26.6150909
20
-8.5815989
11
26.5602042
21
-8.6785848
0
LINE
8
layer1
10
26.5602042
20
-8.6785848
11
26.5090779
21
-8.7851937
0
LINE
8
layer1
10
26.5090779
20
-8.7851937
11
26.44741
21
-8.8895236
0
LINE
8
layer1
10
26.44741
20
-8.8895236
11
26.4005521
21
-8.9589517
0
LINE
8
layer1
10
26.4005521
20
-8.9589517
11
26.3409607
21
-9.0398042
0
LINE
8
layer1
10
26.3409607
20
-9.0398042
11
26.2680772
21
-9.1305641
0
LINE
8
layer1
10
26.2680772
20
-9.1305641
11
26.1793588
21
-9.2320349
0
LINE
8
layer1
10
26.1793588
20
-9.2320349
11
26.0759337
21
-9.340777
0
LINE
8
layer1
10
26.0759337
20
-9.340777
11
25.9550382
21
-9.4576588
0
LINE
8
layer1
10
25.9550382
20
-9.4576588
11
25.8180765
21
-9.5793619
0
LINE
8
layer1
10
25.8180765
20
-9.5793619
11
25.6637608
21
-9.7053837
0
LINE
8
layer1
10
25.6637608
20
-9.7053837
11
25.4901065
21
-9.8354578
0
LINE
8
layer1
10
25.4901065
20
-9.8354578
11
25.3180127
21
-9.9538263
0
ARC
8
layer1
10
30.0000073
20
0.0000135
40
11
50
241.190915
51
244.8090813
0
LINE
8
layer1
10
24.6991885
20
-9.6385196
11
24.6937964
21
-9.4297176
0
LINE
8
layer1
10
24.6937964
20
-9.4297176
11
24.6969571
21
-9.2127726
0
LINE
8
layer1
10
24.6969571
20
-9.2127726
11
24.7082064
21
-9.0138549
0
LINE
8
layer1
10
24.7082064
20
-9.0138549
11
24.7261622
21
-8.8315152
0
LINE
8
layer1
10
24.7261622
20
-8.8315152
11
24.749661
21
-8.6650073
0
LINE
8
layer1
10
24.749661
20
-8.6650073
11
24.7768434
21
-8.5174176
0
LINE
8
layer1
10
24.7768434
20
-8.5174176
11
24.8067877
21
-8.3859998
0
LINE
8
layer1
10
24.8067877
20
-8.3859998
11
24.8373741
21
-8.2736885
0
LINE
8
layer1
10
24.8373741
20
-8.2736885
11
24.8677582
21
-8.1779542
0
LINE
8
layer1
10
24.8677582
20
-8.1779542
11
24.8963844
21
-8.0992365
0
LINE
8
layer1
10
24.8963844
20
-8.0992365
11
24.9445415
21
-7.9880226
0
LINE
8
layer1
10
24.9445415
20
-7.9880226
11
25.0007386
21
-7.8839974
0
LINE
8
layer1
10
25.0007386
20
-7.8839974
11
25.0469403
21
-7.7825863
0
LINE
8
layer1
10
25.0469403
20
-7.7825863
11
25.0763753
21
-7.6916629
0
LINE
8
layer1
10
25.0763753
20
-7.6916629
11
25.0851158
21
-7.6505235
0
LINE
8
layer1
10
25.0851158
20
-7.6505235
11
25.0900382
21
-7.6124444
0
LINE
8
layer1
10
25.0900382
20
-7.6124444
11
25.0912751
21
-7.5775836
0
LINE
8
layer1
10
25.0912751
20
-7.5775836
11
25.0889765
21
-7.5460748
0
LINE
8
layer1
10
25.0889765
20
-7.5460748
11
25.0832681
21
-7.5180343
0
LINE
8
layer1
10
25.0832681
20
-7.5180343
11
25.0743081
21
-7.4936015
0
LINE
8
layer1
10
25.0743081
20
-7.4936015
11
25.0622444
21
-7.4728963
0
LINE
8
layer1
10
25.0622444
20
-7.4728963
11
25.0472247
21
-7.4560383
0
LINE
8
layer1
10
25.0472247
20
-7.4560383
11
25.0341125
21
-7.4459803
0
LINE
8
layer1
10
25.0341125
20
-7.4459803
11
24.9109815
21
-7.362404
0
LINE
8
layer1
10
24.9109815
20
-7.362404
11
24.739322
21
-7.2407021
0
LINE
8
layer1
10
24.739322
20
-7.2407021
11
24.5705309
21
-7.1150522
0
LINE
8
layer1
10
24.5705309
20
-7.1150522
11
24.4529956
21
-7.0237741
0
LINE
8
layer1
10
24.4529956
20
-7.0237741
11
24.4393779
21
-7.0144118
0
LINE
8
layer1
10
24.4393779
20
-7.0144118
11
24.4187037
21
-7.0053366
0
LINE
8
layer1
10
24.4187037
20
-7.0053366
11
24.395284
21
-7.0002616
0
LINE
8
layer1
10
24.395284
20
-7.0002616
11
24.3692782
21
-6.9992903
0
LINE
8
layer1
10
24.3692782
20
-6.9992903
11
24.3408461
21
-7.0025263
0
LINE
8
layer1
10
24.3408461
20
-7.0025263
11
24.3101692
21
-7.0100769
0
LINE
8
layer1
10
24.3101692
20
-7.0100769
11
24.2773968
21
-7.0220258
0
LINE
8
layer1
10
24.2773968
20
-7.0220258
11
24.2427025
21
-7.0384745
0
LINE
8
layer1
10
24.2427025
20
-7.0384745
11
24.2062775
21
-7.0594999
0
LINE
8
layer1
10
24.2062775
20
-7.0594999
11
24.1289002
21
-7.1155911
0
LINE
8
layer1
10
24.1289002
20
-7.1155911
11
24.0467296
21
-7.1908693
0
LINE
8
layer1
10
24.0467296
20
-7.1908693
11
23.9651617
21
-7.2764615
0
LINE
8
layer1
10
23.9651617
20
-7.2764615
11
23.8742723
21
-7.3566286
0
LINE
8
layer1
10
23.8742723
20
-7.3566286
11
23.8082533
21
-7.4081789
0
LINE
8
layer1
10
23.8082533
20
-7.4081789
11
23.7265938
21
-7.4666594
0
LINE
8
layer1
10
23.7265938
20
-7.4666594
11
23.6292311
21
-7.5304549
0
LINE
8
layer1
10
23.6292311
20
-7.5304549
11
23.5134986
21
-7.5995439
0
LINE
8
layer1
10
23.5134986
20
-7.5995439
11
23.3815323
21
-7.6710036
0
LINE
8
layer1
10
23.3815323
20
-7.6710036
11
23.2304354
21
-7.7448061
0
LINE
8
layer1
10
23.2304354
20
-7.7448061
11
23.0625688
21
-7.8182291
0
LINE
8
layer1
10
23.0625688
20
-7.8182291
11
22.876863
21
-7.8903968
0
LINE
8
layer1
10
22.876863
20
-7.8903968
11
22.6715128
21
-7.9604425
0
LINE
8
layer1
10
22.6715128
20
-7.9604425
11
22.471264
21
-8.0198377
0
ARC
8
layer1
10
30.0000108
20
0.0000109
40
11
50
223.1909171
51
226.8090836
0
LINE
8
layer1
10
21.9801623
20
-7.528736
11
22.0395575
21
-7.3284872
0
LINE
8
layer1
10
22.0395575
20
-7.3284872
11
22.1096032
21
-7.123137
0
LINE
8
layer1
10
22.1096032
20
-7.123137
11
22.1817709
21
-6.9374312
0
LINE
8
layer1
10
22.1817709
20
-6.9374312
11
22.2551939
21
-6.7695646
0
LINE
8
layer1
10
22.2551939
20
-6.7695646
11
22.3289964
21
-6.6184677
0
LINE
8
layer1
10
22.3289964
20
-6.6184677
11
22.4004561
21
-6.4865014
0
LINE
8
layer1
10
22.4004561
20
-6.4865014
11
22.4695451
21
-6.3707689
0
LINE
8
layer1
10
22.4695451
20
-6.3707689
11
22.5333406
21
-6.2734062
0
LINE
8
layer1
10
22.5333406
20
-6.2734062
11
22.5918211
21
-6.1917467
0
LINE
8
layer1
10
22.5918211
20
-6.1917467
11
22.6433714
21
-6.1257277
0
LINE
8
layer1
10
22.6433714
20
-6.1257277
11
22.7235385
21
-6.0348383
0
LINE
8
layer1
10
22.7235385
20
-6.0348383
11
22.8091307
21
-5.9532704
0
LINE
8
layer1
10
22.8091307
20
-5.9532704
11
22.8844089
21
-5.8710998
0
LINE
8
layer1
10
22.8844089
20
-5.8710998
11
22.9405001
21
-5.7937225
0
LINE
8
layer1
10
22.9405001
20
-5.7937225
11
22.9615255
21
-5.7572975
0
LINE
8
layer1
10
22.9615255
20
-5.7572975
11
22.9779742
21
-5.7226032
0
LINE
8
layer1
10
22.9779742
20
-5.7226032
11
22.9899231
21
-5.6898308
0
LINE
8
layer1
10
22.9899231
20
-5.6898308
11
22.9974737
21
-5.6591539
0
LINE
8
layer1
10
22.9974737
20
-5.6591539
11
23.0007097
21
-5.6307218
0
LINE
8
layer1
10
23.0007097
20
-5.6307218
11
22.9997384
21
-5.604716
0
LINE
8
layer1
10
22.9997384
20
-5.604716
11
22.9946634
21
-5.5812963
0
LINE
8
layer1
10
22.9946634
20
-5.5812963
11
22.9855882
21
-5.5606221
0
LINE
8
layer1
10
22.9855882
20
-5.5606221
11
22.9762259
21
-5.5470044
0
LINE
8
layer1
10
22.9762259
20
-5.5470044
11
22.8849478
21
-5.4294691
0
LINE
8
layer1
10
22.8849478
20
-5.4294691
11
22.7592979
21
-5.260678
0
LINE
8
layer1
10
22.7592979
20
-5.260678
11
22.637596
21
-5.0890185
0
LINE
8
layer1
10
22.637596
20
-5.0890185
11
22.5540197
21
-4.9658875
0
LINE
8
layer1
10
22.5540197
20
-4.9658875
11
22.5439617
21
-4.9527753
0
LINE
8
layer1
10
22.5439617
20
-4.9527753
11
22.5271037
21
-4.9377556
0
LINE
8
layer1
10
22.5271037
20
-4.9377556
11
22.5063985
21
-4.9256919
0
LINE
8
layer1
10
22.5063985
20
-4.9256919
11
22.4819657
21
-4.9167319
0
LINE
8
layer1
10
22.4819657
20
-4.9167319
11
22.4539252
21
-4.9110235
0
LINE
8
layer1
10
22.4539252
20
-4.9110235
11
22.4224164
21
-4.9087249
0
LINE
8
layer1
10
22.4224164
20
-4.9087249
11
22.3875556
21
-4.9099618
0
LINE
8
layer1
10
22.3875556
20
-4.9099618
11
22.3494765
21
-4.9148842
0
LINE
8
layer1
10
22.3494765
20
-4.9148842
11
22.3083371
21
-4.9236247
0
LINE
8
layer1
10
22.3083371
20
-4.9236247
11
22.2174137
21
-4.9530597
0
LINE
8
layer1
10
22.2174137
20
-4.9530597
11
22.1160026
21
-4.9992614
0
LINE
8
layer1
10
22.1160026
20
-4.9992614
11
22.0119774
21
-5.0554585
0
LINE
8
layer1
10
22.0119774
20
-5.0554585
11
21.9007635
21
-5.1036156
0
LINE
8
layer1
10
21.9007635
20
-5.1036156
11
21.8220458
21
-5.1322418
0
LINE
8
layer1
10
21.8220458
20
-5.1322418
11
21.7263115
21
-5.1626259
0
LINE
8
layer1
10
21.7263115
20
-5.1626259
11
21.6140002
21
-5.1932123
0
LINE
8
layer1
10
21.6140002
20
-5.1932123
11
21.4825824
21
-5.2231566
0
LINE
8
layer1
10
21.4825824
20
-5.2231566
11
21.3349927
21
-5.250339
0
LINE
8
layer1
10
21.3349927
20
-5.250339
11
21.1684848
21
-5.2738378
0
LINE
8
layer1
10
21.1684848
20
-5.2738378
11
20.9861451
21
-5.2917936
0
LINE
8
layer1
10
20.9861451
20
-5.2917936
11
20.7872274
21
-5.3030429
0
LINE
8
layer1
10
20.7872274
20
-5.3030429
11
20.5702824
21
-5.3062036
0
LINE
8
layer1
10
20.5702824
20
-5.3062036
11
20.3614804
21
-5.3008115
0
ARC
8
layer1
10
30.0000135
20
0.0000072
40
11
50
205.1909182
51
208.8090845
0
LINE
8
layer1
10
20.0461737
20
-4.6819873
11
20.1645422
21
-4.5098935
0
ENDSEC
0
EOF